<?xml version="1.0" encoding="UTF-8" standalone="no"?>
<!DOCTYPE svg PUBLIC "-//W3C//DTD SVG 1.1//EN"
 "http://www.w3.org/Graphics/SVG/1.1/DTD/svg11.dtd">
<!-- Generated by graphviz version 2.38.0 (20140413.2041)
 -->
<!-- Title: rm_data_view Pages: 1 -->
<svg width="2246pt" height="1580pt"
 viewBox="0.00 0.00 2246.09 1579.60" xmlns="http://www.w3.org/2000/svg" xmlns:xlink="http://www.w3.org/1999/xlink">
<g id="graph0" class="graph" transform="scale(1 1) rotate(0) translate(4 1575.6)">
<title>rm_data_view</title>
<polygon fill="white" stroke="none" points="-4,4 -4,-1575.6 2242.09,-1575.6 2242.09,4 -4,4"/>
<text text-anchor="middle" x="1119.04" y="-1551.4" font-family="Courier,monospace" font-size="18.00">multiple_runs</text>
<g id="clust1" class="cluster"><title>cluster_workflow</title>
<polygon fill="none" stroke="black" stroke-width="2" points="8,-8 8,-1534 2230.09,-1534 2230.09,-8 8,-8"/>
</g>
<g id="clust2" class="cluster"><title>cluster_workflow_inner</title>
<polygon fill="none" stroke="white" stroke-width="2" points="16,-16 16,-1526 2222.09,-1526 2222.09,-16 16,-16"/>
</g>
<!-- script_A -->
<g id="node1" class="node"><title>script_A</title>
<polygon fill="black" stroke="black" points="504.826,-870 421.448,-870 421.448,-834 504.826,-834 504.826,-870"/>
<text text-anchor="middle" x="463.137" y="-847.8" font-family="Courier,monospace" font-weight="bold" font-size="14.00" fill="white">script_A</text>
</g>
<!-- 5F2C759B1ABA0897215FA817B42E34F1D11AC69FA015DABB39F8D11C66AD8428 -->
<g id="node5" class="node"><title>5F2C759B1ABA0897215FA817B42E34F1D11AC69FA015DABB39F8D11C66AD8428</title>
<path fill="#ffe4b5" stroke="black" d="M1287.59,-779C1287.59,-779 950.502,-779 950.502,-779 944.502,-779 938.502,-773 938.502,-767 938.502,-767 938.502,-755 938.502,-755 938.502,-749 944.502,-743 950.502,-743 950.502,-743 1287.59,-743 1287.59,-743 1293.59,-743 1299.59,-749 1299.59,-755 1299.59,-755 1299.59,-767 1299.59,-767 1299.59,-773 1293.59,-779 1287.59,-779"/>
<text text-anchor="middle" x="1119.04" y="-758.3" font-family="Courier,monospace" font-weight="bold" font-size="9.00">5F2C759B1ABA0897215FA817B42E34F1D11AC69FA015DABB39F8D11C66AD8428</text>
</g>
<!-- script_A&#45;&gt;5F2C759B1ABA0897215FA817B42E34F1D11AC69FA015DABB39F8D11C66AD8428 -->
<g id="edge33" class="edge"><title>script_A&#45;&gt;5F2C759B1ABA0897215FA817B42E34F1D11AC69FA015DABB39F8D11C66AD8428</title>
<path fill="none" stroke="black" d="M474.981,-833.812C487.856,-814.173 511.335,-783.963 540.731,-771 698.925,-701.239 906.005,-720.938 1024.3,-741.219"/>
<polygon fill="black" stroke="black" points="1023.95,-744.713 1034.41,-742.992 1025.16,-737.818 1023.95,-744.713"/>
</g>
<!-- 82B667C61651DDB70F639CF0A71509FAA1193CC4CB39654389B1EC8B29D86E4B -->
<g id="node18" class="node"><title>82B667C61651DDB70F639CF0A71509FAA1193CC4CB39654389B1EC8B29D86E4B</title>
<path fill="#ffe4b5" stroke="black" d="M890.045,-816C890.045,-816 552.96,-816 552.96,-816 546.96,-816 540.96,-810 540.96,-804 540.96,-804 540.96,-792 540.96,-792 540.96,-786 546.96,-780 552.96,-780 552.96,-780 890.045,-780 890.045,-780 896.045,-780 902.045,-786 902.045,-792 902.045,-792 902.045,-804 902.045,-804 902.045,-810 896.045,-816 890.045,-816"/>
<text text-anchor="middle" x="721.502" y="-795.3" font-family="Courier,monospace" font-weight="bold" font-size="9.00">82B667C61651DDB70F639CF0A71509FAA1193CC4CB39654389B1EC8B29D86E4B</text>
</g>
<!-- script_A&#45;&gt;82B667C61651DDB70F639CF0A71509FAA1193CC4CB39654389B1EC8B29D86E4B -->
<g id="edge34" class="edge"><title>script_A&#45;&gt;82B667C61651DDB70F639CF0A71509FAA1193CC4CB39654389B1EC8B29D86E4B</title>
<path fill="none" stroke="black" d="M505.041,-835.969C516.46,-831.938 528.965,-827.929 540.731,-825 550.931,-822.461 561.519,-820.125 572.223,-817.983"/>
<polygon fill="black" stroke="black" points="572.927,-821.412 582.077,-816.071 571.593,-814.54 572.927,-821.412"/>
</g>
<!-- CB46669463FF3826CB13FC164852E83EB7D60ED6A09CC5EA7D9EDE0395C1A192 -->
<g id="node31" class="node"><title>CB46669463FF3826CB13FC164852E83EB7D60ED6A09CC5EA7D9EDE0395C1A192</title>
<path fill="#ffe4b5" stroke="black" d="M890.045,-870C890.045,-870 552.96,-870 552.96,-870 546.96,-870 540.96,-864 540.96,-858 540.96,-858 540.96,-846 540.96,-846 540.96,-840 546.96,-834 552.96,-834 552.96,-834 890.045,-834 890.045,-834 896.045,-834 902.045,-840 902.045,-846 902.045,-846 902.045,-858 902.045,-858 902.045,-864 896.045,-870 890.045,-870"/>
<text text-anchor="middle" x="721.502" y="-849.3" font-family="Courier,monospace" font-weight="bold" font-size="9.00">CB46669463FF3826CB13FC164852E83EB7D60ED6A09CC5EA7D9EDE0395C1A192</text>
</g>
<!-- script_A&#45;&gt;CB46669463FF3826CB13FC164852E83EB7D60ED6A09CC5EA7D9EDE0395C1A192 -->
<g id="edge35" class="edge"><title>script_A&#45;&gt;CB46669463FF3826CB13FC164852E83EB7D60ED6A09CC5EA7D9EDE0395C1A192</title>
<path fill="none" stroke="black" d="M504.759,-852C512.639,-852 521.364,-852 530.658,-852"/>
<polygon fill="black" stroke="black" points="530.952,-855.5 540.952,-852 530.952,-848.5 530.952,-855.5"/>
</g>
<!-- F1CFFD748D8CA4DEE6CC404225F4EAD314A4D73C5E159812B33FEE3C1871D30C -->
<g id="node32" class="node"><title>F1CFFD748D8CA4DEE6CC404225F4EAD314A4D73C5E159812B33FEE3C1871D30C</title>
<path fill="#ffe4b5" stroke="black" d="M890.045,-924C890.045,-924 552.96,-924 552.96,-924 546.96,-924 540.96,-918 540.96,-912 540.96,-912 540.96,-900 540.96,-900 540.96,-894 546.96,-888 552.96,-888 552.96,-888 890.045,-888 890.045,-888 896.045,-888 902.045,-894 902.045,-900 902.045,-900 902.045,-912 902.045,-912 902.045,-918 896.045,-924 890.045,-924"/>
<text text-anchor="middle" x="721.502" y="-903.3" font-family="Courier,monospace" font-weight="bold" font-size="9.00">F1CFFD748D8CA4DEE6CC404225F4EAD314A4D73C5E159812B33FEE3C1871D30C</text>
</g>
<!-- script_A&#45;&gt;F1CFFD748D8CA4DEE6CC404225F4EAD314A4D73C5E159812B33FEE3C1871D30C -->
<g id="edge36" class="edge"><title>script_A&#45;&gt;F1CFFD748D8CA4DEE6CC404225F4EAD314A4D73C5E159812B33FEE3C1871D30C</title>
<path fill="none" stroke="black" d="M505.041,-868.031C516.46,-872.062 528.965,-876.071 540.731,-879 550.931,-881.539 561.519,-883.875 572.223,-886.017"/>
<polygon fill="black" stroke="black" points="571.593,-889.46 582.077,-887.929 572.927,-882.588 571.593,-889.46"/>
</g>
<!-- 2ADED50E5F1104F8F81F449F06DC9A7BEA9443ABF307FEA76E1BC14E8B072A27 -->
<g id="node34" class="node"><title>2ADED50E5F1104F8F81F449F06DC9A7BEA9443ABF307FEA76E1BC14E8B072A27</title>
<path fill="#ffe4b5" stroke="black" d="M890.045,-978C890.045,-978 552.96,-978 552.96,-978 546.96,-978 540.96,-972 540.96,-966 540.96,-966 540.96,-954 540.96,-954 540.96,-948 546.96,-942 552.96,-942 552.96,-942 890.045,-942 890.045,-942 896.045,-942 902.045,-948 902.045,-954 902.045,-954 902.045,-966 902.045,-966 902.045,-972 896.045,-978 890.045,-978"/>
<text text-anchor="middle" x="721.502" y="-957.3" font-family="Courier,monospace" font-weight="bold" font-size="9.00">2ADED50E5F1104F8F81F449F06DC9A7BEA9443ABF307FEA76E1BC14E8B072A27</text>
</g>
<!-- script_A&#45;&gt;2ADED50E5F1104F8F81F449F06DC9A7BEA9443ABF307FEA76E1BC14E8B072A27 -->
<g id="edge37" class="edge"><title>script_A&#45;&gt;2ADED50E5F1104F8F81F449F06DC9A7BEA9443ABF307FEA76E1BC14E8B072A27</title>
<path fill="none" stroke="black" d="M475.802,-870.172C489.074,-889.198 512.595,-918.309 540.731,-933 544.25,-934.837 547.857,-936.559 551.535,-938.173"/>
<polygon fill="black" stroke="black" points="550.234,-941.422 560.815,-941.964 552.881,-934.942 550.234,-941.422"/>
</g>
<!-- script_B -->
<g id="node2" class="node"><title>script_B</title>
<polygon fill="black" stroke="black" points="1160.73,-870 1077.36,-870 1077.36,-834 1160.73,-834 1160.73,-870"/>
<text text-anchor="middle" x="1119.04" y="-847.8" font-family="Courier,monospace" font-weight="bold" font-size="14.00" fill="white">script_B</text>
</g>
<!-- CDCE5913BB36A5061F5514FD849AB34A2F548B983B36072120362DB23BE0B9DC -->
<g id="node35" class="node"><title>CDCE5913BB36A5061F5514FD849AB34A2F548B983B36072120362DB23BE0B9DC</title>
<path fill="#ffe4b5" stroke="black" d="M1685.13,-816C1685.13,-816 1348.04,-816 1348.04,-816 1342.04,-816 1336.04,-810 1336.04,-804 1336.04,-804 1336.04,-792 1336.04,-792 1336.04,-786 1342.04,-780 1348.04,-780 1348.04,-780 1685.13,-780 1685.13,-780 1691.13,-780 1697.13,-786 1697.13,-792 1697.13,-792 1697.13,-804 1697.13,-804 1697.13,-810 1691.13,-816 1685.13,-816"/>
<text text-anchor="middle" x="1516.59" y="-795.3" font-family="Courier,monospace" font-weight="bold" font-size="9.00">CDCE5913BB36A5061F5514FD849AB34A2F548B983B36072120362DB23BE0B9DC</text>
</g>
<!-- script_B&#45;&gt;CDCE5913BB36A5061F5514FD849AB34A2F548B983B36072120362DB23BE0B9DC -->
<g id="edge38" class="edge"><title>script_B&#45;&gt;CDCE5913BB36A5061F5514FD849AB34A2F548B983B36072120362DB23BE0B9DC</title>
<path fill="none" stroke="black" d="M1160.88,-846.424C1210.85,-839.603 1298.11,-827.69 1373.58,-817.388"/>
<polygon fill="black" stroke="black" points="1374.23,-820.831 1383.66,-816.01 1373.28,-813.895 1374.23,-820.831"/>
</g>
<!-- 3E9E84B654B30E212F8004AB1E573ADFA5B35AB7772FBBEE93F93519D7DE3030 -->
<g id="node36" class="node"><title>3E9E84B654B30E212F8004AB1E573ADFA5B35AB7772FBBEE93F93519D7DE3030</title>
<path fill="#ffe4b5" stroke="black" d="M1685.13,-870C1685.13,-870 1348.04,-870 1348.04,-870 1342.04,-870 1336.04,-864 1336.04,-858 1336.04,-858 1336.04,-846 1336.04,-846 1336.04,-840 1342.04,-834 1348.04,-834 1348.04,-834 1685.13,-834 1685.13,-834 1691.13,-834 1697.13,-840 1697.13,-846 1697.13,-846 1697.13,-858 1697.13,-858 1697.13,-864 1691.13,-870 1685.13,-870"/>
<text text-anchor="middle" x="1516.59" y="-849.3" font-family="Courier,monospace" font-weight="bold" font-size="9.00">3E9E84B654B30E212F8004AB1E573ADFA5B35AB7772FBBEE93F93519D7DE3030</text>
</g>
<!-- script_B&#45;&gt;3E9E84B654B30E212F8004AB1E573ADFA5B35AB7772FBBEE93F93519D7DE3030 -->
<g id="edge39" class="edge"><title>script_B&#45;&gt;3E9E84B654B30E212F8004AB1E573ADFA5B35AB7772FBBEE93F93519D7DE3030</title>
<path fill="none" stroke="black" d="M1160.88,-852C1200.43,-852 1263.34,-852 1325.27,-852"/>
<polygon fill="black" stroke="black" points="1325.6,-855.5 1335.6,-852 1325.6,-848.5 1325.6,-855.5"/>
</g>
<!-- 6B25B74EC20601DCDEB2864C83557F722E32083D833A635E4C280F741D3C7FDD -->
<g id="node38" class="node"><title>6B25B74EC20601DCDEB2864C83557F722E32083D833A635E4C280F741D3C7FDD</title>
<path fill="#ffe4b5" stroke="black" d="M1685.13,-924C1685.13,-924 1348.04,-924 1348.04,-924 1342.04,-924 1336.04,-918 1336.04,-912 1336.04,-912 1336.04,-900 1336.04,-900 1336.04,-894 1342.04,-888 1348.04,-888 1348.04,-888 1685.13,-888 1685.13,-888 1691.13,-888 1697.13,-894 1697.13,-900 1697.13,-900 1697.13,-912 1697.13,-912 1697.13,-918 1691.13,-924 1685.13,-924"/>
<text text-anchor="middle" x="1516.59" y="-903.3" font-family="Courier,monospace" font-weight="bold" font-size="9.00">6B25B74EC20601DCDEB2864C83557F722E32083D833A635E4C280F741D3C7FDD</text>
</g>
<!-- script_B&#45;&gt;6B25B74EC20601DCDEB2864C83557F722E32083D833A635E4C280F741D3C7FDD -->
<g id="edge40" class="edge"><title>script_B&#45;&gt;6B25B74EC20601DCDEB2864C83557F722E32083D833A635E4C280F741D3C7FDD</title>
<path fill="none" stroke="black" d="M1160.88,-857.576C1210.85,-864.397 1298.11,-876.31 1373.58,-886.612"/>
<polygon fill="black" stroke="black" points="1373.28,-890.105 1383.66,-887.99 1374.23,-883.169 1373.28,-890.105"/>
</g>
<!-- script_C -->
<g id="node3" class="node"><title>script_C</title>
<polygon fill="black" stroke="black" points="1816.64,-843 1733.26,-843 1733.26,-807 1816.64,-807 1816.64,-843"/>
<text text-anchor="middle" x="1774.95" y="-820.8" font-family="Courier,monospace" font-weight="bold" font-size="14.00" fill="white">script_C</text>
</g>
<!-- 0C46DBB4A07906AF9F91F09E04919A90108FEE10453F096E1079841CAA0C001D -->
<g id="node39" class="node"><title>0C46DBB4A07906AF9F91F09E04919A90108FEE10453F096E1079841CAA0C001D</title>
<path fill="#ffe4b5" stroke="black" d="M2201.86,-762C2201.86,-762 1864.78,-762 1864.78,-762 1858.78,-762 1852.78,-756 1852.78,-750 1852.78,-750 1852.78,-738 1852.78,-738 1852.78,-732 1858.78,-726 1864.78,-726 1864.78,-726 2201.86,-726 2201.86,-726 2207.86,-726 2213.86,-732 2213.86,-738 2213.86,-738 2213.86,-750 2213.86,-750 2213.86,-756 2207.86,-762 2201.86,-762"/>
<text text-anchor="middle" x="2033.32" y="-741.3" font-family="Courier,monospace" font-weight="bold" font-size="9.00">0C46DBB4A07906AF9F91F09E04919A90108FEE10453F096E1079841CAA0C001D</text>
</g>
<!-- script_C&#45;&gt;0C46DBB4A07906AF9F91F09E04919A90108FEE10453F096E1079841CAA0C001D -->
<g id="edge41" class="edge"><title>script_C&#45;&gt;0C46DBB4A07906AF9F91F09E04919A90108FEE10453F096E1079841CAA0C001D</title>
<path fill="none" stroke="black" d="M1796.17,-806.749C1810.78,-794.618 1831.56,-779.422 1852.55,-771 1857.76,-768.907 1863.13,-766.974 1868.59,-765.189"/>
<polygon fill="black" stroke="black" points="1869.98,-768.421 1878.51,-762.135 1867.93,-761.731 1869.98,-768.421"/>
</g>
<!-- 192E9062906B3A792C95EEFA0D26F37A27209A6F51A09E69BC6C89CB79E0AC33 -->
<g id="node40" class="node"><title>192E9062906B3A792C95EEFA0D26F37A27209A6F51A09E69BC6C89CB79E0AC33</title>
<path fill="#ffe4b5" stroke="black" d="M2201.86,-816C2201.86,-816 1864.78,-816 1864.78,-816 1858.78,-816 1852.78,-810 1852.78,-804 1852.78,-804 1852.78,-792 1852.78,-792 1852.78,-786 1858.78,-780 1864.78,-780 1864.78,-780 2201.86,-780 2201.86,-780 2207.86,-780 2213.86,-786 2213.86,-792 2213.86,-792 2213.86,-804 2213.86,-804 2213.86,-810 2207.86,-816 2201.86,-816"/>
<text text-anchor="middle" x="2033.32" y="-795.3" font-family="Courier,monospace" font-weight="bold" font-size="9.00">192E9062906B3A792C95EEFA0D26F37A27209A6F51A09E69BC6C89CB79E0AC33</text>
</g>
<!-- script_C&#45;&gt;192E9062906B3A792C95EEFA0D26F37A27209A6F51A09E69BC6C89CB79E0AC33 -->
<g id="edge42" class="edge"><title>script_C&#45;&gt;192E9062906B3A792C95EEFA0D26F37A27209A6F51A09E69BC6C89CB79E0AC33</title>
<path fill="none" stroke="black" d="M1816.57,-820.722C1826.82,-819.642 1838.5,-818.412 1851,-817.096"/>
<polygon fill="black" stroke="black" points="1851.61,-820.551 1861.19,-816.023 1850.88,-813.59 1851.61,-820.551"/>
</g>
<!-- 217F6762E376849F8C5440C79078E5B73BFCC4CF054965842D99A3A2B4335F5B -->
<g id="node41" class="node"><title>217F6762E376849F8C5440C79078E5B73BFCC4CF054965842D99A3A2B4335F5B</title>
<path fill="#ffe4b5" stroke="black" d="M2201.86,-870C2201.86,-870 1864.78,-870 1864.78,-870 1858.78,-870 1852.78,-864 1852.78,-858 1852.78,-858 1852.78,-846 1852.78,-846 1852.78,-840 1858.78,-834 1864.78,-834 1864.78,-834 2201.86,-834 2201.86,-834 2207.86,-834 2213.86,-840 2213.86,-846 2213.86,-846 2213.86,-858 2213.86,-858 2213.86,-864 2207.86,-870 2201.86,-870"/>
<text text-anchor="middle" x="2033.32" y="-849.3" font-family="Courier,monospace" font-weight="bold" font-size="9.00">217F6762E376849F8C5440C79078E5B73BFCC4CF054965842D99A3A2B4335F5B</text>
</g>
<!-- script_C&#45;&gt;217F6762E376849F8C5440C79078E5B73BFCC4CF054965842D99A3A2B4335F5B -->
<g id="edge43" class="edge"><title>script_C&#45;&gt;217F6762E376849F8C5440C79078E5B73BFCC4CF054965842D99A3A2B4335F5B</title>
<path fill="none" stroke="black" d="M1816.57,-829.278C1826.82,-830.358 1838.5,-831.588 1851,-832.904"/>
<polygon fill="black" stroke="black" points="1850.88,-836.41 1861.19,-833.977 1851.61,-829.449 1850.88,-836.41"/>
</g>
<!-- 22FDDA14972CFE552E380E1CF311B2FB546C84050AF80CAFC5D1D8C083E0C3BD -->
<g id="node43" class="node"><title>22FDDA14972CFE552E380E1CF311B2FB546C84050AF80CAFC5D1D8C083E0C3BD</title>
<path fill="#ffe4b5" stroke="black" d="M2201.86,-924C2201.86,-924 1864.78,-924 1864.78,-924 1858.78,-924 1852.78,-918 1852.78,-912 1852.78,-912 1852.78,-900 1852.78,-900 1852.78,-894 1858.78,-888 1864.78,-888 1864.78,-888 2201.86,-888 2201.86,-888 2207.86,-888 2213.86,-894 2213.86,-900 2213.86,-900 2213.86,-912 2213.86,-912 2213.86,-918 2207.86,-924 2201.86,-924"/>
<text text-anchor="middle" x="2033.32" y="-903.3" font-family="Courier,monospace" font-weight="bold" font-size="9.00">22FDDA14972CFE552E380E1CF311B2FB546C84050AF80CAFC5D1D8C083E0C3BD</text>
</g>
<!-- script_C&#45;&gt;22FDDA14972CFE552E380E1CF311B2FB546C84050AF80CAFC5D1D8C083E0C3BD -->
<g id="edge44" class="edge"><title>script_C&#45;&gt;22FDDA14972CFE552E380E1CF311B2FB546C84050AF80CAFC5D1D8C083E0C3BD</title>
<path fill="none" stroke="black" d="M1796.17,-843.251C1810.78,-855.382 1831.56,-870.578 1852.55,-879 1857.76,-881.093 1863.13,-883.026 1868.59,-884.811"/>
<polygon fill="black" stroke="black" points="1867.93,-888.269 1878.51,-887.865 1869.98,-881.579 1867.93,-888.269"/>
</g>
<!-- 146CAEDE18E76B699FBC69AD01A4768889358957CB5EE470002CD1B8AB96FB0D -->
<g id="node4" class="node"><title>146CAEDE18E76B699FBC69AD01A4768889358957CB5EE470002CD1B8AB96FB0D</title>
<path fill="#ffe4b5" stroke="black" d="M373.314,-1518C373.314,-1518 36.2285,-1518 36.2285,-1518 30.2285,-1518 24.2285,-1512 24.2285,-1506 24.2285,-1506 24.2285,-1494 24.2285,-1494 24.2285,-1488 30.2285,-1482 36.2285,-1482 36.2285,-1482 373.314,-1482 373.314,-1482 379.314,-1482 385.314,-1488 385.314,-1494 385.314,-1494 385.314,-1506 385.314,-1506 385.314,-1512 379.314,-1518 373.314,-1518"/>
<text text-anchor="middle" x="204.771" y="-1497.3" font-family="Courier,monospace" font-weight="bold" font-size="9.00">146CAEDE18E76B699FBC69AD01A4768889358957CB5EE470002CD1B8AB96FB0D</text>
</g>
<!-- 146CAEDE18E76B699FBC69AD01A4768889358957CB5EE470002CD1B8AB96FB0D&#45;&gt;script_A -->
<g id="edge1" class="edge"><title>146CAEDE18E76B699FBC69AD01A4768889358957CB5EE470002CD1B8AB96FB0D&#45;&gt;script_A</title>
<path fill="none" stroke="black" d="M375.724,-1481.72C379.176,-1479.06 382.46,-1476.17 385.542,-1473 427.532,-1429.89 454.22,-996.088 460.634,-880.288"/>
<polygon fill="black" stroke="black" points="464.14,-880.274 461.191,-870.098 457.15,-879.892 464.14,-880.274"/>
</g>
<!-- 5F2C759B1ABA0897215FA817B42E34F1D11AC69FA015DABB39F8D11C66AD8428&#45;&gt;script_C -->
<g id="edge30" class="edge"><title>5F2C759B1ABA0897215FA817B42E34F1D11AC69FA015DABB39F8D11C66AD8428&#45;&gt;script_C</title>
<path fill="none" stroke="black" d="M1239.79,-742.999C1358.96,-729.679 1545.49,-721.397 1697.36,-771 1715.85,-777.039 1733.77,-789.212 1747.62,-800.474"/>
<polygon fill="black" stroke="black" points="1745.39,-803.166 1755.28,-806.947 1749.9,-797.819 1745.39,-803.166"/>
</g>
<!-- 63C4ECEF94847C23631F3310218BAE1EAE3B05C011247335F6A9E55BA9D37E58 -->
<g id="node6" class="node"><title>63C4ECEF94847C23631F3310218BAE1EAE3B05C011247335F6A9E55BA9D37E58</title>
<path fill="#ffe4b5" stroke="black" d="M373.314,-1464C373.314,-1464 36.2285,-1464 36.2285,-1464 30.2285,-1464 24.2285,-1458 24.2285,-1452 24.2285,-1452 24.2285,-1440 24.2285,-1440 24.2285,-1434 30.2285,-1428 36.2285,-1428 36.2285,-1428 373.314,-1428 373.314,-1428 379.314,-1428 385.314,-1434 385.314,-1440 385.314,-1440 385.314,-1452 385.314,-1452 385.314,-1458 379.314,-1464 373.314,-1464"/>
<text text-anchor="middle" x="204.771" y="-1443.3" font-family="Courier,monospace" font-weight="bold" font-size="9.00">63C4ECEF94847C23631F3310218BAE1EAE3B05C011247335F6A9E55BA9D37E58</text>
</g>
<!-- 63C4ECEF94847C23631F3310218BAE1EAE3B05C011247335F6A9E55BA9D37E58&#45;&gt;script_A -->
<g id="edge2" class="edge"><title>63C4ECEF94847C23631F3310218BAE1EAE3B05C011247335F6A9E55BA9D37E58&#45;&gt;script_A</title>
<path fill="none" stroke="black" d="M375.303,-1427.95C378.906,-1425.24 382.331,-1422.26 385.542,-1419 461.629,-1341.78 463.65,-984.037 462.594,-880.279"/>
<polygon fill="black" stroke="black" points="466.093,-880.198 462.473,-870.241 459.094,-880.282 466.093,-880.198"/>
</g>
<!-- 88749C888762E88A5DD548502830328D7AB4804245C20C4B8594CE173B44F603 -->
<g id="node7" class="node"><title>88749C888762E88A5DD548502830328D7AB4804245C20C4B8594CE173B44F603</title>
<path fill="#ffe4b5" stroke="black" d="M373.314,-1410C373.314,-1410 36.2285,-1410 36.2285,-1410 30.2285,-1410 24.2285,-1404 24.2285,-1398 24.2285,-1398 24.2285,-1386 24.2285,-1386 24.2285,-1380 30.2285,-1374 36.2285,-1374 36.2285,-1374 373.314,-1374 373.314,-1374 379.314,-1374 385.314,-1380 385.314,-1386 385.314,-1386 385.314,-1398 385.314,-1398 385.314,-1404 379.314,-1410 373.314,-1410"/>
<text text-anchor="middle" x="204.771" y="-1389.3" font-family="Courier,monospace" font-weight="bold" font-size="9.00">88749C888762E88A5DD548502830328D7AB4804245C20C4B8594CE173B44F603</text>
</g>
<!-- 88749C888762E88A5DD548502830328D7AB4804245C20C4B8594CE173B44F603&#45;&gt;script_A -->
<g id="edge3" class="edge"><title>88749C888762E88A5DD548502830328D7AB4804245C20C4B8594CE173B44F603&#45;&gt;script_A</title>
<path fill="none" stroke="black" d="M375.242,-1373.89C378.863,-1371.19 382.308,-1368.24 385.542,-1365 454.335,-1296.15 461.563,-977.791 462.147,-880.392"/>
<polygon fill="black" stroke="black" points="465.648,-880.156 462.188,-870.142 458.648,-880.128 465.648,-880.156"/>
</g>
<!-- DB290F1948C36B5B58221B2AA19FB5D35C4C836020B0FD2E7F3358D0357C9E12 -->
<g id="node8" class="node"><title>DB290F1948C36B5B58221B2AA19FB5D35C4C836020B0FD2E7F3358D0357C9E12</title>
<path fill="#ffe4b5" stroke="black" d="M373.314,-1356C373.314,-1356 36.2285,-1356 36.2285,-1356 30.2285,-1356 24.2285,-1350 24.2285,-1344 24.2285,-1344 24.2285,-1332 24.2285,-1332 24.2285,-1326 30.2285,-1320 36.2285,-1320 36.2285,-1320 373.314,-1320 373.314,-1320 379.314,-1320 385.314,-1326 385.314,-1332 385.314,-1332 385.314,-1344 385.314,-1344 385.314,-1350 379.314,-1356 373.314,-1356"/>
<text text-anchor="middle" x="204.771" y="-1335.3" font-family="Courier,monospace" font-weight="bold" font-size="9.00">DB290F1948C36B5B58221B2AA19FB5D35C4C836020B0FD2E7F3358D0357C9E12</text>
</g>
<!-- DB290F1948C36B5B58221B2AA19FB5D35C4C836020B0FD2E7F3358D0357C9E12&#45;&gt;script_A -->
<g id="edge4" class="edge"><title>DB290F1948C36B5B58221B2AA19FB5D35C4C836020B0FD2E7F3358D0357C9E12&#45;&gt;script_A</title>
<path fill="none" stroke="black" d="M375.168,-1319.82C378.811,-1317.14 382.28,-1314.21 385.542,-1311 447.177,-1250.36 459.291,-970.234 461.606,-880.053"/>
<polygon fill="black" stroke="black" points="465.105,-880.104 461.842,-870.024 458.107,-879.939 465.105,-880.104"/>
</g>
<!-- C8DBF4422E63F5C80AF7E448A9C8EF1E6BB2DDE0347E272B9A79A13275D5C65B -->
<g id="node9" class="node"><title>C8DBF4422E63F5C80AF7E448A9C8EF1E6BB2DDE0347E272B9A79A13275D5C65B</title>
<path fill="#ffe4b5" stroke="black" d="M373.314,-1302C373.314,-1302 36.2285,-1302 36.2285,-1302 30.2285,-1302 24.2285,-1296 24.2285,-1290 24.2285,-1290 24.2285,-1278 24.2285,-1278 24.2285,-1272 30.2285,-1266 36.2285,-1266 36.2285,-1266 373.314,-1266 373.314,-1266 379.314,-1266 385.314,-1272 385.314,-1278 385.314,-1278 385.314,-1290 385.314,-1290 385.314,-1296 379.314,-1302 373.314,-1302"/>
<text text-anchor="middle" x="204.771" y="-1281.3" font-family="Courier,monospace" font-weight="bold" font-size="9.00">C8DBF4422E63F5C80AF7E448A9C8EF1E6BB2DDE0347E272B9A79A13275D5C65B</text>
</g>
<!-- C8DBF4422E63F5C80AF7E448A9C8EF1E6BB2DDE0347E272B9A79A13275D5C65B&#45;&gt;script_A -->
<g id="edge5" class="edge"><title>C8DBF4422E63F5C80AF7E448A9C8EF1E6BB2DDE0347E272B9A79A13275D5C65B&#45;&gt;script_A</title>
<path fill="none" stroke="black" d="M374.696,-1266C378.504,-1263.28 382.132,-1260.28 385.542,-1257 439.932,-1204.63 456.699,-963.402 460.911,-880.259"/>
<polygon fill="black" stroke="black" points="464.418,-880.205 461.405,-870.048 457.426,-879.867 464.418,-880.205"/>
</g>
<!-- CD810700A529A9C5A19F493C967CE953016C0617E329F9F02BF63E4F8F147314 -->
<g id="node10" class="node"><title>CD810700A529A9C5A19F493C967CE953016C0617E329F9F02BF63E4F8F147314</title>
<path fill="#ffe4b5" stroke="black" d="M373.314,-1248C373.314,-1248 36.2285,-1248 36.2285,-1248 30.2285,-1248 24.2285,-1242 24.2285,-1236 24.2285,-1236 24.2285,-1224 24.2285,-1224 24.2285,-1218 30.2285,-1212 36.2285,-1212 36.2285,-1212 373.314,-1212 373.314,-1212 379.314,-1212 385.314,-1218 385.314,-1224 385.314,-1224 385.314,-1236 385.314,-1236 385.314,-1242 379.314,-1248 373.314,-1248"/>
<text text-anchor="middle" x="204.771" y="-1227.3" font-family="Courier,monospace" font-weight="bold" font-size="9.00">CD810700A529A9C5A19F493C967CE953016C0617E329F9F02BF63E4F8F147314</text>
</g>
<!-- CD810700A529A9C5A19F493C967CE953016C0617E329F9F02BF63E4F8F147314&#45;&gt;script_A -->
<g id="edge6" class="edge"><title>CD810700A529A9C5A19F493C967CE953016C0617E329F9F02BF63E4F8F147314&#45;&gt;script_A</title>
<path fill="none" stroke="black" d="M374.575,-1211.87C378.419,-1209.18 382.087,-1206.24 385.542,-1203 432.735,-1158.81 453.723,-956.022 460,-880.472"/>
<polygon fill="black" stroke="black" points="463.506,-880.531 460.82,-870.283 456.529,-879.969 463.506,-880.531"/>
</g>
<!-- 3606623B1031344BAD21823733C6F45E9950C1D2BC092DF3C02A84606E162B81 -->
<g id="node11" class="node"><title>3606623B1031344BAD21823733C6F45E9950C1D2BC092DF3C02A84606E162B81</title>
<path fill="#ffe4b5" stroke="black" d="M373.314,-1194C373.314,-1194 36.2285,-1194 36.2285,-1194 30.2285,-1194 24.2285,-1188 24.2285,-1182 24.2285,-1182 24.2285,-1170 24.2285,-1170 24.2285,-1164 30.2285,-1158 36.2285,-1158 36.2285,-1158 373.314,-1158 373.314,-1158 379.314,-1158 385.314,-1164 385.314,-1170 385.314,-1170 385.314,-1182 385.314,-1182 385.314,-1188 379.314,-1194 373.314,-1194"/>
<text text-anchor="middle" x="204.771" y="-1173.3" font-family="Courier,monospace" font-weight="bold" font-size="9.00">3606623B1031344BAD21823733C6F45E9950C1D2BC092DF3C02A84606E162B81</text>
</g>
<!-- 3606623B1031344BAD21823733C6F45E9950C1D2BC092DF3C02A84606E162B81&#45;&gt;script_A -->
<g id="edge7" class="edge"><title>3606623B1031344BAD21823733C6F45E9950C1D2BC092DF3C02A84606E162B81&#45;&gt;script_A</title>
<path fill="none" stroke="black" d="M374.026,-1157.96C378.057,-1155.25 381.909,-1152.28 385.542,-1149 425.626,-1112.86 450.256,-947.725 458.773,-880.548"/>
<polygon fill="black" stroke="black" points="462.289,-880.633 460.045,-870.279 455.342,-879.772 462.289,-880.633"/>
</g>
<!-- 9CEB2AC2702DF4A80950CA1347691DEC62F0F9B32DA25B6DB42F6E4A15AAE980 -->
<g id="node12" class="node"><title>9CEB2AC2702DF4A80950CA1347691DEC62F0F9B32DA25B6DB42F6E4A15AAE980</title>
<path fill="#ffe4b5" stroke="black" d="M373.314,-1140C373.314,-1140 36.2285,-1140 36.2285,-1140 30.2285,-1140 24.2285,-1134 24.2285,-1128 24.2285,-1128 24.2285,-1116 24.2285,-1116 24.2285,-1110 30.2285,-1104 36.2285,-1104 36.2285,-1104 373.314,-1104 373.314,-1104 379.314,-1104 385.314,-1110 385.314,-1116 385.314,-1116 385.314,-1128 385.314,-1128 385.314,-1134 379.314,-1140 373.314,-1140"/>
<text text-anchor="middle" x="204.771" y="-1119.3" font-family="Courier,monospace" font-weight="bold" font-size="9.00">9CEB2AC2702DF4A80950CA1347691DEC62F0F9B32DA25B6DB42F6E4A15AAE980</text>
</g>
<!-- 9CEB2AC2702DF4A80950CA1347691DEC62F0F9B32DA25B6DB42F6E4A15AAE980&#45;&gt;script_A -->
<g id="edge8" class="edge"><title>9CEB2AC2702DF4A80950CA1347691DEC62F0F9B32DA25B6DB42F6E4A15AAE980&#45;&gt;script_A</title>
<path fill="none" stroke="black" d="M373.403,-1103.95C377.643,-1101.26 381.704,-1098.28 385.542,-1095 449.894,-1039.99 460.836,-931.417 462.26,-880.113"/>
<polygon fill="black" stroke="black" points="465.76,-880.134 462.435,-870.075 458.761,-880.012 465.76,-880.134"/>
</g>
<!-- 6D5586A1EE8628DB8CA0909E7876442ABA813C31698B9FC11A13AFAF37444CCB -->
<g id="node13" class="node"><title>6D5586A1EE8628DB8CA0909E7876442ABA813C31698B9FC11A13AFAF37444CCB</title>
<path fill="#ffe4b5" stroke="black" d="M373.314,-1086C373.314,-1086 36.2285,-1086 36.2285,-1086 30.2285,-1086 24.2285,-1080 24.2285,-1074 24.2285,-1074 24.2285,-1062 24.2285,-1062 24.2285,-1056 30.2285,-1050 36.2285,-1050 36.2285,-1050 373.314,-1050 373.314,-1050 379.314,-1050 385.314,-1056 385.314,-1062 385.314,-1062 385.314,-1074 385.314,-1074 385.314,-1080 379.314,-1086 373.314,-1086"/>
<text text-anchor="middle" x="204.771" y="-1065.3" font-family="Courier,monospace" font-weight="bold" font-size="9.00">6D5586A1EE8628DB8CA0909E7876442ABA813C31698B9FC11A13AFAF37444CCB</text>
</g>
<!-- 6D5586A1EE8628DB8CA0909E7876442ABA813C31698B9FC11A13AFAF37444CCB&#45;&gt;script_A -->
<g id="edge9" class="edge"><title>6D5586A1EE8628DB8CA0909E7876442ABA813C31698B9FC11A13AFAF37444CCB&#45;&gt;script_A</title>
<path fill="none" stroke="black" d="M372.659,-1049.79C377.143,-1047.14 381.452,-1044.22 385.542,-1041 436.192,-1001.08 453.542,-922.291 459.337,-880.149"/>
<polygon fill="black" stroke="black" points="462.835,-880.384 460.602,-870.027 455.889,-879.516 462.835,-880.384"/>
</g>
<!-- EDC855FCB78B3EC39587E754363E68455EFCBCB2DF2EB83F6F1F595184D1152C -->
<g id="node14" class="node"><title>EDC855FCB78B3EC39587E754363E68455EFCBCB2DF2EB83F6F1F595184D1152C</title>
<path fill="#ffe4b5" stroke="black" d="M373.314,-1032C373.314,-1032 36.2285,-1032 36.2285,-1032 30.2285,-1032 24.2285,-1026 24.2285,-1020 24.2285,-1020 24.2285,-1008 24.2285,-1008 24.2285,-1002 30.2285,-996 36.2285,-996 36.2285,-996 373.314,-996 373.314,-996 379.314,-996 385.314,-1002 385.314,-1008 385.314,-1008 385.314,-1020 385.314,-1020 385.314,-1026 379.314,-1032 373.314,-1032"/>
<text text-anchor="middle" x="204.771" y="-1011.3" font-family="Courier,monospace" font-weight="bold" font-size="9.00">EDC855FCB78B3EC39587E754363E68455EFCBCB2DF2EB83F6F1F595184D1152C</text>
</g>
<!-- EDC855FCB78B3EC39587E754363E68455EFCBCB2DF2EB83F6F1F595184D1152C&#45;&gt;script_A -->
<g id="edge10" class="edge"><title>EDC855FCB78B3EC39587E754363E68455EFCBCB2DF2EB83F6F1F595184D1152C&#45;&gt;script_A</title>
<path fill="none" stroke="black" d="M370.435,-995.939C375.674,-993.275 380.73,-990.306 385.542,-987 422.66,-961.503 443.957,-911.769 454.271,-880.304"/>
<polygon fill="black" stroke="black" points="457.725,-880.984 457.355,-870.396 451.041,-878.904 457.725,-880.984"/>
</g>
<!-- EBB49302CBEF26B0CA8AEF8483C69E9FE80532F4DFB3A9BD98C600324A43F6C3 -->
<g id="node15" class="node"><title>EBB49302CBEF26B0CA8AEF8483C69E9FE80532F4DFB3A9BD98C600324A43F6C3</title>
<path fill="#ffe4b5" stroke="black" d="M373.314,-978C373.314,-978 36.2285,-978 36.2285,-978 30.2285,-978 24.2285,-972 24.2285,-966 24.2285,-966 24.2285,-954 24.2285,-954 24.2285,-948 30.2285,-942 36.2285,-942 36.2285,-942 373.314,-942 373.314,-942 379.314,-942 385.314,-948 385.314,-954 385.314,-954 385.314,-966 385.314,-966 385.314,-972 379.314,-978 373.314,-978"/>
<text text-anchor="middle" x="204.771" y="-957.3" font-family="Courier,monospace" font-weight="bold" font-size="9.00">EBB49302CBEF26B0CA8AEF8483C69E9FE80532F4DFB3A9BD98C600324A43F6C3</text>
</g>
<!-- EBB49302CBEF26B0CA8AEF8483C69E9FE80532F4DFB3A9BD98C600324A43F6C3&#45;&gt;script_A -->
<g id="edge11" class="edge"><title>EBB49302CBEF26B0CA8AEF8483C69E9FE80532F4DFB3A9BD98C600324A43F6C3&#45;&gt;script_A</title>
<path fill="none" stroke="black" d="M365.459,-941.964C372.378,-939.334 379.108,-936.36 385.542,-933 409.722,-920.375 430.493,-897.1 444.28,-878.729"/>
<polygon fill="black" stroke="black" points="447.445,-880.326 450.472,-870.172 441.774,-876.222 447.445,-880.326"/>
</g>
<!-- 830C305341047E53FA500D47C18E3A60FC017853E6290EE907615CA4296F1A85 -->
<g id="node16" class="node"><title>830C305341047E53FA500D47C18E3A60FC017853E6290EE907615CA4296F1A85</title>
<path fill="#ffe4b5" stroke="black" d="M373.314,-924C373.314,-924 36.2285,-924 36.2285,-924 30.2285,-924 24.2285,-918 24.2285,-912 24.2285,-912 24.2285,-900 24.2285,-900 24.2285,-894 30.2285,-888 36.2285,-888 36.2285,-888 373.314,-888 373.314,-888 379.314,-888 385.314,-894 385.314,-900 385.314,-900 385.314,-912 385.314,-912 385.314,-918 379.314,-924 373.314,-924"/>
<text text-anchor="middle" x="204.771" y="-903.3" font-family="Courier,monospace" font-weight="bold" font-size="9.00">830C305341047E53FA500D47C18E3A60FC017853E6290EE907615CA4296F1A85</text>
</g>
<!-- 830C305341047E53FA500D47C18E3A60FC017853E6290EE907615CA4296F1A85&#45;&gt;script_A -->
<g id="edge12" class="edge"><title>830C305341047E53FA500D47C18E3A60FC017853E6290EE907615CA4296F1A85&#45;&gt;script_A</title>
<path fill="none" stroke="black" d="M344.197,-887.929C358.235,-885.286 372.22,-882.317 385.542,-879 394.092,-876.872 403.03,-874.174 411.66,-871.311"/>
<polygon fill="black" stroke="black" points="412.908,-874.583 421.233,-868.031 410.638,-867.961 412.908,-874.583"/>
</g>
<!-- A95C36F1BEAA92D5AF6D64475233926ED75CB4AD5F712B3752E967D2397D3557 -->
<g id="node17" class="node"><title>A95C36F1BEAA92D5AF6D64475233926ED75CB4AD5F712B3752E967D2397D3557</title>
<path fill="#ffe4b5" stroke="black" d="M373.314,-870C373.314,-870 36.2285,-870 36.2285,-870 30.2285,-870 24.2285,-864 24.2285,-858 24.2285,-858 24.2285,-846 24.2285,-846 24.2285,-840 30.2285,-834 36.2285,-834 36.2285,-834 373.314,-834 373.314,-834 379.314,-834 385.314,-840 385.314,-846 385.314,-846 385.314,-858 385.314,-858 385.314,-864 379.314,-870 373.314,-870"/>
<text text-anchor="middle" x="204.771" y="-849.3" font-family="Courier,monospace" font-weight="bold" font-size="9.00">A95C36F1BEAA92D5AF6D64475233926ED75CB4AD5F712B3752E967D2397D3557</text>
</g>
<!-- A95C36F1BEAA92D5AF6D64475233926ED75CB4AD5F712B3752E967D2397D3557&#45;&gt;script_A -->
<g id="edge13" class="edge"><title>A95C36F1BEAA92D5AF6D64475233926ED75CB4AD5F712B3752E967D2397D3557&#45;&gt;script_A</title>
<path fill="none" stroke="black" d="M385.566,-852C394.658,-852 403.335,-852 411.364,-852"/>
<polygon fill="black" stroke="black" points="411.526,-855.5 421.526,-852 411.526,-848.5 411.526,-855.5"/>
</g>
<!-- 82B667C61651DDB70F639CF0A71509FAA1193CC4CB39654389B1EC8B29D86E4B&#45;&gt;script_B -->
<g id="edge26" class="edge"><title>82B667C61651DDB70F639CF0A71509FAA1193CC4CB39654389B1EC8B29D86E4B&#45;&gt;script_B</title>
<path fill="none" stroke="black" d="M854.487,-816.019C927.513,-825.988 1014.04,-837.802 1067.5,-845.099"/>
<polygon fill="black" stroke="black" points="1067.03,-848.567 1077.41,-846.452 1067.97,-841.632 1067.03,-848.567"/>
</g>
<!-- 58C4CEFE49F168D954AC423E967370E1C14C7F4A7735DB77DD76D22BCF2517E4 -->
<g id="node19" class="node"><title>58C4CEFE49F168D954AC423E967370E1C14C7F4A7735DB77DD76D22BCF2517E4</title>
<path fill="#ffe4b5" stroke="black" d="M373.314,-816C373.314,-816 36.2285,-816 36.2285,-816 30.2285,-816 24.2285,-810 24.2285,-804 24.2285,-804 24.2285,-792 24.2285,-792 24.2285,-786 30.2285,-780 36.2285,-780 36.2285,-780 373.314,-780 373.314,-780 379.314,-780 385.314,-786 385.314,-792 385.314,-792 385.314,-804 385.314,-804 385.314,-810 379.314,-816 373.314,-816"/>
<text text-anchor="middle" x="204.771" y="-795.3" font-family="Courier,monospace" font-weight="bold" font-size="9.00">58C4CEFE49F168D954AC423E967370E1C14C7F4A7735DB77DD76D22BCF2517E4</text>
</g>
<!-- 58C4CEFE49F168D954AC423E967370E1C14C7F4A7735DB77DD76D22BCF2517E4&#45;&gt;script_A -->
<g id="edge14" class="edge"><title>58C4CEFE49F168D954AC423E967370E1C14C7F4A7735DB77DD76D22BCF2517E4&#45;&gt;script_A</title>
<path fill="none" stroke="black" d="M344.197,-816.071C358.235,-818.714 372.22,-821.683 385.542,-825 394.092,-827.128 403.03,-829.826 411.66,-832.689"/>
<polygon fill="black" stroke="black" points="410.638,-836.039 421.233,-835.969 412.908,-829.417 410.638,-836.039"/>
</g>
<!-- 5B33CD6DE4C825B6EE8F447DB0047E78E4F4E33DFB0D56723BA614C622EEB470 -->
<g id="node20" class="node"><title>5B33CD6DE4C825B6EE8F447DB0047E78E4F4E33DFB0D56723BA614C622EEB470</title>
<path fill="#ffe4b5" stroke="black" d="M373.314,-762C373.314,-762 36.2285,-762 36.2285,-762 30.2285,-762 24.2285,-756 24.2285,-750 24.2285,-750 24.2285,-738 24.2285,-738 24.2285,-732 30.2285,-726 36.2285,-726 36.2285,-726 373.314,-726 373.314,-726 379.314,-726 385.314,-732 385.314,-738 385.314,-738 385.314,-750 385.314,-750 385.314,-756 379.314,-762 373.314,-762"/>
<text text-anchor="middle" x="204.771" y="-741.3" font-family="Courier,monospace" font-weight="bold" font-size="9.00">5B33CD6DE4C825B6EE8F447DB0047E78E4F4E33DFB0D56723BA614C622EEB470</text>
</g>
<!-- 5B33CD6DE4C825B6EE8F447DB0047E78E4F4E33DFB0D56723BA614C622EEB470&#45;&gt;script_A -->
<g id="edge15" class="edge"><title>5B33CD6DE4C825B6EE8F447DB0047E78E4F4E33DFB0D56723BA614C622EEB470&#45;&gt;script_A</title>
<path fill="none" stroke="black" d="M365.459,-762.036C372.378,-764.666 379.108,-767.64 385.542,-771 409.722,-783.625 430.493,-806.9 444.28,-825.271"/>
<polygon fill="black" stroke="black" points="441.774,-827.778 450.472,-833.828 447.445,-823.674 441.774,-827.778"/>
</g>
<!-- C53FA0776E9D38564ECBD29F09E8DEAF3ACC8B4499298E15A73C007D7B805C32 -->
<g id="node21" class="node"><title>C53FA0776E9D38564ECBD29F09E8DEAF3ACC8B4499298E15A73C007D7B805C32</title>
<path fill="#ffe4b5" stroke="black" d="M373.314,-708C373.314,-708 36.2285,-708 36.2285,-708 30.2285,-708 24.2285,-702 24.2285,-696 24.2285,-696 24.2285,-684 24.2285,-684 24.2285,-678 30.2285,-672 36.2285,-672 36.2285,-672 373.314,-672 373.314,-672 379.314,-672 385.314,-678 385.314,-684 385.314,-684 385.314,-696 385.314,-696 385.314,-702 379.314,-708 373.314,-708"/>
<text text-anchor="middle" x="204.771" y="-687.3" font-family="Courier,monospace" font-weight="bold" font-size="9.00">C53FA0776E9D38564ECBD29F09E8DEAF3ACC8B4499298E15A73C007D7B805C32</text>
</g>
<!-- C53FA0776E9D38564ECBD29F09E8DEAF3ACC8B4499298E15A73C007D7B805C32&#45;&gt;script_A -->
<g id="edge16" class="edge"><title>C53FA0776E9D38564ECBD29F09E8DEAF3ACC8B4499298E15A73C007D7B805C32&#45;&gt;script_A</title>
<path fill="none" stroke="black" d="M370.435,-708.061C375.674,-710.725 380.73,-713.694 385.542,-717 422.66,-742.497 443.957,-792.231 454.271,-823.696"/>
<polygon fill="black" stroke="black" points="451.041,-825.096 457.355,-833.604 457.725,-823.016 451.041,-825.096"/>
</g>
<!-- BF613CC21E5139F3F56FEDE81FB457614E2DDDF3D17D7FCFDB245F5030E040EF -->
<g id="node22" class="node"><title>BF613CC21E5139F3F56FEDE81FB457614E2DDDF3D17D7FCFDB245F5030E040EF</title>
<path fill="#ffe4b5" stroke="black" d="M373.314,-654C373.314,-654 36.2285,-654 36.2285,-654 30.2285,-654 24.2285,-648 24.2285,-642 24.2285,-642 24.2285,-630 24.2285,-630 24.2285,-624 30.2285,-618 36.2285,-618 36.2285,-618 373.314,-618 373.314,-618 379.314,-618 385.314,-624 385.314,-630 385.314,-630 385.314,-642 385.314,-642 385.314,-648 379.314,-654 373.314,-654"/>
<text text-anchor="middle" x="204.771" y="-633.3" font-family="Courier,monospace" font-weight="bold" font-size="9.00">BF613CC21E5139F3F56FEDE81FB457614E2DDDF3D17D7FCFDB245F5030E040EF</text>
</g>
<!-- BF613CC21E5139F3F56FEDE81FB457614E2DDDF3D17D7FCFDB245F5030E040EF&#45;&gt;script_A -->
<g id="edge17" class="edge"><title>BF613CC21E5139F3F56FEDE81FB457614E2DDDF3D17D7FCFDB245F5030E040EF&#45;&gt;script_A</title>
<path fill="none" stroke="black" d="M372.659,-654.215C377.143,-656.857 381.452,-659.777 385.542,-663 436.192,-702.915 453.542,-781.709 459.337,-823.851"/>
<polygon fill="black" stroke="black" points="455.889,-824.484 460.602,-833.973 462.835,-823.616 455.889,-824.484"/>
</g>
<!-- A691D2A9283F29CF817D7EF4345275E85EF0FE62D0FD74A87026E8C34DB82732 -->
<g id="node23" class="node"><title>A691D2A9283F29CF817D7EF4345275E85EF0FE62D0FD74A87026E8C34DB82732</title>
<path fill="#ffe4b5" stroke="black" d="M373.314,-600C373.314,-600 36.2285,-600 36.2285,-600 30.2285,-600 24.2285,-594 24.2285,-588 24.2285,-588 24.2285,-576 24.2285,-576 24.2285,-570 30.2285,-564 36.2285,-564 36.2285,-564 373.314,-564 373.314,-564 379.314,-564 385.314,-570 385.314,-576 385.314,-576 385.314,-588 385.314,-588 385.314,-594 379.314,-600 373.314,-600"/>
<text text-anchor="middle" x="204.771" y="-579.3" font-family="Courier,monospace" font-weight="bold" font-size="9.00">A691D2A9283F29CF817D7EF4345275E85EF0FE62D0FD74A87026E8C34DB82732</text>
</g>
<!-- A691D2A9283F29CF817D7EF4345275E85EF0FE62D0FD74A87026E8C34DB82732&#45;&gt;script_A -->
<g id="edge18" class="edge"><title>A691D2A9283F29CF817D7EF4345275E85EF0FE62D0FD74A87026E8C34DB82732&#45;&gt;script_A</title>
<path fill="none" stroke="black" d="M373.403,-600.046C377.643,-602.743 381.704,-605.719 385.542,-609 449.894,-664.007 460.836,-772.583 462.26,-823.887"/>
<polygon fill="black" stroke="black" points="458.761,-823.988 462.435,-833.925 465.76,-823.866 458.761,-823.988"/>
</g>
<!-- A806C3DBAE01848D744C05997CD57B19EA6952CBDB7DEE3E39447864A8A8EE74 -->
<g id="node24" class="node"><title>A806C3DBAE01848D744C05997CD57B19EA6952CBDB7DEE3E39447864A8A8EE74</title>
<path fill="#ffe4b5" stroke="black" d="M373.314,-546C373.314,-546 36.2285,-546 36.2285,-546 30.2285,-546 24.2285,-540 24.2285,-534 24.2285,-534 24.2285,-522 24.2285,-522 24.2285,-516 30.2285,-510 36.2285,-510 36.2285,-510 373.314,-510 373.314,-510 379.314,-510 385.314,-516 385.314,-522 385.314,-522 385.314,-534 385.314,-534 385.314,-540 379.314,-546 373.314,-546"/>
<text text-anchor="middle" x="204.771" y="-525.3" font-family="Courier,monospace" font-weight="bold" font-size="9.00">A806C3DBAE01848D744C05997CD57B19EA6952CBDB7DEE3E39447864A8A8EE74</text>
</g>
<!-- A806C3DBAE01848D744C05997CD57B19EA6952CBDB7DEE3E39447864A8A8EE74&#45;&gt;script_A -->
<g id="edge19" class="edge"><title>A806C3DBAE01848D744C05997CD57B19EA6952CBDB7DEE3E39447864A8A8EE74&#45;&gt;script_A</title>
<path fill="none" stroke="black" d="M374.026,-546.042C378.057,-548.746 381.909,-551.724 385.542,-555 425.626,-591.143 450.256,-756.275 458.773,-823.452"/>
<polygon fill="black" stroke="black" points="455.342,-824.228 460.045,-833.721 462.289,-823.367 455.342,-824.228"/>
</g>
<!-- 7918730F93CD56CE2C6242CF812287ABC460A990576A5E1355ED89C61196F7EA -->
<g id="node25" class="node"><title>7918730F93CD56CE2C6242CF812287ABC460A990576A5E1355ED89C61196F7EA</title>
<path fill="#ffe4b5" stroke="black" d="M373.314,-492C373.314,-492 36.2285,-492 36.2285,-492 30.2285,-492 24.2285,-486 24.2285,-480 24.2285,-480 24.2285,-468 24.2285,-468 24.2285,-462 30.2285,-456 36.2285,-456 36.2285,-456 373.314,-456 373.314,-456 379.314,-456 385.314,-462 385.314,-468 385.314,-468 385.314,-480 385.314,-480 385.314,-486 379.314,-492 373.314,-492"/>
<text text-anchor="middle" x="204.771" y="-471.3" font-family="Courier,monospace" font-weight="bold" font-size="9.00">7918730F93CD56CE2C6242CF812287ABC460A990576A5E1355ED89C61196F7EA</text>
</g>
<!-- 7918730F93CD56CE2C6242CF812287ABC460A990576A5E1355ED89C61196F7EA&#45;&gt;script_A -->
<g id="edge20" class="edge"><title>7918730F93CD56CE2C6242CF812287ABC460A990576A5E1355ED89C61196F7EA&#45;&gt;script_A</title>
<path fill="none" stroke="black" d="M374.575,-492.13C378.419,-494.815 382.087,-497.764 385.542,-501 432.735,-545.186 453.723,-747.978 460,-823.528"/>
<polygon fill="black" stroke="black" points="456.529,-824.031 460.82,-833.717 463.506,-823.469 456.529,-824.031"/>
</g>
<!-- 1CDD6CBC4B49343588641240FFC7D8D95E329C2443E02028A5D4DBC691296D49 -->
<g id="node26" class="node"><title>1CDD6CBC4B49343588641240FFC7D8D95E329C2443E02028A5D4DBC691296D49</title>
<path fill="#ffe4b5" stroke="black" d="M373.314,-438C373.314,-438 36.2285,-438 36.2285,-438 30.2285,-438 24.2285,-432 24.2285,-426 24.2285,-426 24.2285,-414 24.2285,-414 24.2285,-408 30.2285,-402 36.2285,-402 36.2285,-402 373.314,-402 373.314,-402 379.314,-402 385.314,-408 385.314,-414 385.314,-414 385.314,-426 385.314,-426 385.314,-432 379.314,-438 373.314,-438"/>
<text text-anchor="middle" x="204.771" y="-417.3" font-family="Courier,monospace" font-weight="bold" font-size="9.00">1CDD6CBC4B49343588641240FFC7D8D95E329C2443E02028A5D4DBC691296D49</text>
</g>
<!-- 1CDD6CBC4B49343588641240FFC7D8D95E329C2443E02028A5D4DBC691296D49&#45;&gt;script_A -->
<g id="edge21" class="edge"><title>1CDD6CBC4B49343588641240FFC7D8D95E329C2443E02028A5D4DBC691296D49&#45;&gt;script_A</title>
<path fill="none" stroke="black" d="M374.696,-438.003C378.504,-440.725 382.132,-443.716 385.542,-447 439.932,-499.37 456.699,-740.598 460.911,-823.741"/>
<polygon fill="black" stroke="black" points="457.426,-824.133 461.405,-833.952 464.418,-823.795 457.426,-824.133"/>
</g>
<!-- 7905923272AF2C50A905C4A2EE4FA5FCCB11FC88C845F58F2DBB7994312F84B7 -->
<g id="node27" class="node"><title>7905923272AF2C50A905C4A2EE4FA5FCCB11FC88C845F58F2DBB7994312F84B7</title>
<path fill="#ffe4b5" stroke="black" d="M373.314,-384C373.314,-384 36.2285,-384 36.2285,-384 30.2285,-384 24.2285,-378 24.2285,-372 24.2285,-372 24.2285,-360 24.2285,-360 24.2285,-354 30.2285,-348 36.2285,-348 36.2285,-348 373.314,-348 373.314,-348 379.314,-348 385.314,-354 385.314,-360 385.314,-360 385.314,-372 385.314,-372 385.314,-378 379.314,-384 373.314,-384"/>
<text text-anchor="middle" x="204.771" y="-363.3" font-family="Courier,monospace" font-weight="bold" font-size="9.00">7905923272AF2C50A905C4A2EE4FA5FCCB11FC88C845F58F2DBB7994312F84B7</text>
</g>
<!-- 7905923272AF2C50A905C4A2EE4FA5FCCB11FC88C845F58F2DBB7994312F84B7&#45;&gt;script_A -->
<g id="edge22" class="edge"><title>7905923272AF2C50A905C4A2EE4FA5FCCB11FC88C845F58F2DBB7994312F84B7&#45;&gt;script_A</title>
<path fill="none" stroke="black" d="M375.168,-384.181C378.811,-386.858 382.28,-389.791 385.542,-393 447.177,-453.64 459.291,-733.766 461.606,-823.947"/>
<polygon fill="black" stroke="black" points="458.107,-824.061 461.842,-833.976 465.105,-823.896 458.107,-824.061"/>
</g>
<!-- 6FDA536154E1D8843433E2779D96D0F0DB882A0FE208128CF05F2711C1A27CC5 -->
<g id="node28" class="node"><title>6FDA536154E1D8843433E2779D96D0F0DB882A0FE208128CF05F2711C1A27CC5</title>
<path fill="#ffe4b5" stroke="black" d="M373.314,-330C373.314,-330 36.2285,-330 36.2285,-330 30.2285,-330 24.2285,-324 24.2285,-318 24.2285,-318 24.2285,-306 24.2285,-306 24.2285,-300 30.2285,-294 36.2285,-294 36.2285,-294 373.314,-294 373.314,-294 379.314,-294 385.314,-300 385.314,-306 385.314,-306 385.314,-318 385.314,-318 385.314,-324 379.314,-330 373.314,-330"/>
<text text-anchor="middle" x="204.771" y="-309.3" font-family="Courier,monospace" font-weight="bold" font-size="9.00">6FDA536154E1D8843433E2779D96D0F0DB882A0FE208128CF05F2711C1A27CC5</text>
</g>
<!-- 6FDA536154E1D8843433E2779D96D0F0DB882A0FE208128CF05F2711C1A27CC5&#45;&gt;script_A -->
<g id="edge23" class="edge"><title>6FDA536154E1D8843433E2779D96D0F0DB882A0FE208128CF05F2711C1A27CC5&#45;&gt;script_A</title>
<path fill="none" stroke="black" d="M375.242,-330.107C378.863,-332.806 382.308,-335.763 385.542,-339 454.335,-407.852 461.563,-726.209 462.147,-823.608"/>
<polygon fill="black" stroke="black" points="458.648,-823.872 462.188,-833.858 465.648,-823.844 458.648,-823.872"/>
</g>
<!-- 2EF6924F4824E33DC3785E76EB4BA4CC3B719C720C47E50CB03DA763019C95AE -->
<g id="node29" class="node"><title>2EF6924F4824E33DC3785E76EB4BA4CC3B719C720C47E50CB03DA763019C95AE</title>
<path fill="#ffe4b5" stroke="black" d="M373.314,-276C373.314,-276 36.2285,-276 36.2285,-276 30.2285,-276 24.2285,-270 24.2285,-264 24.2285,-264 24.2285,-252 24.2285,-252 24.2285,-246 30.2285,-240 36.2285,-240 36.2285,-240 373.314,-240 373.314,-240 379.314,-240 385.314,-246 385.314,-252 385.314,-252 385.314,-264 385.314,-264 385.314,-270 379.314,-276 373.314,-276"/>
<text text-anchor="middle" x="204.771" y="-255.3" font-family="Courier,monospace" font-weight="bold" font-size="9.00">2EF6924F4824E33DC3785E76EB4BA4CC3B719C720C47E50CB03DA763019C95AE</text>
</g>
<!-- 2EF6924F4824E33DC3785E76EB4BA4CC3B719C720C47E50CB03DA763019C95AE&#45;&gt;script_A -->
<g id="edge24" class="edge"><title>2EF6924F4824E33DC3785E76EB4BA4CC3B719C720C47E50CB03DA763019C95AE&#45;&gt;script_A</title>
<path fill="none" stroke="black" d="M375.303,-276.047C378.906,-278.763 382.331,-281.74 385.542,-285 461.629,-362.221 463.65,-719.963 462.594,-823.721"/>
<polygon fill="black" stroke="black" points="459.094,-823.718 462.473,-833.759 466.093,-823.802 459.094,-823.718"/>
</g>
<!-- D5821A7D33D9945DA78C5538D6254F0A0039856ACF4C45640E8C8BAC0B61F41A -->
<g id="node30" class="node"><title>D5821A7D33D9945DA78C5538D6254F0A0039856ACF4C45640E8C8BAC0B61F41A</title>
<path fill="#ffe4b5" stroke="black" d="M373.314,-222C373.314,-222 36.2285,-222 36.2285,-222 30.2285,-222 24.2285,-216 24.2285,-210 24.2285,-210 24.2285,-198 24.2285,-198 24.2285,-192 30.2285,-186 36.2285,-186 36.2285,-186 373.314,-186 373.314,-186 379.314,-186 385.314,-192 385.314,-198 385.314,-198 385.314,-210 385.314,-210 385.314,-216 379.314,-222 373.314,-222"/>
<text text-anchor="middle" x="204.771" y="-201.3" font-family="Courier,monospace" font-weight="bold" font-size="9.00">D5821A7D33D9945DA78C5538D6254F0A0039856ACF4C45640E8C8BAC0B61F41A</text>
</g>
<!-- D5821A7D33D9945DA78C5538D6254F0A0039856ACF4C45640E8C8BAC0B61F41A&#45;&gt;script_A -->
<g id="edge25" class="edge"><title>D5821A7D33D9945DA78C5538D6254F0A0039856ACF4C45640E8C8BAC0B61F41A&#45;&gt;script_A</title>
<path fill="none" stroke="black" d="M375.724,-222.281C379.176,-224.935 382.46,-227.835 385.542,-231 427.532,-274.112 454.22,-707.912 460.634,-823.712"/>
<polygon fill="black" stroke="black" points="457.15,-824.108 461.191,-833.902 464.14,-823.726 457.15,-824.108"/>
</g>
<!-- CB46669463FF3826CB13FC164852E83EB7D60ED6A09CC5EA7D9EDE0395C1A192&#45;&gt;script_B -->
<g id="edge27" class="edge"><title>CB46669463FF3826CB13FC164852E83EB7D60ED6A09CC5EA7D9EDE0395C1A192&#45;&gt;script_B</title>
<path fill="none" stroke="black" d="M902.045,-852C962.424,-852 1025.09,-852 1067.27,-852"/>
<polygon fill="black" stroke="black" points="1067.27,-855.5 1077.27,-852 1067.27,-848.5 1067.27,-855.5"/>
</g>
<!-- F1CFFD748D8CA4DEE6CC404225F4EAD314A4D73C5E159812B33FEE3C1871D30C&#45;&gt;script_B -->
<g id="edge28" class="edge"><title>F1CFFD748D8CA4DEE6CC404225F4EAD314A4D73C5E159812B33FEE3C1871D30C&#45;&gt;script_B</title>
<path fill="none" stroke="black" d="M854.487,-887.981C927.513,-878.012 1014.04,-866.198 1067.5,-858.901"/>
<polygon fill="black" stroke="black" points="1067.97,-862.368 1077.41,-857.548 1067.03,-855.433 1067.97,-862.368"/>
</g>
<!-- F1CFFD748D8CA4DEE6CC404225F4EAD314A4D73C5E159812B33FEE3C1871D30C&#45;&gt;script_C -->
<g id="edge29" class="edge"><title>F1CFFD748D8CA4DEE6CC404225F4EAD314A4D73C5E159812B33FEE3C1871D30C&#45;&gt;script_C</title>
<path fill="none" stroke="black" d="M846.41,-924.029C1074.94,-954.916 1552.68,-1007.76 1697.36,-933 1729.77,-916.25 1751.44,-878.754 1763.22,-852.676"/>
<polygon fill="black" stroke="black" points="1766.51,-853.877 1767.25,-843.308 1760.08,-851.108 1766.51,-853.877"/>
</g>
<!-- 02BDE5467FBA06B9EC97D421E28181B07939E0DE35972258B0018B107CFCFFFE -->
<g id="node33" class="node"><title>02BDE5467FBA06B9EC97D421E28181B07939E0DE35972258B0018B107CFCFFFE</title>
<path fill="#ffe4b5" stroke="black" d="M373.314,-168C373.314,-168 36.2285,-168 36.2285,-168 30.2285,-168 24.2285,-162 24.2285,-156 24.2285,-156 24.2285,-144 24.2285,-144 24.2285,-138 30.2285,-132 36.2285,-132 36.2285,-132 373.314,-132 373.314,-132 379.314,-132 385.314,-138 385.314,-144 385.314,-144 385.314,-156 385.314,-156 385.314,-162 379.314,-168 373.314,-168"/>
<text text-anchor="middle" x="204.771" y="-147.3" font-family="Courier,monospace" font-weight="bold" font-size="9.00">02BDE5467FBA06B9EC97D421E28181B07939E0DE35972258B0018B107CFCFFFE</text>
</g>
<!-- CDCE5913BB36A5061F5514FD849AB34A2F548B983B36072120362DB23BE0B9DC&#45;&gt;script_C -->
<g id="edge31" class="edge"><title>CDCE5913BB36A5061F5514FD849AB34A2F548B983B36072120362DB23BE0B9DC&#45;&gt;script_C</title>
<path fill="none" stroke="black" d="M1688.59,-816.009C1700.85,-817.301 1712.52,-818.53 1723.07,-819.642"/>
<polygon fill="black" stroke="black" points="1722.93,-823.145 1733.24,-820.712 1723.66,-816.184 1722.93,-823.145"/>
</g>
<!-- 3E9E84B654B30E212F8004AB1E573ADFA5B35AB7772FBBEE93F93519D7DE3030&#45;&gt;script_C -->
<g id="edge32" class="edge"><title>3E9E84B654B30E212F8004AB1E573ADFA5B35AB7772FBBEE93F93519D7DE3030&#45;&gt;script_C</title>
<path fill="none" stroke="black" d="M1688.59,-833.991C1700.85,-832.699 1712.52,-831.47 1723.07,-830.358"/>
<polygon fill="black" stroke="black" points="1723.66,-833.816 1733.24,-829.288 1722.93,-826.855 1723.66,-833.816"/>
</g>
<!-- BE493E80B7C044777D5BB4CEA274D3823895140AB5726A3834A31C1DEADCD5C1 -->
<g id="node37" class="node"><title>BE493E80B7C044777D5BB4CEA274D3823895140AB5726A3834A31C1DEADCD5C1</title>
<path fill="#ffe4b5" stroke="black" d="M373.314,-114C373.314,-114 36.2285,-114 36.2285,-114 30.2285,-114 24.2285,-108 24.2285,-102 24.2285,-102 24.2285,-90 24.2285,-90 24.2285,-84 30.2285,-78 36.2285,-78 36.2285,-78 373.314,-78 373.314,-78 379.314,-78 385.314,-84 385.314,-90 385.314,-90 385.314,-102 385.314,-102 385.314,-108 379.314,-114 373.314,-114"/>
<text text-anchor="middle" x="204.771" y="-93.3" font-family="Courier,monospace" font-weight="bold" font-size="9.00">BE493E80B7C044777D5BB4CEA274D3823895140AB5726A3834A31C1DEADCD5C1</text>
</g>
<!-- CF71D79FF31110103A6304A732561F6043FD5F47719699C9747D7537CD4482B8 -->
<g id="node42" class="node"><title>CF71D79FF31110103A6304A732561F6043FD5F47719699C9747D7537CD4482B8</title>
<path fill="#ffe4b5" stroke="black" d="M373.314,-60C373.314,-60 36.2285,-60 36.2285,-60 30.2285,-60 24.2285,-54 24.2285,-48 24.2285,-48 24.2285,-36 24.2285,-36 24.2285,-30 30.2285,-24 36.2285,-24 36.2285,-24 373.314,-24 373.314,-24 379.314,-24 385.314,-30 385.314,-36 385.314,-36 385.314,-48 385.314,-48 385.314,-54 379.314,-60 373.314,-60"/>
<text text-anchor="middle" x="204.771" y="-39.3" font-family="Courier,monospace" font-weight="bold" font-size="9.00">CF71D79FF31110103A6304A732561F6043FD5F47719699C9747D7537CD4482B8</text>
</g>
</g>
</svg>
