<?xml version="1.0" encoding="UTF-8" standalone="no"?>
<!DOCTYPE svg PUBLIC "-//W3C//DTD SVG 1.1//EN"
 "http://www.w3.org/Graphics/SVG/1.1/DTD/svg11.dtd">
<!-- Generated by graphviz version 2.38.0 (20140413.2041)
 -->
<!-- Title: yw_data_view Pages: 1 -->
<svg width="374pt" height="1120pt"
 viewBox="0.00 0.00 374.00 1120.40" xmlns="http://www.w3.org/2000/svg" xmlns:xlink="http://www.w3.org/1999/xlink">
<g id="graph0" class="graph" transform="scale(1 1) rotate(0) translate(4 1116.4)">
<title>yw_data_view</title>
<polygon fill="white" stroke="none" points="-4,4 -4,-1116.4 370,-1116.4 370,4 -4,4"/>
<text text-anchor="middle" x="183" y="-1092.2" font-family="Courier,monospace" font-size="18.00">GRAVITATIONAL_WAVE_DETECTION</text>
<g id="clust1" class="cluster"><title>cluster_workflow</title>
<polygon fill="none" stroke="black" stroke-width="2" points="8,-62 8,-1020.8 358,-1020.8 358,-62 8,-62"/>
</g>
<g id="clust2" class="cluster"><title>cluster_workflow_inner</title>
<polygon fill="none" stroke="white" stroke-width="2" points="16,-70 16,-1012.8 350,-1012.8 350,-70 16,-70"/>
</g>
<g id="clust3" class="cluster"><title>cluster_inflows</title>
<polygon fill="none" stroke="white" stroke-width="2" points="134,-1028.8 134,-1074.8 244,-1074.8 244,-1028.8 134,-1028.8"/>
</g>
<g id="clust4" class="cluster"><title>cluster_inflows_inner</title>
<polygon fill="none" stroke="white" stroke-width="2" points="142,-1036.8 142,-1066.8 236,-1066.8 236,-1036.8 142,-1036.8"/>
</g>
<g id="clust5" class="cluster"><title>cluster_outflows</title>
<polygon fill="none" stroke="white" stroke-width="2" points="160,-8 160,-54 206,-54 206,-8 160,-8"/>
</g>
<g id="clust6" class="cluster"><title>cluster_outflows_inner</title>
<polygon fill="none" stroke="white" stroke-width="2" points="168,-16 168,-46 198,-46 198,-16 168,-16"/>
</g>
<!-- SHIFT_FREQUENCY_BANDPASSED -->
<g id="node1" class="node"><title>SHIFT_FREQUENCY_BANDPASSED</title>
<polygon fill="#ccffcc" stroke="black" points="300.364,-354.2 65.6361,-354.2 65.6361,-318.2 300.364,-318.2 300.364,-354.2"/>
<text text-anchor="middle" x="183" y="-332" font-family="Courier,monospace" font-size="14.00">SHIFT_FREQUENCY_BANDPASSED</text>
</g>
<!-- strain_H1_shifted -->
<g id="node15" class="node"><title>strain_H1_shifted</title>
<path fill="#ffffcc" stroke="black" d="M162.413,-282.2C162.413,-282.2 61.587,-282.2 61.587,-282.2 55.587,-282.2 49.587,-276.2 49.587,-270.2 49.587,-270.2 49.587,-258.2 49.587,-258.2 49.587,-252.2 55.587,-246.2 61.587,-246.2 61.587,-246.2 162.413,-246.2 162.413,-246.2 168.413,-246.2 174.413,-252.2 174.413,-258.2 174.413,-258.2 174.413,-270.2 174.413,-270.2 174.413,-276.2 168.413,-282.2 162.413,-282.2"/>
<text text-anchor="middle" x="112" y="-260" font-family="Helvetica,sans-Serif" font-size="14.00">strain_H1_shifted</text>
</g>
<!-- SHIFT_FREQUENCY_BANDPASSED&#45;&gt;strain_H1_shifted -->
<g id="edge22" class="edge"><title>SHIFT_FREQUENCY_BANDPASSED&#45;&gt;strain_H1_shifted</title>
<path fill="none" stroke="black" d="M165.449,-317.897C156.766,-309.335 146.137,-298.856 136.652,-289.504"/>
<polygon fill="black" stroke="black" points="138.927,-286.833 129.349,-282.304 134.012,-291.817 138.927,-286.833"/>
</g>
<!-- strain_L1_shifted -->
<g id="node16" class="node"><title>strain_L1_shifted</title>
<path fill="#ffffcc" stroke="black" d="M303.09,-282.2C303.09,-282.2 204.91,-282.2 204.91,-282.2 198.91,-282.2 192.91,-276.2 192.91,-270.2 192.91,-270.2 192.91,-258.2 192.91,-258.2 192.91,-252.2 198.91,-246.2 204.91,-246.2 204.91,-246.2 303.09,-246.2 303.09,-246.2 309.09,-246.2 315.09,-252.2 315.09,-258.2 315.09,-258.2 315.09,-270.2 315.09,-270.2 315.09,-276.2 309.09,-282.2 303.09,-282.2"/>
<text text-anchor="middle" x="254" y="-260" font-family="Helvetica,sans-Serif" font-size="14.00">strain_L1_shifted</text>
</g>
<!-- SHIFT_FREQUENCY_BANDPASSED&#45;&gt;strain_L1_shifted -->
<g id="edge23" class="edge"><title>SHIFT_FREQUENCY_BANDPASSED&#45;&gt;strain_L1_shifted</title>
<path fill="none" stroke="black" d="M200.551,-317.897C209.234,-309.335 219.863,-298.856 229.348,-289.504"/>
<polygon fill="black" stroke="black" points="231.988,-291.817 236.651,-282.304 227.073,-286.833 231.988,-291.817"/>
</g>
<!-- BANDPASSING -->
<g id="node2" class="node"><title>BANDPASSING</title>
<polygon fill="#ccffcc" stroke="black" points="180.385,-498.2 71.6147,-498.2 71.6147,-462.2 180.385,-462.2 180.385,-498.2"/>
<text text-anchor="middle" x="126" y="-476" font-family="Courier,monospace" font-size="14.00">BANDPASSING</text>
</g>
<!-- strain_H1_whitenbp -->
<g id="node13" class="node"><title>strain_H1_whitenbp</title>
<path fill="#ffffcc" stroke="black" d="M162.695,-426.2C162.695,-426.2 47.3055,-426.2 47.3055,-426.2 41.3055,-426.2 35.3055,-420.2 35.3055,-414.2 35.3055,-414.2 35.3055,-402.2 35.3055,-402.2 35.3055,-396.2 41.3055,-390.2 47.3055,-390.2 47.3055,-390.2 162.695,-390.2 162.695,-390.2 168.695,-390.2 174.695,-396.2 174.695,-402.2 174.695,-402.2 174.695,-414.2 174.695,-414.2 174.695,-420.2 168.695,-426.2 162.695,-426.2"/>
<text text-anchor="middle" x="105" y="-404" font-family="Helvetica,sans-Serif" font-size="14.00">strain_H1_whitenbp</text>
</g>
<!-- BANDPASSING&#45;&gt;strain_H1_whitenbp -->
<g id="edge20" class="edge"><title>BANDPASSING&#45;&gt;strain_H1_whitenbp</title>
<path fill="none" stroke="black" d="M120.809,-461.897C118.469,-454.098 115.653,-444.709 113.049,-436.029"/>
<polygon fill="black" stroke="black" points="116.357,-434.877 110.131,-426.304 109.652,-436.888 116.357,-434.877"/>
</g>
<!-- strain_L1_whitenbp -->
<g id="node14" class="node"><title>strain_L1_whitenbp</title>
<path fill="#ffffcc" stroke="black" d="M318.871,-426.2C318.871,-426.2 205.129,-426.2 205.129,-426.2 199.129,-426.2 193.129,-420.2 193.129,-414.2 193.129,-414.2 193.129,-402.2 193.129,-402.2 193.129,-396.2 199.129,-390.2 205.129,-390.2 205.129,-390.2 318.871,-390.2 318.871,-390.2 324.871,-390.2 330.871,-396.2 330.871,-402.2 330.871,-402.2 330.871,-414.2 330.871,-414.2 330.871,-420.2 324.871,-426.2 318.871,-426.2"/>
<text text-anchor="middle" x="262" y="-404" font-family="Helvetica,sans-Serif" font-size="14.00">strain_L1_whitenbp</text>
</g>
<!-- BANDPASSING&#45;&gt;strain_L1_whitenbp -->
<g id="edge21" class="edge"><title>BANDPASSING&#45;&gt;strain_L1_whitenbp</title>
<path fill="none" stroke="black" d="M159.269,-462.076C177.463,-452.712 200.191,-441.014 219.64,-431.003"/>
<polygon fill="black" stroke="black" points="221.313,-434.078 228.603,-426.39 218.11,-427.854 221.313,-434.078"/>
</g>
<!-- WHITENING -->
<g id="node3" class="node"><title>WHITENING</title>
<polygon fill="#ccffcc" stroke="black" points="198.588,-642.2 107.412,-642.2 107.412,-606.2 198.588,-606.2 198.588,-642.2"/>
<text text-anchor="middle" x="153" y="-620" font-family="Courier,monospace" font-size="14.00">WHITENING</text>
</g>
<!-- strain_H1_whiten -->
<g id="node11" class="node"><title>strain_H1_whiten</title>
<path fill="#ffffcc" stroke="black" d="M162.129,-570.2C162.129,-570.2 61.8709,-570.2 61.8709,-570.2 55.8709,-570.2 49.8709,-564.2 49.8709,-558.2 49.8709,-558.2 49.8709,-546.2 49.8709,-546.2 49.8709,-540.2 55.8709,-534.2 61.8709,-534.2 61.8709,-534.2 162.129,-534.2 162.129,-534.2 168.129,-534.2 174.129,-540.2 174.129,-546.2 174.129,-546.2 174.129,-558.2 174.129,-558.2 174.129,-564.2 168.129,-570.2 162.129,-570.2"/>
<text text-anchor="middle" x="112" y="-548" font-family="Helvetica,sans-Serif" font-size="14.00">strain_H1_whiten</text>
</g>
<!-- WHITENING&#45;&gt;strain_H1_whiten -->
<g id="edge18" class="edge"><title>WHITENING&#45;&gt;strain_H1_whiten</title>
<path fill="none" stroke="black" d="M142.865,-605.897C138.148,-597.844 132.438,-588.094 127.218,-579.182"/>
<polygon fill="black" stroke="black" points="130.092,-577.164 122.018,-570.304 124.052,-580.702 130.092,-577.164"/>
</g>
<!-- strain_L1_whiten -->
<g id="node12" class="node"><title>strain_L1_whiten</title>
<path fill="#ffffcc" stroke="black" d="M301.805,-570.2C301.805,-570.2 204.195,-570.2 204.195,-570.2 198.195,-570.2 192.195,-564.2 192.195,-558.2 192.195,-558.2 192.195,-546.2 192.195,-546.2 192.195,-540.2 198.195,-534.2 204.195,-534.2 204.195,-534.2 301.805,-534.2 301.805,-534.2 307.805,-534.2 313.805,-540.2 313.805,-546.2 313.805,-546.2 313.805,-558.2 313.805,-558.2 313.805,-564.2 307.805,-570.2 301.805,-570.2"/>
<text text-anchor="middle" x="253" y="-548" font-family="Helvetica,sans-Serif" font-size="14.00">strain_L1_whiten</text>
</g>
<!-- WHITENING&#45;&gt;strain_L1_whiten -->
<g id="edge19" class="edge"><title>WHITENING&#45;&gt;strain_L1_whiten</title>
<path fill="none" stroke="black" d="M177.463,-606.076C190.296,-597.093 206.196,-585.963 220.094,-576.234"/>
<polygon fill="black" stroke="black" points="222.258,-578.992 228.443,-570.39 218.244,-573.257 222.258,-578.992"/>
</g>
<!-- AMPLITUDE_SPECTRAL_DENSITY -->
<g id="node4" class="node"><title>AMPLITUDE_SPECTRAL_DENSITY</title>
<polygon fill="#ccffcc" stroke="black" points="290.364,-786.2 55.6361,-786.2 55.6361,-750.2 290.364,-750.2 290.364,-786.2"/>
<text text-anchor="middle" x="173" y="-764" font-family="Courier,monospace" font-size="14.00">AMPLITUDE_SPECTRAL_DENSITY</text>
</g>
<!-- PSD_H1 -->
<g id="node9" class="node"><title>PSD_H1</title>
<path fill="#ffffcc" stroke="black" d="M113.453,-714.2C113.453,-714.2 66.5469,-714.2 66.5469,-714.2 60.5469,-714.2 54.5469,-708.2 54.5469,-702.2 54.5469,-702.2 54.5469,-690.2 54.5469,-690.2 54.5469,-684.2 60.5469,-678.2 66.5469,-678.2 66.5469,-678.2 113.453,-678.2 113.453,-678.2 119.453,-678.2 125.453,-684.2 125.453,-690.2 125.453,-690.2 125.453,-702.2 125.453,-702.2 125.453,-708.2 119.453,-714.2 113.453,-714.2"/>
<text text-anchor="middle" x="90" y="-692" font-family="Helvetica,sans-Serif" font-size="14.00">PSD_H1</text>
</g>
<!-- AMPLITUDE_SPECTRAL_DENSITY&#45;&gt;PSD_H1 -->
<g id="edge16" class="edge"><title>AMPLITUDE_SPECTRAL_DENSITY&#45;&gt;PSD_H1</title>
<path fill="none" stroke="black" d="M152.483,-749.897C142.131,-741.165 129.414,-730.44 118.161,-720.95"/>
<polygon fill="black" stroke="black" points="120.182,-718.076 110.281,-714.304 115.669,-723.427 120.182,-718.076"/>
</g>
<!-- PSD_L1 -->
<g id="node10" class="node"><title>PSD_L1</title>
<path fill="#ffffcc" stroke="black" d="M199.128,-714.2C199.128,-714.2 154.872,-714.2 154.872,-714.2 148.872,-714.2 142.872,-708.2 142.872,-702.2 142.872,-702.2 142.872,-690.2 142.872,-690.2 142.872,-684.2 148.872,-678.2 154.872,-678.2 154.872,-678.2 199.128,-678.2 199.128,-678.2 205.128,-678.2 211.128,-684.2 211.128,-690.2 211.128,-690.2 211.128,-702.2 211.128,-702.2 211.128,-708.2 205.128,-714.2 199.128,-714.2"/>
<text text-anchor="middle" x="177" y="-692" font-family="Helvetica,sans-Serif" font-size="14.00">PSD_L1</text>
</g>
<!-- AMPLITUDE_SPECTRAL_DENSITY&#45;&gt;PSD_L1 -->
<g id="edge17" class="edge"><title>AMPLITUDE_SPECTRAL_DENSITY&#45;&gt;PSD_L1</title>
<path fill="none" stroke="black" d="M173.989,-749.897C174.43,-742.183 174.959,-732.912 175.451,-724.312"/>
<polygon fill="black" stroke="black" points="178.946,-724.488 176.023,-714.304 171.958,-724.088 178.946,-724.488"/>
</g>
<!-- LOAD_DATA -->
<g id="node5" class="node"><title>LOAD_DATA</title>
<polygon fill="#ccffcc" stroke="black" points="172.588,-930.2 81.4117,-930.2 81.4117,-894.2 172.588,-894.2 172.588,-930.2"/>
<text text-anchor="middle" x="127" y="-908" font-family="Courier,monospace" font-size="14.00">LOAD_DATA</text>
</g>
<!-- strain_H1 -->
<g id="node7" class="node"><title>strain_H1</title>
<path fill="#ffffcc" stroke="black" d="M105.895,-858.2C105.895,-858.2 54.1051,-858.2 54.1051,-858.2 48.1051,-858.2 42.1051,-852.2 42.1051,-846.2 42.1051,-846.2 42.1051,-834.2 42.1051,-834.2 42.1051,-828.2 48.1051,-822.2 54.1051,-822.2 54.1051,-822.2 105.895,-822.2 105.895,-822.2 111.895,-822.2 117.895,-828.2 117.895,-834.2 117.895,-834.2 117.895,-846.2 117.895,-846.2 117.895,-852.2 111.895,-858.2 105.895,-858.2"/>
<text text-anchor="middle" x="80" y="-836" font-family="Helvetica,sans-Serif" font-size="14.00">strain_H1</text>
</g>
<!-- LOAD_DATA&#45;&gt;strain_H1 -->
<g id="edge14" class="edge"><title>LOAD_DATA&#45;&gt;strain_H1</title>
<path fill="none" stroke="black" d="M115.382,-893.897C109.861,-885.674 103.153,-875.683 97.0682,-866.621"/>
<polygon fill="black" stroke="black" points="99.9645,-864.656 91.4843,-858.304 94.1529,-868.558 99.9645,-864.656"/>
</g>
<!-- strain_L1 -->
<g id="node8" class="node"><title>strain_L1</title>
<path fill="#ffffcc" stroke="black" d="M197.572,-858.2C197.572,-858.2 148.428,-858.2 148.428,-858.2 142.428,-858.2 136.428,-852.2 136.428,-846.2 136.428,-846.2 136.428,-834.2 136.428,-834.2 136.428,-828.2 142.428,-822.2 148.428,-822.2 148.428,-822.2 197.572,-822.2 197.572,-822.2 203.572,-822.2 209.572,-828.2 209.572,-834.2 209.572,-834.2 209.572,-846.2 209.572,-846.2 209.572,-852.2 203.572,-858.2 197.572,-858.2"/>
<text text-anchor="middle" x="173" y="-836" font-family="Helvetica,sans-Serif" font-size="14.00">strain_L1</text>
</g>
<!-- LOAD_DATA&#45;&gt;strain_L1 -->
<g id="edge15" class="edge"><title>LOAD_DATA&#45;&gt;strain_L1</title>
<path fill="none" stroke="black" d="M138.371,-893.897C143.718,-885.759 150.204,-875.889 156.111,-866.901"/>
<polygon fill="black" stroke="black" points="159.193,-868.584 161.76,-858.304 153.343,-864.739 159.193,-868.584"/>
</g>
<!-- WAVE_FILE_GENERATOR_FOR_SHIFTED_DATA -->
<g id="node6" class="node"><title>WAVE_FILE_GENERATOR_FOR_SHIFTED_DATA</title>
<polygon fill="#ccffcc" stroke="black" points="342.35,-210.2 23.6502,-210.2 23.6502,-174.2 342.35,-174.2 342.35,-210.2"/>
<text text-anchor="middle" x="183" y="-188" font-family="Courier,monospace" font-size="14.00">WAVE_FILE_GENERATOR_FOR_SHIFTED_DATA</text>
</g>
<!-- shifted_wavefile -->
<g id="node19" class="node"><title>shifted_wavefile</title>
<path fill="#ffe4b5" stroke="black" d="M124.91,-78.5C124.91,-78.5 241.09,-78.5 241.09,-78.5 247.09,-78.5 253.09,-84.5 253.09,-90.5 253.09,-90.5 253.09,-125.7 253.09,-125.7 253.09,-131.7 247.09,-137.7 241.09,-137.7 241.09,-137.7 124.91,-137.7 124.91,-137.7 118.91,-137.7 112.91,-131.7 112.91,-125.7 112.91,-125.7 112.91,-90.5 112.91,-90.5 112.91,-84.5 118.91,-78.5 124.91,-78.5"/>
<text text-anchor="middle" x="183" y="-125.6" font-family="Courier,monospace" font-weight="bold" font-size="9.00">shifted_wavefile</text>
<polyline fill="none" stroke="black" points="112.91,-118.9 253.09,-118.9 "/>
<text text-anchor="start" x="120.91" y="-106.8" font-family="Courier,monospace" font-weight="bold" font-size="9.00">GW150914_NR_shifted.wav</text>
<text text-anchor="start" x="120.91" y="-96" font-family="Courier,monospace" font-weight="bold" font-size="9.00">GW150914_L1_shifted.wav</text>
<text text-anchor="start" x="120.91" y="-85.2" font-family="Courier,monospace" font-weight="bold" font-size="9.00">GW150914_H1_shifted.wav</text>
</g>
<!-- WAVE_FILE_GENERATOR_FOR_SHIFTED_DATA&#45;&gt;shifted_wavefile -->
<g id="edge24" class="edge"><title>WAVE_FILE_GENERATOR_FOR_SHIFTED_DATA&#45;&gt;shifted_wavefile</title>
<path fill="none" stroke="black" d="M183,-174.189C183,-166.545 183,-157.184 183,-147.969"/>
<polygon fill="black" stroke="black" points="186.5,-147.728 183,-137.728 179.5,-147.728 186.5,-147.728"/>
</g>
<!-- strain_H1&#45;&gt;AMPLITUDE_SPECTRAL_DENSITY -->
<g id="edge10" class="edge"><title>strain_H1&#45;&gt;AMPLITUDE_SPECTRAL_DENSITY</title>
<path fill="none" stroke="black" d="M102.989,-821.897C114.814,-812.996 129.392,-802.023 142.179,-792.399"/>
<polygon fill="black" stroke="black" points="144.391,-795.115 150.276,-786.304 140.181,-789.522 144.391,-795.115"/>
</g>
<!-- strain_L1&#45;&gt;AMPLITUDE_SPECTRAL_DENSITY -->
<g id="edge12" class="edge"><title>strain_L1&#45;&gt;AMPLITUDE_SPECTRAL_DENSITY</title>
<path fill="none" stroke="black" d="M173,-821.897C173,-814.183 173,-804.912 173,-796.312"/>
<polygon fill="black" stroke="black" points="176.5,-796.304 173,-786.304 169.5,-796.304 176.5,-796.304"/>
</g>
<!-- PSD_H1&#45;&gt;WHITENING -->
<g id="edge7" class="edge"><title>PSD_H1&#45;&gt;WHITENING</title>
<path fill="none" stroke="black" d="M105.573,-677.897C113.202,-669.42 122.523,-659.064 130.876,-649.783"/>
<polygon fill="black" stroke="black" points="133.518,-652.079 137.606,-642.304 128.315,-647.396 133.518,-652.079"/>
</g>
<!-- PSD_L1&#45;&gt;WHITENING -->
<g id="edge8" class="edge"><title>PSD_L1&#45;&gt;WHITENING</title>
<path fill="none" stroke="black" d="M171.067,-677.897C168.394,-670.098 165.174,-660.709 162.199,-652.029"/>
<polygon fill="black" stroke="black" points="165.418,-650.629 158.864,-642.304 158.797,-652.899 165.418,-650.629"/>
</g>
<!-- strain_H1_whiten&#45;&gt;BANDPASSING -->
<g id="edge11" class="edge"><title>strain_H1_whiten&#45;&gt;BANDPASSING</title>
<path fill="none" stroke="black" d="M115.461,-533.897C117.003,-526.183 118.858,-516.912 120.578,-508.312"/>
<polygon fill="black" stroke="black" points="124.05,-508.797 122.579,-498.304 117.186,-507.424 124.05,-508.797"/>
</g>
<!-- strain_L1_whiten&#45;&gt;BANDPASSING -->
<g id="edge13" class="edge"><title>strain_L1_whiten&#45;&gt;BANDPASSING</title>
<path fill="none" stroke="black" d="M221.932,-534.076C205.173,-524.839 184.294,-513.331 166.298,-503.412"/>
<polygon fill="black" stroke="black" points="167.634,-500.152 157.187,-498.39 164.255,-506.282 167.634,-500.152"/>
</g>
<!-- strain_H1_whitenbp&#45;&gt;SHIFT_FREQUENCY_BANDPASSED -->
<g id="edge2" class="edge"><title>strain_H1_whitenbp&#45;&gt;SHIFT_FREQUENCY_BANDPASSED</title>
<path fill="none" stroke="black" d="M124.281,-389.897C133.915,-381.25 145.729,-370.649 156.227,-361.227"/>
<polygon fill="black" stroke="black" points="158.836,-363.588 163.941,-354.304 154.161,-358.379 158.836,-363.588"/>
</g>
<!-- strain_L1_whitenbp&#45;&gt;SHIFT_FREQUENCY_BANDPASSED -->
<g id="edge5" class="edge"><title>strain_L1_whitenbp&#45;&gt;SHIFT_FREQUENCY_BANDPASSED</title>
<path fill="none" stroke="black" d="M242.472,-389.897C232.618,-381.165 220.514,-370.44 209.804,-360.95"/>
<polygon fill="black" stroke="black" points="212.109,-358.317 202.303,-354.304 207.467,-363.556 212.109,-358.317"/>
</g>
<!-- strain_H1_shifted&#45;&gt;WAVE_FILE_GENERATOR_FOR_SHIFTED_DATA -->
<g id="edge1" class="edge"><title>strain_H1_shifted&#45;&gt;WAVE_FILE_GENERATOR_FOR_SHIFTED_DATA</title>
<path fill="none" stroke="black" d="M129.551,-245.897C138.234,-237.335 148.863,-226.856 158.348,-217.504"/>
<polygon fill="black" stroke="black" points="160.988,-219.817 165.651,-210.304 156.073,-214.833 160.988,-219.817"/>
</g>
<!-- strain_L1_shifted&#45;&gt;WAVE_FILE_GENERATOR_FOR_SHIFTED_DATA -->
<g id="edge3" class="edge"><title>strain_L1_shifted&#45;&gt;WAVE_FILE_GENERATOR_FOR_SHIFTED_DATA</title>
<path fill="none" stroke="black" d="M236.449,-245.897C227.766,-237.335 217.137,-226.856 207.652,-217.504"/>
<polygon fill="black" stroke="black" points="209.927,-214.833 200.349,-210.304 205.012,-219.817 209.927,-214.833"/>
</g>
<!-- FN_Detector -->
<g id="node17" class="node"><title>FN_Detector</title>
<path fill="#ffe4b5" stroke="black" d="M163.305,-966.7C163.305,-966.7 214.695,-966.7 214.695,-966.7 220.695,-966.7 226.695,-972.7 226.695,-978.7 226.695,-978.7 226.695,-992.3 226.695,-992.3 226.695,-998.3 220.695,-1004.3 214.695,-1004.3 214.695,-1004.3 163.305,-1004.3 163.305,-1004.3 157.305,-1004.3 151.305,-998.3 151.305,-992.3 151.305,-992.3 151.305,-978.7 151.305,-978.7 151.305,-972.7 157.305,-966.7 163.305,-966.7"/>
<text text-anchor="middle" x="189" y="-992.2" font-family="Courier,monospace" font-weight="bold" font-size="9.00">FN_Detector</text>
<polyline fill="none" stroke="black" points="151.305,-985.5 226.695,-985.5 "/>
<text text-anchor="middle" x="189" y="-973.4" font-family="Courier,monospace" font-weight="bold" font-size="9.00"> </text>
</g>
<!-- FN_Detector&#45;&gt;LOAD_DATA -->
<g id="edge4" class="edge"><title>FN_Detector&#45;&gt;LOAD_DATA</title>
<path fill="none" stroke="black" d="M173.355,-966.508C165.844,-957.87 156.724,-947.383 148.567,-938.002"/>
<polygon fill="black" stroke="black" points="151.202,-935.698 141.999,-930.448 145.919,-940.291 151.202,-935.698"/>
</g>
<!-- FN_Sampling_rate -->
<g id="node18" class="node"><title>FN_Sampling_rate</title>
<path fill="#ffe4b5" stroke="black" d="M42.8072,-966.7C42.8072,-966.7 121.193,-966.7 121.193,-966.7 127.193,-966.7 133.193,-972.7 133.193,-978.7 133.193,-978.7 133.193,-992.3 133.193,-992.3 133.193,-998.3 127.193,-1004.3 121.193,-1004.3 121.193,-1004.3 42.8072,-1004.3 42.8072,-1004.3 36.8072,-1004.3 30.8072,-998.3 30.8072,-992.3 30.8072,-992.3 30.8072,-978.7 30.8072,-978.7 30.8072,-972.7 36.8072,-966.7 42.8072,-966.7"/>
<text text-anchor="middle" x="82" y="-992.2" font-family="Courier,monospace" font-weight="bold" font-size="9.00">FN_Sampling_rate</text>
<polyline fill="none" stroke="black" points="30.8072,-985.5 133.193,-985.5 "/>
<text text-anchor="middle" x="82" y="-973.4" font-family="Courier,monospace" font-weight="bold" font-size="9.00"> </text>
</g>
<!-- FN_Sampling_rate&#45;&gt;LOAD_DATA -->
<g id="edge6" class="edge"><title>FN_Sampling_rate&#45;&gt;LOAD_DATA</title>
<path fill="none" stroke="black" d="M93.3554,-966.508C98.5888,-958.216 104.898,-948.219 110.633,-939.133"/>
<polygon fill="black" stroke="black" points="113.736,-940.773 116.114,-930.448 107.817,-937.037 113.736,-940.773"/>
</g>
<!-- shifted_wavefile_outflow -->
<g id="node24" class="node"><title>shifted_wavefile_outflow</title>
<ellipse fill="none" stroke="black" cx="183" cy="-31" rx="7" ry="7"/>
</g>
<!-- shifted_wavefile&#45;&gt;shifted_wavefile_outflow -->
<g id="edge28" class="edge"><title>shifted_wavefile&#45;&gt;shifted_wavefile_outflow</title>
<path fill="none" stroke="black" d="M183,-78.2792C183,-68.1552 183,-57.1351 183,-48.3889"/>
<polygon fill="black" stroke="black" points="186.5,-48.1696 183,-38.1697 179.5,-48.1697 186.5,-48.1696"/>
</g>
<!-- fs -->
<g id="node20" class="node"><title>fs</title>
<path fill="#ffffff" stroke="black" d="M270,-858.2C270,-858.2 240,-858.2 240,-858.2 234,-858.2 228,-852.2 228,-846.2 228,-846.2 228,-834.2 228,-834.2 228,-828.2 234,-822.2 240,-822.2 240,-822.2 270,-822.2 270,-822.2 276,-822.2 282,-828.2 282,-834.2 282,-834.2 282,-846.2 282,-846.2 282,-852.2 276,-858.2 270,-858.2"/>
<text text-anchor="middle" x="255" y="-837.5" font-family="Helvetica,sans-Serif" font-size="9.00">fs</text>
</g>
<!-- fs&#45;&gt;AMPLITUDE_SPECTRAL_DENSITY -->
<g id="edge9" class="edge"><title>fs&#45;&gt;AMPLITUDE_SPECTRAL_DENSITY</title>
<path fill="none" stroke="black" d="M234.73,-821.897C224.502,-813.165 211.939,-802.44 200.822,-792.95"/>
<polygon fill="black" stroke="black" points="202.915,-790.135 193.037,-786.304 198.37,-795.459 202.915,-790.135"/>
</g>
<!-- fs_inflow -->
<g id="node21" class="node"><title>fs_inflow</title>
<ellipse fill="none" stroke="black" cx="221" cy="-1051.8" rx="7" ry="7"/>
</g>
<!-- fs_inflow&#45;&gt;fs -->
<g id="edge25" class="edge"><title>fs_inflow&#45;&gt;fs</title>
<path fill="none" stroke="black" d="M224.381,-1045.51C227.917,-1039.7 233.319,-1029.97 236,-1020.8 251.314,-968.437 254.588,-904.284 255.114,-868.559"/>
<polygon fill="black" stroke="black" points="258.615,-868.458 255.2,-858.429 251.615,-868.399 258.615,-868.458"/>
</g>
<!-- FN_Detector_inflow -->
<g id="node22" class="node"><title>FN_Detector_inflow</title>
<ellipse fill="none" stroke="black" cx="189" cy="-1051.8" rx="7" ry="7"/>
</g>
<!-- FN_Detector_inflow&#45;&gt;FN_Detector -->
<g id="edge26" class="edge"><title>FN_Detector_inflow&#45;&gt;FN_Detector</title>
<path fill="none" stroke="black" d="M189,-1044.4C189,-1037.42 189,-1025.76 189,-1014.73"/>
<polygon fill="black" stroke="black" points="192.5,-1014.52 189,-1004.52 185.5,-1014.52 192.5,-1014.52"/>
</g>
<!-- FN_Sampling_rate_inflow -->
<g id="node23" class="node"><title>FN_Sampling_rate_inflow</title>
<ellipse fill="none" stroke="black" cx="157" cy="-1051.8" rx="7" ry="7"/>
</g>
<!-- FN_Sampling_rate_inflow&#45;&gt;FN_Sampling_rate -->
<g id="edge27" class="edge"><title>FN_Sampling_rate_inflow&#45;&gt;FN_Sampling_rate</title>
<path fill="none" stroke="black" d="M152.079,-1046.58C143.754,-1039.44 126.289,-1024.47 110.879,-1011.26"/>
<polygon fill="black" stroke="black" points="112.936,-1008.41 103.066,-1004.56 108.38,-1013.73 112.936,-1008.41"/>
</g>
</g>
</svg>
