<?xml version="1.0" encoding="UTF-8" standalone="no"?>
<!DOCTYPE svg PUBLIC "-//W3C//DTD SVG 1.1//EN"
 "http://www.w3.org/Graphics/SVG/1.1/DTD/svg11.dtd">
<!-- Generated by graphviz version 2.38.0 (20140413.2041)
 -->
<!-- Title: yw_data_view Pages: 1 -->
<svg width="382pt" height="976pt"
 viewBox="0.00 0.00 382.00 976.40" xmlns="http://www.w3.org/2000/svg" xmlns:xlink="http://www.w3.org/1999/xlink">
<g id="graph0" class="graph" transform="scale(1 1) rotate(0) translate(4 972.4)">
<title>yw_data_view</title>
<polygon fill="white" stroke="none" points="-4,4 -4,-972.4 378,-972.4 378,4 -4,4"/>
<text text-anchor="middle" x="187" y="-948.2" font-family="Courier,monospace" font-size="18.00">GRAVITATIONAL_WAVE_DETECTION</text>
<g id="clust1" class="cluster"><title>cluster_workflow</title>
<polygon fill="none" stroke="black" stroke-width="2" points="8,-62 8,-876.8 366,-876.8 366,-62 8,-62"/>
</g>
<g id="clust2" class="cluster"><title>cluster_workflow_inner</title>
<polygon fill="none" stroke="white" stroke-width="2" points="16,-70 16,-868.8 358,-868.8 358,-70 16,-70"/>
</g>
<g id="clust3" class="cluster"><title>cluster_inflows</title>
<polygon fill="none" stroke="white" stroke-width="2" points="134,-884.8 134,-930.8 244,-930.8 244,-884.8 134,-884.8"/>
</g>
<g id="clust4" class="cluster"><title>cluster_inflows_inner</title>
<polygon fill="none" stroke="white" stroke-width="2" points="142,-892.8 142,-922.8 236,-922.8 236,-892.8 142,-892.8"/>
</g>
<g id="clust5" class="cluster"><title>cluster_outflows</title>
<polygon fill="none" stroke="white" stroke-width="2" points="164,-8 164,-54 210,-54 210,-8 164,-8"/>
</g>
<g id="clust6" class="cluster"><title>cluster_outflows_inner</title>
<polygon fill="none" stroke="white" stroke-width="2" points="172,-16 172,-46 202,-46 202,-16 172,-16"/>
</g>
<!-- BANDPASSING -->
<g id="node1" class="node"><title>BANDPASSING</title>
<polygon fill="#ccffcc" stroke="black" points="184.385,-354.2 75.6147,-354.2 75.6147,-318.2 184.385,-318.2 184.385,-354.2"/>
<text text-anchor="middle" x="130" y="-332" font-family="Courier,monospace" font-size="14.00">BANDPASSING</text>
</g>
<!-- strain_H1_whitenbp -->
<g id="node12" class="node"><title>strain_H1_whitenbp</title>
<path fill="#ffffcc" stroke="black" d="M166.695,-282.2C166.695,-282.2 51.3055,-282.2 51.3055,-282.2 45.3055,-282.2 39.3055,-276.2 39.3055,-270.2 39.3055,-270.2 39.3055,-258.2 39.3055,-258.2 39.3055,-252.2 45.3055,-246.2 51.3055,-246.2 51.3055,-246.2 166.695,-246.2 166.695,-246.2 172.695,-246.2 178.695,-252.2 178.695,-258.2 178.695,-258.2 178.695,-270.2 178.695,-270.2 178.695,-276.2 172.695,-282.2 166.695,-282.2"/>
<text text-anchor="middle" x="109" y="-260" font-family="Helvetica,sans-Serif" font-size="14.00">strain_H1_whitenbp</text>
</g>
<!-- BANDPASSING&#45;&gt;strain_H1_whitenbp -->
<g id="edge18" class="edge"><title>BANDPASSING&#45;&gt;strain_H1_whitenbp</title>
<path fill="none" stroke="black" d="M124.809,-317.897C122.469,-310.098 119.653,-300.709 117.049,-292.029"/>
<polygon fill="black" stroke="black" points="120.357,-290.877 114.131,-282.304 113.652,-292.888 120.357,-290.877"/>
</g>
<!-- strain_L1_whitenbp -->
<g id="node13" class="node"><title>strain_L1_whitenbp</title>
<path fill="#ffffcc" stroke="black" d="M322.871,-282.2C322.871,-282.2 209.129,-282.2 209.129,-282.2 203.129,-282.2 197.129,-276.2 197.129,-270.2 197.129,-270.2 197.129,-258.2 197.129,-258.2 197.129,-252.2 203.129,-246.2 209.129,-246.2 209.129,-246.2 322.871,-246.2 322.871,-246.2 328.871,-246.2 334.871,-252.2 334.871,-258.2 334.871,-258.2 334.871,-270.2 334.871,-270.2 334.871,-276.2 328.871,-282.2 322.871,-282.2"/>
<text text-anchor="middle" x="266" y="-260" font-family="Helvetica,sans-Serif" font-size="14.00">strain_L1_whitenbp</text>
</g>
<!-- BANDPASSING&#45;&gt;strain_L1_whitenbp -->
<g id="edge19" class="edge"><title>BANDPASSING&#45;&gt;strain_L1_whitenbp</title>
<path fill="none" stroke="black" d="M163.269,-318.076C181.463,-308.712 204.191,-297.014 223.64,-287.003"/>
<polygon fill="black" stroke="black" points="225.313,-290.078 232.603,-282.39 222.11,-283.854 225.313,-290.078"/>
</g>
<!-- WHITENING -->
<g id="node2" class="node"><title>WHITENING</title>
<polygon fill="#ccffcc" stroke="black" points="202.588,-498.2 111.412,-498.2 111.412,-462.2 202.588,-462.2 202.588,-498.2"/>
<text text-anchor="middle" x="157" y="-476" font-family="Courier,monospace" font-size="14.00">WHITENING</text>
</g>
<!-- strain_H1_whiten -->
<g id="node10" class="node"><title>strain_H1_whiten</title>
<path fill="#ffffcc" stroke="black" d="M166.129,-426.2C166.129,-426.2 65.8709,-426.2 65.8709,-426.2 59.8709,-426.2 53.8709,-420.2 53.8709,-414.2 53.8709,-414.2 53.8709,-402.2 53.8709,-402.2 53.8709,-396.2 59.8709,-390.2 65.8709,-390.2 65.8709,-390.2 166.129,-390.2 166.129,-390.2 172.129,-390.2 178.129,-396.2 178.129,-402.2 178.129,-402.2 178.129,-414.2 178.129,-414.2 178.129,-420.2 172.129,-426.2 166.129,-426.2"/>
<text text-anchor="middle" x="116" y="-404" font-family="Helvetica,sans-Serif" font-size="14.00">strain_H1_whiten</text>
</g>
<!-- WHITENING&#45;&gt;strain_H1_whiten -->
<g id="edge16" class="edge"><title>WHITENING&#45;&gt;strain_H1_whiten</title>
<path fill="none" stroke="black" d="M146.865,-461.897C142.148,-453.844 136.438,-444.094 131.218,-435.182"/>
<polygon fill="black" stroke="black" points="134.092,-433.164 126.018,-426.304 128.052,-436.702 134.092,-433.164"/>
</g>
<!-- strain_L1_whiten -->
<g id="node11" class="node"><title>strain_L1_whiten</title>
<path fill="#ffffcc" stroke="black" d="M305.805,-426.2C305.805,-426.2 208.195,-426.2 208.195,-426.2 202.195,-426.2 196.195,-420.2 196.195,-414.2 196.195,-414.2 196.195,-402.2 196.195,-402.2 196.195,-396.2 202.195,-390.2 208.195,-390.2 208.195,-390.2 305.805,-390.2 305.805,-390.2 311.805,-390.2 317.805,-396.2 317.805,-402.2 317.805,-402.2 317.805,-414.2 317.805,-414.2 317.805,-420.2 311.805,-426.2 305.805,-426.2"/>
<text text-anchor="middle" x="257" y="-404" font-family="Helvetica,sans-Serif" font-size="14.00">strain_L1_whiten</text>
</g>
<!-- WHITENING&#45;&gt;strain_L1_whiten -->
<g id="edge17" class="edge"><title>WHITENING&#45;&gt;strain_L1_whiten</title>
<path fill="none" stroke="black" d="M181.463,-462.076C194.296,-453.093 210.196,-441.963 224.094,-432.234"/>
<polygon fill="black" stroke="black" points="226.258,-434.992 232.443,-426.39 222.244,-429.257 226.258,-434.992"/>
</g>
<!-- AMPLITUDE_SPECTRAL_DENSITY -->
<g id="node3" class="node"><title>AMPLITUDE_SPECTRAL_DENSITY</title>
<polygon fill="#ccffcc" stroke="black" points="290.364,-642.2 55.6361,-642.2 55.6361,-606.2 290.364,-606.2 290.364,-642.2"/>
<text text-anchor="middle" x="173" y="-620" font-family="Courier,monospace" font-size="14.00">AMPLITUDE_SPECTRAL_DENSITY</text>
</g>
<!-- PSD_H1 -->
<g id="node8" class="node"><title>PSD_H1</title>
<path fill="#ffffcc" stroke="black" d="M113.453,-570.2C113.453,-570.2 66.5469,-570.2 66.5469,-570.2 60.5469,-570.2 54.5469,-564.2 54.5469,-558.2 54.5469,-558.2 54.5469,-546.2 54.5469,-546.2 54.5469,-540.2 60.5469,-534.2 66.5469,-534.2 66.5469,-534.2 113.453,-534.2 113.453,-534.2 119.453,-534.2 125.453,-540.2 125.453,-546.2 125.453,-546.2 125.453,-558.2 125.453,-558.2 125.453,-564.2 119.453,-570.2 113.453,-570.2"/>
<text text-anchor="middle" x="90" y="-548" font-family="Helvetica,sans-Serif" font-size="14.00">PSD_H1</text>
</g>
<!-- AMPLITUDE_SPECTRAL_DENSITY&#45;&gt;PSD_H1 -->
<g id="edge14" class="edge"><title>AMPLITUDE_SPECTRAL_DENSITY&#45;&gt;PSD_H1</title>
<path fill="none" stroke="black" d="M152.483,-605.897C142.131,-597.165 129.414,-586.44 118.161,-576.95"/>
<polygon fill="black" stroke="black" points="120.182,-574.076 110.281,-570.304 115.669,-579.427 120.182,-574.076"/>
</g>
<!-- PSD_L1 -->
<g id="node9" class="node"><title>PSD_L1</title>
<path fill="#ffffcc" stroke="black" d="M199.128,-570.2C199.128,-570.2 154.872,-570.2 154.872,-570.2 148.872,-570.2 142.872,-564.2 142.872,-558.2 142.872,-558.2 142.872,-546.2 142.872,-546.2 142.872,-540.2 148.872,-534.2 154.872,-534.2 154.872,-534.2 199.128,-534.2 199.128,-534.2 205.128,-534.2 211.128,-540.2 211.128,-546.2 211.128,-546.2 211.128,-558.2 211.128,-558.2 211.128,-564.2 205.128,-570.2 199.128,-570.2"/>
<text text-anchor="middle" x="177" y="-548" font-family="Helvetica,sans-Serif" font-size="14.00">PSD_L1</text>
</g>
<!-- AMPLITUDE_SPECTRAL_DENSITY&#45;&gt;PSD_L1 -->
<g id="edge15" class="edge"><title>AMPLITUDE_SPECTRAL_DENSITY&#45;&gt;PSD_L1</title>
<path fill="none" stroke="black" d="M173.989,-605.897C174.43,-598.183 174.959,-588.912 175.451,-580.312"/>
<polygon fill="black" stroke="black" points="178.946,-580.488 176.023,-570.304 171.958,-580.088 178.946,-580.488"/>
</g>
<!-- LOAD_DATA -->
<g id="node4" class="node"><title>LOAD_DATA</title>
<polygon fill="#ccffcc" stroke="black" points="172.588,-786.2 81.4117,-786.2 81.4117,-750.2 172.588,-750.2 172.588,-786.2"/>
<text text-anchor="middle" x="127" y="-764" font-family="Courier,monospace" font-size="14.00">LOAD_DATA</text>
</g>
<!-- strain_H1 -->
<g id="node6" class="node"><title>strain_H1</title>
<path fill="#ffffcc" stroke="black" d="M105.895,-714.2C105.895,-714.2 54.1051,-714.2 54.1051,-714.2 48.1051,-714.2 42.1051,-708.2 42.1051,-702.2 42.1051,-702.2 42.1051,-690.2 42.1051,-690.2 42.1051,-684.2 48.1051,-678.2 54.1051,-678.2 54.1051,-678.2 105.895,-678.2 105.895,-678.2 111.895,-678.2 117.895,-684.2 117.895,-690.2 117.895,-690.2 117.895,-702.2 117.895,-702.2 117.895,-708.2 111.895,-714.2 105.895,-714.2"/>
<text text-anchor="middle" x="80" y="-692" font-family="Helvetica,sans-Serif" font-size="14.00">strain_H1</text>
</g>
<!-- LOAD_DATA&#45;&gt;strain_H1 -->
<g id="edge12" class="edge"><title>LOAD_DATA&#45;&gt;strain_H1</title>
<path fill="none" stroke="black" d="M115.382,-749.897C109.861,-741.674 103.153,-731.683 97.0682,-722.621"/>
<polygon fill="black" stroke="black" points="99.9645,-720.656 91.4843,-714.304 94.1529,-724.558 99.9645,-720.656"/>
</g>
<!-- strain_L1 -->
<g id="node7" class="node"><title>strain_L1</title>
<path fill="#ffffcc" stroke="black" d="M197.572,-714.2C197.572,-714.2 148.428,-714.2 148.428,-714.2 142.428,-714.2 136.428,-708.2 136.428,-702.2 136.428,-702.2 136.428,-690.2 136.428,-690.2 136.428,-684.2 142.428,-678.2 148.428,-678.2 148.428,-678.2 197.572,-678.2 197.572,-678.2 203.572,-678.2 209.572,-684.2 209.572,-690.2 209.572,-690.2 209.572,-702.2 209.572,-702.2 209.572,-708.2 203.572,-714.2 197.572,-714.2"/>
<text text-anchor="middle" x="173" y="-692" font-family="Helvetica,sans-Serif" font-size="14.00">strain_L1</text>
</g>
<!-- LOAD_DATA&#45;&gt;strain_L1 -->
<g id="edge13" class="edge"><title>LOAD_DATA&#45;&gt;strain_L1</title>
<path fill="none" stroke="black" d="M138.371,-749.897C143.718,-741.759 150.204,-731.889 156.111,-722.901"/>
<polygon fill="black" stroke="black" points="159.193,-724.584 161.76,-714.304 153.343,-720.739 159.193,-724.584"/>
</g>
<!-- WAVE_FILE_GENERATOR_FOR_WHITENED_DATA -->
<g id="node5" class="node"><title>WAVE_FILE_GENERATOR_FOR_WHITENED_DATA</title>
<polygon fill="#ccffcc" stroke="black" points="350.248,-210.2 23.7517,-210.2 23.7517,-174.2 350.248,-174.2 350.248,-210.2"/>
<text text-anchor="middle" x="187" y="-188" font-family="Courier,monospace" font-size="14.00">WAVE_FILE_GENERATOR_FOR_WHITENED_DATA</text>
</g>
<!-- whitened_bandpass_wavefile -->
<g id="node16" class="node"><title>whitened_bandpass_wavefile</title>
<path fill="#ffe4b5" stroke="black" d="M120.812,-78.5C120.812,-78.5 253.188,-78.5 253.188,-78.5 259.188,-78.5 265.188,-84.5 265.188,-90.5 265.188,-90.5 265.188,-125.7 265.188,-125.7 265.188,-131.7 259.188,-137.7 253.188,-137.7 253.188,-137.7 120.812,-137.7 120.812,-137.7 114.812,-137.7 108.812,-131.7 108.812,-125.7 108.812,-125.7 108.812,-90.5 108.812,-90.5 108.812,-84.5 114.812,-78.5 120.812,-78.5"/>
<text text-anchor="middle" x="187" y="-125.6" font-family="Courier,monospace" font-weight="bold" font-size="9.00">whitened_bandpass_wavefile</text>
<polyline fill="none" stroke="black" points="108.812,-118.9 265.188,-118.9 "/>
<text text-anchor="start" x="116.812" y="-106.8" font-family="Courier,monospace" font-weight="bold" font-size="9.00">GW150914_NR_whitenbp.wav</text>
<text text-anchor="start" x="116.812" y="-96" font-family="Courier,monospace" font-weight="bold" font-size="9.00">GW150914_L1_whitenbp.wav</text>
<text text-anchor="start" x="116.812" y="-85.2" font-family="Courier,monospace" font-weight="bold" font-size="9.00">GW150914_H1_whitenbp.wav</text>
</g>
<!-- WAVE_FILE_GENERATOR_FOR_WHITENED_DATA&#45;&gt;whitened_bandpass_wavefile -->
<g id="edge20" class="edge"><title>WAVE_FILE_GENERATOR_FOR_WHITENED_DATA&#45;&gt;whitened_bandpass_wavefile</title>
<path fill="none" stroke="black" d="M187,-174.189C187,-166.545 187,-157.184 187,-147.969"/>
<polygon fill="black" stroke="black" points="190.5,-147.728 187,-137.728 183.5,-147.728 190.5,-147.728"/>
</g>
<!-- strain_H1&#45;&gt;AMPLITUDE_SPECTRAL_DENSITY -->
<g id="edge8" class="edge"><title>strain_H1&#45;&gt;AMPLITUDE_SPECTRAL_DENSITY</title>
<path fill="none" stroke="black" d="M102.989,-677.897C114.814,-668.996 129.392,-658.023 142.179,-648.399"/>
<polygon fill="black" stroke="black" points="144.391,-651.115 150.276,-642.304 140.181,-645.522 144.391,-651.115"/>
</g>
<!-- strain_L1&#45;&gt;AMPLITUDE_SPECTRAL_DENSITY -->
<g id="edge10" class="edge"><title>strain_L1&#45;&gt;AMPLITUDE_SPECTRAL_DENSITY</title>
<path fill="none" stroke="black" d="M173,-677.897C173,-670.183 173,-660.912 173,-652.312"/>
<polygon fill="black" stroke="black" points="176.5,-652.304 173,-642.304 169.5,-652.304 176.5,-652.304"/>
</g>
<!-- PSD_H1&#45;&gt;WHITENING -->
<g id="edge5" class="edge"><title>PSD_H1&#45;&gt;WHITENING</title>
<path fill="none" stroke="black" d="M106.562,-533.897C114.675,-525.42 124.588,-515.064 133.471,-505.783"/>
<polygon fill="black" stroke="black" points="136.243,-507.949 140.629,-498.304 131.186,-503.108 136.243,-507.949"/>
</g>
<!-- PSD_L1&#45;&gt;WHITENING -->
<g id="edge6" class="edge"><title>PSD_L1&#45;&gt;WHITENING</title>
<path fill="none" stroke="black" d="M172.056,-533.897C169.828,-526.098 167.145,-516.709 164.665,-508.029"/>
<polygon fill="black" stroke="black" points="168,-506.958 161.887,-498.304 161.269,-508.881 168,-506.958"/>
</g>
<!-- strain_H1_whiten&#45;&gt;BANDPASSING -->
<g id="edge9" class="edge"><title>strain_H1_whiten&#45;&gt;BANDPASSING</title>
<path fill="none" stroke="black" d="M119.461,-389.897C121.003,-382.183 122.858,-372.912 124.578,-364.312"/>
<polygon fill="black" stroke="black" points="128.05,-364.797 126.579,-354.304 121.186,-363.424 128.05,-364.797"/>
</g>
<!-- strain_L1_whiten&#45;&gt;BANDPASSING -->
<g id="edge11" class="edge"><title>strain_L1_whiten&#45;&gt;BANDPASSING</title>
<path fill="none" stroke="black" d="M225.932,-390.076C209.173,-380.839 188.294,-369.331 170.298,-359.412"/>
<polygon fill="black" stroke="black" points="171.634,-356.152 161.187,-354.39 168.255,-362.282 171.634,-356.152"/>
</g>
<!-- strain_H1_whitenbp&#45;&gt;WAVE_FILE_GENERATOR_FOR_WHITENED_DATA -->
<g id="edge1" class="edge"><title>strain_H1_whitenbp&#45;&gt;WAVE_FILE_GENERATOR_FOR_WHITENED_DATA</title>
<path fill="none" stroke="black" d="M128.281,-245.897C137.915,-237.25 149.729,-226.649 160.227,-217.227"/>
<polygon fill="black" stroke="black" points="162.836,-219.588 167.941,-210.304 158.161,-214.379 162.836,-219.588"/>
</g>
<!-- strain_L1_whitenbp&#45;&gt;WAVE_FILE_GENERATOR_FOR_WHITENED_DATA -->
<g id="edge3" class="edge"><title>strain_L1_whitenbp&#45;&gt;WAVE_FILE_GENERATOR_FOR_WHITENED_DATA</title>
<path fill="none" stroke="black" d="M246.472,-245.897C236.618,-237.165 224.514,-226.44 213.804,-216.95"/>
<polygon fill="black" stroke="black" points="216.109,-214.317 206.303,-210.304 211.467,-219.556 216.109,-214.317"/>
</g>
<!-- FN_Detector -->
<g id="node14" class="node"><title>FN_Detector</title>
<path fill="#ffe4b5" stroke="black" d="M163.305,-822.7C163.305,-822.7 214.695,-822.7 214.695,-822.7 220.695,-822.7 226.695,-828.7 226.695,-834.7 226.695,-834.7 226.695,-848.3 226.695,-848.3 226.695,-854.3 220.695,-860.3 214.695,-860.3 214.695,-860.3 163.305,-860.3 163.305,-860.3 157.305,-860.3 151.305,-854.3 151.305,-848.3 151.305,-848.3 151.305,-834.7 151.305,-834.7 151.305,-828.7 157.305,-822.7 163.305,-822.7"/>
<text text-anchor="middle" x="189" y="-848.2" font-family="Courier,monospace" font-weight="bold" font-size="9.00">FN_Detector</text>
<polyline fill="none" stroke="black" points="151.305,-841.5 226.695,-841.5 "/>
<text text-anchor="middle" x="189" y="-829.4" font-family="Courier,monospace" font-weight="bold" font-size="9.00"> </text>
</g>
<!-- FN_Detector&#45;&gt;LOAD_DATA -->
<g id="edge2" class="edge"><title>FN_Detector&#45;&gt;LOAD_DATA</title>
<path fill="none" stroke="black" d="M173.355,-822.508C165.844,-813.87 156.724,-803.383 148.567,-794.002"/>
<polygon fill="black" stroke="black" points="151.202,-791.698 141.999,-786.448 145.919,-796.291 151.202,-791.698"/>
</g>
<!-- FN_Sampling_rate -->
<g id="node15" class="node"><title>FN_Sampling_rate</title>
<path fill="#ffe4b5" stroke="black" d="M42.8072,-822.7C42.8072,-822.7 121.193,-822.7 121.193,-822.7 127.193,-822.7 133.193,-828.7 133.193,-834.7 133.193,-834.7 133.193,-848.3 133.193,-848.3 133.193,-854.3 127.193,-860.3 121.193,-860.3 121.193,-860.3 42.8072,-860.3 42.8072,-860.3 36.8072,-860.3 30.8072,-854.3 30.8072,-848.3 30.8072,-848.3 30.8072,-834.7 30.8072,-834.7 30.8072,-828.7 36.8072,-822.7 42.8072,-822.7"/>
<text text-anchor="middle" x="82" y="-848.2" font-family="Courier,monospace" font-weight="bold" font-size="9.00">FN_Sampling_rate</text>
<polyline fill="none" stroke="black" points="30.8072,-841.5 133.193,-841.5 "/>
<text text-anchor="middle" x="82" y="-829.4" font-family="Courier,monospace" font-weight="bold" font-size="9.00"> </text>
</g>
<!-- FN_Sampling_rate&#45;&gt;LOAD_DATA -->
<g id="edge4" class="edge"><title>FN_Sampling_rate&#45;&gt;LOAD_DATA</title>
<path fill="none" stroke="black" d="M93.3554,-822.508C98.5888,-814.216 104.898,-804.219 110.633,-795.133"/>
<polygon fill="black" stroke="black" points="113.736,-796.773 116.114,-786.448 107.817,-793.037 113.736,-796.773"/>
</g>
<!-- whitened_bandpass_wavefile_outflow -->
<g id="node21" class="node"><title>whitened_bandpass_wavefile_outflow</title>
<ellipse fill="none" stroke="black" cx="187" cy="-31" rx="7" ry="7"/>
</g>
<!-- whitened_bandpass_wavefile&#45;&gt;whitened_bandpass_wavefile_outflow -->
<g id="edge24" class="edge"><title>whitened_bandpass_wavefile&#45;&gt;whitened_bandpass_wavefile_outflow</title>
<path fill="none" stroke="black" d="M187,-78.2792C187,-68.1552 187,-57.1351 187,-48.3889"/>
<polygon fill="black" stroke="black" points="190.5,-48.1696 187,-38.1697 183.5,-48.1697 190.5,-48.1696"/>
</g>
<!-- fs -->
<g id="node17" class="node"><title>fs</title>
<path fill="#ffffff" stroke="black" d="M270,-714.2C270,-714.2 240,-714.2 240,-714.2 234,-714.2 228,-708.2 228,-702.2 228,-702.2 228,-690.2 228,-690.2 228,-684.2 234,-678.2 240,-678.2 240,-678.2 270,-678.2 270,-678.2 276,-678.2 282,-684.2 282,-690.2 282,-690.2 282,-702.2 282,-702.2 282,-708.2 276,-714.2 270,-714.2"/>
<text text-anchor="middle" x="255" y="-693.5" font-family="Helvetica,sans-Serif" font-size="9.00">fs</text>
</g>
<!-- fs&#45;&gt;AMPLITUDE_SPECTRAL_DENSITY -->
<g id="edge7" class="edge"><title>fs&#45;&gt;AMPLITUDE_SPECTRAL_DENSITY</title>
<path fill="none" stroke="black" d="M234.73,-677.897C224.502,-669.165 211.939,-658.44 200.822,-648.95"/>
<polygon fill="black" stroke="black" points="202.915,-646.135 193.037,-642.304 198.37,-651.459 202.915,-646.135"/>
</g>
<!-- fs_inflow -->
<g id="node18" class="node"><title>fs_inflow</title>
<ellipse fill="none" stroke="black" cx="221" cy="-907.8" rx="7" ry="7"/>
</g>
<!-- fs_inflow&#45;&gt;fs -->
<g id="edge21" class="edge"><title>fs_inflow&#45;&gt;fs</title>
<path fill="none" stroke="black" d="M224.381,-901.513C227.917,-895.7 233.319,-885.966 236,-876.8 251.314,-824.437 254.588,-760.284 255.114,-724.559"/>
<polygon fill="black" stroke="black" points="258.615,-724.458 255.2,-714.429 251.615,-724.399 258.615,-724.458"/>
</g>
<!-- FN_Detector_inflow -->
<g id="node19" class="node"><title>FN_Detector_inflow</title>
<ellipse fill="none" stroke="black" cx="189" cy="-907.8" rx="7" ry="7"/>
</g>
<!-- FN_Detector_inflow&#45;&gt;FN_Detector -->
<g id="edge22" class="edge"><title>FN_Detector_inflow&#45;&gt;FN_Detector</title>
<path fill="none" stroke="black" d="M189,-900.4C189,-893.419 189,-881.763 189,-870.732"/>
<polygon fill="black" stroke="black" points="192.5,-870.521 189,-860.521 185.5,-870.521 192.5,-870.521"/>
</g>
<!-- FN_Sampling_rate_inflow -->
<g id="node20" class="node"><title>FN_Sampling_rate_inflow</title>
<ellipse fill="none" stroke="black" cx="157" cy="-907.8" rx="7" ry="7"/>
</g>
<!-- FN_Sampling_rate_inflow&#45;&gt;FN_Sampling_rate -->
<g id="edge23" class="edge"><title>FN_Sampling_rate_inflow&#45;&gt;FN_Sampling_rate</title>
<path fill="none" stroke="black" d="M152.079,-902.581C143.754,-895.443 126.289,-880.471 110.879,-867.259"/>
<polygon fill="black" stroke="black" points="112.936,-864.412 103.066,-860.561 108.38,-869.727 112.936,-864.412"/>
</g>
</g>
</svg>
