<?xml version="1.0" encoding="UTF-8" standalone="no"?>
<!DOCTYPE svg PUBLIC "-//W3C//DTD SVG 1.1//EN"
 "http://www.w3.org/Graphics/SVG/1.1/DTD/svg11.dtd">
<!-- Generated by graphviz version 2.36.0 (20140111.2315)
 -->
<!-- Title: Workflow Pages: 1 -->
<svg width="565pt" height="576pt"
 viewBox="0.00 0.00 565.00 576.00" xmlns="http://www.w3.org/2000/svg" xmlns:xlink="http://www.w3.org/1999/xlink">
<g id="graph0" class="graph" transform="scale(1 1) rotate(0) translate(4 572)">
<title>Workflow</title>
<polygon fill="white" stroke="none" points="-4,4 -4,-572 561,-572 561,4 -4,4"/>
<text text-anchor="middle" x="278.5" y="-549.6" font-family="Courier,monospace" font-size="18.00">clean_name_and_date_workflow</text>
<g id="clust1" class="cluster"><title>cluster_workflow_box_outer</title>
<polygon fill="none" stroke="black" stroke-width="2" points="8,-62 8,-478 549,-478 549,-62 8,-62"/>
</g>
<g id="clust2" class="cluster"><title>cluster_workflow_box_inner</title>
<polygon fill="none" stroke="white" stroke-width="2" points="16,-70 16,-470 541,-470 541,-70 16,-70"/>
</g>
<g id="clust3" class="cluster"><title>cluster_input_ports_group_outer</title>
<polygon fill="none" stroke="white" points="267,-486 267,-532 345,-532 345,-486 267,-486"/>
</g>
<g id="clust4" class="cluster"><title>cluster_input_ports_group_inner</title>
<polygon fill="none" stroke="white" points="275,-494 275,-524 337,-524 337,-494 275,-494"/>
</g>
<g id="clust5" class="cluster"><title>cluster_output_ports_group_outer</title>
<polygon fill="none" stroke="white" points="311,-8 311,-54 421,-54 421,-8 311,-8"/>
</g>
<g id="clust6" class="cluster"><title>cluster_output_ports_group_inner</title>
<polygon fill="none" stroke="white" points="319,-16 319,-46 413,-46 413,-16 319,-16"/>
</g>
<!-- clean_scientific_name -->
<g id="node1" class="node"><title>clean_scientific_name</title>
<polygon fill="#ccffcc" stroke="black" points="195.5,-331 195.5,-377 430.5,-377 430.5,-331 195.5,-331"/>
<text text-anchor="middle" x="313" y="-361.8" font-family="Courier,monospace" font-size="14.00">clean_scientific_name</text>
<polyline fill="none" stroke="black" points="195.5,-354 430.5,-354 "/>
<text text-anchor="middle" x="313" y="-338.8" font-family="Courier,monospace" font-size="14.00">Clean scientificName field</text>
</g>
<!-- name_cleaning_log -->
<g id="node3" class="node"><title>name_cleaning_log</title>
<path fill="#ffffcc" stroke="black" d="M401,-247C401,-247 521,-247 521,-247 527,-247 533,-253 533,-259 533,-259 533,-281 533,-281 533,-287 527,-293 521,-293 521,-293 401,-293 401,-293 395,-293 389,-287 389,-281 389,-281 389,-259 389,-259 389,-253 395,-247 401,-247"/>
<text text-anchor="middle" x="461" y="-277.8" font-family="Helvetica,sans-Serif" font-size="14.00">name_cleaning_log</text>
<polyline fill="none" stroke="black" points="389,-270 533,-270 "/>
<text text-anchor="middle" x="461" y="-254.8" font-family="Helvetica,sans-Serif" font-size="14.00">file:name_val_log.txt</text>
</g>
<!-- clean_scientific_name&#45;&gt;name_cleaning_log -->
<g id="edge2" class="edge"><title>clean_scientific_name&#45;&gt;name_cleaning_log</title>
<path fill="none" stroke="black" d="M353.051,-330.81C371.305,-320.696 393.078,-308.633 412.272,-297.998"/>
<polygon fill="black" stroke="black" points="414.123,-300.974 421.174,-293.066 410.73,-294.851 414.123,-300.974"/>
</g>
<!-- data_with_cleaned_names -->
<g id="node7" class="node"><title>data_with_cleaned_names</title>
<path fill="#ffffcc" stroke="black" d="M36.5,-247C36.5,-247 225.5,-247 225.5,-247 231.5,-247 237.5,-253 237.5,-259 237.5,-259 237.5,-281 237.5,-281 237.5,-287 231.5,-293 225.5,-293 225.5,-293 36.5,-293 36.5,-293 30.5,-293 24.5,-287 24.5,-281 24.5,-281 24.5,-259 24.5,-259 24.5,-253 30.5,-247 36.5,-247"/>
<text text-anchor="middle" x="131" y="-277.8" font-family="Helvetica,sans-Serif" font-size="14.00">data_with_cleaned_names</text>
<polyline fill="none" stroke="black" points="24.5,-270 237.5,-270 "/>
<text text-anchor="middle" x="131" y="-254.8" font-family="Helvetica,sans-Serif" font-size="14.00">file:demo_output_name_val.csv</text>
</g>
<!-- clean_scientific_name&#45;&gt;data_with_cleaned_names -->
<g id="edge1" class="edge"><title>clean_scientific_name&#45;&gt;data_with_cleaned_names</title>
<path fill="none" stroke="black" d="M263.748,-330.81C240.793,-320.467 213.312,-308.086 189.325,-297.278"/>
<polygon fill="black" stroke="black" points="190.531,-293.983 179.976,-293.066 187.655,-300.365 190.531,-293.983"/>
</g>
<!-- record_id_data -->
<g id="node9" class="node"><title>record_id_data</title>
<path fill="#fcfcfc" stroke="black" d="M267.5,-247C267.5,-247 358.5,-247 358.5,-247 364.5,-247 370.5,-253 370.5,-259 370.5,-259 370.5,-281 370.5,-281 370.5,-287 364.5,-293 358.5,-293 358.5,-293 267.5,-293 267.5,-293 261.5,-293 255.5,-287 255.5,-281 255.5,-281 255.5,-259 255.5,-259 255.5,-253 261.5,-247 267.5,-247"/>
<text text-anchor="middle" x="313" y="-277.8" font-family="Helvetica,sans-Serif" font-size="14.00">record_id_data</text>
<polyline fill="none" stroke="black" points="255.5,-270 370.5,-270 "/>
<text text-anchor="middle" x="313" y="-254.8" font-family="Helvetica,sans-Serif" font-size="14.00">file:record_id.txt</text>
</g>
<!-- clean_scientific_name&#45;&gt;record_id_data -->
<g id="edge3" class="edge"><title>clean_scientific_name&#45;&gt;record_id_data</title>
<path fill="none" stroke="black" d="M313,-330.593C313,-322.118 313,-312.297 313,-303.104"/>
<polygon fill="black" stroke="black" points="316.5,-303.096 313,-293.096 309.5,-303.096 316.5,-303.096"/>
</g>
<!-- clean_event_date -->
<g id="node2" class="node"><title>clean_event_date</title>
<polygon fill="#ccffcc" stroke="black" points="135.5,-163 135.5,-209 328.5,-209 328.5,-163 135.5,-163"/>
<text text-anchor="middle" x="232" y="-193.8" font-family="Courier,monospace" font-size="14.00">clean_event_date</text>
<polyline fill="none" stroke="black" points="135.5,-186 328.5,-186 "/>
<text text-anchor="middle" x="232" y="-170.8" font-family="Courier,monospace" font-size="14.00">Clean eventDate field</text>
</g>
<!-- data_with_cleaned_names_and_dates -->
<g id="node4" class="node"><title>data_with_cleaned_names_and_dates</title>
<path fill="#ffffcc" stroke="black" d="M36,-79C36,-79 268,-79 268,-79 274,-79 280,-85 280,-91 280,-91 280,-113 280,-113 280,-119 274,-125 268,-125 268,-125 36,-125 36,-125 30,-125 24,-119 24,-113 24,-113 24,-91 24,-91 24,-85 30,-79 36,-79"/>
<text text-anchor="middle" x="152" y="-109.8" font-family="Helvetica,sans-Serif" font-size="14.00">data_with_cleaned_names_and_dates</text>
<polyline fill="none" stroke="black" points="24,-102 280,-102 "/>
<text text-anchor="middle" x="152" y="-86.8" font-family="Helvetica,sans-Serif" font-size="14.00">file:demo_output_name_date_val.csv</text>
</g>
<!-- clean_event_date&#45;&gt;data_with_cleaned_names_and_dates -->
<g id="edge6" class="edge"><title>clean_event_date&#45;&gt;data_with_cleaned_names_and_dates</title>
<path fill="none" stroke="black" d="M210.14,-162.593C201.071,-153.297 190.423,-142.384 180.736,-132.454"/>
<polygon fill="black" stroke="black" points="183.045,-129.81 173.557,-125.096 178.035,-134.698 183.045,-129.81"/>
</g>
<!-- date_cleaning_log -->
<g id="node5" class="node"><title>date_cleaning_log</title>
<path fill="#ffffcc" stroke="black" d="M310,-79C310,-79 422,-79 422,-79 428,-79 434,-85 434,-91 434,-91 434,-113 434,-113 434,-119 428,-125 422,-125 422,-125 310,-125 310,-125 304,-125 298,-119 298,-113 298,-113 298,-91 298,-91 298,-85 304,-79 310,-79"/>
<text text-anchor="middle" x="366" y="-109.8" font-family="Helvetica,sans-Serif" font-size="14.00">date_cleaning_log</text>
<polyline fill="none" stroke="black" points="298,-102 434,-102 "/>
<text text-anchor="middle" x="366" y="-86.8" font-family="Helvetica,sans-Serif" font-size="14.00">file:date_val_log.txt</text>
</g>
<!-- clean_event_date&#45;&gt;date_cleaning_log -->
<g id="edge7" class="edge"><title>clean_event_date&#45;&gt;date_cleaning_log</title>
<path fill="none" stroke="black" d="M268.262,-162.81C284.499,-152.874 303.811,-141.056 320.964,-130.56"/>
<polygon fill="black" stroke="black" points="323.006,-133.413 329.709,-125.208 319.352,-127.442 323.006,-133.413"/>
</g>
<!-- name_cleaning_log_output_port -->
<g id="node12" class="node"><title>name_cleaning_log_output_port</title>
<ellipse fill="#ffffff" stroke="black" cx="398" cy="-31" rx="7" ry="7"/>
</g>
<!-- name_cleaning_log&#45;&gt;name_cleaning_log_output_port -->
<g id="edge12" class="edge"><title>name_cleaning_log&#45;&gt;name_cleaning_log_output_port</title>
<path fill="none" stroke="black" d="M464.946,-246.893C470.889,-206.881 478.022,-121.125 443,-62 436.465,-50.9677 424.097,-43.1687 413.978,-38.2929"/>
<polygon fill="black" stroke="black" points="415.156,-34.9897 404.587,-34.2569 412.393,-41.421 415.156,-34.9897"/>
</g>
<!-- data_with_cleaned_names_and_dates_output_port -->
<g id="node13" class="node"><title>data_with_cleaned_names_and_dates_output_port</title>
<ellipse fill="#ffffff" stroke="black" cx="334" cy="-31" rx="7" ry="7"/>
</g>
<!-- data_with_cleaned_names_and_dates&#45;&gt;data_with_cleaned_names_and_dates_output_port -->
<g id="edge13" class="edge"><title>data_with_cleaned_names_and_dates&#45;&gt;data_with_cleaned_names_and_dates_output_port</title>
<path fill="none" stroke="black" d="M210.086,-78.9783C247.805,-64.6781 294.244,-47.0724 318.136,-38.0142"/>
<polygon fill="black" stroke="black" points="319.558,-41.2186 327.667,-34.4008 317.076,-34.6732 319.558,-41.2186"/>
</g>
<!-- date_cleaning_log_output_port -->
<g id="node14" class="node"><title>date_cleaning_log_output_port</title>
<ellipse fill="#ffffff" stroke="black" cx="366" cy="-31" rx="7" ry="7"/>
</g>
<!-- date_cleaning_log&#45;&gt;date_cleaning_log_output_port -->
<g id="edge14" class="edge"><title>date_cleaning_log&#45;&gt;date_cleaning_log_output_port</title>
<path fill="none" stroke="black" d="M366,-78.7882C366,-68.9268 366,-57.5246 366,-48.4452"/>
<polygon fill="black" stroke="black" points="369.5,-48.1726 366,-38.1726 362.5,-48.1726 369.5,-48.1726"/>
</g>
<!-- original_dataset -->
<g id="node6" class="node"><title>original_dataset</title>
<path fill="#ffffcc" stroke="black" d="M333,-415C333,-415 445,-415 445,-415 451,-415 457,-421 457,-427 457,-427 457,-449 457,-449 457,-455 451,-461 445,-461 445,-461 333,-461 333,-461 327,-461 321,-455 321,-449 321,-449 321,-427 321,-427 321,-421 327,-415 333,-415"/>
<text text-anchor="middle" x="389" y="-445.8" font-family="Helvetica,sans-Serif" font-size="14.00">original_dataset</text>
<polyline fill="none" stroke="black" points="321,-438 457,-438 "/>
<text text-anchor="middle" x="389" y="-422.8" font-family="Helvetica,sans-Serif" font-size="14.00">file:demo_input.csv</text>
</g>
<!-- original_dataset&#45;&gt;clean_scientific_name -->
<g id="edge5" class="edge"><title>original_dataset&#45;&gt;clean_scientific_name</title>
<path fill="none" stroke="black" d="M368.233,-414.593C359.617,-405.297 349.502,-394.384 340.299,-384.454"/>
<polygon fill="black" stroke="black" points="342.844,-382.051 333.479,-377.096 337.71,-386.809 342.844,-382.051"/>
</g>
<!-- data_with_cleaned_names&#45;&gt;clean_event_date -->
<g id="edge8" class="edge"><title>data_with_cleaned_names&#45;&gt;clean_event_date</title>
<path fill="none" stroke="black" d="M158.332,-246.81C170.121,-237.238 184.061,-225.921 196.625,-215.72"/>
<polygon fill="black" stroke="black" points="199.089,-218.228 204.646,-209.208 194.677,-212.794 199.089,-218.228"/>
</g>
<!-- local_authority_source -->
<g id="node8" class="node"><title>local_authority_source</title>
<path fill="#fcfcfc" stroke="black" d="M157.5,-415C157.5,-415 290.5,-415 290.5,-415 296.5,-415 302.5,-421 302.5,-427 302.5,-427 302.5,-449 302.5,-449 302.5,-455 296.5,-461 290.5,-461 290.5,-461 157.5,-461 157.5,-461 151.5,-461 145.5,-455 145.5,-449 145.5,-449 145.5,-427 145.5,-427 145.5,-421 151.5,-415 157.5,-415"/>
<text text-anchor="middle" x="224" y="-445.8" font-family="Helvetica,sans-Serif" font-size="14.00">local_authority_source</text>
<polyline fill="none" stroke="black" points="145.5,-438 302.5,-438 "/>
<text text-anchor="middle" x="224" y="-422.8" font-family="Helvetica,sans-Serif" font-size="14.00">file:demo_localDB.csv</text>
</g>
<!-- local_authority_source&#45;&gt;clean_scientific_name -->
<g id="edge4" class="edge"><title>local_authority_source&#45;&gt;clean_scientific_name</title>
<path fill="none" stroke="black" d="M248.32,-414.593C258.508,-405.206 270.486,-394.17 281.348,-384.163"/>
<polygon fill="black" stroke="black" points="284.035,-386.446 289.018,-377.096 279.292,-381.298 284.035,-386.446"/>
</g>
<!-- record_id_data&#45;&gt;clean_event_date -->
<g id="edge9" class="edge"><title>record_id_data&#45;&gt;clean_event_date</title>
<path fill="none" stroke="black" d="M290.866,-246.593C281.684,-237.297 270.904,-226.384 261.095,-216.454"/>
<polygon fill="black" stroke="black" points="263.344,-213.751 253.826,-209.096 258.364,-218.67 263.344,-213.751"/>
</g>
<!-- original_dataset_input_port -->
<g id="node10" class="node"><title>original_dataset_input_port</title>
<ellipse fill="#ffffff" stroke="black" cx="322" cy="-509" rx="7" ry="7"/>
</g>
<!-- original_dataset_input_port&#45;&gt;original_dataset -->
<g id="edge10" class="edge"><title>original_dataset_input_port&#45;&gt;original_dataset</title>
<path fill="none" stroke="black" d="M326.396,-503.473C333.323,-496.339 347.332,-481.912 360.345,-468.51"/>
<polygon fill="black" stroke="black" points="362.965,-470.836 367.42,-461.224 357.943,-465.96 362.965,-470.836"/>
</g>
<!-- local_authority_source_input_port -->
<g id="node11" class="node"><title>local_authority_source_input_port</title>
<ellipse fill="#ffffff" stroke="black" cx="290" cy="-509" rx="7" ry="7"/>
</g>
<!-- local_authority_source_input_port&#45;&gt;local_authority_source -->
<g id="edge11" class="edge"><title>local_authority_source_input_port&#45;&gt;local_authority_source</title>
<path fill="none" stroke="black" d="M285.67,-503.473C278.846,-496.339 265.046,-481.912 252.227,-468.51"/>
<polygon fill="black" stroke="black" points="254.699,-466.031 245.257,-461.224 249.64,-470.869 254.699,-466.031"/>
</g>
</g>
</svg>
