<?xml version="1.0" encoding="UTF-8" standalone="no"?>
<!DOCTYPE svg PUBLIC "-//W3C//DTD SVG 1.1//EN"
 "http://www.w3.org/Graphics/SVG/1.1/DTD/svg11.dtd">
<!-- Generated by graphviz version 2.38.0 (20140413.2041)
 -->
<!-- Title: Workflow Pages: 1 -->
<svg width="563pt" height="591pt"
 viewBox="0.00 0.00 563.00 590.60" xmlns="http://www.w3.org/2000/svg" xmlns:xlink="http://www.w3.org/1999/xlink">
<g id="graph0" class="graph" transform="scale(1 1) rotate(0) translate(4 586.6)">
<title>Workflow</title>
<polygon fill="white" stroke="none" points="-4,4 -4,-586.6 559,-586.6 559,4 -4,4"/>
<text text-anchor="middle" x="277.5" y="-562.4" font-family="Courier,monospace" font-size="18.00">clean_name_and_date_workflow</text>
<g id="clust1" class="cluster"><title>cluster_workflow_box_outer</title>
<polygon fill="none" stroke="black" stroke-width="2" points="8,-62 8,-491 547,-491 547,-62 8,-62"/>
</g>
<g id="clust2" class="cluster"><title>cluster_workflow_box_inner</title>
<polygon fill="none" stroke="white" stroke-width="2" points="16,-70 16,-483 539,-483 539,-70 16,-70"/>
</g>
<g id="clust3" class="cluster"><title>cluster_input_ports_group_outer</title>
<polygon fill="none" stroke="white" points="266,-499 266,-545 344,-545 344,-499 266,-499"/>
</g>
<g id="clust4" class="cluster"><title>cluster_input_ports_group_inner</title>
<polygon fill="none" stroke="white" points="274,-507 274,-537 336,-537 336,-507 274,-507"/>
</g>
<g id="clust5" class="cluster"><title>cluster_output_ports_group_outer</title>
<polygon fill="none" stroke="white" points="311,-8 311,-54 421,-54 421,-8 311,-8"/>
</g>
<g id="clust6" class="cluster"><title>cluster_output_ports_group_inner</title>
<polygon fill="none" stroke="white" points="319,-16 319,-46 413,-46 413,-16 319,-16"/>
</g>
<!-- clean_scientific_name -->
<g id="node1" class="node"><title>clean_scientific_name</title>
<polygon fill="#ccffcc" stroke="black" points="194.818,-338.3 194.818,-387.9 429.182,-387.9 429.182,-338.3 194.818,-338.3"/>
<text text-anchor="middle" x="312" y="-371.3" font-family="Courier,monospace" font-size="14.00">clean_scientific_name</text>
<polyline fill="none" stroke="black" points="194.818,-363.1 429.182,-363.1 "/>
<text text-anchor="middle" x="312" y="-346.5" font-family="Courier,monospace" font-size="14.00">Clean scientificName field</text>
</g>
<!-- name_cleaning_log -->
<g id="node3" class="node"><title>name_cleaning_log</title>
<path fill="#ffffcc" stroke="black" d="M399.208,-251.7C399.208,-251.7 518.792,-251.7 518.792,-251.7 524.792,-251.7 530.792,-257.7 530.792,-263.7 530.792,-263.7 530.792,-289.3 530.792,-289.3 530.792,-295.3 524.792,-301.3 518.792,-301.3 518.792,-301.3 399.208,-301.3 399.208,-301.3 393.208,-301.3 387.208,-295.3 387.208,-289.3 387.208,-289.3 387.208,-263.7 387.208,-263.7 387.208,-257.7 393.208,-251.7 399.208,-251.7"/>
<text text-anchor="middle" x="459" y="-284.7" font-family="Helvetica,sans-Serif" font-size="14.00">name_cleaning_log</text>
<polyline fill="none" stroke="black" points="387.208,-276.5 530.792,-276.5 "/>
<text text-anchor="middle" x="459" y="-259.9" font-family="Helvetica,sans-Serif" font-size="14.00">file:name_val_log.txt</text>
</g>
<!-- clean_scientific_name&#45;&gt;name_cleaning_log -->
<g id="edge2" class="edge"><title>clean_scientific_name&#45;&gt;name_cleaning_log</title>
<path fill="none" stroke="black" d="M353.731,-338.083C370.717,-328.308 390.507,-316.918 408.314,-306.671"/>
<polygon fill="black" stroke="black" points="410.498,-309.452 417.419,-301.43 407.006,-303.385 410.498,-309.452"/>
</g>
<!-- data_with_cleaned_names -->
<g id="node7" class="node"><title>data_with_cleaned_names</title>
<path fill="#ffffcc" stroke="black" d="M35.5835,-251.7C35.5835,-251.7 224.416,-251.7 224.416,-251.7 230.416,-251.7 236.416,-257.7 236.416,-263.7 236.416,-263.7 236.416,-289.3 236.416,-289.3 236.416,-295.3 230.416,-301.3 224.416,-301.3 224.416,-301.3 35.5835,-301.3 35.5835,-301.3 29.5835,-301.3 23.5835,-295.3 23.5835,-289.3 23.5835,-289.3 23.5835,-263.7 23.5835,-263.7 23.5835,-257.7 29.5835,-251.7 35.5835,-251.7"/>
<text text-anchor="middle" x="130" y="-284.7" font-family="Helvetica,sans-Serif" font-size="14.00">data_with_cleaned_names</text>
<polyline fill="none" stroke="black" points="23.5835,-276.5 236.416,-276.5 "/>
<text text-anchor="middle" x="130" y="-259.9" font-family="Helvetica,sans-Serif" font-size="14.00">file:demo_output_name_val.csv</text>
</g>
<!-- clean_scientific_name&#45;&gt;data_with_cleaned_names -->
<g id="edge1" class="edge"><title>clean_scientific_name&#45;&gt;data_with_cleaned_names</title>
<path fill="none" stroke="black" d="M260.333,-338.083C238.627,-327.994 213.224,-316.185 190.639,-305.687"/>
<polygon fill="black" stroke="black" points="192.025,-302.472 181.481,-301.43 189.074,-308.819 192.025,-302.472"/>
</g>
<!-- record_id_data -->
<g id="node9" class="node"><title>record_id_data</title>
<path fill="#fcfcfc" stroke="black" d="M266.605,-251.7C266.605,-251.7 357.395,-251.7 357.395,-251.7 363.395,-251.7 369.395,-257.7 369.395,-263.7 369.395,-263.7 369.395,-289.3 369.395,-289.3 369.395,-295.3 363.395,-301.3 357.395,-301.3 357.395,-301.3 266.605,-301.3 266.605,-301.3 260.605,-301.3 254.605,-295.3 254.605,-289.3 254.605,-289.3 254.605,-263.7 254.605,-263.7 254.605,-257.7 260.605,-251.7 266.605,-251.7"/>
<text text-anchor="middle" x="312" y="-284.7" font-family="Helvetica,sans-Serif" font-size="14.00">record_id_data</text>
<polyline fill="none" stroke="black" points="254.605,-276.5 369.395,-276.5 "/>
<text text-anchor="middle" x="312" y="-259.9" font-family="Helvetica,sans-Serif" font-size="14.00">file:record_id.txt</text>
</g>
<!-- clean_scientific_name&#45;&gt;record_id_data -->
<g id="edge3" class="edge"><title>clean_scientific_name&#45;&gt;record_id_data</title>
<path fill="none" stroke="black" d="M312,-338.083C312,-329.867 312,-320.512 312,-311.652"/>
<polygon fill="black" stroke="black" points="315.5,-311.577 312,-301.577 308.5,-311.577 315.5,-311.577"/>
</g>
<!-- clean_event_date -->
<g id="node2" class="node"><title>clean_event_date</title>
<polygon fill="#ccffcc" stroke="black" points="135.815,-165.1 135.815,-214.7 328.185,-214.7 328.185,-165.1 135.815,-165.1"/>
<text text-anchor="middle" x="232" y="-198.1" font-family="Courier,monospace" font-size="14.00">clean_event_date</text>
<polyline fill="none" stroke="black" points="135.815,-189.9 328.185,-189.9 "/>
<text text-anchor="middle" x="232" y="-173.3" font-family="Courier,monospace" font-size="14.00">Clean eventDate field</text>
</g>
<!-- data_with_cleaned_names_and_dates -->
<g id="node4" class="node"><title>data_with_cleaned_names_and_dates</title>
<path fill="#ffffcc" stroke="black" d="M36.174,-78.5C36.174,-78.5 267.826,-78.5 267.826,-78.5 273.826,-78.5 279.826,-84.5 279.826,-90.5 279.826,-90.5 279.826,-116.1 279.826,-116.1 279.826,-122.1 273.826,-128.1 267.826,-128.1 267.826,-128.1 36.174,-128.1 36.174,-128.1 30.174,-128.1 24.174,-122.1 24.174,-116.1 24.174,-116.1 24.174,-90.5 24.174,-90.5 24.174,-84.5 30.174,-78.5 36.174,-78.5"/>
<text text-anchor="middle" x="152" y="-111.5" font-family="Helvetica,sans-Serif" font-size="14.00">data_with_cleaned_names_and_dates</text>
<polyline fill="none" stroke="black" points="24.174,-103.3 279.826,-103.3 "/>
<text text-anchor="middle" x="152" y="-86.7" font-family="Helvetica,sans-Serif" font-size="14.00">file:demo_output_name_date_val.csv</text>
</g>
<!-- clean_event_date&#45;&gt;data_with_cleaned_names_and_dates -->
<g id="edge6" class="edge"><title>clean_event_date&#45;&gt;data_with_cleaned_names_and_dates</title>
<path fill="none" stroke="black" d="M209.289,-164.883C200.76,-155.864 190.932,-145.47 181.851,-135.867"/>
<polygon fill="black" stroke="black" points="184.181,-133.238 174.768,-128.377 179.095,-138.047 184.181,-133.238"/>
</g>
<!-- date_cleaning_log -->
<g id="node5" class="node"><title>date_cleaning_log</title>
<path fill="#ffffcc" stroke="black" d="M310.093,-78.5C310.093,-78.5 421.907,-78.5 421.907,-78.5 427.907,-78.5 433.907,-84.5 433.907,-90.5 433.907,-90.5 433.907,-116.1 433.907,-116.1 433.907,-122.1 427.907,-128.1 421.907,-128.1 421.907,-128.1 310.093,-128.1 310.093,-128.1 304.093,-128.1 298.093,-122.1 298.093,-116.1 298.093,-116.1 298.093,-90.5 298.093,-90.5 298.093,-84.5 304.093,-78.5 310.093,-78.5"/>
<text text-anchor="middle" x="366" y="-111.5" font-family="Helvetica,sans-Serif" font-size="14.00">date_cleaning_log</text>
<polyline fill="none" stroke="black" points="298.093,-103.3 433.907,-103.3 "/>
<text text-anchor="middle" x="366" y="-86.7" font-family="Helvetica,sans-Serif" font-size="14.00">file:date_val_log.txt</text>
</g>
<!-- clean_event_date&#45;&gt;date_cleaning_log -->
<g id="edge7" class="edge"><title>clean_event_date&#45;&gt;date_cleaning_log</title>
<path fill="none" stroke="black" d="M270.041,-164.883C285.317,-155.238 303.082,-144.023 319.143,-133.883"/>
<polygon fill="black" stroke="black" points="321.277,-136.675 327.864,-128.377 317.54,-130.756 321.277,-136.675"/>
</g>
<!-- name_cleaning_log_output_port -->
<g id="node12" class="node"><title>name_cleaning_log_output_port</title>
<ellipse fill="#ffffff" stroke="black" cx="398" cy="-31" rx="7" ry="7"/>
</g>
<!-- name_cleaning_log&#45;&gt;name_cleaning_log_output_port -->
<g id="edge12" class="edge"><title>name_cleaning_log&#45;&gt;name_cleaning_log_output_port</title>
<path fill="none" stroke="black" d="M463.622,-251.415C470.315,-209.657 478.348,-122.495 443,-62 436.461,-50.8086 423.889,-42.9634 413.692,-38.1099"/>
<polygon fill="black" stroke="black" points="414.85,-34.7997 404.277,-34.1202 412.119,-41.2448 414.85,-34.7997"/>
</g>
<!-- data_with_cleaned_names_and_dates_output_port -->
<g id="node13" class="node"><title>data_with_cleaned_names_and_dates_output_port</title>
<ellipse fill="#ffffff" stroke="black" cx="334" cy="-31" rx="7" ry="7"/>
</g>
<!-- data_with_cleaned_names_and_dates&#45;&gt;data_with_cleaned_names_and_dates_output_port -->
<g id="edge13" class="edge"><title>data_with_cleaned_names_and_dates&#45;&gt;data_with_cleaned_names_and_dates_output_port</title>
<path fill="none" stroke="black" d="M213.617,-78.4996C250.484,-64.2593 294.558,-47.2348 317.801,-38.257"/>
<polygon fill="black" stroke="black" points="319.348,-41.4117 327.415,-34.5435 316.826,-34.8819 319.348,-41.4117"/>
</g>
<!-- date_cleaning_log_output_port -->
<g id="node14" class="node"><title>date_cleaning_log_output_port</title>
<ellipse fill="#ffffff" stroke="black" cx="366" cy="-31" rx="7" ry="7"/>
</g>
<!-- date_cleaning_log&#45;&gt;date_cleaning_log_output_port -->
<g id="edge14" class="edge"><title>date_cleaning_log&#45;&gt;date_cleaning_log_output_port</title>
<path fill="none" stroke="black" d="M366,-78.4996C366,-68.5289 366,-57.1933 366,-48.2105"/>
<polygon fill="black" stroke="black" points="369.5,-48.0698 366,-38.0698 362.5,-48.0699 369.5,-48.0698"/>
</g>
<!-- original_dataset -->
<g id="node6" class="node"><title>original_dataset</title>
<path fill="#ffffcc" stroke="black" d="M331.098,-424.9C331.098,-424.9 442.902,-424.9 442.902,-424.9 448.902,-424.9 454.902,-430.9 454.902,-436.9 454.902,-436.9 454.902,-462.5 454.902,-462.5 454.902,-468.5 448.902,-474.5 442.902,-474.5 442.902,-474.5 331.098,-474.5 331.098,-474.5 325.098,-474.5 319.098,-468.5 319.098,-462.5 319.098,-462.5 319.098,-436.9 319.098,-436.9 319.098,-430.9 325.098,-424.9 331.098,-424.9"/>
<text text-anchor="middle" x="387" y="-457.9" font-family="Helvetica,sans-Serif" font-size="14.00">original_dataset</text>
<polyline fill="none" stroke="black" points="319.098,-449.7 454.902,-449.7 "/>
<text text-anchor="middle" x="387" y="-433.1" font-family="Helvetica,sans-Serif" font-size="14.00">file:demo_input.csv</text>
</g>
<!-- original_dataset&#45;&gt;clean_scientific_name -->
<g id="edge5" class="edge"><title>original_dataset&#45;&gt;clean_scientific_name</title>
<path fill="none" stroke="black" d="M365.709,-424.683C357.712,-415.664 348.499,-405.27 339.985,-395.667"/>
<polygon fill="black" stroke="black" points="342.597,-393.338 333.345,-388.177 337.359,-397.981 342.597,-393.338"/>
</g>
<!-- data_with_cleaned_names&#45;&gt;clean_event_date -->
<g id="edge8" class="edge"><title>data_with_cleaned_names&#45;&gt;clean_event_date</title>
<path fill="none" stroke="black" d="M158.956,-251.483C170.154,-242.196 183.108,-231.452 194.969,-221.614"/>
<polygon fill="black" stroke="black" points="197.509,-224.055 202.971,-214.977 193.04,-218.667 197.509,-224.055"/>
</g>
<!-- local_authority_source -->
<g id="node8" class="node"><title>local_authority_source</title>
<path fill="#fcfcfc" stroke="black" d="M156.985,-424.9C156.985,-424.9 289.015,-424.9 289.015,-424.9 295.015,-424.9 301.015,-430.9 301.015,-436.9 301.015,-436.9 301.015,-462.5 301.015,-462.5 301.015,-468.5 295.015,-474.5 289.015,-474.5 289.015,-474.5 156.985,-474.5 156.985,-474.5 150.985,-474.5 144.985,-468.5 144.985,-462.5 144.985,-462.5 144.985,-436.9 144.985,-436.9 144.985,-430.9 150.985,-424.9 156.985,-424.9"/>
<text text-anchor="middle" x="223" y="-457.9" font-family="Helvetica,sans-Serif" font-size="14.00">local_authority_source</text>
<polyline fill="none" stroke="black" points="144.985,-449.7 301.015,-449.7 "/>
<text text-anchor="middle" x="223" y="-433.1" font-family="Helvetica,sans-Serif" font-size="14.00">file:demo_localDB.csv</text>
</g>
<!-- local_authority_source&#45;&gt;clean_scientific_name -->
<g id="edge4" class="edge"><title>local_authority_source&#45;&gt;clean_scientific_name</title>
<path fill="none" stroke="black" d="M248.266,-424.683C257.943,-415.485 269.122,-404.858 279.39,-395.098"/>
<polygon fill="black" stroke="black" points="281.834,-397.603 286.671,-388.177 277.012,-392.53 281.834,-397.603"/>
</g>
<!-- record_id_data&#45;&gt;clean_event_date -->
<g id="edge9" class="edge"><title>record_id_data&#45;&gt;clean_event_date</title>
<path fill="none" stroke="black" d="M289.289,-251.483C280.76,-242.464 270.932,-232.07 261.851,-222.467"/>
<polygon fill="black" stroke="black" points="264.181,-219.838 254.768,-214.977 259.095,-224.647 264.181,-219.838"/>
</g>
<!-- original_dataset_input_port -->
<g id="node10" class="node"><title>original_dataset_input_port</title>
<ellipse fill="#ffffff" stroke="black" cx="321" cy="-522" rx="7" ry="7"/>
</g>
<!-- original_dataset_input_port&#45;&gt;original_dataset -->
<g id="edge10" class="edge"><title>original_dataset_input_port&#45;&gt;original_dataset</title>
<path fill="none" stroke="black" d="M325.33,-516.387C331.899,-509.391 344.933,-495.508 357.332,-482.301"/>
<polygon fill="black" stroke="black" points="360.213,-484.346 364.506,-474.66 355.109,-479.555 360.213,-484.346"/>
</g>
<!-- local_authority_source_input_port -->
<g id="node11" class="node"><title>local_authority_source_input_port</title>
<ellipse fill="#ffffff" stroke="black" cx="289" cy="-522" rx="7" ry="7"/>
</g>
<!-- local_authority_source_input_port&#45;&gt;local_authority_source -->
<g id="edge11" class="edge"><title>local_authority_source_input_port&#45;&gt;local_authority_source</title>
<path fill="none" stroke="black" d="M284.67,-516.387C278.101,-509.391 265.067,-495.508 252.668,-482.301"/>
<polygon fill="black" stroke="black" points="254.891,-479.555 245.494,-474.66 249.787,-484.346 254.891,-479.555"/>
</g>
</g>
</svg>
