<?xml version="1.0" encoding="UTF-8" standalone="no"?>
<!DOCTYPE svg PUBLIC "-//W3C//DTD SVG 1.1//EN"
 "http://www.w3.org/Graphics/SVG/1.1/DTD/svg11.dtd">
<!-- Generated by graphviz version 2.38.0 (20140413.2041)
 -->
<!-- Title: yw_data_view Pages: 1 -->
<svg width="460pt" height="320pt"
 viewBox="0.00 0.00 460.00 319.60" xmlns="http://www.w3.org/2000/svg" xmlns:xlink="http://www.w3.org/1999/xlink">
<g id="graph0" class="graph" transform="scale(1 1) rotate(0) translate(4 315.6)">
<title>yw_data_view</title>
<polygon fill="white" stroke="none" points="-4,4 -4,-315.6 456,-315.6 456,4 -4,4"/>
<text text-anchor="middle" x="226" y="-291.4" font-family="Courier,monospace" font-size="18.00">clean_name_and_date_workflow</text>
<g id="clust1" class="cluster"><title>cluster_workflow</title>
<polygon fill="none" stroke="black" stroke-width="2" points="8,-62 8,-274 444,-274 444,-62 8,-62"/>
</g>
<g id="clust2" class="cluster"><title>cluster_workflow_inner</title>
<polygon fill="none" stroke="white" stroke-width="2" points="16,-70 16,-266 436,-266 436,-70 16,-70"/>
</g>
<g id="clust5" class="cluster"><title>cluster_outflows</title>
<polygon fill="none" stroke="white" stroke-width="2" points="218,-8 218,-54 296,-54 296,-8 218,-8"/>
</g>
<g id="clust6" class="cluster"><title>cluster_outflows_inner</title>
<polygon fill="none" stroke="white" stroke-width="2" points="226,-16 226,-46 288,-46 288,-16 226,-16"/>
</g>
<!-- clean_event_date -->
<g id="node1" class="node"><title>clean_event_date</title>
<polygon fill="#ccffcc" stroke="black" points="319.378,-186 168.622,-186 168.622,-150 319.378,-150 319.378,-186"/>
<text text-anchor="middle" x="244" y="-163.8" font-family="Courier,monospace" font-size="14.00">clean_event_date</text>
</g>
<!-- data_with_cleaned_names_and_dates -->
<g id="node3" class="node"><title>data_with_cleaned_names_and_dates</title>
<path fill="#ffffcc" stroke="black" d="M267.652,-114C267.652,-114 36.3478,-114 36.3478,-114 30.3478,-114 24.3478,-108 24.3478,-102 24.3478,-102 24.3478,-90 24.3478,-90 24.3478,-84 30.3478,-78 36.3478,-78 36.3478,-78 267.652,-78 267.652,-78 273.652,-78 279.652,-84 279.652,-90 279.652,-90 279.652,-102 279.652,-102 279.652,-108 273.652,-114 267.652,-114"/>
<text text-anchor="middle" x="152" y="-91.8" font-family="Helvetica,sans-Serif" font-size="14.00">data_with_cleaned_names_and_dates</text>
</g>
<!-- clean_event_date&#45;&gt;data_with_cleaned_names_and_dates -->
<g id="edge2" class="edge"><title>clean_event_date&#45;&gt;data_with_cleaned_names_and_dates</title>
<path fill="none" stroke="black" d="M221.258,-149.697C209.56,-140.796 195.139,-129.823 182.49,-120.199"/>
<polygon fill="black" stroke="black" points="184.558,-117.374 174.48,-114.104 180.319,-122.945 184.558,-117.374"/>
</g>
<!-- date_cleaning_log -->
<g id="node4" class="node"><title>date_cleaning_log</title>
<path fill="#ffffcc" stroke="black" d="M415.602,-114C415.602,-114 310.398,-114 310.398,-114 304.398,-114 298.398,-108 298.398,-102 298.398,-102 298.398,-90 298.398,-90 298.398,-84 304.398,-78 310.398,-78 310.398,-78 415.602,-78 415.602,-78 421.602,-78 427.602,-84 427.602,-90 427.602,-90 427.602,-102 427.602,-102 427.602,-108 421.602,-114 415.602,-114"/>
<text text-anchor="middle" x="363" y="-91.8" font-family="Helvetica,sans-Serif" font-size="14.00">date_cleaning_log</text>
</g>
<!-- clean_event_date&#45;&gt;date_cleaning_log -->
<g id="edge1" class="edge"><title>clean_event_date&#45;&gt;date_cleaning_log</title>
<path fill="none" stroke="black" d="M273.111,-149.876C288.67,-140.724 308.019,-129.342 324.776,-119.485"/>
<polygon fill="black" stroke="black" points="326.933,-122.277 333.777,-114.19 323.383,-116.243 326.933,-122.277"/>
</g>
<!-- data_with_cleaned_names -->
<g id="node2" class="node"><title>data_with_cleaned_names</title>
<path fill="#ffffcc" stroke="black" d="M323.001,-258C323.001,-258 164.999,-258 164.999,-258 158.999,-258 152.999,-252 152.999,-246 152.999,-246 152.999,-234 152.999,-234 152.999,-228 158.999,-222 164.999,-222 164.999,-222 323.001,-222 323.001,-222 329.001,-222 335.001,-228 335.001,-234 335.001,-234 335.001,-246 335.001,-246 335.001,-252 329.001,-258 323.001,-258"/>
<text text-anchor="middle" x="244" y="-235.8" font-family="Helvetica,sans-Serif" font-size="14.00">data_with_cleaned_names</text>
</g>
<!-- data_with_cleaned_names&#45;&gt;clean_event_date -->
<g id="edge3" class="edge"><title>data_with_cleaned_names&#45;&gt;clean_event_date</title>
<path fill="none" stroke="black" d="M244,-221.697C244,-213.983 244,-204.712 244,-196.112"/>
<polygon fill="black" stroke="black" points="247.5,-196.104 244,-186.104 240.5,-196.104 247.5,-196.104"/>
</g>
<!-- data_with_cleaned_names_and_dates_outflow -->
<g id="node6" class="node"><title>data_with_cleaned_names_and_dates_outflow</title>
<ellipse fill="none" stroke="black" cx="241" cy="-31" rx="7" ry="7"/>
</g>
<!-- data_with_cleaned_names_and_dates&#45;&gt;data_with_cleaned_names_and_dates_outflow -->
<g id="edge5" class="edge"><title>data_with_cleaned_names_and_dates&#45;&gt;data_with_cleaned_names_and_dates_outflow</title>
<path fill="none" stroke="black" d="M176.32,-77.785C192.72,-66.1757 213.76,-51.2822 227.312,-41.6894"/>
<polygon fill="black" stroke="black" points="229.543,-44.3983 235.683,-35.7639 225.498,-38.6849 229.543,-44.3983"/>
</g>
<!-- date_cleaning_log_outflow -->
<g id="node5" class="node"><title>date_cleaning_log_outflow</title>
<ellipse fill="none" stroke="black" cx="273" cy="-31" rx="7" ry="7"/>
</g>
<!-- date_cleaning_log&#45;&gt;date_cleaning_log_outflow -->
<g id="edge4" class="edge"><title>date_cleaning_log&#45;&gt;date_cleaning_log_outflow</title>
<path fill="none" stroke="black" d="M338.407,-77.785C321.822,-66.1757 300.546,-51.2822 286.842,-41.6894"/>
<polygon fill="black" stroke="black" points="288.577,-38.6313 278.377,-35.7639 284.562,-44.3659 288.577,-38.6313"/>
</g>
</g>
</svg>
