<?xml version="1.0" encoding="UTF-8" standalone="no"?>
<!DOCTYPE svg PUBLIC "-//W3C//DTD SVG 1.1//EN"
 "http://www.w3.org/Graphics/SVG/1.1/DTD/svg11.dtd">
<!-- Generated by graphviz version 2.38.0 (20140413.2041)
 -->
<!-- Title: yw_data_view Pages: 1 -->
<svg width="326pt" height="176pt"
 viewBox="0.00 0.00 326.35 175.60" xmlns="http://www.w3.org/2000/svg" xmlns:xlink="http://www.w3.org/1999/xlink">
<g id="graph0" class="graph" transform="scale(1 1) rotate(0) translate(4 171.6)">
<title>yw_data_view</title>
<polygon fill="white" stroke="none" points="-4,4 -4,-171.6 322.35,-171.6 322.35,4 -4,4"/>
<text text-anchor="middle" x="159.175" y="-147.4" font-family="Courier,monospace" font-size="18.00">clean_name_and_date_workflow</text>
<g id="clust1" class="cluster"><title>cluster_workflow</title>
<polygon fill="none" stroke="black" stroke-width="2" points="15.1748,-62 15.1748,-130 303.175,-130 303.175,-62 15.1748,-62"/>
</g>
<g id="clust2" class="cluster"><title>cluster_workflow_inner</title>
<polygon fill="none" stroke="white" stroke-width="2" points="23.1748,-70 23.1748,-122 295.175,-122 295.175,-70 23.1748,-70"/>
</g>
<g id="clust5" class="cluster"><title>cluster_outflows</title>
<polygon fill="none" stroke="white" stroke-width="2" points="136.175,-8 136.175,-54 182.175,-54 182.175,-8 136.175,-8"/>
</g>
<g id="clust6" class="cluster"><title>cluster_outflows_inner</title>
<polygon fill="none" stroke="white" stroke-width="2" points="144.175,-16 144.175,-46 174.175,-46 174.175,-16 144.175,-16"/>
</g>
<!-- data_with_cleaned_names_and_dates -->
<g id="node1" class="node"><title>data_with_cleaned_names_and_dates</title>
<path fill="#ffffcc" stroke="black" d="M274.827,-114C274.827,-114 43.5226,-114 43.5226,-114 37.5226,-114 31.5226,-108 31.5226,-102 31.5226,-102 31.5226,-90 31.5226,-90 31.5226,-84 37.5226,-78 43.5226,-78 43.5226,-78 274.827,-78 274.827,-78 280.827,-78 286.827,-84 286.827,-90 286.827,-90 286.827,-102 286.827,-102 286.827,-108 280.827,-114 274.827,-114"/>
<text text-anchor="middle" x="159.175" y="-91.8" font-family="Helvetica,sans-Serif" font-size="14.00">data_with_cleaned_names_and_dates</text>
</g>
<!-- data_with_cleaned_names_and_dates_outflow -->
<g id="node2" class="node"><title>data_with_cleaned_names_and_dates_outflow</title>
<ellipse fill="none" stroke="black" cx="159.175" cy="-31" rx="7" ry="7"/>
</g>
<!-- data_with_cleaned_names_and_dates&#45;&gt;data_with_cleaned_names_and_dates_outflow -->
<g id="edge1" class="edge"><title>data_with_cleaned_names_and_dates&#45;&gt;data_with_cleaned_names_and_dates_outflow</title>
<path fill="none" stroke="black" d="M159.175,-77.785C159.175,-68.6656 159.175,-57.5197 159.175,-48.5085"/>
<polygon fill="black" stroke="black" points="162.675,-48.242 159.175,-38.242 155.675,-48.2421 162.675,-48.242"/>
</g>
</g>
</svg>
