<?xml version="1.0" encoding="UTF-8" standalone="no"?>
<!DOCTYPE svg PUBLIC "-//W3C//DTD SVG 1.1//EN"
 "http://www.w3.org/Graphics/SVG/1.1/DTD/svg11.dtd">
<!-- Generated by graphviz version 2.38.0 (20140413.2041)
 -->
<!-- Title: yw_data_view Pages: 1 -->
<svg width="521pt" height="518pt"
 viewBox="0.00 0.00 521.00 517.60" xmlns="http://www.w3.org/2000/svg" xmlns:xlink="http://www.w3.org/1999/xlink">
<g id="graph0" class="graph" transform="scale(1 1) rotate(0) translate(4 513.6)">
<title>yw_data_view</title>
<polygon fill="white" stroke="none" points="-4,4 -4,-513.6 517,-513.6 517,4 -4,4"/>
<text text-anchor="middle" x="256.5" y="-489.4" font-family="Courier,monospace" font-size="18.00">clean_name_and_date_workflow</text>
<g id="clust1" class="cluster"><title>cluster_workflow</title>
<polygon fill="none" stroke="black" stroke-width="2" points="8,-62 8,-418 505,-418 505,-62 8,-62"/>
</g>
<g id="clust2" class="cluster"><title>cluster_workflow_inner</title>
<polygon fill="none" stroke="white" stroke-width="2" points="16,-70 16,-410 497,-410 497,-70 16,-70"/>
</g>
<g id="clust3" class="cluster"><title>cluster_inflows</title>
<polygon fill="none" stroke="white" stroke-width="2" points="256,-426 256,-472 302,-472 302,-426 256,-426"/>
</g>
<g id="clust4" class="cluster"><title>cluster_inflows_inner</title>
<polygon fill="none" stroke="white" stroke-width="2" points="264,-434 264,-464 294,-464 294,-434 264,-434"/>
</g>
<g id="clust5" class="cluster"><title>cluster_outflows</title>
<polygon fill="none" stroke="white" stroke-width="2" points="308,-8 308,-54 418,-54 418,-8 308,-8"/>
</g>
<g id="clust6" class="cluster"><title>cluster_outflows_inner</title>
<polygon fill="none" stroke="white" stroke-width="2" points="316,-16 316,-46 410,-46 410,-16 316,-16"/>
</g>
<!-- clean_event_date -->
<g id="node1" class="node"><title>clean_event_date</title>
<polygon fill="#ccffcc" stroke="black" points="290.378,-186 139.622,-186 139.622,-150 290.378,-150 290.378,-186"/>
<text text-anchor="middle" x="215" y="-163.8" font-family="Courier,monospace" font-size="14.00">clean_event_date</text>
</g>
<!-- data_with_cleaned_names_and_dates -->
<g id="node7" class="node"><title>data_with_cleaned_names_and_dates</title>
<path fill="#ffffcc" stroke="black" d="M267.652,-114C267.652,-114 36.3478,-114 36.3478,-114 30.3478,-114 24.3478,-108 24.3478,-102 24.3478,-102 24.3478,-90 24.3478,-90 24.3478,-84 30.3478,-78 36.3478,-78 36.3478,-78 267.652,-78 267.652,-78 273.652,-78 279.652,-84 279.652,-90 279.652,-90 279.652,-102 279.652,-102 279.652,-108 273.652,-114 267.652,-114"/>
<text text-anchor="middle" x="152" y="-91.8" font-family="Helvetica,sans-Serif" font-size="14.00">data_with_cleaned_names_and_dates</text>
</g>
<!-- clean_event_date&#45;&gt;data_with_cleaned_names_and_dates -->
<g id="edge2" class="edge"><title>clean_event_date&#45;&gt;data_with_cleaned_names_and_dates</title>
<path fill="none" stroke="black" d="M199.427,-149.697C191.798,-141.22 182.477,-130.864 174.124,-121.583"/>
<polygon fill="black" stroke="black" points="176.685,-119.196 167.394,-114.104 171.482,-123.879 176.685,-119.196"/>
</g>
<!-- date_cleaning_log -->
<g id="node8" class="node"><title>date_cleaning_log</title>
<path fill="#ffffcc" stroke="black" d="M415.602,-114C415.602,-114 310.398,-114 310.398,-114 304.398,-114 298.398,-108 298.398,-102 298.398,-102 298.398,-90 298.398,-90 298.398,-84 304.398,-78 310.398,-78 310.398,-78 415.602,-78 415.602,-78 421.602,-78 427.602,-84 427.602,-90 427.602,-90 427.602,-102 427.602,-102 427.602,-108 421.602,-114 415.602,-114"/>
<text text-anchor="middle" x="363" y="-91.8" font-family="Helvetica,sans-Serif" font-size="14.00">date_cleaning_log</text>
</g>
<!-- clean_event_date&#45;&gt;date_cleaning_log -->
<g id="edge1" class="edge"><title>clean_event_date&#45;&gt;date_cleaning_log</title>
<path fill="none" stroke="black" d="M251.205,-149.876C271.258,-140.392 296.372,-128.513 317.714,-118.419"/>
<polygon fill="black" stroke="black" points="319.369,-121.508 326.913,-114.068 316.376,-115.18 319.369,-121.508"/>
</g>
<!-- clean_scientific_name -->
<g id="node2" class="node"><title>clean_scientific_name</title>
<polygon fill="#ccffcc" stroke="black" points="375.371,-330 182.629,-330 182.629,-294 375.371,-294 375.371,-330"/>
<text text-anchor="middle" x="279" y="-307.8" font-family="Courier,monospace" font-size="14.00">clean_scientific_name</text>
</g>
<!-- data_with_cleaned_names -->
<g id="node4" class="node"><title>data_with_cleaned_names</title>
<path fill="#ffffcc" stroke="black" d="M194.001,-258C194.001,-258 35.9987,-258 35.9987,-258 29.9987,-258 23.9987,-252 23.9987,-246 23.9987,-246 23.9987,-234 23.9987,-234 23.9987,-228 29.9987,-222 35.9987,-222 35.9987,-222 194.001,-222 194.001,-222 200.001,-222 206.001,-228 206.001,-234 206.001,-234 206.001,-246 206.001,-246 206.001,-252 200.001,-258 194.001,-258"/>
<text text-anchor="middle" x="115" y="-235.8" font-family="Helvetica,sans-Serif" font-size="14.00">data_with_cleaned_names</text>
</g>
<!-- clean_scientific_name&#45;&gt;data_with_cleaned_names -->
<g id="edge5" class="edge"><title>clean_scientific_name&#45;&gt;data_with_cleaned_names</title>
<path fill="none" stroke="black" d="M238.881,-293.876C216.362,-284.264 188.082,-272.193 164.229,-262.013"/>
<polygon fill="black" stroke="black" points="165.56,-258.775 154.989,-258.068 162.812,-265.213 165.56,-258.775"/>
</g>
<!-- name_cleaning_log -->
<g id="node5" class="node"><title>name_cleaning_log</title>
<path fill="#ffffcc" stroke="black" d="M476.872,-258C476.872,-258 363.128,-258 363.128,-258 357.128,-258 351.128,-252 351.128,-246 351.128,-246 351.128,-234 351.128,-234 351.128,-228 357.128,-222 363.128,-222 363.128,-222 476.872,-222 476.872,-222 482.872,-222 488.872,-228 488.872,-234 488.872,-234 488.872,-246 488.872,-246 488.872,-252 482.872,-258 476.872,-258"/>
<text text-anchor="middle" x="420" y="-235.8" font-family="Helvetica,sans-Serif" font-size="14.00">name_cleaning_log</text>
</g>
<!-- clean_scientific_name&#45;&gt;name_cleaning_log -->
<g id="edge4" class="edge"><title>clean_scientific_name&#45;&gt;name_cleaning_log</title>
<path fill="none" stroke="black" d="M313.492,-293.876C332.44,-284.469 356.132,-272.708 376.356,-262.667"/>
<polygon fill="black" stroke="black" points="377.974,-265.771 385.375,-258.19 374.862,-259.502 377.974,-265.771"/>
</g>
<!-- record_id_data -->
<g id="node6" class="node"><title>record_id_data</title>
<path fill="#ffffcc" stroke="black" d="M321.862,-258C321.862,-258 236.138,-258 236.138,-258 230.138,-258 224.138,-252 224.138,-246 224.138,-246 224.138,-234 224.138,-234 224.138,-228 230.138,-222 236.138,-222 236.138,-222 321.862,-222 321.862,-222 327.862,-222 333.862,-228 333.862,-234 333.862,-234 333.862,-246 333.862,-246 333.862,-252 327.862,-258 321.862,-258"/>
<text text-anchor="middle" x="279" y="-235.8" font-family="Helvetica,sans-Serif" font-size="14.00">record_id_data</text>
</g>
<!-- clean_scientific_name&#45;&gt;record_id_data -->
<g id="edge3" class="edge"><title>clean_scientific_name&#45;&gt;record_id_data</title>
<path fill="none" stroke="black" d="M279,-293.697C279,-285.983 279,-276.712 279,-268.112"/>
<polygon fill="black" stroke="black" points="282.5,-268.104 279,-258.104 275.5,-268.104 282.5,-268.104"/>
</g>
<!-- original_dataset -->
<g id="node3" class="node"><title>original_dataset</title>
<path fill="#ffffcc" stroke="black" d="M324.305,-402C324.305,-402 233.695,-402 233.695,-402 227.695,-402 221.695,-396 221.695,-390 221.695,-390 221.695,-378 221.695,-378 221.695,-372 227.695,-366 233.695,-366 233.695,-366 324.305,-366 324.305,-366 330.305,-366 336.305,-372 336.305,-378 336.305,-378 336.305,-390 336.305,-390 336.305,-396 330.305,-402 324.305,-402"/>
<text text-anchor="middle" x="279" y="-379.8" font-family="Helvetica,sans-Serif" font-size="14.00">original_dataset</text>
</g>
<!-- original_dataset&#45;&gt;clean_scientific_name -->
<g id="edge6" class="edge"><title>original_dataset&#45;&gt;clean_scientific_name</title>
<path fill="none" stroke="black" d="M279,-365.697C279,-357.983 279,-348.712 279,-340.112"/>
<polygon fill="black" stroke="black" points="282.5,-340.104 279,-330.104 275.5,-340.104 282.5,-340.104"/>
</g>
<!-- data_with_cleaned_names&#45;&gt;clean_event_date -->
<g id="edge7" class="edge"><title>data_with_cleaned_names&#45;&gt;clean_event_date</title>
<path fill="none" stroke="black" d="M139.463,-221.876C152.296,-212.893 168.196,-201.763 182.094,-192.034"/>
<polygon fill="black" stroke="black" points="184.258,-194.792 190.443,-186.19 180.244,-189.057 184.258,-194.792"/>
</g>
<!-- name_cleaning_log_outflow -->
<g id="node12" class="node"><title>name_cleaning_log_outflow</title>
<ellipse fill="none" stroke="black" cx="395" cy="-31" rx="7" ry="7"/>
</g>
<!-- name_cleaning_log&#45;&gt;name_cleaning_log_outflow -->
<g id="edge12" class="edge"><title>name_cleaning_log&#45;&gt;name_cleaning_log_outflow</title>
<path fill="none" stroke="black" d="M427.433,-221.999C440.634,-189.059 464.333,-115.114 437,-62 431.46,-51.2338 420.066,-43.4749 410.543,-38.5481"/>
<polygon fill="black" stroke="black" points="411.856,-35.2997 401.308,-34.3053 408.933,-41.6605 411.856,-35.2997"/>
</g>
<!-- record_id_data&#45;&gt;clean_event_date -->
<g id="edge8" class="edge"><title>record_id_data&#45;&gt;clean_event_date</title>
<path fill="none" stroke="black" d="M263.18,-221.697C255.43,-213.22 245.961,-202.864 237.476,-193.583"/>
<polygon fill="black" stroke="black" points="239.969,-191.123 230.638,-186.104 234.803,-195.846 239.969,-191.123"/>
</g>
<!-- data_with_cleaned_names_and_dates_outflow -->
<g id="node11" class="node"><title>data_with_cleaned_names_and_dates_outflow</title>
<ellipse fill="none" stroke="black" cx="331" cy="-31" rx="7" ry="7"/>
</g>
<!-- data_with_cleaned_names_and_dates&#45;&gt;data_with_cleaned_names_and_dates_outflow -->
<g id="edge11" class="edge"><title>data_with_cleaned_names_and_dates&#45;&gt;data_with_cleaned_names_and_dates_outflow</title>
<path fill="none" stroke="black" d="M200.44,-77.9513C238.681,-64.4921 289.691,-46.539 315.147,-37.5794"/>
<polygon fill="black" stroke="black" points="316.375,-40.8579 324.646,-34.2364 314.051,-34.2549 316.375,-40.8579"/>
</g>
<!-- date_cleaning_log_outflow -->
<g id="node10" class="node"><title>date_cleaning_log_outflow</title>
<ellipse fill="none" stroke="black" cx="363" cy="-31" rx="7" ry="7"/>
</g>
<!-- date_cleaning_log&#45;&gt;date_cleaning_log_outflow -->
<g id="edge10" class="edge"><title>date_cleaning_log&#45;&gt;date_cleaning_log_outflow</title>
<path fill="none" stroke="black" d="M363,-77.785C363,-68.6656 363,-57.5197 363,-48.5085"/>
<polygon fill="black" stroke="black" points="366.5,-48.242 363,-38.242 359.5,-48.2421 366.5,-48.242"/>
</g>
<!-- original_dataset_inflow -->
<g id="node9" class="node"><title>original_dataset_inflow</title>
<ellipse fill="none" stroke="black" cx="279" cy="-449" rx="7" ry="7"/>
</g>
<!-- original_dataset_inflow&#45;&gt;original_dataset -->
<g id="edge9" class="edge"><title>original_dataset_inflow&#45;&gt;original_dataset</title>
<path fill="none" stroke="black" d="M279,-441.729C279,-434.795 279,-423.154 279,-412.215"/>
<polygon fill="black" stroke="black" points="282.5,-412.119 279,-402.119 275.5,-412.119 282.5,-412.119"/>
</g>
</g>
</svg>
