<?xml version="1.0" encoding="UTF-8" standalone="no"?>
<!DOCTYPE svg PUBLIC "-//W3C//DTD SVG 1.1//EN"
 "http://www.w3.org/Graphics/SVG/1.1/DTD/svg11.dtd">
<!-- Generated by graphviz version 2.38.0 (20140413.2041)
 -->
<!-- Title: yw_data_view Pages: 1 -->
<svg width="400pt" height="525pt"
 viewBox="0.00 0.00 400.00 525.40" xmlns="http://www.w3.org/2000/svg" xmlns:xlink="http://www.w3.org/1999/xlink">
<g id="graph0" class="graph" transform="scale(1 1) rotate(0) translate(4 521.4)">
<title>yw_data_view</title>
<polygon fill="white" stroke="none" points="-4,4 -4,-521.4 396,-521.4 396,4 -4,4"/>
<text text-anchor="middle" x="196" y="-497.2" font-family="Courier,monospace" font-size="18.00">clean_name_and_date_workflow</text>
<g id="clust1" class="cluster"><title>cluster_workflow</title>
<polygon fill="none" stroke="black" stroke-width="2" points="8,-62 8,-425.8 384,-425.8 384,-62 8,-62"/>
</g>
<g id="clust2" class="cluster"><title>cluster_workflow_inner</title>
<polygon fill="none" stroke="white" stroke-width="2" points="16,-70 16,-417.8 376,-417.8 376,-70 16,-70"/>
</g>
<g id="clust3" class="cluster"><title>cluster_inflows</title>
<polygon fill="none" stroke="white" stroke-width="2" points="160,-433.8 160,-479.8 238,-479.8 238,-433.8 160,-433.8"/>
</g>
<g id="clust4" class="cluster"><title>cluster_inflows_inner</title>
<polygon fill="none" stroke="white" stroke-width="2" points="168,-441.8 168,-471.8 230,-471.8 230,-441.8 168,-441.8"/>
</g>
<g id="clust5" class="cluster"><title>cluster_outflows</title>
<polygon fill="none" stroke="white" stroke-width="2" points="235,-8 235,-54 345,-54 345,-8 235,-8"/>
</g>
<g id="clust6" class="cluster"><title>cluster_outflows_inner</title>
<polygon fill="none" stroke="white" stroke-width="2" points="243,-16 243,-46 337,-46 337,-16 243,-16"/>
</g>
<!-- clean_scientific_name -->
<g id="node1" class="node"><title>clean_scientific_name</title>
<polygon fill="#ccffcc" stroke="black" points="300.371,-335.2 107.629,-335.2 107.629,-299.2 300.371,-299.2 300.371,-335.2"/>
<text text-anchor="middle" x="204" y="-313" font-family="Courier,monospace" font-size="14.00">clean_scientific_name</text>
</g>
<!-- data_with_cleaned_names -->
<g id="node4" class="node"><title>data_with_cleaned_names</title>
<path fill="#ffffcc" stroke="black" d="M135.536,-261.9C135.536,-261.9 36.4639,-261.9 36.4639,-261.9 30.4639,-261.9 24.4639,-255.9 24.4639,-249.9 24.4639,-249.9 24.4639,-237.9 24.4639,-237.9 24.4639,-231.9 30.4639,-225.9 36.4639,-225.9 36.4639,-225.9 135.536,-225.9 135.536,-225.9 141.536,-225.9 147.536,-231.9 147.536,-237.9 147.536,-237.9 147.536,-249.9 147.536,-249.9 147.536,-255.9 141.536,-261.9 135.536,-261.9"/>
<text text-anchor="middle" x="86" y="-241.2" font-family="Helvetica,sans-Serif" font-size="9.00">data_with_cleaned_names</text>
</g>
<!-- clean_scientific_name&#45;&gt;data_with_cleaned_names -->
<g id="edge5" class="edge"><title>clean_scientific_name&#45;&gt;data_with_cleaned_names</title>
<path fill="none" stroke="black" d="M175.736,-299.122C159.943,-289.579 140.074,-277.574 123.049,-267.287"/>
<polygon fill="black" stroke="black" points="124.811,-264.262 114.442,-262.086 121.191,-270.253 124.811,-264.262"/>
</g>
<!-- record_id_data -->
<g id="node5" class="node"><title>record_id_data</title>
<path fill="#ffffcc" stroke="black" d="M230.018,-261.9C230.018,-261.9 177.982,-261.9 177.982,-261.9 171.982,-261.9 165.982,-255.9 165.982,-249.9 165.982,-249.9 165.982,-237.9 165.982,-237.9 165.982,-231.9 171.982,-225.9 177.982,-225.9 177.982,-225.9 230.018,-225.9 230.018,-225.9 236.018,-225.9 242.018,-231.9 242.018,-237.9 242.018,-237.9 242.018,-249.9 242.018,-249.9 242.018,-255.9 236.018,-261.9 230.018,-261.9"/>
<text text-anchor="middle" x="204" y="-241.2" font-family="Helvetica,sans-Serif" font-size="9.00">record_id_data</text>
</g>
<!-- clean_scientific_name&#45;&gt;record_id_data -->
<g id="edge7" class="edge"><title>clean_scientific_name&#45;&gt;record_id_data</title>
<path fill="none" stroke="black" d="M204,-298.94C204,-290.883 204,-281.1 204,-272.084"/>
<polygon fill="black" stroke="black" points="207.5,-272.001 204,-262.001 200.5,-272.001 207.5,-272.001"/>
</g>
<!-- name_cleaning_log -->
<g id="node6" class="node"><title>name_cleaning_log</title>
<path fill="#ffe4b5" stroke="black" d="M272.108,-225.1C272.108,-225.1 355.892,-225.1 355.892,-225.1 361.892,-225.1 367.892,-231.1 367.892,-237.1 367.892,-237.1 367.892,-250.7 367.892,-250.7 367.892,-256.7 361.892,-262.7 355.892,-262.7 355.892,-262.7 272.108,-262.7 272.108,-262.7 266.108,-262.7 260.108,-256.7 260.108,-250.7 260.108,-250.7 260.108,-237.1 260.108,-237.1 260.108,-231.1 266.108,-225.1 272.108,-225.1"/>
<text text-anchor="middle" x="314" y="-250.6" font-family="Courier,monospace" font-weight="bold" font-size="9.00">name_cleaning_log</text>
<polyline fill="none" stroke="black" points="260.108,-243.9 367.892,-243.9 "/>
<text text-anchor="start" x="268.108" y="-231.8" font-family="Courier,monospace" font-weight="bold" font-size="9.00">name_val_log.txt</text>
</g>
<!-- clean_scientific_name&#45;&gt;name_cleaning_log -->
<g id="edge6" class="edge"><title>clean_scientific_name&#45;&gt;name_cleaning_log</title>
<path fill="none" stroke="black" d="M230.348,-299.122C244.481,-289.961 262.116,-278.53 277.546,-268.529"/>
<polygon fill="black" stroke="black" points="279.845,-271.21 286.332,-262.834 276.037,-265.336 279.845,-271.21"/>
</g>
<!-- clean_event_date -->
<g id="node2" class="node"><title>clean_event_date</title>
<polygon fill="#ccffcc" stroke="black" points="237.378,-188.6 86.6219,-188.6 86.6219,-152.6 237.378,-152.6 237.378,-188.6"/>
<text text-anchor="middle" x="162" y="-166.4" font-family="Courier,monospace" font-size="14.00">clean_event_date</text>
</g>
<!-- data_with_cleaned_names_and_dates -->
<g id="node7" class="node"><title>data_with_cleaned_names_and_dates</title>
<path fill="#ffe4b5" stroke="black" d="M35.9148,-78.5C35.9148,-78.5 206.085,-78.5 206.085,-78.5 212.085,-78.5 218.085,-84.5 218.085,-90.5 218.085,-90.5 218.085,-104.1 218.085,-104.1 218.085,-110.1 212.085,-116.1 206.085,-116.1 206.085,-116.1 35.9148,-116.1 35.9148,-116.1 29.9148,-116.1 23.9148,-110.1 23.9148,-104.1 23.9148,-104.1 23.9148,-90.5 23.9148,-90.5 23.9148,-84.5 29.9148,-78.5 35.9148,-78.5"/>
<text text-anchor="middle" x="121" y="-104" font-family="Courier,monospace" font-weight="bold" font-size="9.00">data_with_cleaned_names_and_dates</text>
<polyline fill="none" stroke="black" points="23.9148,-97.3 218.085,-97.3 "/>
<text text-anchor="start" x="31.9148" y="-85.2" font-family="Courier,monospace" font-weight="bold" font-size="9.00">demo_output_name_date_val.csv</text>
</g>
<!-- clean_event_date&#45;&gt;data_with_cleaned_names_and_dates -->
<g id="edge8" class="edge"><title>clean_event_date&#45;&gt;data_with_cleaned_names_and_dates</title>
<path fill="none" stroke="black" d="M152.075,-152.34C147.383,-144.18 141.672,-134.249 136.433,-125.138"/>
<polygon fill="black" stroke="black" points="139.425,-123.32 131.406,-116.396 133.357,-126.809 139.425,-123.32"/>
</g>
<!-- date_cleaning_log -->
<g id="node8" class="node"><title>date_cleaning_log</title>
<path fill="#ffe4b5" stroke="black" d="M248.108,-78.5C248.108,-78.5 331.892,-78.5 331.892,-78.5 337.892,-78.5 343.892,-84.5 343.892,-90.5 343.892,-90.5 343.892,-104.1 343.892,-104.1 343.892,-110.1 337.892,-116.1 331.892,-116.1 331.892,-116.1 248.108,-116.1 248.108,-116.1 242.108,-116.1 236.108,-110.1 236.108,-104.1 236.108,-104.1 236.108,-90.5 236.108,-90.5 236.108,-84.5 242.108,-78.5 248.108,-78.5"/>
<text text-anchor="middle" x="290" y="-104" font-family="Courier,monospace" font-weight="bold" font-size="9.00">date_cleaning_log</text>
<polyline fill="none" stroke="black" points="236.108,-97.3 343.892,-97.3 "/>
<text text-anchor="start" x="244.108" y="-85.2" font-family="Courier,monospace" font-weight="bold" font-size="9.00">date_val_log.txt</text>
</g>
<!-- clean_event_date&#45;&gt;date_cleaning_log -->
<g id="edge9" class="edge"><title>clean_event_date&#45;&gt;date_cleaning_log</title>
<path fill="none" stroke="black" d="M192.659,-152.522C209.412,-143.19 230.394,-131.502 248.584,-121.37"/>
<polygon fill="black" stroke="black" points="250.772,-124.158 257.805,-116.234 247.365,-118.042 250.772,-124.158"/>
</g>
<!-- original_dataset -->
<g id="node3" class="node"><title>original_dataset</title>
<path fill="#ffe4b5" stroke="black" d="M220.807,-371.7C220.807,-371.7 299.193,-371.7 299.193,-371.7 305.193,-371.7 311.193,-377.7 311.193,-383.7 311.193,-383.7 311.193,-397.3 311.193,-397.3 311.193,-403.3 305.193,-409.3 299.193,-409.3 299.193,-409.3 220.807,-409.3 220.807,-409.3 214.807,-409.3 208.807,-403.3 208.807,-397.3 208.807,-397.3 208.807,-383.7 208.807,-383.7 208.807,-377.7 214.807,-371.7 220.807,-371.7"/>
<text text-anchor="middle" x="260" y="-397.2" font-family="Courier,monospace" font-weight="bold" font-size="9.00">original_dataset</text>
<polyline fill="none" stroke="black" points="208.807,-390.5 311.193,-390.5 "/>
<text text-anchor="start" x="216.807" y="-378.4" font-family="Courier,monospace" font-weight="bold" font-size="9.00">demo_input.csv</text>
</g>
<!-- original_dataset&#45;&gt;clean_scientific_name -->
<g id="edge2" class="edge"><title>original_dataset&#45;&gt;clean_scientific_name</title>
<path fill="none" stroke="black" d="M245.869,-371.508C239.22,-363.043 231.176,-352.801 223.923,-343.567"/>
<polygon fill="black" stroke="black" points="226.476,-341.151 217.547,-335.448 220.971,-345.475 226.476,-341.151"/>
</g>
<!-- data_with_cleaned_names&#45;&gt;clean_event_date -->
<g id="edge3" class="edge"><title>data_with_cleaned_names&#45;&gt;clean_event_date</title>
<path fill="none" stroke="black" d="M104.397,-225.64C114.013,-216.62 125.934,-205.436 136.432,-195.587"/>
<polygon fill="black" stroke="black" points="138.874,-198.095 143.772,-188.701 134.084,-192.99 138.874,-198.095"/>
</g>
<!-- record_id_data&#45;&gt;clean_event_date -->
<g id="edge4" class="edge"><title>record_id_data&#45;&gt;clean_event_date</title>
<path fill="none" stroke="black" d="M193.833,-225.64C188.829,-217.145 182.694,-206.731 177.151,-197.321"/>
<polygon fill="black" stroke="black" points="180.165,-195.541 172.073,-188.701 174.133,-199.093 180.165,-195.541"/>
</g>
<!-- name_cleaning_log_outflow -->
<g id="node14" class="node"><title>name_cleaning_log_outflow</title>
<ellipse fill="none" stroke="black" cx="322" cy="-31" rx="7" ry="7"/>
</g>
<!-- name_cleaning_log&#45;&gt;name_cleaning_log_outflow -->
<g id="edge14" class="edge"><title>name_cleaning_log&#45;&gt;name_cleaning_log_outflow</title>
<path fill="none" stroke="black" d="M321.443,-224.895C330.984,-200.749 347.008,-156.311 353,-116.6 356.62,-92.6049 362.47,-84.3426 353,-62 349.464,-53.6563 342.345,-46.4979 335.82,-41.2683"/>
<polygon fill="black" stroke="black" points="337.842,-38.4111 327.683,-35.4024 333.748,-44.0895 337.842,-38.4111"/>
</g>
<!-- data_with_cleaned_names_and_dates_outflow -->
<g id="node13" class="node"><title>data_with_cleaned_names_and_dates_outflow</title>
<ellipse fill="none" stroke="black" cx="258" cy="-31" rx="7" ry="7"/>
</g>
<!-- data_with_cleaned_names_and_dates&#45;&gt;data_with_cleaned_names_and_dates_outflow -->
<g id="edge13" class="edge"><title>data_with_cleaned_names_and_dates&#45;&gt;data_with_cleaned_names_and_dates_outflow</title>
<path fill="none" stroke="black" d="M159.162,-78.3889C186.812,-65.4114 222.727,-48.5549 242.768,-39.1491"/>
<polygon fill="black" stroke="black" points="244.329,-42.2826 251.895,-34.8655 241.355,-35.9459 244.329,-42.2826"/>
</g>
<!-- date_cleaning_log_outflow -->
<g id="node12" class="node"><title>date_cleaning_log_outflow</title>
<ellipse fill="none" stroke="black" cx="290" cy="-31" rx="7" ry="7"/>
</g>
<!-- date_cleaning_log&#45;&gt;date_cleaning_log_outflow -->
<g id="edge12" class="edge"><title>date_cleaning_log&#45;&gt;date_cleaning_log_outflow</title>
<path fill="none" stroke="black" d="M290,-78.3889C290,-68.9828 290,-57.5389 290,-48.3712"/>
<polygon fill="black" stroke="black" points="293.5,-48.3008 290,-38.3008 286.5,-48.3008 293.5,-48.3008"/>
</g>
<!-- local_authority_source -->
<g id="node9" class="node"><title>local_authority_source</title>
<path fill="#ffffff" stroke="black" d="M179.02,-408.5C179.02,-408.5 96.9802,-408.5 96.9802,-408.5 90.9802,-408.5 84.9802,-402.5 84.9802,-396.5 84.9802,-396.5 84.9802,-384.5 84.9802,-384.5 84.9802,-378.5 90.9802,-372.5 96.9802,-372.5 96.9802,-372.5 179.02,-372.5 179.02,-372.5 185.02,-372.5 191.02,-378.5 191.02,-384.5 191.02,-384.5 191.02,-396.5 191.02,-396.5 191.02,-402.5 185.02,-408.5 179.02,-408.5"/>
<text text-anchor="middle" x="138" y="-387.8" font-family="Helvetica,sans-Serif" font-size="9.00">local_authority_source</text>
</g>
<!-- local_authority_source&#45;&gt;clean_scientific_name -->
<g id="edge1" class="edge"><title>local_authority_source&#45;&gt;clean_scientific_name</title>
<path fill="none" stroke="black" d="M153.977,-372.24C162.165,-363.395 172.278,-352.469 181.264,-342.762"/>
<polygon fill="black" stroke="black" points="183.946,-345.017 188.17,-335.301 178.809,-340.262 183.946,-345.017"/>
</g>
<!-- original_dataset_inflow -->
<g id="node10" class="node"><title>original_dataset_inflow</title>
<ellipse fill="none" stroke="black" cx="215" cy="-456.8" rx="7" ry="7"/>
</g>
<!-- original_dataset_inflow&#45;&gt;original_dataset -->
<g id="edge10" class="edge"><title>original_dataset_inflow&#45;&gt;original_dataset</title>
<path fill="none" stroke="black" d="M218.531,-450.754C223.514,-443.634 232.966,-430.129 241.588,-417.808"/>
<polygon fill="black" stroke="black" points="244.494,-419.761 247.36,-409.561 238.759,-415.747 244.494,-419.761"/>
</g>
<!-- local_authority_source_inflow -->
<g id="node11" class="node"><title>local_authority_source_inflow</title>
<ellipse fill="none" stroke="black" cx="183" cy="-456.8" rx="7" ry="7"/>
</g>
<!-- local_authority_source_inflow&#45;&gt;local_authority_source -->
<g id="edge11" class="edge"><title>local_authority_source_inflow&#45;&gt;local_authority_source</title>
<path fill="none" stroke="black" d="M179.469,-450.754C174.385,-443.49 164.649,-429.579 155.888,-417.061"/>
<polygon fill="black" stroke="black" points="158.649,-414.901 150.048,-408.715 152.914,-418.915 158.649,-414.901"/>
</g>
</g>
</svg>
