<?xml version="1.0" encoding="UTF-8" standalone="no"?>
<!DOCTYPE svg PUBLIC "-//W3C//DTD SVG 1.1//EN"
 "http://www.w3.org/Graphics/SVG/1.1/DTD/svg11.dtd">
<!-- Generated by graphviz version 2.38.0 (20140413.2041)
 -->
<!-- Title: yw_data_view Pages: 1 -->
<svg width="326pt" height="379pt"
 viewBox="0.00 0.00 326.35 378.80" xmlns="http://www.w3.org/2000/svg" xmlns:xlink="http://www.w3.org/1999/xlink">
<g id="graph0" class="graph" transform="scale(1 1) rotate(0) translate(4 374.8)">
<title>yw_data_view</title>
<polygon fill="white" stroke="none" points="-4,4 -4,-374.8 322.35,-374.8 322.35,4 -4,4"/>
<text text-anchor="middle" x="159.175" y="-350.6" font-family="Courier,monospace" font-size="18.00">clean_name_and_date_workflow</text>
<g id="clust1" class="cluster"><title>cluster_workflow</title>
<polygon fill="none" stroke="black" stroke-width="2" points="30.1748,-62 30.1748,-279.2 288.175,-279.2 288.175,-62 30.1748,-62"/>
</g>
<g id="clust2" class="cluster"><title>cluster_workflow_inner</title>
<polygon fill="none" stroke="white" stroke-width="2" points="38.1748,-70 38.1748,-271.2 280.175,-271.2 280.175,-70 38.1748,-70"/>
</g>
<g id="clust3" class="cluster"><title>cluster_inflows</title>
<polygon fill="none" stroke="white" stroke-width="2" points="121.175,-287.2 121.175,-333.2 199.175,-333.2 199.175,-287.2 121.175,-287.2"/>
</g>
<g id="clust4" class="cluster"><title>cluster_inflows_inner</title>
<polygon fill="none" stroke="white" stroke-width="2" points="129.175,-295.2 129.175,-325.2 191.175,-325.2 191.175,-295.2 129.175,-295.2"/>
</g>
<g id="clust5" class="cluster"><title>cluster_outflows</title>
<polygon fill="none" stroke="white" stroke-width="2" points="136.175,-8 136.175,-54 182.175,-54 182.175,-8 136.175,-8"/>
</g>
<g id="clust6" class="cluster"><title>cluster_outflows_inner</title>
<polygon fill="none" stroke="white" stroke-width="2" points="144.175,-16 144.175,-46 174.175,-46 174.175,-16 144.175,-16"/>
</g>
<!-- clean_scientific_name -->
<g id="node1" class="node"><title>clean_scientific_name</title>
<polygon fill="#ccffcc" stroke="black" points="255.546,-188.6 62.8038,-188.6 62.8038,-152.6 255.546,-152.6 255.546,-188.6"/>
<text text-anchor="middle" x="159.175" y="-166.4" font-family="Courier,monospace" font-size="14.00">clean_scientific_name</text>
</g>
<!-- name_cleaning_log -->
<g id="node3" class="node"><title>name_cleaning_log</title>
<path fill="#ffe4b5" stroke="black" d="M117.282,-78.5C117.282,-78.5 201.067,-78.5 201.067,-78.5 207.067,-78.5 213.067,-84.5 213.067,-90.5 213.067,-90.5 213.067,-104.1 213.067,-104.1 213.067,-110.1 207.067,-116.1 201.067,-116.1 201.067,-116.1 117.282,-116.1 117.282,-116.1 111.282,-116.1 105.282,-110.1 105.282,-104.1 105.282,-104.1 105.282,-90.5 105.282,-90.5 105.282,-84.5 111.282,-78.5 117.282,-78.5"/>
<text text-anchor="middle" x="159.175" y="-104" font-family="Courier,monospace" font-weight="bold" font-size="9.00">name_cleaning_log</text>
<polyline fill="none" stroke="black" points="105.282,-97.3 213.067,-97.3 "/>
<text text-anchor="start" x="113.282" y="-85.2" font-family="Courier,monospace" font-weight="bold" font-size="9.00">name_val_log.txt</text>
</g>
<!-- clean_scientific_name&#45;&gt;name_cleaning_log -->
<g id="edge3" class="edge"><title>clean_scientific_name&#45;&gt;name_cleaning_log</title>
<path fill="none" stroke="black" d="M159.175,-152.34C159.175,-144.605 159.175,-135.279 159.175,-126.568"/>
<polygon fill="black" stroke="black" points="162.675,-126.396 159.175,-116.396 155.675,-126.396 162.675,-126.396"/>
</g>
<!-- original_dataset -->
<g id="node2" class="node"><title>original_dataset</title>
<path fill="#ffe4b5" stroke="black" d="M181.982,-225.1C181.982,-225.1 260.368,-225.1 260.368,-225.1 266.368,-225.1 272.368,-231.1 272.368,-237.1 272.368,-237.1 272.368,-250.7 272.368,-250.7 272.368,-256.7 266.368,-262.7 260.368,-262.7 260.368,-262.7 181.982,-262.7 181.982,-262.7 175.982,-262.7 169.982,-256.7 169.982,-250.7 169.982,-250.7 169.982,-237.1 169.982,-237.1 169.982,-231.1 175.982,-225.1 181.982,-225.1"/>
<text text-anchor="middle" x="221.175" y="-250.6" font-family="Courier,monospace" font-weight="bold" font-size="9.00">original_dataset</text>
<polyline fill="none" stroke="black" points="169.982,-243.9 272.368,-243.9 "/>
<text text-anchor="start" x="177.982" y="-231.8" font-family="Courier,monospace" font-weight="bold" font-size="9.00">demo_input.csv</text>
</g>
<!-- original_dataset&#45;&gt;clean_scientific_name -->
<g id="edge1" class="edge"><title>original_dataset&#45;&gt;clean_scientific_name</title>
<path fill="none" stroke="black" d="M205.53,-224.908C198.019,-216.27 188.899,-205.783 180.742,-196.402"/>
<polygon fill="black" stroke="black" points="183.376,-194.098 174.173,-188.848 178.094,-198.691 183.376,-194.098"/>
</g>
<!-- name_cleaning_log_outflow -->
<g id="node7" class="node"><title>name_cleaning_log_outflow</title>
<ellipse fill="none" stroke="black" cx="159.175" cy="-31" rx="7" ry="7"/>
</g>
<!-- name_cleaning_log&#45;&gt;name_cleaning_log_outflow -->
<g id="edge6" class="edge"><title>name_cleaning_log&#45;&gt;name_cleaning_log_outflow</title>
<path fill="none" stroke="black" d="M159.175,-78.3889C159.175,-68.9828 159.175,-57.5389 159.175,-48.3712"/>
<polygon fill="black" stroke="black" points="162.675,-48.3008 159.175,-38.3008 155.675,-48.3008 162.675,-48.3008"/>
</g>
<!-- local_authority_source -->
<g id="node4" class="node"><title>local_authority_source</title>
<path fill="#ffffff" stroke="black" d="M140.195,-261.9C140.195,-261.9 58.155,-261.9 58.155,-261.9 52.155,-261.9 46.155,-255.9 46.155,-249.9 46.155,-249.9 46.155,-237.9 46.155,-237.9 46.155,-231.9 52.155,-225.9 58.155,-225.9 58.155,-225.9 140.195,-225.9 140.195,-225.9 146.195,-225.9 152.195,-231.9 152.195,-237.9 152.195,-237.9 152.195,-249.9 152.195,-249.9 152.195,-255.9 146.195,-261.9 140.195,-261.9"/>
<text text-anchor="middle" x="99.1748" y="-241.2" font-family="Helvetica,sans-Serif" font-size="9.00">local_authority_source</text>
</g>
<!-- local_authority_source&#45;&gt;clean_scientific_name -->
<g id="edge2" class="edge"><title>local_authority_source&#45;&gt;clean_scientific_name</title>
<path fill="none" stroke="black" d="M113.699,-225.64C121.069,-216.882 130.155,-206.085 138.263,-196.45"/>
<polygon fill="black" stroke="black" points="141.023,-198.606 144.784,-188.701 135.668,-194.099 141.023,-198.606"/>
</g>
<!-- original_dataset_inflow -->
<g id="node5" class="node"><title>original_dataset_inflow</title>
<ellipse fill="none" stroke="black" cx="176.175" cy="-310.2" rx="7" ry="7"/>
</g>
<!-- original_dataset_inflow&#45;&gt;original_dataset -->
<g id="edge4" class="edge"><title>original_dataset_inflow&#45;&gt;original_dataset</title>
<path fill="none" stroke="black" d="M179.706,-304.154C184.689,-297.034 194.14,-283.529 202.763,-271.208"/>
<polygon fill="black" stroke="black" points="205.669,-273.161 208.535,-262.961 199.934,-269.147 205.669,-273.161"/>
</g>
<!-- local_authority_source_inflow -->
<g id="node6" class="node"><title>local_authority_source_inflow</title>
<ellipse fill="none" stroke="black" cx="144.175" cy="-310.2" rx="7" ry="7"/>
</g>
<!-- local_authority_source_inflow&#45;&gt;local_authority_source -->
<g id="edge5" class="edge"><title>local_authority_source_inflow&#45;&gt;local_authority_source</title>
<path fill="none" stroke="black" d="M140.644,-304.154C135.56,-296.89 125.824,-282.979 117.063,-270.461"/>
<polygon fill="black" stroke="black" points="119.824,-268.301 111.223,-262.115 114.089,-272.315 119.824,-268.301"/>
</g>
</g>
</svg>
