<?xml version="1.0" encoding="UTF-8" standalone="no"?>
<!DOCTYPE svg PUBLIC "-//W3C//DTD SVG 1.1//EN"
 "http://www.w3.org/Graphics/SVG/1.1/DTD/svg11.dtd">
<!-- Generated by graphviz version 2.38.0 (20140413.2041)
 -->
<!-- Title: yw_data_view Pages: 1 -->
<svg width="366pt" height="523pt"
 viewBox="0.00 0.00 366.00 522.80" xmlns="http://www.w3.org/2000/svg" xmlns:xlink="http://www.w3.org/1999/xlink">
<g id="graph0" class="graph" transform="scale(1 1) rotate(0) translate(4 518.8)">
<title>yw_data_view</title>
<polygon fill="white" stroke="none" points="-4,4 -4,-518.8 362,-518.8 362,4 -4,4"/>
<text text-anchor="middle" x="179" y="-494.6" font-family="Courier,monospace" font-size="18.00">clean_name_and_date_workflow</text>
<g id="clust1" class="cluster"><title>cluster_workflow</title>
<polygon fill="none" stroke="black" stroke-width="2" points="8,-62 8,-423.2 350,-423.2 350,-62 8,-62"/>
</g>
<g id="clust2" class="cluster"><title>cluster_workflow_inner</title>
<polygon fill="none" stroke="white" stroke-width="2" points="16,-70 16,-415.2 342,-415.2 342,-70 16,-70"/>
</g>
<g id="clust3" class="cluster"><title>cluster_inflows</title>
<polygon fill="none" stroke="white" stroke-width="2" points="120,-431.2 120,-477.2 198,-477.2 198,-431.2 120,-431.2"/>
</g>
<g id="clust4" class="cluster"><title>cluster_inflows_inner</title>
<polygon fill="none" stroke="white" stroke-width="2" points="128,-439.2 128,-469.2 190,-469.2 190,-439.2 128,-439.2"/>
</g>
<g id="clust5" class="cluster"><title>cluster_outflows</title>
<polygon fill="none" stroke="white" stroke-width="2" points="156,-8 156,-54 202,-54 202,-8 156,-8"/>
</g>
<g id="clust6" class="cluster"><title>cluster_outflows_inner</title>
<polygon fill="none" stroke="white" stroke-width="2" points="164,-16 164,-46 194,-46 194,-16 164,-16"/>
</g>
<!-- clean_scientific_name -->
<g id="node1" class="node"><title>clean_scientific_name</title>
<polygon fill="#ccffcc" stroke="black" points="266.371,-332.6 73.629,-332.6 73.629,-296.6 266.371,-296.6 266.371,-332.6"/>
<text text-anchor="middle" x="170" y="-310.4" font-family="Courier,monospace" font-size="14.00">clean_scientific_name</text>
</g>
<!-- data_with_cleaned_names -->
<g id="node3" class="node"><title>data_with_cleaned_names</title>
<path fill="#ffffcc" stroke="black" d="M194.001,-260.6C194.001,-260.6 35.9987,-260.6 35.9987,-260.6 29.9987,-260.6 23.9987,-254.6 23.9987,-248.6 23.9987,-248.6 23.9987,-236.6 23.9987,-236.6 23.9987,-230.6 29.9987,-224.6 35.9987,-224.6 35.9987,-224.6 194.001,-224.6 194.001,-224.6 200.001,-224.6 206.001,-230.6 206.001,-236.6 206.001,-236.6 206.001,-248.6 206.001,-248.6 206.001,-254.6 200.001,-260.6 194.001,-260.6"/>
<text text-anchor="middle" x="115" y="-238.4" font-family="Helvetica,sans-Serif" font-size="14.00">data_with_cleaned_names</text>
</g>
<!-- clean_scientific_name&#45;&gt;data_with_cleaned_names -->
<g id="edge5" class="edge"><title>clean_scientific_name&#45;&gt;data_with_cleaned_names</title>
<path fill="none" stroke="black" d="M156.404,-296.297C149.877,-287.989 141.932,-277.877 134.753,-268.741"/>
<polygon fill="black" stroke="black" points="137.369,-266.405 128.439,-260.704 131.865,-270.73 137.369,-266.405"/>
</g>
<!-- record_id_data -->
<g id="node4" class="node"><title>record_id_data</title>
<path fill="#ffffcc" stroke="black" d="M321.862,-260.6C321.862,-260.6 236.138,-260.6 236.138,-260.6 230.138,-260.6 224.138,-254.6 224.138,-248.6 224.138,-248.6 224.138,-236.6 224.138,-236.6 224.138,-230.6 230.138,-224.6 236.138,-224.6 236.138,-224.6 321.862,-224.6 321.862,-224.6 327.862,-224.6 333.862,-230.6 333.862,-236.6 333.862,-236.6 333.862,-248.6 333.862,-248.6 333.862,-254.6 327.862,-260.6 321.862,-260.6"/>
<text text-anchor="middle" x="279" y="-238.4" font-family="Helvetica,sans-Serif" font-size="14.00">record_id_data</text>
</g>
<!-- clean_scientific_name&#45;&gt;record_id_data -->
<g id="edge6" class="edge"><title>clean_scientific_name&#45;&gt;record_id_data</title>
<path fill="none" stroke="black" d="M196.664,-296.476C210.784,-287.408 228.311,-276.152 243.561,-266.359"/>
<polygon fill="black" stroke="black" points="245.71,-269.138 252.233,-260.79 241.927,-263.248 245.71,-269.138"/>
</g>
<!-- clean_event_date -->
<g id="node2" class="node"><title>clean_event_date</title>
<polygon fill="#ccffcc" stroke="black" points="254.378,-188.6 103.622,-188.6 103.622,-152.6 254.378,-152.6 254.378,-188.6"/>
<text text-anchor="middle" x="179" y="-166.4" font-family="Courier,monospace" font-size="14.00">clean_event_date</text>
</g>
<!-- data_with_cleaned_names_and_dates -->
<g id="node6" class="node"><title>data_with_cleaned_names_and_dates</title>
<path fill="#ffe4b5" stroke="black" d="M93.9148,-78.5C93.9148,-78.5 264.085,-78.5 264.085,-78.5 270.085,-78.5 276.085,-84.5 276.085,-90.5 276.085,-90.5 276.085,-104.1 276.085,-104.1 276.085,-110.1 270.085,-116.1 264.085,-116.1 264.085,-116.1 93.9148,-116.1 93.9148,-116.1 87.9148,-116.1 81.9148,-110.1 81.9148,-104.1 81.9148,-104.1 81.9148,-90.5 81.9148,-90.5 81.9148,-84.5 87.9148,-78.5 93.9148,-78.5"/>
<text text-anchor="middle" x="179" y="-104" font-family="Courier,monospace" font-weight="bold" font-size="9.00">data_with_cleaned_names_and_dates</text>
<polyline fill="none" stroke="black" points="81.9148,-97.3 276.085,-97.3 "/>
<text text-anchor="start" x="89.9148" y="-85.2" font-family="Courier,monospace" font-weight="bold" font-size="9.00">demo_output_name_date_val.csv</text>
</g>
<!-- clean_event_date&#45;&gt;data_with_cleaned_names_and_dates -->
<g id="edge7" class="edge"><title>clean_event_date&#45;&gt;data_with_cleaned_names_and_dates</title>
<path fill="none" stroke="black" d="M179,-152.34C179,-144.605 179,-135.279 179,-126.568"/>
<polygon fill="black" stroke="black" points="182.5,-126.396 179,-116.396 175.5,-126.396 182.5,-126.396"/>
</g>
<!-- data_with_cleaned_names&#45;&gt;clean_event_date -->
<g id="edge2" class="edge"><title>data_with_cleaned_names&#45;&gt;clean_event_date</title>
<path fill="none" stroke="black" d="M130.82,-224.297C138.57,-215.82 148.039,-205.464 156.524,-196.183"/>
<polygon fill="black" stroke="black" points="159.197,-198.446 163.362,-188.704 154.031,-193.723 159.197,-198.446"/>
</g>
<!-- record_id_data&#45;&gt;clean_event_date -->
<g id="edge1" class="edge"><title>record_id_data&#45;&gt;clean_event_date</title>
<path fill="none" stroke="black" d="M254.537,-224.476C241.704,-215.493 225.804,-204.363 211.906,-194.634"/>
<polygon fill="black" stroke="black" points="213.756,-191.657 203.557,-188.79 209.742,-197.392 213.756,-191.657"/>
</g>
<!-- original_dataset -->
<g id="node5" class="node"><title>original_dataset</title>
<path fill="#ffe4b5" stroke="black" d="M180.807,-369.1C180.807,-369.1 259.193,-369.1 259.193,-369.1 265.193,-369.1 271.193,-375.1 271.193,-381.1 271.193,-381.1 271.193,-394.7 271.193,-394.7 271.193,-400.7 265.193,-406.7 259.193,-406.7 259.193,-406.7 180.807,-406.7 180.807,-406.7 174.807,-406.7 168.807,-400.7 168.807,-394.7 168.807,-394.7 168.807,-381.1 168.807,-381.1 168.807,-375.1 174.807,-369.1 180.807,-369.1"/>
<text text-anchor="middle" x="220" y="-394.6" font-family="Courier,monospace" font-weight="bold" font-size="9.00">original_dataset</text>
<polyline fill="none" stroke="black" points="168.807,-387.9 271.193,-387.9 "/>
<text text-anchor="start" x="176.807" y="-375.8" font-family="Courier,monospace" font-weight="bold" font-size="9.00">demo_input.csv</text>
</g>
<!-- original_dataset&#45;&gt;clean_scientific_name -->
<g id="edge3" class="edge"><title>original_dataset&#45;&gt;clean_scientific_name</title>
<path fill="none" stroke="black" d="M207.383,-368.908C201.507,-360.53 194.411,-350.41 187.987,-341.25"/>
<polygon fill="black" stroke="black" points="190.703,-339.026 182.096,-332.848 184.972,-343.045 190.703,-339.026"/>
</g>
<!-- data_with_cleaned_names_and_dates_outflow -->
<g id="node10" class="node"><title>data_with_cleaned_names_and_dates_outflow</title>
<ellipse fill="none" stroke="black" cx="179" cy="-31" rx="7" ry="7"/>
</g>
<!-- data_with_cleaned_names_and_dates&#45;&gt;data_with_cleaned_names_and_dates_outflow -->
<g id="edge10" class="edge"><title>data_with_cleaned_names_and_dates&#45;&gt;data_with_cleaned_names_and_dates_outflow</title>
<path fill="none" stroke="black" d="M179,-78.3889C179,-68.9828 179,-57.5389 179,-48.3712"/>
<polygon fill="black" stroke="black" points="182.5,-48.3008 179,-38.3008 175.5,-48.3008 182.5,-48.3008"/>
</g>
<!-- local_authority_source -->
<g id="node7" class="node"><title>local_authority_source</title>
<path fill="#ffffff" stroke="black" d="M139.02,-405.9C139.02,-405.9 56.9802,-405.9 56.9802,-405.9 50.9802,-405.9 44.9802,-399.9 44.9802,-393.9 44.9802,-393.9 44.9802,-381.9 44.9802,-381.9 44.9802,-375.9 50.9802,-369.9 56.9802,-369.9 56.9802,-369.9 139.02,-369.9 139.02,-369.9 145.02,-369.9 151.02,-375.9 151.02,-381.9 151.02,-381.9 151.02,-393.9 151.02,-393.9 151.02,-399.9 145.02,-405.9 139.02,-405.9"/>
<text text-anchor="middle" x="98" y="-385.2" font-family="Helvetica,sans-Serif" font-size="9.00">local_authority_source</text>
</g>
<!-- local_authority_source&#45;&gt;clean_scientific_name -->
<g id="edge4" class="edge"><title>local_authority_source&#45;&gt;clean_scientific_name</title>
<path fill="none" stroke="black" d="M115.429,-369.64C124.45,-360.707 135.613,-349.653 145.488,-339.874"/>
<polygon fill="black" stroke="black" points="148.089,-342.224 152.731,-332.701 143.163,-337.25 148.089,-342.224"/>
</g>
<!-- original_dataset_inflow -->
<g id="node8" class="node"><title>original_dataset_inflow</title>
<ellipse fill="none" stroke="black" cx="175" cy="-454.2" rx="7" ry="7"/>
</g>
<!-- original_dataset_inflow&#45;&gt;original_dataset -->
<g id="edge8" class="edge"><title>original_dataset_inflow&#45;&gt;original_dataset</title>
<path fill="none" stroke="black" d="M178.531,-448.154C183.514,-441.034 192.966,-427.529 201.588,-415.208"/>
<polygon fill="black" stroke="black" points="204.494,-417.161 207.36,-406.961 198.759,-413.147 204.494,-417.161"/>
</g>
<!-- local_authority_source_inflow -->
<g id="node9" class="node"><title>local_authority_source_inflow</title>
<ellipse fill="none" stroke="black" cx="143" cy="-454.2" rx="7" ry="7"/>
</g>
<!-- local_authority_source_inflow&#45;&gt;local_authority_source -->
<g id="edge9" class="edge"><title>local_authority_source_inflow&#45;&gt;local_authority_source</title>
<path fill="none" stroke="black" d="M139.469,-448.154C134.385,-440.89 124.649,-426.979 115.888,-414.461"/>
<polygon fill="black" stroke="black" points="118.649,-412.301 110.048,-406.115 112.914,-416.315 118.649,-412.301"/>
</g>
</g>
</svg>
