<?xml version="1.0" encoding="UTF-8" standalone="no"?>
<!DOCTYPE svg PUBLIC "-//W3C//DTD SVG 1.1//EN"
 "http://www.w3.org/Graphics/SVG/1.1/DTD/svg11.dtd">
<!-- Generated by graphviz version 2.38.0 (20140413.2041)
 -->
<!-- Title: yw_data_view Pages: 1 -->
<svg width="326pt" height="176pt"
 viewBox="0.00 0.00 326.35 175.60" xmlns="http://www.w3.org/2000/svg" xmlns:xlink="http://www.w3.org/1999/xlink">
<g id="graph0" class="graph" transform="scale(1 1) rotate(0) translate(4 171.6)">
<title>yw_data_view</title>
<polygon fill="white" stroke="none" points="-4,4 -4,-171.6 322.35,-171.6 322.35,4 -4,4"/>
<text text-anchor="middle" x="159.175" y="-147.4" font-family="Courier,monospace" font-size="18.00">clean_name_and_date_workflow</text>
<g id="clust1" class="cluster"><title>cluster_workflow</title>
<polygon fill="none" stroke="black" stroke-width="2" points="86.1748,-8 86.1748,-76 232.175,-76 232.175,-8 86.1748,-8"/>
</g>
<g id="clust2" class="cluster"><title>cluster_workflow_inner</title>
<polygon fill="none" stroke="white" stroke-width="2" points="94.1748,-16 94.1748,-68 224.175,-68 224.175,-16 94.1748,-16"/>
</g>
<g id="clust3" class="cluster"><title>cluster_inflows</title>
<polygon fill="none" stroke="white" stroke-width="2" points="136.175,-84 136.175,-130 182.175,-130 182.175,-84 136.175,-84"/>
</g>
<g id="clust4" class="cluster"><title>cluster_inflows_inner</title>
<polygon fill="none" stroke="white" stroke-width="2" points="144.175,-92 144.175,-122 174.175,-122 174.175,-92 144.175,-92"/>
</g>
<!-- original_dataset -->
<g id="node1" class="node"><title>original_dataset</title>
<path fill="#ffffcc" stroke="black" d="M204.48,-60C204.48,-60 113.87,-60 113.87,-60 107.87,-60 101.87,-54 101.87,-48 101.87,-48 101.87,-36 101.87,-36 101.87,-30 107.87,-24 113.87,-24 113.87,-24 204.48,-24 204.48,-24 210.48,-24 216.48,-30 216.48,-36 216.48,-36 216.48,-48 216.48,-48 216.48,-54 210.48,-60 204.48,-60"/>
<text text-anchor="middle" x="159.175" y="-37.8" font-family="Helvetica,sans-Serif" font-size="14.00">original_dataset</text>
</g>
<!-- original_dataset_inflow -->
<g id="node2" class="node"><title>original_dataset_inflow</title>
<ellipse fill="none" stroke="black" cx="159.175" cy="-107" rx="7" ry="7"/>
</g>
<!-- original_dataset_inflow&#45;&gt;original_dataset -->
<g id="edge1" class="edge"><title>original_dataset_inflow&#45;&gt;original_dataset</title>
<path fill="none" stroke="black" d="M159.175,-99.729C159.175,-92.7948 159.175,-81.1535 159.175,-70.2147"/>
<polygon fill="black" stroke="black" points="162.675,-70.1188 159.175,-60.1188 155.675,-70.1189 162.675,-70.1188"/>
</g>
</g>
</svg>
