<?xml version="1.0" encoding="UTF-8" standalone="no"?>
<!DOCTYPE svg PUBLIC "-//W3C//DTD SVG 1.1//EN"
 "http://www.w3.org/Graphics/SVG/1.1/DTD/svg11.dtd">
<!-- Generated by graphviz version 2.38.0 (20140413.2041)
 -->
<!-- Title: yw_data_view Pages: 1 -->
<svg width="344pt" height="374pt"
 viewBox="0.00 0.00 344.00 373.60" xmlns="http://www.w3.org/2000/svg" xmlns:xlink="http://www.w3.org/1999/xlink">
<g id="graph0" class="graph" transform="scale(1 1) rotate(0) translate(4 369.6)">
<title>yw_data_view</title>
<polygon fill="white" stroke="none" points="-4,4 -4,-369.6 340,-369.6 340,4 -4,4"/>
<text text-anchor="middle" x="168" y="-345.4" font-family="Courier,monospace" font-size="18.00">clean_name_and_date_workflow</text>
<g id="clust1" class="cluster"><title>cluster_workflow</title>
<polygon fill="none" stroke="black" stroke-width="2" points="8,-62 8,-274 328,-274 328,-62 8,-62"/>
</g>
<g id="clust2" class="cluster"><title>cluster_workflow_inner</title>
<polygon fill="none" stroke="white" stroke-width="2" points="16,-70 16,-266 320,-266 320,-70 16,-70"/>
</g>
<g id="clust3" class="cluster"><title>cluster_inflows</title>
<polygon fill="none" stroke="white" stroke-width="2" points="139,-282 139,-328 217,-328 217,-282 139,-282"/>
</g>
<g id="clust4" class="cluster"><title>cluster_inflows_inner</title>
<polygon fill="none" stroke="white" stroke-width="2" points="147,-290 147,-320 209,-320 209,-290 147,-290"/>
</g>
<g id="clust5" class="cluster"><title>cluster_outflows</title>
<polygon fill="none" stroke="white" stroke-width="2" points="145,-8 145,-54 191,-54 191,-8 145,-8"/>
</g>
<g id="clust6" class="cluster"><title>cluster_outflows_inner</title>
<polygon fill="none" stroke="white" stroke-width="2" points="153,-16 153,-46 183,-46 183,-16 153,-16"/>
</g>
<!-- clean_scientific_name -->
<g id="node1" class="node"><title>clean_scientific_name</title>
<polygon fill="#ccffcc" stroke="black" points="264.371,-186 71.629,-186 71.629,-150 264.371,-150 264.371,-186"/>
<text text-anchor="middle" x="168" y="-163.8" font-family="Courier,monospace" font-size="14.00">clean_scientific_name</text>
</g>
<!-- name_cleaning_log -->
<g id="node3" class="node"><title>name_cleaning_log</title>
<path fill="#ffffcc" stroke="black" d="M224.872,-114C224.872,-114 111.128,-114 111.128,-114 105.128,-114 99.1279,-108 99.1279,-102 99.1279,-102 99.1279,-90 99.1279,-90 99.1279,-84 105.128,-78 111.128,-78 111.128,-78 224.872,-78 224.872,-78 230.872,-78 236.872,-84 236.872,-90 236.872,-90 236.872,-102 236.872,-102 236.872,-108 230.872,-114 224.872,-114"/>
<text text-anchor="middle" x="168" y="-91.8" font-family="Helvetica,sans-Serif" font-size="14.00">name_cleaning_log</text>
</g>
<!-- clean_scientific_name&#45;&gt;name_cleaning_log -->
<g id="edge3" class="edge"><title>clean_scientific_name&#45;&gt;name_cleaning_log</title>
<path fill="none" stroke="black" d="M168,-149.697C168,-141.983 168,-132.712 168,-124.112"/>
<polygon fill="black" stroke="black" points="171.5,-124.104 168,-114.104 164.5,-124.104 171.5,-124.104"/>
</g>
<!-- original_dataset -->
<g id="node2" class="node"><title>original_dataset</title>
<path fill="#ffffcc" stroke="black" d="M300.305,-258C300.305,-258 209.695,-258 209.695,-258 203.695,-258 197.695,-252 197.695,-246 197.695,-246 197.695,-234 197.695,-234 197.695,-228 203.695,-222 209.695,-222 209.695,-222 300.305,-222 300.305,-222 306.305,-222 312.305,-228 312.305,-234 312.305,-234 312.305,-246 312.305,-246 312.305,-252 306.305,-258 300.305,-258"/>
<text text-anchor="middle" x="255" y="-235.8" font-family="Helvetica,sans-Serif" font-size="14.00">original_dataset</text>
</g>
<!-- original_dataset&#45;&gt;clean_scientific_name -->
<g id="edge1" class="edge"><title>original_dataset&#45;&gt;clean_scientific_name</title>
<path fill="none" stroke="black" d="M233.494,-221.697C222.537,-212.881 209.054,-202.032 197.175,-192.474"/>
<polygon fill="black" stroke="black" points="199.244,-189.646 189.258,-186.104 194.855,-195.1 199.244,-189.646"/>
</g>
<!-- name_cleaning_log_outflow -->
<g id="node7" class="node"><title>name_cleaning_log_outflow</title>
<ellipse fill="none" stroke="black" cx="168" cy="-31" rx="7" ry="7"/>
</g>
<!-- name_cleaning_log&#45;&gt;name_cleaning_log_outflow -->
<g id="edge6" class="edge"><title>name_cleaning_log&#45;&gt;name_cleaning_log_outflow</title>
<path fill="none" stroke="black" d="M168,-77.785C168,-68.6656 168,-57.5197 168,-48.5085"/>
<polygon fill="black" stroke="black" points="171.5,-48.242 168,-38.242 164.5,-48.2421 171.5,-48.242"/>
</g>
<!-- local_authority_source -->
<g id="node4" class="node"><title>local_authority_source</title>
<path fill="#ffffff" stroke="black" d="M168.031,-258C168.031,-258 35.9692,-258 35.9692,-258 29.9692,-258 23.9692,-252 23.9692,-246 23.9692,-246 23.9692,-234 23.9692,-234 23.9692,-228 29.9692,-222 35.9692,-222 35.9692,-222 168.031,-222 168.031,-222 174.031,-222 180.031,-228 180.031,-234 180.031,-234 180.031,-246 180.031,-246 180.031,-252 174.031,-258 168.031,-258"/>
<text text-anchor="middle" x="102" y="-235.8" font-family="Helvetica,sans-Serif" font-size="14.00">local_authority_source</text>
</g>
<!-- local_authority_source&#45;&gt;clean_scientific_name -->
<g id="edge2" class="edge"><title>local_authority_source&#45;&gt;clean_scientific_name</title>
<path fill="none" stroke="black" d="M118.315,-221.697C126.307,-213.22 136.072,-202.864 144.822,-193.583"/>
<polygon fill="black" stroke="black" points="147.559,-195.781 151.873,-186.104 142.466,-190.979 147.559,-195.781"/>
</g>
<!-- original_dataset_inflow -->
<g id="node5" class="node"><title>original_dataset_inflow</title>
<ellipse fill="none" stroke="black" cx="194" cy="-305" rx="7" ry="7"/>
</g>
<!-- original_dataset_inflow&#45;&gt;original_dataset -->
<g id="edge4" class="edge"><title>original_dataset_inflow&#45;&gt;original_dataset</title>
<path fill="none" stroke="black" d="M198.387,-299.469C205.283,-292.347 219.143,-278.033 231.422,-265.351"/>
<polygon fill="black" stroke="black" points="233.963,-267.758 238.405,-258.14 228.934,-262.889 233.963,-267.758"/>
</g>
<!-- local_authority_source_inflow -->
<g id="node6" class="node"><title>local_authority_source_inflow</title>
<ellipse fill="none" stroke="black" cx="162" cy="-305" rx="7" ry="7"/>
</g>
<!-- local_authority_source_inflow&#45;&gt;local_authority_source -->
<g id="edge5" class="edge"><title>local_authority_source_inflow&#45;&gt;local_authority_source</title>
<path fill="none" stroke="black" d="M157.685,-299.469C150.965,-292.413 137.524,-278.3 125.531,-265.707"/>
<polygon fill="black" stroke="black" points="127.755,-262.967 118.323,-258.14 122.686,-267.795 127.755,-262.967"/>
</g>
</g>
</svg>
