<?xml version="1.0" encoding="UTF-8" standalone="no"?>
<!DOCTYPE svg PUBLIC "-//W3C//DTD SVG 1.1//EN"
 "http://www.w3.org/Graphics/SVG/1.1/DTD/svg11.dtd">
<!-- Generated by graphviz version 2.38.0 (20140413.2041)
 -->
<!-- Title: yw_data_view Pages: 1 -->
<svg width="366pt" height="518pt"
 viewBox="0.00 0.00 366.00 517.60" xmlns="http://www.w3.org/2000/svg" xmlns:xlink="http://www.w3.org/1999/xlink">
<g id="graph0" class="graph" transform="scale(1 1) rotate(0) translate(4 513.6)">
<title>yw_data_view</title>
<polygon fill="white" stroke="none" points="-4,4 -4,-513.6 362,-513.6 362,4 -4,4"/>
<text text-anchor="middle" x="179" y="-489.4" font-family="Courier,monospace" font-size="18.00">clean_name_and_date_workflow</text>
<g id="clust1" class="cluster"><title>cluster_workflow</title>
<polygon fill="none" stroke="black" stroke-width="2" points="8,-62 8,-418 350,-418 350,-62 8,-62"/>
</g>
<g id="clust2" class="cluster"><title>cluster_workflow_inner</title>
<polygon fill="none" stroke="white" stroke-width="2" points="16,-70 16,-410 342,-410 342,-70 16,-70"/>
</g>
<g id="clust3" class="cluster"><title>cluster_inflows</title>
<polygon fill="none" stroke="white" stroke-width="2" points="148,-426 148,-472 226,-472 226,-426 148,-426"/>
</g>
<g id="clust4" class="cluster"><title>cluster_inflows_inner</title>
<polygon fill="none" stroke="white" stroke-width="2" points="156,-434 156,-464 218,-464 218,-434 156,-434"/>
</g>
<g id="clust5" class="cluster"><title>cluster_outflows</title>
<polygon fill="none" stroke="white" stroke-width="2" points="156,-8 156,-54 202,-54 202,-8 156,-8"/>
</g>
<g id="clust6" class="cluster"><title>cluster_outflows_inner</title>
<polygon fill="none" stroke="white" stroke-width="2" points="164,-16 164,-46 194,-46 194,-16 164,-16"/>
</g>
<!-- clean_scientific_name -->
<g id="node1" class="node"><title>clean_scientific_name</title>
<polygon fill="#ccffcc" stroke="black" points="275.371,-330 82.629,-330 82.629,-294 275.371,-294 275.371,-330"/>
<text text-anchor="middle" x="179" y="-307.8" font-family="Courier,monospace" font-size="14.00">clean_scientific_name</text>
</g>
<!-- data_with_cleaned_names -->
<g id="node4" class="node"><title>data_with_cleaned_names</title>
<path fill="#ffffcc" stroke="black" d="M194.001,-258C194.001,-258 35.9987,-258 35.9987,-258 29.9987,-258 23.9987,-252 23.9987,-246 23.9987,-246 23.9987,-234 23.9987,-234 23.9987,-228 29.9987,-222 35.9987,-222 35.9987,-222 194.001,-222 194.001,-222 200.001,-222 206.001,-228 206.001,-234 206.001,-234 206.001,-246 206.001,-246 206.001,-252 200.001,-258 194.001,-258"/>
<text text-anchor="middle" x="115" y="-235.8" font-family="Helvetica,sans-Serif" font-size="14.00">data_with_cleaned_names</text>
</g>
<!-- clean_scientific_name&#45;&gt;data_with_cleaned_names -->
<g id="edge5" class="edge"><title>clean_scientific_name&#45;&gt;data_with_cleaned_names</title>
<path fill="none" stroke="black" d="M163.18,-293.697C155.43,-285.22 145.961,-274.864 137.476,-265.583"/>
<polygon fill="black" stroke="black" points="139.969,-263.123 130.638,-258.104 134.803,-267.846 139.969,-263.123"/>
</g>
<!-- record_id_data -->
<g id="node5" class="node"><title>record_id_data</title>
<path fill="#ffffcc" stroke="black" d="M321.862,-258C321.862,-258 236.138,-258 236.138,-258 230.138,-258 224.138,-252 224.138,-246 224.138,-246 224.138,-234 224.138,-234 224.138,-228 230.138,-222 236.138,-222 236.138,-222 321.862,-222 321.862,-222 327.862,-222 333.862,-228 333.862,-234 333.862,-234 333.862,-246 333.862,-246 333.862,-252 327.862,-258 321.862,-258"/>
<text text-anchor="middle" x="279" y="-235.8" font-family="Helvetica,sans-Serif" font-size="14.00">record_id_data</text>
</g>
<!-- clean_scientific_name&#45;&gt;record_id_data -->
<g id="edge6" class="edge"><title>clean_scientific_name&#45;&gt;record_id_data</title>
<path fill="none" stroke="black" d="M203.463,-293.876C216.296,-284.893 232.196,-273.763 246.094,-264.034"/>
<polygon fill="black" stroke="black" points="248.258,-266.792 254.443,-258.19 244.244,-261.057 248.258,-266.792"/>
</g>
<!-- clean_event_date -->
<g id="node2" class="node"><title>clean_event_date</title>
<polygon fill="#ccffcc" stroke="black" points="254.378,-186 103.622,-186 103.622,-150 254.378,-150 254.378,-186"/>
<text text-anchor="middle" x="179" y="-163.8" font-family="Courier,monospace" font-size="14.00">clean_event_date</text>
</g>
<!-- data_with_cleaned_names_and_dates -->
<g id="node6" class="node"><title>data_with_cleaned_names_and_dates</title>
<path fill="#ffffcc" stroke="black" d="M294.652,-114C294.652,-114 63.3478,-114 63.3478,-114 57.3478,-114 51.3478,-108 51.3478,-102 51.3478,-102 51.3478,-90 51.3478,-90 51.3478,-84 57.3478,-78 63.3478,-78 63.3478,-78 294.652,-78 294.652,-78 300.652,-78 306.652,-84 306.652,-90 306.652,-90 306.652,-102 306.652,-102 306.652,-108 300.652,-114 294.652,-114"/>
<text text-anchor="middle" x="179" y="-91.8" font-family="Helvetica,sans-Serif" font-size="14.00">data_with_cleaned_names_and_dates</text>
</g>
<!-- clean_event_date&#45;&gt;data_with_cleaned_names_and_dates -->
<g id="edge7" class="edge"><title>clean_event_date&#45;&gt;data_with_cleaned_names_and_dates</title>
<path fill="none" stroke="black" d="M179,-149.697C179,-141.983 179,-132.712 179,-124.112"/>
<polygon fill="black" stroke="black" points="182.5,-124.104 179,-114.104 175.5,-124.104 182.5,-124.104"/>
</g>
<!-- original_dataset -->
<g id="node3" class="node"><title>original_dataset</title>
<path fill="#ffffcc" stroke="black" d="M309.305,-402C309.305,-402 218.695,-402 218.695,-402 212.695,-402 206.695,-396 206.695,-390 206.695,-390 206.695,-378 206.695,-378 206.695,-372 212.695,-366 218.695,-366 218.695,-366 309.305,-366 309.305,-366 315.305,-366 321.305,-372 321.305,-378 321.305,-378 321.305,-390 321.305,-390 321.305,-396 315.305,-402 309.305,-402"/>
<text text-anchor="middle" x="264" y="-379.8" font-family="Helvetica,sans-Serif" font-size="14.00">original_dataset</text>
</g>
<!-- original_dataset&#45;&gt;clean_scientific_name -->
<g id="edge3" class="edge"><title>original_dataset&#45;&gt;clean_scientific_name</title>
<path fill="none" stroke="black" d="M242.989,-365.697C232.284,-356.881 219.11,-346.032 207.504,-336.474"/>
<polygon fill="black" stroke="black" points="209.714,-333.76 199.77,-330.104 205.264,-339.163 209.714,-333.76"/>
</g>
<!-- data_with_cleaned_names&#45;&gt;clean_event_date -->
<g id="edge2" class="edge"><title>data_with_cleaned_names&#45;&gt;clean_event_date</title>
<path fill="none" stroke="black" d="M130.82,-221.697C138.57,-213.22 148.039,-202.864 156.524,-193.583"/>
<polygon fill="black" stroke="black" points="159.197,-195.846 163.362,-186.104 154.031,-191.123 159.197,-195.846"/>
</g>
<!-- record_id_data&#45;&gt;clean_event_date -->
<g id="edge1" class="edge"><title>record_id_data&#45;&gt;clean_event_date</title>
<path fill="none" stroke="black" d="M254.537,-221.876C241.704,-212.893 225.804,-201.763 211.906,-192.034"/>
<polygon fill="black" stroke="black" points="213.756,-189.057 203.557,-186.19 209.742,-194.792 213.756,-189.057"/>
</g>
<!-- data_with_cleaned_names_and_dates_outflow -->
<g id="node10" class="node"><title>data_with_cleaned_names_and_dates_outflow</title>
<ellipse fill="none" stroke="black" cx="179" cy="-31" rx="7" ry="7"/>
</g>
<!-- data_with_cleaned_names_and_dates&#45;&gt;data_with_cleaned_names_and_dates_outflow -->
<g id="edge10" class="edge"><title>data_with_cleaned_names_and_dates&#45;&gt;data_with_cleaned_names_and_dates_outflow</title>
<path fill="none" stroke="black" d="M179,-77.785C179,-68.6656 179,-57.5197 179,-48.5085"/>
<polygon fill="black" stroke="black" points="182.5,-48.242 179,-38.242 175.5,-48.2421 182.5,-48.242"/>
</g>
<!-- local_authority_source -->
<g id="node7" class="node"><title>local_authority_source</title>
<path fill="#ffffff" stroke="black" d="M177.031,-402C177.031,-402 44.9692,-402 44.9692,-402 38.9692,-402 32.9692,-396 32.9692,-390 32.9692,-390 32.9692,-378 32.9692,-378 32.9692,-372 38.9692,-366 44.9692,-366 44.9692,-366 177.031,-366 177.031,-366 183.031,-366 189.031,-372 189.031,-378 189.031,-378 189.031,-390 189.031,-390 189.031,-396 183.031,-402 177.031,-402"/>
<text text-anchor="middle" x="111" y="-379.8" font-family="Helvetica,sans-Serif" font-size="14.00">local_authority_source</text>
</g>
<!-- local_authority_source&#45;&gt;clean_scientific_name -->
<g id="edge4" class="edge"><title>local_authority_source&#45;&gt;clean_scientific_name</title>
<path fill="none" stroke="black" d="M127.809,-365.697C136.126,-357.135 146.305,-346.656 155.39,-337.304"/>
<polygon fill="black" stroke="black" points="157.927,-339.716 162.384,-330.104 152.906,-334.838 157.927,-339.716"/>
</g>
<!-- original_dataset_inflow -->
<g id="node8" class="node"><title>original_dataset_inflow</title>
<ellipse fill="none" stroke="black" cx="203" cy="-449" rx="7" ry="7"/>
</g>
<!-- original_dataset_inflow&#45;&gt;original_dataset -->
<g id="edge8" class="edge"><title>original_dataset_inflow&#45;&gt;original_dataset</title>
<path fill="none" stroke="black" d="M207.387,-443.469C214.283,-436.347 228.143,-422.033 240.422,-409.351"/>
<polygon fill="black" stroke="black" points="242.963,-411.758 247.405,-402.14 237.934,-406.889 242.963,-411.758"/>
</g>
<!-- local_authority_source_inflow -->
<g id="node9" class="node"><title>local_authority_source_inflow</title>
<ellipse fill="none" stroke="black" cx="171" cy="-449" rx="7" ry="7"/>
</g>
<!-- local_authority_source_inflow&#45;&gt;local_authority_source -->
<g id="edge9" class="edge"><title>local_authority_source_inflow&#45;&gt;local_authority_source</title>
<path fill="none" stroke="black" d="M166.685,-443.469C159.965,-436.413 146.524,-422.3 134.531,-409.707"/>
<polygon fill="black" stroke="black" points="136.755,-406.967 127.323,-402.14 131.686,-411.795 136.755,-406.967"/>
</g>
</g>
</svg>
