<?xml version="1.0" encoding="UTF-8" standalone="no"?>
<!DOCTYPE svg PUBLIC "-//W3C//DTD SVG 1.1//EN"
 "http://www.w3.org/Graphics/SVG/1.1/DTD/svg11.dtd">
<!-- Generated by graphviz version 2.38.0 (20140413.2041)
 -->
<!-- Title: yw_data_view Pages: 1 -->
<svg width="344pt" height="320pt"
 viewBox="0.00 0.00 344.00 319.60" xmlns="http://www.w3.org/2000/svg" xmlns:xlink="http://www.w3.org/1999/xlink">
<g id="graph0" class="graph" transform="scale(1 1) rotate(0) translate(4 315.6)">
<title>yw_data_view</title>
<polygon fill="white" stroke="none" points="-4,4 -4,-315.6 340,-315.6 340,4 -4,4"/>
<text text-anchor="middle" x="168" y="-291.4" font-family="Courier,monospace" font-size="18.00">clean_name_and_date_workflow</text>
<g id="clust1" class="cluster"><title>cluster_workflow</title>
<polygon fill="none" stroke="black" stroke-width="2" points="8,-8 8,-220 328,-220 328,-8 8,-8"/>
</g>
<g id="clust2" class="cluster"><title>cluster_workflow_inner</title>
<polygon fill="none" stroke="white" stroke-width="2" points="16,-16 16,-212 320,-212 320,-16 16,-16"/>
</g>
<g id="clust3" class="cluster"><title>cluster_inflows</title>
<polygon fill="none" stroke="white" stroke-width="2" points="139,-228 139,-274 217,-274 217,-228 139,-228"/>
</g>
<g id="clust4" class="cluster"><title>cluster_inflows_inner</title>
<polygon fill="none" stroke="white" stroke-width="2" points="147,-236 147,-266 209,-266 209,-236 147,-236"/>
</g>
<!-- clean_scientific_name -->
<g id="node1" class="node"><title>clean_scientific_name</title>
<polygon fill="#ccffcc" stroke="black" points="264.371,-132 71.629,-132 71.629,-96 264.371,-96 264.371,-132"/>
<text text-anchor="middle" x="168" y="-109.8" font-family="Courier,monospace" font-size="14.00">clean_scientific_name</text>
</g>
<!-- record_id_data -->
<g id="node3" class="node"><title>record_id_data</title>
<path fill="#ffffcc" stroke="black" d="M210.862,-60C210.862,-60 125.138,-60 125.138,-60 119.138,-60 113.138,-54 113.138,-48 113.138,-48 113.138,-36 113.138,-36 113.138,-30 119.138,-24 125.138,-24 125.138,-24 210.862,-24 210.862,-24 216.862,-24 222.862,-30 222.862,-36 222.862,-36 222.862,-48 222.862,-48 222.862,-54 216.862,-60 210.862,-60"/>
<text text-anchor="middle" x="168" y="-37.8" font-family="Helvetica,sans-Serif" font-size="14.00">record_id_data</text>
</g>
<!-- clean_scientific_name&#45;&gt;record_id_data -->
<g id="edge3" class="edge"><title>clean_scientific_name&#45;&gt;record_id_data</title>
<path fill="none" stroke="black" d="M168,-95.6966C168,-87.9827 168,-78.7125 168,-70.1124"/>
<polygon fill="black" stroke="black" points="171.5,-70.1043 168,-60.1043 164.5,-70.1044 171.5,-70.1043"/>
</g>
<!-- original_dataset -->
<g id="node2" class="node"><title>original_dataset</title>
<path fill="#ffffcc" stroke="black" d="M300.305,-204C300.305,-204 209.695,-204 209.695,-204 203.695,-204 197.695,-198 197.695,-192 197.695,-192 197.695,-180 197.695,-180 197.695,-174 203.695,-168 209.695,-168 209.695,-168 300.305,-168 300.305,-168 306.305,-168 312.305,-174 312.305,-180 312.305,-180 312.305,-192 312.305,-192 312.305,-198 306.305,-204 300.305,-204"/>
<text text-anchor="middle" x="255" y="-181.8" font-family="Helvetica,sans-Serif" font-size="14.00">original_dataset</text>
</g>
<!-- original_dataset&#45;&gt;clean_scientific_name -->
<g id="edge1" class="edge"><title>original_dataset&#45;&gt;clean_scientific_name</title>
<path fill="none" stroke="black" d="M233.494,-167.697C222.537,-158.881 209.054,-148.032 197.175,-138.474"/>
<polygon fill="black" stroke="black" points="199.244,-135.646 189.258,-132.104 194.855,-141.1 199.244,-135.646"/>
</g>
<!-- local_authority_source -->
<g id="node4" class="node"><title>local_authority_source</title>
<path fill="#ffffff" stroke="black" d="M168.031,-204C168.031,-204 35.9692,-204 35.9692,-204 29.9692,-204 23.9692,-198 23.9692,-192 23.9692,-192 23.9692,-180 23.9692,-180 23.9692,-174 29.9692,-168 35.9692,-168 35.9692,-168 168.031,-168 168.031,-168 174.031,-168 180.031,-174 180.031,-180 180.031,-180 180.031,-192 180.031,-192 180.031,-198 174.031,-204 168.031,-204"/>
<text text-anchor="middle" x="102" y="-181.8" font-family="Helvetica,sans-Serif" font-size="14.00">local_authority_source</text>
</g>
<!-- local_authority_source&#45;&gt;clean_scientific_name -->
<g id="edge2" class="edge"><title>local_authority_source&#45;&gt;clean_scientific_name</title>
<path fill="none" stroke="black" d="M118.315,-167.697C126.307,-159.22 136.072,-148.864 144.822,-139.583"/>
<polygon fill="black" stroke="black" points="147.559,-141.781 151.873,-132.104 142.466,-136.979 147.559,-141.781"/>
</g>
<!-- original_dataset_inflow -->
<g id="node5" class="node"><title>original_dataset_inflow</title>
<ellipse fill="none" stroke="black" cx="194" cy="-251" rx="7" ry="7"/>
</g>
<!-- original_dataset_inflow&#45;&gt;original_dataset -->
<g id="edge4" class="edge"><title>original_dataset_inflow&#45;&gt;original_dataset</title>
<path fill="none" stroke="black" d="M198.387,-245.469C205.283,-238.347 219.143,-224.033 231.422,-211.351"/>
<polygon fill="black" stroke="black" points="233.963,-213.758 238.405,-204.14 228.934,-208.889 233.963,-213.758"/>
</g>
<!-- local_authority_source_inflow -->
<g id="node6" class="node"><title>local_authority_source_inflow</title>
<ellipse fill="none" stroke="black" cx="162" cy="-251" rx="7" ry="7"/>
</g>
<!-- local_authority_source_inflow&#45;&gt;local_authority_source -->
<g id="edge5" class="edge"><title>local_authority_source_inflow&#45;&gt;local_authority_source</title>
<path fill="none" stroke="black" d="M157.685,-245.469C150.965,-238.413 137.524,-224.3 125.531,-211.707"/>
<polygon fill="black" stroke="black" points="127.755,-208.967 118.323,-204.14 122.686,-213.795 127.755,-208.967"/>
</g>
</g>
</svg>
