<?xml version="1.0" encoding="UTF-8" standalone="no"?>
<!DOCTYPE svg PUBLIC "-//W3C//DTD SVG 1.1//EN"
 "http://www.w3.org/Graphics/SVG/1.1/DTD/svg11.dtd">
<!-- Generated by graphviz version 2.38.0 (20140413.2041)
 -->
<!-- Title: yw_data_view Pages: 1 -->
<svg width="1150pt" height="1580pt"
 viewBox="0.00 0.00 1149.83 1579.60" xmlns="http://www.w3.org/2000/svg" xmlns:xlink="http://www.w3.org/1999/xlink">
<g id="graph0" class="graph" transform="scale(1 1) rotate(0) translate(4 1575.6)">
<title>yw_data_view</title>
<polygon fill="white" stroke="none" points="-4,4 -4,-1575.6 1145.83,-1575.6 1145.83,4 -4,4"/>
<text text-anchor="middle" x="570.914" y="-1551.4" font-family="Courier,monospace" font-size="18.00">Upstream graph for multiple runs</text>
<g id="clust1" class="cluster"><title>cluster_workflow</title>
<polygon fill="none" stroke="black" stroke-width="2" points="8,-8 8,-1534 1133.83,-1534 1133.83,-8 8,-8"/>
</g>
<g id="clust2" class="cluster"><title>cluster_workflow_inner</title>
<polygon fill="none" stroke="white" stroke-width="2" points="16,-16 16,-1526 1125.83,-1526 1125.83,-16 16,-16"/>
</g>
<!-- examine_pixels_for_grass_threshold_2_5 -->
<g id="node1" class="node"><title>examine_pixels_for_grass_threshold_2_5</title>
<polygon fill="black" stroke="black" points="475.001,-1518 139.707,-1518 139.707,-1482 475.001,-1482 475.001,-1518"/>
<text text-anchor="middle" x="307.354" y="-1495.8" font-family="Courier,monospace" font-weight="bold" font-size="14.00" fill="white">examine_pixels_for_grass_threshold_2_5</text>
</g>
<!-- /Users/syc/Documents/C3_C4_mapping/workspace/C3_2000_2010.mat -->
<g id="node13" class="node"><title>/Users/syc/Documents/C3_C4_mapping/workspace/C3_2000_2010.mat</title>
<path fill="#ffe4b5" stroke="black" d="M1033.11,-1464C1033.11,-1464 711.423,-1464 711.423,-1464 705.423,-1464 699.423,-1458 699.423,-1452 699.423,-1452 699.423,-1440 699.423,-1440 699.423,-1434 705.423,-1428 711.423,-1428 711.423,-1428 1033.11,-1428 1033.11,-1428 1039.11,-1428 1045.11,-1434 1045.11,-1440 1045.11,-1440 1045.11,-1452 1045.11,-1452 1045.11,-1458 1039.11,-1464 1033.11,-1464"/>
<text text-anchor="middle" x="872.269" y="-1443.3" font-family="Courier,monospace" font-weight="bold" font-size="9.00">/Users/syc/Documents/C3_C4_mapping/workspace/C3_2000_2010.mat</text>
</g>
<!-- examine_pixels_for_grass_threshold_2_5&#45;&gt;/Users/syc/Documents/C3_C4_mapping/workspace/C3_2000_2010.mat -->
<g id="edge3" class="edge"><title>examine_pixels_for_grass_threshold_2_5&#45;&gt;/Users/syc/Documents/C3_C4_mapping/workspace/C3_2000_2010.mat</title>
<path fill="none" stroke="black" d="M475.201,-1484.06C513.171,-1480.43 553.332,-1476.59 590.708,-1473 622.602,-1469.94 656.534,-1466.68 689.376,-1463.52"/>
<polygon fill="black" stroke="black" points="689.911,-1466.99 699.53,-1462.54 689.24,-1460.02 689.911,-1466.99"/>
</g>
<!-- /Users/syc/Documents/C3_C4_mapping/workspace/C4_2000_2010.mat -->
<g id="node18" class="node"><title>/Users/syc/Documents/C3_C4_mapping/workspace/C4_2000_2010.mat</title>
<path fill="#ffe4b5" stroke="black" d="M1033.11,-1518C1033.11,-1518 711.423,-1518 711.423,-1518 705.423,-1518 699.423,-1512 699.423,-1506 699.423,-1506 699.423,-1494 699.423,-1494 699.423,-1488 705.423,-1482 711.423,-1482 711.423,-1482 1033.11,-1482 1033.11,-1482 1039.11,-1482 1045.11,-1488 1045.11,-1494 1045.11,-1494 1045.11,-1506 1045.11,-1506 1045.11,-1512 1039.11,-1518 1033.11,-1518"/>
<text text-anchor="middle" x="872.269" y="-1497.3" font-family="Courier,monospace" font-weight="bold" font-size="9.00">/Users/syc/Documents/C3_C4_mapping/workspace/C4_2000_2010.mat</text>
</g>
<!-- examine_pixels_for_grass_threshold_2_5&#45;&gt;/Users/syc/Documents/C3_C4_mapping/workspace/C4_2000_2010.mat -->
<g id="edge5" class="edge"><title>examine_pixels_for_grass_threshold_2_5&#45;&gt;/Users/syc/Documents/C3_C4_mapping/workspace/C4_2000_2010.mat</title>
<path fill="none" stroke="black" d="M474.962,-1500C542.325,-1500 620.281,-1500 689.139,-1500"/>
<polygon fill="black" stroke="black" points="689.23,-1503.5 699.23,-1500 689.23,-1496.5 689.23,-1503.5"/>
</g>
<!-- prepare_step -->
<g id="node2" class="node"><title>prepare_step</title>
<polygon fill="black" stroke="black" points="365.638,-1464 249.071,-1464 249.071,-1428 365.638,-1428 365.638,-1464"/>
<text text-anchor="middle" x="307.354" y="-1441.8" font-family="Courier,monospace" font-weight="bold" font-size="14.00" fill="white">prepare_step</text>
</g>
<!-- /Users/syc/Documents/C3_C4_mapping/workspace/land_cover_map_2000_2010.mat -->
<g id="node12" class="node"><title>/Users/syc/Documents/C3_C4_mapping/workspace/land_cover_map_2000_2010.mat</title>
<path fill="#ffe4b5" stroke="black" d="M1065.4,-1248C1065.4,-1248 679.134,-1248 679.134,-1248 673.134,-1248 667.134,-1242 667.134,-1236 667.134,-1236 667.134,-1224 667.134,-1224 667.134,-1218 673.134,-1212 679.134,-1212 679.134,-1212 1065.4,-1212 1065.4,-1212 1071.4,-1212 1077.4,-1218 1077.4,-1224 1077.4,-1224 1077.4,-1236 1077.4,-1236 1077.4,-1242 1071.4,-1248 1065.4,-1248"/>
<text text-anchor="middle" x="872.269" y="-1227.3" font-family="Courier,monospace" font-weight="bold" font-size="9.00">/Users/syc/Documents/C3_C4_mapping/workspace/land_cover_map_2000_2010.mat</text>
</g>
<!-- prepare_step&#45;&gt;/Users/syc/Documents/C3_C4_mapping/workspace/land_cover_map_2000_2010.mat -->
<g id="edge2" class="edge"><title>prepare_step&#45;&gt;/Users/syc/Documents/C3_C4_mapping/workspace/land_cover_map_2000_2010.mat</title>
<path fill="none" stroke="black" d="M365.798,-1458.41C428.917,-1468.41 529.454,-1473.13 590.708,-1419 645.977,-1370.16 571.798,-1306.24 626.708,-1257 636.118,-1248.56 646.62,-1241.71 657.836,-1236.2"/>
<polygon fill="black" stroke="black" points="659.312,-1239.37 666.977,-1232.06 656.424,-1233 659.312,-1239.37"/>
</g>
<!-- /Users/syc/Documents/C3_C4_mapping/workspace/Tair_2000_2010.mat -->
<g id="node17" class="node"><title>/Users/syc/Documents/C3_C4_mapping/workspace/Tair_2000_2010.mat</title>
<path fill="#ffe4b5" stroke="black" d="M1038.41,-1302C1038.41,-1302 706.125,-1302 706.125,-1302 700.125,-1302 694.125,-1296 694.125,-1290 694.125,-1290 694.125,-1278 694.125,-1278 694.125,-1272 700.125,-1266 706.125,-1266 706.125,-1266 1038.41,-1266 1038.41,-1266 1044.41,-1266 1050.41,-1272 1050.41,-1278 1050.41,-1278 1050.41,-1290 1050.41,-1290 1050.41,-1296 1044.41,-1302 1038.41,-1302"/>
<text text-anchor="middle" x="872.269" y="-1281.3" font-family="Courier,monospace" font-weight="bold" font-size="9.00">/Users/syc/Documents/C3_C4_mapping/workspace/Tair_2000_2010.mat</text>
</g>
<!-- prepare_step&#45;&gt;/Users/syc/Documents/C3_C4_mapping/workspace/Tair_2000_2010.mat -->
<g id="edge4" class="edge"><title>prepare_step&#45;&gt;/Users/syc/Documents/C3_C4_mapping/workspace/Tair_2000_2010.mat</title>
<path fill="none" stroke="black" d="M365.64,-1457.33C427.914,-1466.18 527.036,-1469.67 590.708,-1419 630.298,-1387.49 587.35,-1342.8 626.708,-1311 643.565,-1297.38 663.345,-1288.1 684.227,-1281.97"/>
<polygon fill="black" stroke="black" points="685.144,-1285.35 693.893,-1279.38 683.327,-1278.59 685.144,-1285.35"/>
</g>
<!-- /Users/syc/Documents/C3_C4_mapping/workspace/Rain_2000_2010.mat -->
<g id="node25" class="node"><title>/Users/syc/Documents/C3_C4_mapping/workspace/Rain_2000_2010.mat</title>
<path fill="#ffe4b5" stroke="black" d="M1038.41,-1356C1038.41,-1356 706.125,-1356 706.125,-1356 700.125,-1356 694.125,-1350 694.125,-1344 694.125,-1344 694.125,-1332 694.125,-1332 694.125,-1326 700.125,-1320 706.125,-1320 706.125,-1320 1038.41,-1320 1038.41,-1320 1044.41,-1320 1050.41,-1326 1050.41,-1332 1050.41,-1332 1050.41,-1344 1050.41,-1344 1050.41,-1350 1044.41,-1356 1038.41,-1356"/>
<text text-anchor="middle" x="872.269" y="-1335.3" font-family="Courier,monospace" font-weight="bold" font-size="9.00">/Users/syc/Documents/C3_C4_mapping/workspace/Rain_2000_2010.mat</text>
</g>
<!-- prepare_step&#45;&gt;/Users/syc/Documents/C3_C4_mapping/workspace/Rain_2000_2010.mat -->
<g id="edge6" class="edge"><title>prepare_step&#45;&gt;/Users/syc/Documents/C3_C4_mapping/workspace/Rain_2000_2010.mat</title>
<path fill="none" stroke="black" d="M365.797,-1454.21C426.19,-1459.88 521.824,-1460.2 590.708,-1419 615.462,-1404.19 602.063,-1379.99 626.708,-1365 644.273,-1354.32 663.876,-1346.7 684.131,-1341.37"/>
<polygon fill="black" stroke="black" points="685.235,-1344.7 694.12,-1338.93 683.576,-1337.9 685.235,-1344.7"/>
</g>
<!-- /Users/syc/Documents/C3_C4_mapping/workspace/Grass_2000_2010.mat -->
<g id="node26" class="node"><title>/Users/syc/Documents/C3_C4_mapping/workspace/Grass_2000_2010.mat</title>
<path fill="#ffe4b5" stroke="black" d="M1040.81,-1410C1040.81,-1410 703.726,-1410 703.726,-1410 697.726,-1410 691.726,-1404 691.726,-1398 691.726,-1398 691.726,-1386 691.726,-1386 691.726,-1380 697.726,-1374 703.726,-1374 703.726,-1374 1040.81,-1374 1040.81,-1374 1046.81,-1374 1052.81,-1380 1052.81,-1386 1052.81,-1386 1052.81,-1398 1052.81,-1398 1052.81,-1404 1046.81,-1410 1040.81,-1410"/>
<text text-anchor="middle" x="872.269" y="-1389.3" font-family="Courier,monospace" font-weight="bold" font-size="9.00">/Users/syc/Documents/C3_C4_mapping/workspace/Grass_2000_2010.mat</text>
</g>
<!-- prepare_step&#45;&gt;/Users/syc/Documents/C3_C4_mapping/workspace/Grass_2000_2010.mat -->
<g id="edge7" class="edge"><title>prepare_step&#45;&gt;/Users/syc/Documents/C3_C4_mapping/workspace/Grass_2000_2010.mat</title>
<path fill="none" stroke="black" d="M365.678,-1440.53C422.725,-1435.08 512.769,-1426.48 590.708,-1419 620.029,-1416.19 651.073,-1413.2 681.409,-1410.29"/>
<polygon fill="black" stroke="black" points="682.047,-1413.74 691.666,-1409.3 681.377,-1406.77 682.047,-1413.74"/>
</g>
<!-- generate_final_results_threshold_2_5 -->
<g id="node3" class="node"><title>generate_final_results_threshold_2_5</title>
<polygon fill="black" stroke="black" points="466.704,-1410 148.004,-1410 148.004,-1374 466.704,-1374 466.704,-1410"/>
<text text-anchor="middle" x="307.354" y="-1387.8" font-family="Courier,monospace" font-weight="bold" font-size="14.00" fill="white">generate_final_results_threshold_2_5</text>
</g>
<!-- /Users/syc/Documents/C3_C4_mapping/outputs/SYNMAP_PRESENTVEG_C3Grass_RelaFrac_NA_v2.0.nc -->
<g id="node4" class="node"><title>/Users/syc/Documents/C3_C4_mapping/outputs/SYNMAP_PRESENTVEG_C3Grass_RelaFrac_NA_v2.0.nc</title>
<path fill="#ffe4b5" stroke="black" d="M1105.89,-1194C1105.89,-1194 638.648,-1194 638.648,-1194 632.648,-1194 626.648,-1188 626.648,-1182 626.648,-1182 626.648,-1170 626.648,-1170 626.648,-1164 632.648,-1158 638.648,-1158 638.648,-1158 1105.89,-1158 1105.89,-1158 1111.89,-1158 1117.89,-1164 1117.89,-1170 1117.89,-1170 1117.89,-1182 1117.89,-1182 1117.89,-1188 1111.89,-1194 1105.89,-1194"/>
<text text-anchor="middle" x="872.269" y="-1173.3" font-family="Courier,monospace" font-weight="bold" font-size="9.00">/Users/syc/Documents/C3_C4_mapping/outputs/SYNMAP_PRESENTVEG_C3Grass_RelaFrac_NA_v2.0.nc</text>
</g>
<!-- generate_final_results_threshold_2_5&#45;&gt;/Users/syc/Documents/C3_C4_mapping/outputs/SYNMAP_PRESENTVEG_C3Grass_RelaFrac_NA_v2.0.nc -->
<g id="edge1" class="edge"><title>generate_final_results_threshold_2_5&#45;&gt;/Users/syc/Documents/C3_C4_mapping/outputs/SYNMAP_PRESENTVEG_C3Grass_RelaFrac_NA_v2.0.nc</title>
<path fill="none" stroke="black" d="M417.564,-1410.01C475.636,-1413.21 544.399,-1405.92 590.708,-1365 645.977,-1316.16 571.798,-1252.24 626.708,-1203 627.714,-1202.1 628.733,-1201.21 629.764,-1200.35"/>
<polygon fill="black" stroke="black" points="632.131,-1202.94 637.894,-1194.05 627.845,-1197.41 632.131,-1202.94"/>
</g>
<!-- /Users/syc/Documents/C3_C4_mapping/inputs/narr_apcp_rescaled_monthly/apcp_monthly_2000_2010_mean.12.nc -->
<g id="node5" class="node"><title>/Users/syc/Documents/C3_C4_mapping/inputs/narr_apcp_rescaled_monthly/apcp_monthly_2000_2010_mean.12.nc</title>
<path fill="#ffe4b5" stroke="black" d="M578.562,-1356C578.562,-1356 36.1458,-1356 36.1458,-1356 30.1458,-1356 24.1458,-1350 24.1458,-1344 24.1458,-1344 24.1458,-1332 24.1458,-1332 24.1458,-1326 30.1458,-1320 36.1458,-1320 36.1458,-1320 578.562,-1320 578.562,-1320 584.562,-1320 590.562,-1326 590.562,-1332 590.562,-1332 590.562,-1344 590.562,-1344 590.562,-1350 584.562,-1356 578.562,-1356"/>
<text text-anchor="middle" x="307.354" y="-1335.3" font-family="Courier,monospace" font-weight="bold" font-size="9.00">/Users/syc/Documents/C3_C4_mapping/inputs/narr_apcp_rescaled_monthly/apcp_monthly_2000_2010_mean.12.nc</text>
</g>
<!-- /Users/syc/Documents/C3_C4_mapping/inputs/narr_apcp_rescaled_monthly/apcp_monthly_2000_2010_mean.5.nc -->
<g id="node6" class="node"><title>/Users/syc/Documents/C3_C4_mapping/inputs/narr_apcp_rescaled_monthly/apcp_monthly_2000_2010_mean.5.nc</title>
<path fill="#ffe4b5" stroke="black" d="M576.163,-1302C576.163,-1302 38.5449,-1302 38.5449,-1302 32.5449,-1302 26.5449,-1296 26.5449,-1290 26.5449,-1290 26.5449,-1278 26.5449,-1278 26.5449,-1272 32.5449,-1266 38.5449,-1266 38.5449,-1266 576.163,-1266 576.163,-1266 582.163,-1266 588.163,-1272 588.163,-1278 588.163,-1278 588.163,-1290 588.163,-1290 588.163,-1296 582.163,-1302 576.163,-1302"/>
<text text-anchor="middle" x="307.354" y="-1281.3" font-family="Courier,monospace" font-weight="bold" font-size="9.00">/Users/syc/Documents/C3_C4_mapping/inputs/narr_apcp_rescaled_monthly/apcp_monthly_2000_2010_mean.5.nc</text>
</g>
<!-- /Users/syc/Documents/C3_C4_mapping/inputs/narr_air.2m_monthly/air.2m_monthly_2000_2010_mean.9.nc -->
<g id="node7" class="node"><title>/Users/syc/Documents/C3_C4_mapping/inputs/narr_air.2m_monthly/air.2m_monthly_2000_2010_mean.9.nc</title>
<path fill="#ffe4b5" stroke="black" d="M562.668,-1248C562.668,-1248 52.0404,-1248 52.0404,-1248 46.0404,-1248 40.0404,-1242 40.0404,-1236 40.0404,-1236 40.0404,-1224 40.0404,-1224 40.0404,-1218 46.0404,-1212 52.0404,-1212 52.0404,-1212 562.668,-1212 562.668,-1212 568.668,-1212 574.668,-1218 574.668,-1224 574.668,-1224 574.668,-1236 574.668,-1236 574.668,-1242 568.668,-1248 562.668,-1248"/>
<text text-anchor="middle" x="307.354" y="-1227.3" font-family="Courier,monospace" font-weight="bold" font-size="9.00">/Users/syc/Documents/C3_C4_mapping/inputs/narr_air.2m_monthly/air.2m_monthly_2000_2010_mean.9.nc</text>
</g>
<!-- /Users/syc/Documents/C3_C4_mapping/inputs/narr_air.2m_monthly/air.2m_monthly_2000_2010_mean.1.nc -->
<g id="node8" class="node"><title>/Users/syc/Documents/C3_C4_mapping/inputs/narr_air.2m_monthly/air.2m_monthly_2000_2010_mean.1.nc</title>
<path fill="#ffe4b5" stroke="black" d="M562.668,-1194C562.668,-1194 52.0404,-1194 52.0404,-1194 46.0404,-1194 40.0404,-1188 40.0404,-1182 40.0404,-1182 40.0404,-1170 40.0404,-1170 40.0404,-1164 46.0404,-1158 52.0404,-1158 52.0404,-1158 562.668,-1158 562.668,-1158 568.668,-1158 574.668,-1164 574.668,-1170 574.668,-1170 574.668,-1182 574.668,-1182 574.668,-1188 568.668,-1194 562.668,-1194"/>
<text text-anchor="middle" x="307.354" y="-1173.3" font-family="Courier,monospace" font-weight="bold" font-size="9.00">/Users/syc/Documents/C3_C4_mapping/inputs/narr_air.2m_monthly/air.2m_monthly_2000_2010_mean.1.nc</text>
</g>
<!-- /Users/syc/Documents/C3_C4_mapping/inputs/narr_air.2m_monthly/air.2m_monthly_2000_2010_mean.2.nc -->
<g id="node9" class="node"><title>/Users/syc/Documents/C3_C4_mapping/inputs/narr_air.2m_monthly/air.2m_monthly_2000_2010_mean.2.nc</title>
<path fill="#ffe4b5" stroke="black" d="M562.668,-1140C562.668,-1140 52.0404,-1140 52.0404,-1140 46.0404,-1140 40.0404,-1134 40.0404,-1128 40.0404,-1128 40.0404,-1116 40.0404,-1116 40.0404,-1110 46.0404,-1104 52.0404,-1104 52.0404,-1104 562.668,-1104 562.668,-1104 568.668,-1104 574.668,-1110 574.668,-1116 574.668,-1116 574.668,-1128 574.668,-1128 574.668,-1134 568.668,-1140 562.668,-1140"/>
<text text-anchor="middle" x="307.354" y="-1119.3" font-family="Courier,monospace" font-weight="bold" font-size="9.00">/Users/syc/Documents/C3_C4_mapping/inputs/narr_air.2m_monthly/air.2m_monthly_2000_2010_mean.2.nc</text>
</g>
<!-- /Users/syc/Documents/C3_C4_mapping/inputs/narr_air.2m_monthly/air.2m_monthly_2000_2010_mean.10.nc -->
<g id="node10" class="node"><title>/Users/syc/Documents/C3_C4_mapping/inputs/narr_air.2m_monthly/air.2m_monthly_2000_2010_mean.10.nc</title>
<path fill="#ffe4b5" stroke="black" d="M565.067,-1086C565.067,-1086 49.6413,-1086 49.6413,-1086 43.6413,-1086 37.6413,-1080 37.6413,-1074 37.6413,-1074 37.6413,-1062 37.6413,-1062 37.6413,-1056 43.6413,-1050 49.6413,-1050 49.6413,-1050 565.067,-1050 565.067,-1050 571.067,-1050 577.067,-1056 577.067,-1062 577.067,-1062 577.067,-1074 577.067,-1074 577.067,-1080 571.067,-1086 565.067,-1086"/>
<text text-anchor="middle" x="307.354" y="-1065.3" font-family="Courier,monospace" font-weight="bold" font-size="9.00">/Users/syc/Documents/C3_C4_mapping/inputs/narr_air.2m_monthly/air.2m_monthly_2000_2010_mean.10.nc</text>
</g>
<!-- /Users/syc/Documents/C3_C4_mapping/inputs/narr_apcp_rescaled_monthly/apcp_monthly_2000_2010_mean.6.nc -->
<g id="node11" class="node"><title>/Users/syc/Documents/C3_C4_mapping/inputs/narr_apcp_rescaled_monthly/apcp_monthly_2000_2010_mean.6.nc</title>
<path fill="#ffe4b5" stroke="black" d="M576.163,-1032C576.163,-1032 38.5449,-1032 38.5449,-1032 32.5449,-1032 26.5449,-1026 26.5449,-1020 26.5449,-1020 26.5449,-1008 26.5449,-1008 26.5449,-1002 32.5449,-996 38.5449,-996 38.5449,-996 576.163,-996 576.163,-996 582.163,-996 588.163,-1002 588.163,-1008 588.163,-1008 588.163,-1020 588.163,-1020 588.163,-1026 582.163,-1032 576.163,-1032"/>
<text text-anchor="middle" x="307.354" y="-1011.3" font-family="Courier,monospace" font-weight="bold" font-size="9.00">/Users/syc/Documents/C3_C4_mapping/inputs/narr_apcp_rescaled_monthly/apcp_monthly_2000_2010_mean.6.nc</text>
</g>
<!-- /Users/syc/Documents/C3_C4_mapping/inputs/narr_air.2m_monthly/air.2m_monthly_2000_2010_mean.3.nc -->
<g id="node14" class="node"><title>/Users/syc/Documents/C3_C4_mapping/inputs/narr_air.2m_monthly/air.2m_monthly_2000_2010_mean.3.nc</title>
<path fill="#ffe4b5" stroke="black" d="M562.668,-978C562.668,-978 52.0404,-978 52.0404,-978 46.0404,-978 40.0404,-972 40.0404,-966 40.0404,-966 40.0404,-954 40.0404,-954 40.0404,-948 46.0404,-942 52.0404,-942 52.0404,-942 562.668,-942 562.668,-942 568.668,-942 574.668,-948 574.668,-954 574.668,-954 574.668,-966 574.668,-966 574.668,-972 568.668,-978 562.668,-978"/>
<text text-anchor="middle" x="307.354" y="-957.3" font-family="Courier,monospace" font-weight="bold" font-size="9.00">/Users/syc/Documents/C3_C4_mapping/inputs/narr_air.2m_monthly/air.2m_monthly_2000_2010_mean.3.nc</text>
</g>
<!-- /Users/syc/Documents/C3_C4_mapping/inputs/narr_air.2m_monthly/air.2m_monthly_2000_2010_mean.11.nc -->
<g id="node15" class="node"><title>/Users/syc/Documents/C3_C4_mapping/inputs/narr_air.2m_monthly/air.2m_monthly_2000_2010_mean.11.nc</title>
<path fill="#ffe4b5" stroke="black" d="M565.067,-924C565.067,-924 49.6413,-924 49.6413,-924 43.6413,-924 37.6413,-918 37.6413,-912 37.6413,-912 37.6413,-900 37.6413,-900 37.6413,-894 43.6413,-888 49.6413,-888 49.6413,-888 565.067,-888 565.067,-888 571.067,-888 577.067,-894 577.067,-900 577.067,-900 577.067,-912 577.067,-912 577.067,-918 571.067,-924 565.067,-924"/>
<text text-anchor="middle" x="307.354" y="-903.3" font-family="Courier,monospace" font-weight="bold" font-size="9.00">/Users/syc/Documents/C3_C4_mapping/inputs/narr_air.2m_monthly/air.2m_monthly_2000_2010_mean.11.nc</text>
</g>
<!-- /Users/syc/Documents/C3_C4_mapping/inputs/narr_apcp_rescaled_monthly/apcp_monthly_2000_2010_mean.7.nc -->
<g id="node16" class="node"><title>/Users/syc/Documents/C3_C4_mapping/inputs/narr_apcp_rescaled_monthly/apcp_monthly_2000_2010_mean.7.nc</title>
<path fill="#ffe4b5" stroke="black" d="M576.163,-870C576.163,-870 38.5449,-870 38.5449,-870 32.5449,-870 26.5449,-864 26.5449,-858 26.5449,-858 26.5449,-846 26.5449,-846 26.5449,-840 32.5449,-834 38.5449,-834 38.5449,-834 576.163,-834 576.163,-834 582.163,-834 588.163,-840 588.163,-846 588.163,-846 588.163,-858 588.163,-858 588.163,-864 582.163,-870 576.163,-870"/>
<text text-anchor="middle" x="307.354" y="-849.3" font-family="Courier,monospace" font-weight="bold" font-size="9.00">/Users/syc/Documents/C3_C4_mapping/inputs/narr_apcp_rescaled_monthly/apcp_monthly_2000_2010_mean.7.nc</text>
</g>
<!-- /Users/syc/Documents/C3_C4_mapping/inputs/narr_air.2m_monthly/air.2m_monthly_2000_2010_mean.4.nc -->
<g id="node19" class="node"><title>/Users/syc/Documents/C3_C4_mapping/inputs/narr_air.2m_monthly/air.2m_monthly_2000_2010_mean.4.nc</title>
<path fill="#ffe4b5" stroke="black" d="M562.668,-816C562.668,-816 52.0404,-816 52.0404,-816 46.0404,-816 40.0404,-810 40.0404,-804 40.0404,-804 40.0404,-792 40.0404,-792 40.0404,-786 46.0404,-780 52.0404,-780 52.0404,-780 562.668,-780 562.668,-780 568.668,-780 574.668,-786 574.668,-792 574.668,-792 574.668,-804 574.668,-804 574.668,-810 568.668,-816 562.668,-816"/>
<text text-anchor="middle" x="307.354" y="-795.3" font-family="Courier,monospace" font-weight="bold" font-size="9.00">/Users/syc/Documents/C3_C4_mapping/inputs/narr_air.2m_monthly/air.2m_monthly_2000_2010_mean.4.nc</text>
</g>
<!-- /Users/syc/Documents/C3_C4_mapping/inputs/narr_air.2m_monthly/air.2m_monthly_2000_2010_mean.12.nc -->
<g id="node20" class="node"><title>/Users/syc/Documents/C3_C4_mapping/inputs/narr_air.2m_monthly/air.2m_monthly_2000_2010_mean.12.nc</title>
<path fill="#ffe4b5" stroke="black" d="M565.067,-762C565.067,-762 49.6413,-762 49.6413,-762 43.6413,-762 37.6413,-756 37.6413,-750 37.6413,-750 37.6413,-738 37.6413,-738 37.6413,-732 43.6413,-726 49.6413,-726 49.6413,-726 565.067,-726 565.067,-726 571.067,-726 577.067,-732 577.067,-738 577.067,-738 577.067,-750 577.067,-750 577.067,-756 571.067,-762 565.067,-762"/>
<text text-anchor="middle" x="307.354" y="-741.3" font-family="Courier,monospace" font-weight="bold" font-size="9.00">/Users/syc/Documents/C3_C4_mapping/inputs/narr_air.2m_monthly/air.2m_monthly_2000_2010_mean.12.nc</text>
</g>
<!-- /Users/syc/Documents/C3_C4_mapping/inputs/narr_apcp_rescaled_monthly/apcp_monthly_2000_2010_mean.8.nc -->
<g id="node21" class="node"><title>/Users/syc/Documents/C3_C4_mapping/inputs/narr_apcp_rescaled_monthly/apcp_monthly_2000_2010_mean.8.nc</title>
<path fill="#ffe4b5" stroke="black" d="M576.163,-708C576.163,-708 38.5449,-708 38.5449,-708 32.5449,-708 26.5449,-702 26.5449,-696 26.5449,-696 26.5449,-684 26.5449,-684 26.5449,-678 32.5449,-672 38.5449,-672 38.5449,-672 576.163,-672 576.163,-672 582.163,-672 588.163,-678 588.163,-684 588.163,-684 588.163,-696 588.163,-696 588.163,-702 582.163,-708 576.163,-708"/>
<text text-anchor="middle" x="307.354" y="-687.3" font-family="Courier,monospace" font-weight="bold" font-size="9.00">/Users/syc/Documents/C3_C4_mapping/inputs/narr_apcp_rescaled_monthly/apcp_monthly_2000_2010_mean.8.nc</text>
</g>
<!-- /Users/syc/Documents/C3_C4_mapping/inputs/narr_air.2m_monthly/air.2m_monthly_2000_2010_mean.5.nc -->
<g id="node22" class="node"><title>/Users/syc/Documents/C3_C4_mapping/inputs/narr_air.2m_monthly/air.2m_monthly_2000_2010_mean.5.nc</title>
<path fill="#ffe4b5" stroke="black" d="M562.668,-654C562.668,-654 52.0404,-654 52.0404,-654 46.0404,-654 40.0404,-648 40.0404,-642 40.0404,-642 40.0404,-630 40.0404,-630 40.0404,-624 46.0404,-618 52.0404,-618 52.0404,-618 562.668,-618 562.668,-618 568.668,-618 574.668,-624 574.668,-630 574.668,-630 574.668,-642 574.668,-642 574.668,-648 568.668,-654 562.668,-654"/>
<text text-anchor="middle" x="307.354" y="-633.3" font-family="Courier,monospace" font-weight="bold" font-size="9.00">/Users/syc/Documents/C3_C4_mapping/inputs/narr_air.2m_monthly/air.2m_monthly_2000_2010_mean.5.nc</text>
</g>
<!-- /Users/syc/Documents/C3_C4_mapping/inputs/narr_apcp_rescaled_monthly/apcp_monthly_2000_2010_mean.1.nc -->
<g id="node23" class="node"><title>/Users/syc/Documents/C3_C4_mapping/inputs/narr_apcp_rescaled_monthly/apcp_monthly_2000_2010_mean.1.nc</title>
<path fill="#ffe4b5" stroke="black" d="M576.163,-600C576.163,-600 38.5449,-600 38.5449,-600 32.5449,-600 26.5449,-594 26.5449,-588 26.5449,-588 26.5449,-576 26.5449,-576 26.5449,-570 32.5449,-564 38.5449,-564 38.5449,-564 576.163,-564 576.163,-564 582.163,-564 588.163,-570 588.163,-576 588.163,-576 588.163,-588 588.163,-588 588.163,-594 582.163,-600 576.163,-600"/>
<text text-anchor="middle" x="307.354" y="-579.3" font-family="Courier,monospace" font-weight="bold" font-size="9.00">/Users/syc/Documents/C3_C4_mapping/inputs/narr_apcp_rescaled_monthly/apcp_monthly_2000_2010_mean.1.nc</text>
</g>
<!-- /Users/syc/Documents/C3_C4_mapping/inputs/narr_apcp_rescaled_monthly/apcp_monthly_2000_2010_mean.9.nc -->
<g id="node24" class="node"><title>/Users/syc/Documents/C3_C4_mapping/inputs/narr_apcp_rescaled_monthly/apcp_monthly_2000_2010_mean.9.nc</title>
<path fill="#ffe4b5" stroke="black" d="M576.163,-546C576.163,-546 38.5449,-546 38.5449,-546 32.5449,-546 26.5449,-540 26.5449,-534 26.5449,-534 26.5449,-522 26.5449,-522 26.5449,-516 32.5449,-510 38.5449,-510 38.5449,-510 576.163,-510 576.163,-510 582.163,-510 588.163,-516 588.163,-522 588.163,-522 588.163,-534 588.163,-534 588.163,-540 582.163,-546 576.163,-546"/>
<text text-anchor="middle" x="307.354" y="-525.3" font-family="Courier,monospace" font-weight="bold" font-size="9.00">/Users/syc/Documents/C3_C4_mapping/inputs/narr_apcp_rescaled_monthly/apcp_monthly_2000_2010_mean.9.nc</text>
</g>
<!-- /Users/syc/Documents/C3_C4_mapping/inputs/narr_air.2m_monthly/air.2m_monthly_2000_2010_mean.6.nc -->
<g id="node27" class="node"><title>/Users/syc/Documents/C3_C4_mapping/inputs/narr_air.2m_monthly/air.2m_monthly_2000_2010_mean.6.nc</title>
<path fill="#ffe4b5" stroke="black" d="M562.668,-492C562.668,-492 52.0404,-492 52.0404,-492 46.0404,-492 40.0404,-486 40.0404,-480 40.0404,-480 40.0404,-468 40.0404,-468 40.0404,-462 46.0404,-456 52.0404,-456 52.0404,-456 562.668,-456 562.668,-456 568.668,-456 574.668,-462 574.668,-468 574.668,-468 574.668,-480 574.668,-480 574.668,-486 568.668,-492 562.668,-492"/>
<text text-anchor="middle" x="307.354" y="-471.3" font-family="Courier,monospace" font-weight="bold" font-size="9.00">/Users/syc/Documents/C3_C4_mapping/inputs/narr_air.2m_monthly/air.2m_monthly_2000_2010_mean.6.nc</text>
</g>
<!-- /Users/syc/Documents/C3_C4_mapping/inputs/narr_apcp_rescaled_monthly/apcp_monthly_2000_2010_mean.2.nc -->
<g id="node28" class="node"><title>/Users/syc/Documents/C3_C4_mapping/inputs/narr_apcp_rescaled_monthly/apcp_monthly_2000_2010_mean.2.nc</title>
<path fill="#ffe4b5" stroke="black" d="M576.163,-438C576.163,-438 38.5449,-438 38.5449,-438 32.5449,-438 26.5449,-432 26.5449,-426 26.5449,-426 26.5449,-414 26.5449,-414 26.5449,-408 32.5449,-402 38.5449,-402 38.5449,-402 576.163,-402 576.163,-402 582.163,-402 588.163,-408 588.163,-414 588.163,-414 588.163,-426 588.163,-426 588.163,-432 582.163,-438 576.163,-438"/>
<text text-anchor="middle" x="307.354" y="-417.3" font-family="Courier,monospace" font-weight="bold" font-size="9.00">/Users/syc/Documents/C3_C4_mapping/inputs/narr_apcp_rescaled_monthly/apcp_monthly_2000_2010_mean.2.nc</text>
</g>
<!-- /Users/syc/Documents/C3_C4_mapping/inputs/narr_apcp_rescaled_monthly/apcp_monthly_2000_2010_mean.10.nc -->
<g id="node29" class="node"><title>/Users/syc/Documents/C3_C4_mapping/inputs/narr_apcp_rescaled_monthly/apcp_monthly_2000_2010_mean.10.nc</title>
<path fill="#ffe4b5" stroke="black" d="M578.562,-384C578.562,-384 36.1458,-384 36.1458,-384 30.1458,-384 24.1458,-378 24.1458,-372 24.1458,-372 24.1458,-360 24.1458,-360 24.1458,-354 30.1458,-348 36.1458,-348 36.1458,-348 578.562,-348 578.562,-348 584.562,-348 590.562,-354 590.562,-360 590.562,-360 590.562,-372 590.562,-372 590.562,-378 584.562,-384 578.562,-384"/>
<text text-anchor="middle" x="307.354" y="-363.3" font-family="Courier,monospace" font-weight="bold" font-size="9.00">/Users/syc/Documents/C3_C4_mapping/inputs/narr_apcp_rescaled_monthly/apcp_monthly_2000_2010_mean.10.nc</text>
</g>
<!-- /Users/syc/Documents/C3_C4_mapping/inputs/land_cover/SYNMAP_NA_QD.nc -->
<g id="node30" class="node"><title>/Users/syc/Documents/C3_C4_mapping/inputs/land_cover/SYNMAP_NA_QD.nc</title>
<path fill="#ffe4b5" stroke="black" d="M486.993,-330C486.993,-330 127.715,-330 127.715,-330 121.715,-330 115.715,-324 115.715,-318 115.715,-318 115.715,-306 115.715,-306 115.715,-300 121.715,-294 127.715,-294 127.715,-294 486.993,-294 486.993,-294 492.993,-294 498.993,-300 498.993,-306 498.993,-306 498.993,-318 498.993,-318 498.993,-324 492.993,-330 486.993,-330"/>
<text text-anchor="middle" x="307.354" y="-309.3" font-family="Courier,monospace" font-weight="bold" font-size="9.00">/Users/syc/Documents/C3_C4_mapping/inputs/land_cover/SYNMAP_NA_QD.nc</text>
</g>
<!-- /Users/syc/Documents/C3_C4_mapping/inputs/narr_air.2m_monthly/air.2m_monthly_2000_2010_mean.7.nc -->
<g id="node31" class="node"><title>/Users/syc/Documents/C3_C4_mapping/inputs/narr_air.2m_monthly/air.2m_monthly_2000_2010_mean.7.nc</title>
<path fill="#ffe4b5" stroke="black" d="M562.668,-276C562.668,-276 52.0404,-276 52.0404,-276 46.0404,-276 40.0404,-270 40.0404,-264 40.0404,-264 40.0404,-252 40.0404,-252 40.0404,-246 46.0404,-240 52.0404,-240 52.0404,-240 562.668,-240 562.668,-240 568.668,-240 574.668,-246 574.668,-252 574.668,-252 574.668,-264 574.668,-264 574.668,-270 568.668,-276 562.668,-276"/>
<text text-anchor="middle" x="307.354" y="-255.3" font-family="Courier,monospace" font-weight="bold" font-size="9.00">/Users/syc/Documents/C3_C4_mapping/inputs/narr_air.2m_monthly/air.2m_monthly_2000_2010_mean.7.nc</text>
</g>
<!-- /Users/syc/Documents/C3_C4_mapping/inputs/narr_apcp_rescaled_monthly/apcp_monthly_2000_2010_mean.3.nc -->
<g id="node32" class="node"><title>/Users/syc/Documents/C3_C4_mapping/inputs/narr_apcp_rescaled_monthly/apcp_monthly_2000_2010_mean.3.nc</title>
<path fill="#ffe4b5" stroke="black" d="M576.163,-222C576.163,-222 38.5449,-222 38.5449,-222 32.5449,-222 26.5449,-216 26.5449,-210 26.5449,-210 26.5449,-198 26.5449,-198 26.5449,-192 32.5449,-186 38.5449,-186 38.5449,-186 576.163,-186 576.163,-186 582.163,-186 588.163,-192 588.163,-198 588.163,-198 588.163,-210 588.163,-210 588.163,-216 582.163,-222 576.163,-222"/>
<text text-anchor="middle" x="307.354" y="-201.3" font-family="Courier,monospace" font-weight="bold" font-size="9.00">/Users/syc/Documents/C3_C4_mapping/inputs/narr_apcp_rescaled_monthly/apcp_monthly_2000_2010_mean.3.nc</text>
</g>
<!-- /Users/syc/Documents/C3_C4_mapping/inputs/narr_apcp_rescaled_monthly/apcp_monthly_2000_2010_mean.11.nc -->
<g id="node33" class="node"><title>/Users/syc/Documents/C3_C4_mapping/inputs/narr_apcp_rescaled_monthly/apcp_monthly_2000_2010_mean.11.nc</title>
<path fill="#ffe4b5" stroke="black" d="M578.562,-168C578.562,-168 36.1458,-168 36.1458,-168 30.1458,-168 24.1458,-162 24.1458,-156 24.1458,-156 24.1458,-144 24.1458,-144 24.1458,-138 30.1458,-132 36.1458,-132 36.1458,-132 578.562,-132 578.562,-132 584.562,-132 590.562,-138 590.562,-144 590.562,-144 590.562,-156 590.562,-156 590.562,-162 584.562,-168 578.562,-168"/>
<text text-anchor="middle" x="307.354" y="-147.3" font-family="Courier,monospace" font-weight="bold" font-size="9.00">/Users/syc/Documents/C3_C4_mapping/inputs/narr_apcp_rescaled_monthly/apcp_monthly_2000_2010_mean.11.nc</text>
</g>
<!-- /Users/syc/Documents/C3_C4_mapping/inputs/narr_air.2m_monthly/air.2m_monthly_2000_2010_mean.8.nc -->
<g id="node34" class="node"><title>/Users/syc/Documents/C3_C4_mapping/inputs/narr_air.2m_monthly/air.2m_monthly_2000_2010_mean.8.nc</title>
<path fill="#ffe4b5" stroke="black" d="M562.668,-114C562.668,-114 52.0404,-114 52.0404,-114 46.0404,-114 40.0404,-108 40.0404,-102 40.0404,-102 40.0404,-90 40.0404,-90 40.0404,-84 46.0404,-78 52.0404,-78 52.0404,-78 562.668,-78 562.668,-78 568.668,-78 574.668,-84 574.668,-90 574.668,-90 574.668,-102 574.668,-102 574.668,-108 568.668,-114 562.668,-114"/>
<text text-anchor="middle" x="307.354" y="-93.3" font-family="Courier,monospace" font-weight="bold" font-size="9.00">/Users/syc/Documents/C3_C4_mapping/inputs/narr_air.2m_monthly/air.2m_monthly_2000_2010_mean.8.nc</text>
</g>
<!-- /Users/syc/Documents/C3_C4_mapping/inputs/narr_apcp_rescaled_monthly/apcp_monthly_2000_2010_mean.4.nc -->
<g id="node35" class="node"><title>/Users/syc/Documents/C3_C4_mapping/inputs/narr_apcp_rescaled_monthly/apcp_monthly_2000_2010_mean.4.nc</title>
<path fill="#ffe4b5" stroke="black" d="M576.163,-60C576.163,-60 38.5449,-60 38.5449,-60 32.5449,-60 26.5449,-54 26.5449,-48 26.5449,-48 26.5449,-36 26.5449,-36 26.5449,-30 32.5449,-24 38.5449,-24 38.5449,-24 576.163,-24 576.163,-24 582.163,-24 588.163,-30 588.163,-36 588.163,-36 588.163,-48 588.163,-48 588.163,-54 582.163,-60 576.163,-60"/>
<text text-anchor="middle" x="307.354" y="-39.3" font-family="Courier,monospace" font-weight="bold" font-size="9.00">/Users/syc/Documents/C3_C4_mapping/inputs/narr_apcp_rescaled_monthly/apcp_monthly_2000_2010_mean.4.nc</text>
</g>
</g>
</svg>
