<?xml version="1.0" encoding="UTF-8" standalone="no"?>
<!DOCTYPE svg PUBLIC "-//W3C//DTD SVG 1.1//EN"
 "http://www.w3.org/Graphics/SVG/1.1/DTD/svg11.dtd">
<!-- Generated by graphviz version 2.38.0 (20140413.2041)
 -->
<!-- Title: yw_data_view Pages: 1 -->
<svg width="2882pt" height="1418pt"
 viewBox="0.00 0.00 2881.98 1417.60" xmlns="http://www.w3.org/2000/svg" xmlns:xlink="http://www.w3.org/1999/xlink">
<g id="graph0" class="graph" transform="scale(1 1) rotate(0) translate(4 1413.6)">
<title>yw_data_view</title>
<polygon fill="white" stroke="none" points="-4,4 -4,-1413.6 2877.98,-1413.6 2877.98,4 -4,4"/>
<text text-anchor="middle" x="1436.99" y="-1389.4" font-family="Courier,monospace" font-size="18.00">Upstream graph for multiple runs</text>
<g id="clust1" class="cluster"><title>cluster_workflow</title>
<polygon fill="none" stroke="black" stroke-width="2" points="8,-8 8,-1372 2865.98,-1372 2865.98,-8 8,-8"/>
</g>
<g id="clust2" class="cluster"><title>cluster_workflow_inner</title>
<polygon fill="none" stroke="white" stroke-width="2" points="16,-16 16,-1364 2857.98,-1364 2857.98,-16 16,-16"/>
</g>
<!-- examine_pixels_for_grass_threshold_2_5 -->
<g id="node1" class="node"><title>examine_pixels_for_grass_threshold_2_5</title>
<polygon fill="black" stroke="black" points="1549.75,-735 1214.45,-735 1214.45,-699 1549.75,-699 1549.75,-735"/>
<text text-anchor="middle" x="1382.1" y="-712.8" font-family="Courier,monospace" font-weight="bold" font-size="14.00" fill="white">examine_pixels_for_grass_threshold_2_5</text>
</g>
<!-- /Users/syc/Documents/C3_C4_mapping/workspace/C3_2000_2010.mat -->
<g id="node22" class="node"><title>/Users/syc/Documents/C3_C4_mapping/workspace/C3_2000_2010.mat</title>
<path fill="#ffe4b5" stroke="black" d="M1956.69,-687C1956.69,-687 1635,-687 1635,-687 1629,-687 1623,-681 1623,-675 1623,-675 1623,-663 1623,-663 1623,-657 1629,-651 1635,-651 1635,-651 1956.69,-651 1956.69,-651 1962.69,-651 1968.69,-657 1968.69,-663 1968.69,-663 1968.69,-675 1968.69,-675 1968.69,-681 1962.69,-687 1956.69,-687"/>
<text text-anchor="middle" x="1795.84" y="-666.3" font-family="Courier,monospace" font-weight="bold" font-size="9.00">/Users/syc/Documents/C3_C4_mapping/workspace/C3_2000_2010.mat</text>
</g>
<!-- examine_pixels_for_grass_threshold_2_5&#45;&gt;/Users/syc/Documents/C3_C4_mapping/workspace/C3_2000_2010.mat -->
<g id="edge35" class="edge"><title>examine_pixels_for_grass_threshold_2_5&#45;&gt;/Users/syc/Documents/C3_C4_mapping/workspace/C3_2000_2010.mat</title>
<path fill="none" stroke="black" d="M1537.59,-698.99C1567.73,-695.477 1599.43,-691.78 1629.89,-688.229"/>
<polygon fill="black" stroke="black" points="1630.64,-691.666 1640.17,-687.031 1629.83,-684.713 1630.64,-691.666"/>
</g>
<!-- /Users/syc/Documents/C3_C4_mapping/workspace/C4_2000_2010.mat -->
<g id="node27" class="node"><title>/Users/syc/Documents/C3_C4_mapping/workspace/C4_2000_2010.mat</title>
<path fill="#ffe4b5" stroke="black" d="M1956.69,-741C1956.69,-741 1635,-741 1635,-741 1629,-741 1623,-735 1623,-729 1623,-729 1623,-717 1623,-717 1623,-711 1629,-705 1635,-705 1635,-705 1956.69,-705 1956.69,-705 1962.69,-705 1968.69,-711 1968.69,-717 1968.69,-717 1968.69,-729 1968.69,-729 1968.69,-735 1962.69,-741 1956.69,-741"/>
<text text-anchor="middle" x="1795.84" y="-720.3" font-family="Courier,monospace" font-weight="bold" font-size="9.00">/Users/syc/Documents/C3_C4_mapping/workspace/C4_2000_2010.mat</text>
</g>
<!-- examine_pixels_for_grass_threshold_2_5&#45;&gt;/Users/syc/Documents/C3_C4_mapping/workspace/C4_2000_2010.mat -->
<g id="edge37" class="edge"><title>examine_pixels_for_grass_threshold_2_5&#45;&gt;/Users/syc/Documents/C3_C4_mapping/workspace/C4_2000_2010.mat</title>
<path fill="none" stroke="black" d="M1549.68,-719.427C1570.57,-719.732 1592.03,-720.045 1613.14,-720.352"/>
<polygon fill="black" stroke="black" points="1613.09,-723.852 1623.14,-720.498 1613.19,-716.852 1613.09,-723.852"/>
</g>
<!-- prepare_step -->
<g id="node2" class="node"><title>prepare_step</title>
<polygon fill="black" stroke="black" points="743.383,-708 626.816,-708 626.816,-672 743.383,-672 743.383,-708"/>
<text text-anchor="middle" x="685.1" y="-685.8" font-family="Courier,monospace" font-weight="bold" font-size="14.00" fill="white">prepare_step</text>
</g>
<!-- /Users/syc/Documents/C3_C4_mapping/workspace/land_cover_map_2000_2010.mat -->
<g id="node21" class="node"><title>/Users/syc/Documents/C3_C4_mapping/workspace/land_cover_map_2000_2010.mat</title>
<path fill="#ffe4b5" stroke="black" d="M1575.24,-645C1575.24,-645 1188.97,-645 1188.97,-645 1182.97,-645 1176.97,-639 1176.97,-633 1176.97,-633 1176.97,-621 1176.97,-621 1176.97,-615 1182.97,-609 1188.97,-609 1188.97,-609 1575.24,-609 1575.24,-609 1581.24,-609 1587.24,-615 1587.24,-621 1587.24,-621 1587.24,-633 1587.24,-633 1587.24,-639 1581.24,-645 1575.24,-645"/>
<text text-anchor="middle" x="1382.1" y="-624.3" font-family="Courier,monospace" font-weight="bold" font-size="9.00">/Users/syc/Documents/C3_C4_mapping/workspace/land_cover_map_2000_2010.mat</text>
</g>
<!-- prepare_step&#45;&gt;/Users/syc/Documents/C3_C4_mapping/workspace/land_cover_map_2000_2010.mat -->
<g id="edge34" class="edge"><title>prepare_step&#45;&gt;/Users/syc/Documents/C3_C4_mapping/workspace/land_cover_map_2000_2010.mat</title>
<path fill="none" stroke="black" d="M709.536,-671.894C727.561,-659.147 753.676,-643.133 779.491,-636 926.878,-595.273 1102.42,-598.18 1225.72,-608.136"/>
<polygon fill="black" stroke="black" points="1225.74,-611.65 1236,-608.992 1226.32,-604.674 1225.74,-611.65"/>
</g>
<!-- /Users/syc/Documents/C3_C4_mapping/workspace/Tair_2000_2010.mat -->
<g id="node26" class="node"><title>/Users/syc/Documents/C3_C4_mapping/workspace/Tair_2000_2010.mat</title>
<path fill="#ffe4b5" stroke="black" d="M1126.41,-681C1126.41,-681 794.119,-681 794.119,-681 788.119,-681 782.119,-675 782.119,-669 782.119,-669 782.119,-657 782.119,-657 782.119,-651 788.119,-645 794.119,-645 794.119,-645 1126.41,-645 1126.41,-645 1132.41,-645 1138.41,-651 1138.41,-657 1138.41,-657 1138.41,-669 1138.41,-669 1138.41,-675 1132.41,-681 1126.41,-681"/>
<text text-anchor="middle" x="960.263" y="-660.3" font-family="Courier,monospace" font-weight="bold" font-size="9.00">/Users/syc/Documents/C3_C4_mapping/workspace/Tair_2000_2010.mat</text>
</g>
<!-- prepare_step&#45;&gt;/Users/syc/Documents/C3_C4_mapping/workspace/Tair_2000_2010.mat -->
<g id="edge36" class="edge"><title>prepare_step&#45;&gt;/Users/syc/Documents/C3_C4_mapping/workspace/Tair_2000_2010.mat</title>
<path fill="none" stroke="black" d="M743.697,-684.307C752.56,-683.431 762.1,-682.488 772.058,-681.504"/>
<polygon fill="black" stroke="black" points="772.538,-684.973 782.145,-680.507 771.849,-678.007 772.538,-684.973"/>
</g>
<!-- /Users/syc/Documents/C3_C4_mapping/workspace/Rain_2000_2010.mat -->
<g id="node34" class="node"><title>/Users/syc/Documents/C3_C4_mapping/workspace/Rain_2000_2010.mat</title>
<path fill="#ffe4b5" stroke="black" d="M1126.41,-735C1126.41,-735 794.119,-735 794.119,-735 788.119,-735 782.119,-729 782.119,-723 782.119,-723 782.119,-711 782.119,-711 782.119,-705 788.119,-699 794.119,-699 794.119,-699 1126.41,-699 1126.41,-699 1132.41,-699 1138.41,-705 1138.41,-711 1138.41,-711 1138.41,-723 1138.41,-723 1138.41,-729 1132.41,-735 1126.41,-735"/>
<text text-anchor="middle" x="960.263" y="-714.3" font-family="Courier,monospace" font-weight="bold" font-size="9.00">/Users/syc/Documents/C3_C4_mapping/workspace/Rain_2000_2010.mat</text>
</g>
<!-- prepare_step&#45;&gt;/Users/syc/Documents/C3_C4_mapping/workspace/Rain_2000_2010.mat -->
<g id="edge38" class="edge"><title>prepare_step&#45;&gt;/Users/syc/Documents/C3_C4_mapping/workspace/Rain_2000_2010.mat</title>
<path fill="none" stroke="black" d="M743.697,-695.693C752.56,-696.569 762.1,-697.512 772.058,-698.496"/>
<polygon fill="black" stroke="black" points="771.849,-701.993 782.145,-699.493 772.538,-695.027 771.849,-701.993"/>
</g>
<!-- /Users/syc/Documents/C3_C4_mapping/workspace/Grass_2000_2010.mat -->
<g id="node35" class="node"><title>/Users/syc/Documents/C3_C4_mapping/workspace/Grass_2000_2010.mat</title>
<path fill="#ffe4b5" stroke="black" d="M1128.81,-789C1128.81,-789 791.72,-789 791.72,-789 785.72,-789 779.72,-783 779.72,-777 779.72,-777 779.72,-765 779.72,-765 779.72,-759 785.72,-753 791.72,-753 791.72,-753 1128.81,-753 1128.81,-753 1134.81,-753 1140.81,-759 1140.81,-765 1140.81,-765 1140.81,-777 1140.81,-777 1140.81,-783 1134.81,-789 1128.81,-789"/>
<text text-anchor="middle" x="960.263" y="-768.3" font-family="Courier,monospace" font-weight="bold" font-size="9.00">/Users/syc/Documents/C3_C4_mapping/workspace/Grass_2000_2010.mat</text>
</g>
<!-- prepare_step&#45;&gt;/Users/syc/Documents/C3_C4_mapping/workspace/Grass_2000_2010.mat -->
<g id="edge39" class="edge"><title>prepare_step&#45;&gt;/Users/syc/Documents/C3_C4_mapping/workspace/Grass_2000_2010.mat</title>
<path fill="none" stroke="black" d="M711.393,-708.139C729.498,-720.219 754.919,-735.4 779.491,-744 785.996,-746.277 792.699,-748.361 799.519,-750.27"/>
<polygon fill="black" stroke="black" points="799.022,-753.759 809.585,-752.943 800.819,-746.994 799.022,-753.759"/>
</g>
<!-- generate_final_results_threshold_2_5 -->
<g id="node3" class="node"><title>generate_final_results_threshold_2_5</title>
<polygon fill="black" stroke="black" points="2323.04,-714 2004.34,-714 2004.34,-678 2323.04,-678 2323.04,-714"/>
<text text-anchor="middle" x="2163.69" y="-691.8" font-family="Courier,monospace" font-weight="bold" font-size="14.00" fill="white">generate_final_results_threshold_2_5</text>
</g>
<!-- /Users/syc/Documents/C3_C4_mapping/outputs/SYNMAP_PRESENTVEG_C3Grass_RelaFrac_NA_v2.0.nc -->
<g id="node14" class="node"><title>/Users/syc/Documents/C3_C4_mapping/outputs/SYNMAP_PRESENTVEG_C3Grass_RelaFrac_NA_v2.0.nc</title>
<path fill="#ffe4b5" stroke="black" d="M2838.04,-714C2838.04,-714 2370.8,-714 2370.8,-714 2364.8,-714 2358.8,-708 2358.8,-702 2358.8,-702 2358.8,-690 2358.8,-690 2358.8,-684 2364.8,-678 2370.8,-678 2370.8,-678 2838.04,-678 2838.04,-678 2844.04,-678 2850.04,-684 2850.04,-690 2850.04,-690 2850.04,-702 2850.04,-702 2850.04,-708 2844.04,-714 2838.04,-714"/>
<text text-anchor="middle" x="2604.42" y="-693.3" font-family="Courier,monospace" font-weight="bold" font-size="9.00">/Users/syc/Documents/C3_C4_mapping/outputs/SYNMAP_PRESENTVEG_C3Grass_RelaFrac_NA_v2.0.nc</text>
</g>
<!-- generate_final_results_threshold_2_5&#45;&gt;/Users/syc/Documents/C3_C4_mapping/outputs/SYNMAP_PRESENTVEG_C3Grass_RelaFrac_NA_v2.0.nc -->
<g id="edge33" class="edge"><title>generate_final_results_threshold_2_5&#45;&gt;/Users/syc/Documents/C3_C4_mapping/outputs/SYNMAP_PRESENTVEG_C3Grass_RelaFrac_NA_v2.0.nc</title>
<path fill="none" stroke="black" d="M2323.08,-696C2331.46,-696 2339.97,-696 2348.55,-696"/>
<polygon fill="black" stroke="black" points="2348.66,-699.5 2358.66,-696 2348.66,-692.5 2348.66,-699.5"/>
</g>
<!-- /Users/syc/Documents/C3_C4_mapping/inputs/narr_apcp_rescaled_monthly/apcp_monthly_2000_2010_mean.2.nc -->
<g id="node4" class="node"><title>/Users/syc/Documents/C3_C4_mapping/inputs/narr_apcp_rescaled_monthly/apcp_monthly_2000_2010_mean.2.nc</title>
<path fill="#ffe4b5" stroke="black" d="M576.163,-1356C576.163,-1356 38.5449,-1356 38.5449,-1356 32.5449,-1356 26.5449,-1350 26.5449,-1344 26.5449,-1344 26.5449,-1332 26.5449,-1332 26.5449,-1326 32.5449,-1320 38.5449,-1320 38.5449,-1320 576.163,-1320 576.163,-1320 582.163,-1320 588.163,-1326 588.163,-1332 588.163,-1332 588.163,-1344 588.163,-1344 588.163,-1350 582.163,-1356 576.163,-1356"/>
<text text-anchor="middle" x="307.354" y="-1335.3" font-family="Courier,monospace" font-weight="bold" font-size="9.00">/Users/syc/Documents/C3_C4_mapping/inputs/narr_apcp_rescaled_monthly/apcp_monthly_2000_2010_mean.2.nc</text>
</g>
<!-- /Users/syc/Documents/C3_C4_mapping/inputs/narr_apcp_rescaled_monthly/apcp_monthly_2000_2010_mean.2.nc&#45;&gt;prepare_step -->
<g id="edge22" class="edge"><title>/Users/syc/Documents/C3_C4_mapping/inputs/narr_apcp_rescaled_monthly/apcp_monthly_2000_2010_mean.2.nc&#45;&gt;prepare_step</title>
<path fill="none" stroke="black" d="M403.256,-1356.03C464.597,-1361.85 541.825,-1357.32 590.708,-1311 677.832,-1228.45 684.175,-828.565 684.244,-718.24"/>
<polygon fill="black" stroke="black" points="687.744,-718.201 684.232,-708.205 680.744,-718.209 687.744,-718.201"/>
</g>
<!-- /Users/syc/Documents/C3_C4_mapping/inputs/narr_air.2m_monthly/air.2m_monthly_2000_2010_mean.6.nc -->
<g id="node5" class="node"><title>/Users/syc/Documents/C3_C4_mapping/inputs/narr_air.2m_monthly/air.2m_monthly_2000_2010_mean.6.nc</title>
<path fill="#ffe4b5" stroke="black" d="M562.668,-1302C562.668,-1302 52.0404,-1302 52.0404,-1302 46.0404,-1302 40.0404,-1296 40.0404,-1290 40.0404,-1290 40.0404,-1278 40.0404,-1278 40.0404,-1272 46.0404,-1266 52.0404,-1266 52.0404,-1266 562.668,-1266 562.668,-1266 568.668,-1266 574.668,-1272 574.668,-1278 574.668,-1278 574.668,-1290 574.668,-1290 574.668,-1296 568.668,-1302 562.668,-1302"/>
<text text-anchor="middle" x="307.354" y="-1281.3" font-family="Courier,monospace" font-weight="bold" font-size="9.00">/Users/syc/Documents/C3_C4_mapping/inputs/narr_air.2m_monthly/air.2m_monthly_2000_2010_mean.6.nc</text>
</g>
<!-- /Users/syc/Documents/C3_C4_mapping/inputs/narr_air.2m_monthly/air.2m_monthly_2000_2010_mean.6.nc&#45;&gt;prepare_step -->
<g id="edge23" class="edge"><title>/Users/syc/Documents/C3_C4_mapping/inputs/narr_air.2m_monthly/air.2m_monthly_2000_2010_mean.6.nc&#45;&gt;prepare_step</title>
<path fill="none" stroke="black" d="M405.405,-1302.02C466.268,-1307.41 542.132,-1302.38 590.708,-1257 670.355,-1182.59 682.077,-822.092 683.802,-718.121"/>
<polygon fill="black" stroke="black" points="687.302,-718.121 683.95,-708.071 680.303,-718.018 687.302,-718.121"/>
</g>
<!-- /Users/syc/Documents/C3_C4_mapping/inputs/narr_apcp_rescaled_monthly/apcp_monthly_2000_2010_mean.10.nc -->
<g id="node6" class="node"><title>/Users/syc/Documents/C3_C4_mapping/inputs/narr_apcp_rescaled_monthly/apcp_monthly_2000_2010_mean.10.nc</title>
<path fill="#ffe4b5" stroke="black" d="M578.562,-1248C578.562,-1248 36.1458,-1248 36.1458,-1248 30.1458,-1248 24.1458,-1242 24.1458,-1236 24.1458,-1236 24.1458,-1224 24.1458,-1224 24.1458,-1218 30.1458,-1212 36.1458,-1212 36.1458,-1212 578.562,-1212 578.562,-1212 584.562,-1212 590.562,-1218 590.562,-1224 590.562,-1224 590.562,-1236 590.562,-1236 590.562,-1242 584.562,-1248 578.562,-1248"/>
<text text-anchor="middle" x="307.354" y="-1227.3" font-family="Courier,monospace" font-weight="bold" font-size="9.00">/Users/syc/Documents/C3_C4_mapping/inputs/narr_apcp_rescaled_monthly/apcp_monthly_2000_2010_mean.10.nc</text>
</g>
<!-- /Users/syc/Documents/C3_C4_mapping/inputs/narr_apcp_rescaled_monthly/apcp_monthly_2000_2010_mean.10.nc&#45;&gt;prepare_step -->
<g id="edge21" class="edge"><title>/Users/syc/Documents/C3_C4_mapping/inputs/narr_apcp_rescaled_monthly/apcp_monthly_2000_2010_mean.10.nc&#45;&gt;prepare_step</title>
<path fill="none" stroke="black" d="M408.201,-1248C468.429,-1252.84 542.568,-1247.22 590.708,-1203 662.837,-1136.74 679.756,-815.969 683.264,-718.287"/>
<polygon fill="black" stroke="black" points="686.763,-718.38 683.605,-708.267 679.767,-718.143 686.763,-718.38"/>
</g>
<!-- /Users/syc/Documents/C3_C4_mapping/inputs/land_cover/SYNMAP_NA_QD.nc -->
<g id="node7" class="node"><title>/Users/syc/Documents/C3_C4_mapping/inputs/land_cover/SYNMAP_NA_QD.nc</title>
<path fill="#ffe4b5" stroke="black" d="M486.993,-1194C486.993,-1194 127.715,-1194 127.715,-1194 121.715,-1194 115.715,-1188 115.715,-1182 115.715,-1182 115.715,-1170 115.715,-1170 115.715,-1164 121.715,-1158 127.715,-1158 127.715,-1158 486.993,-1158 486.993,-1158 492.993,-1158 498.993,-1164 498.993,-1170 498.993,-1170 498.993,-1182 498.993,-1182 498.993,-1188 492.993,-1194 486.993,-1194"/>
<text text-anchor="middle" x="307.354" y="-1173.3" font-family="Courier,monospace" font-weight="bold" font-size="9.00">/Users/syc/Documents/C3_C4_mapping/inputs/land_cover/SYNMAP_NA_QD.nc</text>
</g>
<!-- /Users/syc/Documents/C3_C4_mapping/inputs/land_cover/SYNMAP_NA_QD.nc&#45;&gt;prepare_step -->
<g id="edge28" class="edge"><title>/Users/syc/Documents/C3_C4_mapping/inputs/land_cover/SYNMAP_NA_QD.nc&#45;&gt;prepare_step</title>
<path fill="none" stroke="black" d="M412.668,-1194.01C471.883,-1198.04 543.395,-1191.57 590.708,-1149 655.406,-1090.79 677.203,-809.029 682.61,-718.248"/>
<polygon fill="black" stroke="black" points="686.111,-718.336 683.19,-708.152 679.122,-717.935 686.111,-718.336"/>
</g>
<!-- /Users/syc/Documents/C3_C4_mapping/inputs/narr_air.2m_monthly/air.2m_monthly_2000_2010_mean.7.nc -->
<g id="node8" class="node"><title>/Users/syc/Documents/C3_C4_mapping/inputs/narr_air.2m_monthly/air.2m_monthly_2000_2010_mean.7.nc</title>
<path fill="#ffe4b5" stroke="black" d="M562.668,-1140C562.668,-1140 52.0404,-1140 52.0404,-1140 46.0404,-1140 40.0404,-1134 40.0404,-1128 40.0404,-1128 40.0404,-1116 40.0404,-1116 40.0404,-1110 46.0404,-1104 52.0404,-1104 52.0404,-1104 562.668,-1104 562.668,-1104 568.668,-1104 574.668,-1110 574.668,-1116 574.668,-1116 574.668,-1128 574.668,-1128 574.668,-1134 568.668,-1140 562.668,-1140"/>
<text text-anchor="middle" x="307.354" y="-1119.3" font-family="Courier,monospace" font-weight="bold" font-size="9.00">/Users/syc/Documents/C3_C4_mapping/inputs/narr_air.2m_monthly/air.2m_monthly_2000_2010_mean.7.nc</text>
</g>
<!-- /Users/syc/Documents/C3_C4_mapping/inputs/narr_air.2m_monthly/air.2m_monthly_2000_2010_mean.7.nc&#45;&gt;prepare_step -->
<g id="edge27" class="edge"><title>/Users/syc/Documents/C3_C4_mapping/inputs/narr_air.2m_monthly/air.2m_monthly_2000_2010_mean.7.nc&#45;&gt;prepare_step</title>
<path fill="none" stroke="black" d="M574.674,-1107.22C580.257,-1103.53 585.617,-1099.46 590.708,-1095 648.018,-1044.76 674.338,-801.673 681.789,-718.205"/>
<polygon fill="black" stroke="black" points="685.281,-718.445 682.661,-708.179 678.308,-717.838 685.281,-718.445"/>
</g>
<!-- /Users/syc/Documents/C3_C4_mapping/inputs/narr_apcp_rescaled_monthly/apcp_monthly_2000_2010_mean.3.nc -->
<g id="node9" class="node"><title>/Users/syc/Documents/C3_C4_mapping/inputs/narr_apcp_rescaled_monthly/apcp_monthly_2000_2010_mean.3.nc</title>
<path fill="#ffe4b5" stroke="black" d="M576.163,-1086C576.163,-1086 38.5449,-1086 38.5449,-1086 32.5449,-1086 26.5449,-1080 26.5449,-1074 26.5449,-1074 26.5449,-1062 26.5449,-1062 26.5449,-1056 32.5449,-1050 38.5449,-1050 38.5449,-1050 576.163,-1050 576.163,-1050 582.163,-1050 588.163,-1056 588.163,-1062 588.163,-1062 588.163,-1074 588.163,-1074 588.163,-1080 582.163,-1086 576.163,-1086"/>
<text text-anchor="middle" x="307.354" y="-1065.3" font-family="Courier,monospace" font-weight="bold" font-size="9.00">/Users/syc/Documents/C3_C4_mapping/inputs/narr_apcp_rescaled_monthly/apcp_monthly_2000_2010_mean.3.nc</text>
</g>
<!-- /Users/syc/Documents/C3_C4_mapping/inputs/narr_apcp_rescaled_monthly/apcp_monthly_2000_2010_mean.3.nc&#45;&gt;prepare_step -->
<g id="edge26" class="edge"><title>/Users/syc/Documents/C3_C4_mapping/inputs/narr_apcp_rescaled_monthly/apcp_monthly_2000_2010_mean.3.nc&#45;&gt;prepare_step</title>
<path fill="none" stroke="black" d="M579.043,-1049.94C583.057,-1047.16 586.952,-1044.18 590.708,-1041 640.571,-998.742 670.919,-794.755 680.66,-718.681"/>
<polygon fill="black" stroke="black" points="684.176,-718.778 681.948,-708.42 677.23,-717.906 684.176,-718.778"/>
</g>
<!-- /Users/syc/Documents/C3_C4_mapping/inputs/narr_apcp_rescaled_monthly/apcp_monthly_2000_2010_mean.11.nc -->
<g id="node10" class="node"><title>/Users/syc/Documents/C3_C4_mapping/inputs/narr_apcp_rescaled_monthly/apcp_monthly_2000_2010_mean.11.nc</title>
<path fill="#ffe4b5" stroke="black" d="M578.562,-1032C578.562,-1032 36.1458,-1032 36.1458,-1032 30.1458,-1032 24.1458,-1026 24.1458,-1020 24.1458,-1020 24.1458,-1008 24.1458,-1008 24.1458,-1002 30.1458,-996 36.1458,-996 36.1458,-996 578.562,-996 578.562,-996 584.562,-996 590.562,-1002 590.562,-1008 590.562,-1008 590.562,-1020 590.562,-1020 590.562,-1026 584.562,-1032 578.562,-1032"/>
<text text-anchor="middle" x="307.354" y="-1011.3" font-family="Courier,monospace" font-weight="bold" font-size="9.00">/Users/syc/Documents/C3_C4_mapping/inputs/narr_apcp_rescaled_monthly/apcp_monthly_2000_2010_mean.11.nc</text>
</g>
<!-- /Users/syc/Documents/C3_C4_mapping/inputs/narr_apcp_rescaled_monthly/apcp_monthly_2000_2010_mean.11.nc&#45;&gt;prepare_step -->
<g id="edge29" class="edge"><title>/Users/syc/Documents/C3_C4_mapping/inputs/narr_apcp_rescaled_monthly/apcp_monthly_2000_2010_mean.11.nc&#45;&gt;prepare_step</title>
<path fill="none" stroke="black" d="M578.543,-995.909C582.725,-993.142 586.786,-990.177 590.708,-987 673.946,-919.588 684.278,-778.576 684.699,-718.304"/>
<polygon fill="black" stroke="black" points="688.198,-718.018 684.677,-708.025 681.198,-718.032 688.198,-718.018"/>
</g>
<!-- /Users/syc/Documents/C3_C4_mapping/inputs/narr_air.2m_monthly/air.2m_monthly_2000_2010_mean.8.nc -->
<g id="node11" class="node"><title>/Users/syc/Documents/C3_C4_mapping/inputs/narr_air.2m_monthly/air.2m_monthly_2000_2010_mean.8.nc</title>
<path fill="#ffe4b5" stroke="black" d="M562.668,-978C562.668,-978 52.0404,-978 52.0404,-978 46.0404,-978 40.0404,-972 40.0404,-966 40.0404,-966 40.0404,-954 40.0404,-954 40.0404,-948 46.0404,-942 52.0404,-942 52.0404,-942 562.668,-942 562.668,-942 568.668,-942 574.668,-948 574.668,-954 574.668,-954 574.668,-966 574.668,-966 574.668,-972 568.668,-978 562.668,-978"/>
<text text-anchor="middle" x="307.354" y="-957.3" font-family="Courier,monospace" font-weight="bold" font-size="9.00">/Users/syc/Documents/C3_C4_mapping/inputs/narr_air.2m_monthly/air.2m_monthly_2000_2010_mean.8.nc</text>
</g>
<!-- /Users/syc/Documents/C3_C4_mapping/inputs/narr_air.2m_monthly/air.2m_monthly_2000_2010_mean.8.nc&#45;&gt;prepare_step -->
<g id="edge31" class="edge"><title>/Users/syc/Documents/C3_C4_mapping/inputs/narr_air.2m_monthly/air.2m_monthly_2000_2010_mean.8.nc&#45;&gt;prepare_step</title>
<path fill="none" stroke="black" d="M574.818,-943.668C580.302,-940.421 585.61,-936.872 590.708,-933 659.757,-880.552 677.764,-770.237 682.453,-718.246"/>
<polygon fill="black" stroke="black" points="685.958,-718.326 683.265,-708.079 678.98,-717.769 685.958,-718.326"/>
</g>
<!-- /Users/syc/Documents/C3_C4_mapping/inputs/narr_apcp_rescaled_monthly/apcp_monthly_2000_2010_mean.4.nc -->
<g id="node12" class="node"><title>/Users/syc/Documents/C3_C4_mapping/inputs/narr_apcp_rescaled_monthly/apcp_monthly_2000_2010_mean.4.nc</title>
<path fill="#ffe4b5" stroke="black" d="M576.163,-924C576.163,-924 38.5449,-924 38.5449,-924 32.5449,-924 26.5449,-918 26.5449,-912 26.5449,-912 26.5449,-900 26.5449,-900 26.5449,-894 32.5449,-888 38.5449,-888 38.5449,-888 576.163,-888 576.163,-888 582.163,-888 588.163,-894 588.163,-900 588.163,-900 588.163,-912 588.163,-912 588.163,-918 582.163,-924 576.163,-924"/>
<text text-anchor="middle" x="307.354" y="-903.3" font-family="Courier,monospace" font-weight="bold" font-size="9.00">/Users/syc/Documents/C3_C4_mapping/inputs/narr_apcp_rescaled_monthly/apcp_monthly_2000_2010_mean.4.nc</text>
</g>
<!-- /Users/syc/Documents/C3_C4_mapping/inputs/narr_apcp_rescaled_monthly/apcp_monthly_2000_2010_mean.4.nc&#45;&gt;prepare_step -->
<g id="edge30" class="edge"><title>/Users/syc/Documents/C3_C4_mapping/inputs/narr_apcp_rescaled_monthly/apcp_monthly_2000_2010_mean.4.nc&#45;&gt;prepare_step</title>
<path fill="none" stroke="black" d="M576.291,-887.955C581.233,-885.194 586.046,-882.214 590.708,-879 645.849,-840.985 669.878,-760.746 679.099,-718.072"/>
<polygon fill="black" stroke="black" points="682.568,-718.578 681.134,-708.08 675.709,-717.181 682.568,-718.578"/>
</g>
<!-- /Users/syc/Documents/C3_C4_mapping/inputs/narr_apcp_rescaled_monthly/apcp_monthly_2000_2010_mean.12.nc -->
<g id="node13" class="node"><title>/Users/syc/Documents/C3_C4_mapping/inputs/narr_apcp_rescaled_monthly/apcp_monthly_2000_2010_mean.12.nc</title>
<path fill="#ffe4b5" stroke="black" d="M578.562,-870C578.562,-870 36.1458,-870 36.1458,-870 30.1458,-870 24.1458,-864 24.1458,-858 24.1458,-858 24.1458,-846 24.1458,-846 24.1458,-840 30.1458,-834 36.1458,-834 36.1458,-834 578.562,-834 578.562,-834 584.562,-834 590.562,-840 590.562,-846 590.562,-846 590.562,-858 590.562,-858 590.562,-864 584.562,-870 578.562,-870"/>
<text text-anchor="middle" x="307.354" y="-849.3" font-family="Courier,monospace" font-weight="bold" font-size="9.00">/Users/syc/Documents/C3_C4_mapping/inputs/narr_apcp_rescaled_monthly/apcp_monthly_2000_2010_mean.12.nc</text>
</g>
<!-- /Users/syc/Documents/C3_C4_mapping/inputs/narr_apcp_rescaled_monthly/apcp_monthly_2000_2010_mean.12.nc&#45;&gt;prepare_step -->
<g id="edge32" class="edge"><title>/Users/syc/Documents/C3_C4_mapping/inputs/narr_apcp_rescaled_monthly/apcp_monthly_2000_2010_mean.12.nc&#45;&gt;prepare_step</title>
<path fill="none" stroke="black" d="M573.672,-833.957C579.497,-831.218 585.186,-828.239 590.708,-825 632.188,-800.67 659.561,-749.762 673.403,-717.883"/>
<polygon fill="black" stroke="black" points="676.798,-718.835 677.422,-708.259 670.338,-716.138 676.798,-718.835"/>
</g>
<!-- /Users/syc/Documents/C3_C4_mapping/inputs/narr_air.2m_monthly/air.2m_monthly_2000_2010_mean.1.nc -->
<g id="node15" class="node"><title>/Users/syc/Documents/C3_C4_mapping/inputs/narr_air.2m_monthly/air.2m_monthly_2000_2010_mean.1.nc</title>
<path fill="#ffe4b5" stroke="black" d="M562.668,-816C562.668,-816 52.0404,-816 52.0404,-816 46.0404,-816 40.0404,-810 40.0404,-804 40.0404,-804 40.0404,-792 40.0404,-792 40.0404,-786 46.0404,-780 52.0404,-780 52.0404,-780 562.668,-780 562.668,-780 568.668,-780 574.668,-786 574.668,-792 574.668,-792 574.668,-804 574.668,-804 574.668,-810 568.668,-816 562.668,-816"/>
<text text-anchor="middle" x="307.354" y="-795.3" font-family="Courier,monospace" font-weight="bold" font-size="9.00">/Users/syc/Documents/C3_C4_mapping/inputs/narr_air.2m_monthly/air.2m_monthly_2000_2010_mean.1.nc</text>
</g>
<!-- /Users/syc/Documents/C3_C4_mapping/inputs/narr_air.2m_monthly/air.2m_monthly_2000_2010_mean.1.nc&#45;&gt;prepare_step -->
<g id="edge3" class="edge"><title>/Users/syc/Documents/C3_C4_mapping/inputs/narr_air.2m_monthly/air.2m_monthly_2000_2010_mean.1.nc&#45;&gt;prepare_step</title>
<path fill="none" stroke="black" d="M567.019,-779.964C575.096,-777.276 583.014,-774.298 590.708,-771 619.189,-758.794 645.25,-734.593 662.561,-715.808"/>
<polygon fill="black" stroke="black" points="665.363,-717.925 669.426,-708.14 660.148,-713.256 665.363,-717.925"/>
</g>
<!-- /Users/syc/Documents/C3_C4_mapping/inputs/narr_air.2m_monthly/air.2m_monthly_2000_2010_mean.9.nc -->
<g id="node16" class="node"><title>/Users/syc/Documents/C3_C4_mapping/inputs/narr_air.2m_monthly/air.2m_monthly_2000_2010_mean.9.nc</title>
<path fill="#ffe4b5" stroke="black" d="M562.668,-762C562.668,-762 52.0404,-762 52.0404,-762 46.0404,-762 40.0404,-756 40.0404,-750 40.0404,-750 40.0404,-738 40.0404,-738 40.0404,-732 46.0404,-726 52.0404,-726 52.0404,-726 562.668,-726 562.668,-726 568.668,-726 574.668,-732 574.668,-738 574.668,-738 574.668,-750 574.668,-750 574.668,-756 568.668,-762 562.668,-762"/>
<text text-anchor="middle" x="307.354" y="-741.3" font-family="Courier,monospace" font-weight="bold" font-size="9.00">/Users/syc/Documents/C3_C4_mapping/inputs/narr_air.2m_monthly/air.2m_monthly_2000_2010_mean.9.nc</text>
</g>
<!-- /Users/syc/Documents/C3_C4_mapping/inputs/narr_air.2m_monthly/air.2m_monthly_2000_2010_mean.9.nc&#45;&gt;prepare_step -->
<g id="edge2" class="edge"><title>/Users/syc/Documents/C3_C4_mapping/inputs/narr_air.2m_monthly/air.2m_monthly_2000_2010_mean.9.nc&#45;&gt;prepare_step</title>
<path fill="none" stroke="black" d="M535.805,-725.967C554.44,-723.361 572.931,-720.389 590.708,-717 599.596,-715.306 608.857,-713.137 617.945,-710.767"/>
<polygon fill="black" stroke="black" points="618.972,-714.115 627.713,-708.129 617.146,-707.357 618.972,-714.115"/>
</g>
<!-- /Users/syc/Documents/C3_C4_mapping/inputs/narr_apcp_rescaled_monthly/apcp_monthly_2000_2010_mean.5.nc -->
<g id="node17" class="node"><title>/Users/syc/Documents/C3_C4_mapping/inputs/narr_apcp_rescaled_monthly/apcp_monthly_2000_2010_mean.5.nc</title>
<path fill="#ffe4b5" stroke="black" d="M576.163,-708C576.163,-708 38.5449,-708 38.5449,-708 32.5449,-708 26.5449,-702 26.5449,-696 26.5449,-696 26.5449,-684 26.5449,-684 26.5449,-678 32.5449,-672 38.5449,-672 38.5449,-672 576.163,-672 576.163,-672 582.163,-672 588.163,-678 588.163,-684 588.163,-684 588.163,-696 588.163,-696 588.163,-702 582.163,-708 576.163,-708"/>
<text text-anchor="middle" x="307.354" y="-687.3" font-family="Courier,monospace" font-weight="bold" font-size="9.00">/Users/syc/Documents/C3_C4_mapping/inputs/narr_apcp_rescaled_monthly/apcp_monthly_2000_2010_mean.5.nc</text>
</g>
<!-- /Users/syc/Documents/C3_C4_mapping/inputs/narr_apcp_rescaled_monthly/apcp_monthly_2000_2010_mean.5.nc&#45;&gt;prepare_step -->
<g id="edge1" class="edge"><title>/Users/syc/Documents/C3_C4_mapping/inputs/narr_apcp_rescaled_monthly/apcp_monthly_2000_2010_mean.5.nc&#45;&gt;prepare_step</title>
<path fill="none" stroke="black" d="M588.311,-690C598.244,-690 607.721,-690 616.581,-690"/>
<polygon fill="black" stroke="black" points="616.689,-693.5 626.689,-690 616.689,-686.5 616.689,-693.5"/>
</g>
<!-- /Users/syc/Documents/C3_C4_mapping/inputs/narr_air.2m_monthly/air.2m_monthly_2000_2010_mean.2.nc -->
<g id="node18" class="node"><title>/Users/syc/Documents/C3_C4_mapping/inputs/narr_air.2m_monthly/air.2m_monthly_2000_2010_mean.2.nc</title>
<path fill="#ffe4b5" stroke="black" d="M562.668,-654C562.668,-654 52.0404,-654 52.0404,-654 46.0404,-654 40.0404,-648 40.0404,-642 40.0404,-642 40.0404,-630 40.0404,-630 40.0404,-624 46.0404,-618 52.0404,-618 52.0404,-618 562.668,-618 562.668,-618 568.668,-618 574.668,-624 574.668,-630 574.668,-630 574.668,-642 574.668,-642 574.668,-648 568.668,-654 562.668,-654"/>
<text text-anchor="middle" x="307.354" y="-633.3" font-family="Courier,monospace" font-weight="bold" font-size="9.00">/Users/syc/Documents/C3_C4_mapping/inputs/narr_air.2m_monthly/air.2m_monthly_2000_2010_mean.2.nc</text>
</g>
<!-- /Users/syc/Documents/C3_C4_mapping/inputs/narr_air.2m_monthly/air.2m_monthly_2000_2010_mean.2.nc&#45;&gt;prepare_step -->
<g id="edge6" class="edge"><title>/Users/syc/Documents/C3_C4_mapping/inputs/narr_air.2m_monthly/air.2m_monthly_2000_2010_mean.2.nc&#45;&gt;prepare_step</title>
<path fill="none" stroke="black" d="M535.805,-654.033C554.44,-656.639 572.931,-659.611 590.708,-663 599.596,-664.694 608.857,-666.863 617.945,-669.233"/>
<polygon fill="black" stroke="black" points="617.146,-672.643 627.713,-671.871 618.972,-665.885 617.146,-672.643"/>
</g>
<!-- /Users/syc/Documents/C3_C4_mapping/inputs/narr_air.2m_monthly/air.2m_monthly_2000_2010_mean.10.nc -->
<g id="node19" class="node"><title>/Users/syc/Documents/C3_C4_mapping/inputs/narr_air.2m_monthly/air.2m_monthly_2000_2010_mean.10.nc</title>
<path fill="#ffe4b5" stroke="black" d="M565.067,-600C565.067,-600 49.6413,-600 49.6413,-600 43.6413,-600 37.6413,-594 37.6413,-588 37.6413,-588 37.6413,-576 37.6413,-576 37.6413,-570 43.6413,-564 49.6413,-564 49.6413,-564 565.067,-564 565.067,-564 571.067,-564 577.067,-570 577.067,-576 577.067,-576 577.067,-588 577.067,-588 577.067,-594 571.067,-600 565.067,-600"/>
<text text-anchor="middle" x="307.354" y="-579.3" font-family="Courier,monospace" font-weight="bold" font-size="9.00">/Users/syc/Documents/C3_C4_mapping/inputs/narr_air.2m_monthly/air.2m_monthly_2000_2010_mean.10.nc</text>
</g>
<!-- /Users/syc/Documents/C3_C4_mapping/inputs/narr_air.2m_monthly/air.2m_monthly_2000_2010_mean.10.nc&#45;&gt;prepare_step -->
<g id="edge5" class="edge"><title>/Users/syc/Documents/C3_C4_mapping/inputs/narr_air.2m_monthly/air.2m_monthly_2000_2010_mean.10.nc&#45;&gt;prepare_step</title>
<path fill="none" stroke="black" d="M567.019,-600.036C575.096,-602.724 583.014,-605.702 590.708,-609 619.189,-621.206 645.25,-645.407 662.561,-664.192"/>
<polygon fill="black" stroke="black" points="660.148,-666.744 669.426,-671.86 665.363,-662.075 660.148,-666.744"/>
</g>
<!-- /Users/syc/Documents/C3_C4_mapping/inputs/narr_apcp_rescaled_monthly/apcp_monthly_2000_2010_mean.6.nc -->
<g id="node20" class="node"><title>/Users/syc/Documents/C3_C4_mapping/inputs/narr_apcp_rescaled_monthly/apcp_monthly_2000_2010_mean.6.nc</title>
<path fill="#ffe4b5" stroke="black" d="M576.163,-546C576.163,-546 38.5449,-546 38.5449,-546 32.5449,-546 26.5449,-540 26.5449,-534 26.5449,-534 26.5449,-522 26.5449,-522 26.5449,-516 32.5449,-510 38.5449,-510 38.5449,-510 576.163,-510 576.163,-510 582.163,-510 588.163,-516 588.163,-522 588.163,-522 588.163,-534 588.163,-534 588.163,-540 582.163,-546 576.163,-546"/>
<text text-anchor="middle" x="307.354" y="-525.3" font-family="Courier,monospace" font-weight="bold" font-size="9.00">/Users/syc/Documents/C3_C4_mapping/inputs/narr_apcp_rescaled_monthly/apcp_monthly_2000_2010_mean.6.nc</text>
</g>
<!-- /Users/syc/Documents/C3_C4_mapping/inputs/narr_apcp_rescaled_monthly/apcp_monthly_2000_2010_mean.6.nc&#45;&gt;prepare_step -->
<g id="edge4" class="edge"><title>/Users/syc/Documents/C3_C4_mapping/inputs/narr_apcp_rescaled_monthly/apcp_monthly_2000_2010_mean.6.nc&#45;&gt;prepare_step</title>
<path fill="none" stroke="black" d="M573.672,-546.043C579.497,-548.782 585.186,-551.761 590.708,-555 632.188,-579.33 659.561,-630.238 673.403,-662.117"/>
<polygon fill="black" stroke="black" points="670.338,-663.862 677.422,-671.741 676.798,-661.165 670.338,-663.862"/>
</g>
<!-- /Users/syc/Documents/C3_C4_mapping/workspace/land_cover_map_2000_2010.mat&#45;&gt;generate_final_results_threshold_2_5 -->
<g id="edge7" class="edge"><title>/Users/syc/Documents/C3_C4_mapping/workspace/land_cover_map_2000_2010.mat&#45;&gt;generate_final_results_threshold_2_5</title>
<path fill="none" stroke="black" d="M1587.36,-620C1700.31,-619.189 1842.83,-623.206 1968.51,-642 2013.78,-648.769 2063.49,-662.72 2101.27,-674.745"/>
<polygon fill="black" stroke="black" points="2100.52,-678.178 2111.11,-677.917 2102.66,-671.516 2100.52,-678.178"/>
</g>
<!-- /Users/syc/Documents/C3_C4_mapping/workspace/C3_2000_2010.mat&#45;&gt;generate_final_results_threshold_2_5 -->
<g id="edge8" class="edge"><title>/Users/syc/Documents/C3_C4_mapping/workspace/C3_2000_2010.mat&#45;&gt;generate_final_results_threshold_2_5</title>
<path fill="none" stroke="black" d="M1968.52,-681.67C1977.12,-682.305 1985.76,-682.943 1994.36,-683.577"/>
<polygon fill="black" stroke="black" points="1994.2,-687.075 2004.43,-684.32 1994.71,-680.094 1994.2,-687.075"/>
</g>
<!-- /Users/syc/Documents/C3_C4_mapping/inputs/narr_air.2m_monthly/air.2m_monthly_2000_2010_mean.3.nc -->
<g id="node23" class="node"><title>/Users/syc/Documents/C3_C4_mapping/inputs/narr_air.2m_monthly/air.2m_monthly_2000_2010_mean.3.nc</title>
<path fill="#ffe4b5" stroke="black" d="M562.668,-492C562.668,-492 52.0404,-492 52.0404,-492 46.0404,-492 40.0404,-486 40.0404,-480 40.0404,-480 40.0404,-468 40.0404,-468 40.0404,-462 46.0404,-456 52.0404,-456 52.0404,-456 562.668,-456 562.668,-456 568.668,-456 574.668,-462 574.668,-468 574.668,-468 574.668,-480 574.668,-480 574.668,-486 568.668,-492 562.668,-492"/>
<text text-anchor="middle" x="307.354" y="-471.3" font-family="Courier,monospace" font-weight="bold" font-size="9.00">/Users/syc/Documents/C3_C4_mapping/inputs/narr_air.2m_monthly/air.2m_monthly_2000_2010_mean.3.nc</text>
</g>
<!-- /Users/syc/Documents/C3_C4_mapping/inputs/narr_air.2m_monthly/air.2m_monthly_2000_2010_mean.3.nc&#45;&gt;prepare_step -->
<g id="edge11" class="edge"><title>/Users/syc/Documents/C3_C4_mapping/inputs/narr_air.2m_monthly/air.2m_monthly_2000_2010_mean.3.nc&#45;&gt;prepare_step</title>
<path fill="none" stroke="black" d="M574.676,-491.153C580.184,-494.161 585.539,-497.436 590.708,-501 645.849,-539.015 669.878,-619.254 679.099,-661.928"/>
<polygon fill="black" stroke="black" points="675.709,-662.819 681.134,-671.92 682.568,-661.422 675.709,-662.819"/>
</g>
<!-- /Users/syc/Documents/C3_C4_mapping/inputs/narr_air.2m_monthly/air.2m_monthly_2000_2010_mean.11.nc -->
<g id="node24" class="node"><title>/Users/syc/Documents/C3_C4_mapping/inputs/narr_air.2m_monthly/air.2m_monthly_2000_2010_mean.11.nc</title>
<path fill="#ffe4b5" stroke="black" d="M565.067,-438C565.067,-438 49.6413,-438 49.6413,-438 43.6413,-438 37.6413,-432 37.6413,-426 37.6413,-426 37.6413,-414 37.6413,-414 37.6413,-408 43.6413,-402 49.6413,-402 49.6413,-402 565.067,-402 565.067,-402 571.067,-402 577.067,-408 577.067,-414 577.067,-414 577.067,-426 577.067,-426 577.067,-432 571.067,-438 565.067,-438"/>
<text text-anchor="middle" x="307.354" y="-417.3" font-family="Courier,monospace" font-weight="bold" font-size="9.00">/Users/syc/Documents/C3_C4_mapping/inputs/narr_air.2m_monthly/air.2m_monthly_2000_2010_mean.11.nc</text>
</g>
<!-- /Users/syc/Documents/C3_C4_mapping/inputs/narr_air.2m_monthly/air.2m_monthly_2000_2010_mean.11.nc&#45;&gt;prepare_step -->
<g id="edge10" class="edge"><title>/Users/syc/Documents/C3_C4_mapping/inputs/narr_air.2m_monthly/air.2m_monthly_2000_2010_mean.11.nc&#45;&gt;prepare_step</title>
<path fill="none" stroke="black" d="M577.337,-437.852C581.931,-440.679 586.395,-443.724 590.708,-447 659.757,-499.448 677.764,-609.763 682.453,-661.754"/>
<polygon fill="black" stroke="black" points="678.98,-662.231 683.265,-671.921 685.958,-661.674 678.98,-662.231"/>
</g>
<!-- /Users/syc/Documents/C3_C4_mapping/inputs/narr_apcp_rescaled_monthly/apcp_monthly_2000_2010_mean.7.nc -->
<g id="node25" class="node"><title>/Users/syc/Documents/C3_C4_mapping/inputs/narr_apcp_rescaled_monthly/apcp_monthly_2000_2010_mean.7.nc</title>
<path fill="#ffe4b5" stroke="black" d="M576.163,-384C576.163,-384 38.5449,-384 38.5449,-384 32.5449,-384 26.5449,-378 26.5449,-372 26.5449,-372 26.5449,-360 26.5449,-360 26.5449,-354 32.5449,-348 38.5449,-348 38.5449,-348 576.163,-348 576.163,-348 582.163,-348 588.163,-354 588.163,-360 588.163,-360 588.163,-372 588.163,-372 588.163,-378 582.163,-384 576.163,-384"/>
<text text-anchor="middle" x="307.354" y="-363.3" font-family="Courier,monospace" font-weight="bold" font-size="9.00">/Users/syc/Documents/C3_C4_mapping/inputs/narr_apcp_rescaled_monthly/apcp_monthly_2000_2010_mean.7.nc</text>
</g>
<!-- /Users/syc/Documents/C3_C4_mapping/inputs/narr_apcp_rescaled_monthly/apcp_monthly_2000_2010_mean.7.nc&#45;&gt;prepare_step -->
<g id="edge9" class="edge"><title>/Users/syc/Documents/C3_C4_mapping/inputs/narr_apcp_rescaled_monthly/apcp_monthly_2000_2010_mean.7.nc&#45;&gt;prepare_step</title>
<path fill="none" stroke="black" d="M578.543,-384.091C582.725,-386.858 586.786,-389.823 590.708,-393 673.946,-460.412 684.278,-601.424 684.699,-661.696"/>
<polygon fill="black" stroke="black" points="681.198,-661.968 684.677,-671.975 688.198,-661.982 681.198,-661.968"/>
</g>
<!-- /Users/syc/Documents/C3_C4_mapping/workspace/Tair_2000_2010.mat&#45;&gt;examine_pixels_for_grass_threshold_2_5 -->
<g id="edge13" class="edge"><title>/Users/syc/Documents/C3_C4_mapping/workspace/Tair_2000_2010.mat&#45;&gt;examine_pixels_for_grass_threshold_2_5</title>
<path fill="none" stroke="black" d="M1101.35,-681.019C1142.97,-686.371 1188.71,-692.255 1230.94,-697.686"/>
<polygon fill="black" stroke="black" points="1230.66,-701.179 1241.02,-698.983 1231.55,-694.236 1230.66,-701.179"/>
</g>
<!-- /Users/syc/Documents/C3_C4_mapping/workspace/C4_2000_2010.mat&#45;&gt;generate_final_results_threshold_2_5 -->
<g id="edge12" class="edge"><title>/Users/syc/Documents/C3_C4_mapping/workspace/C4_2000_2010.mat&#45;&gt;generate_final_results_threshold_2_5</title>
<path fill="none" stroke="black" d="M1968.52,-710.33C1977.12,-709.695 1985.76,-709.057 1994.36,-708.423"/>
<polygon fill="black" stroke="black" points="1994.71,-711.906 2004.43,-707.68 1994.2,-704.925 1994.71,-711.906"/>
</g>
<!-- /Users/syc/Documents/C3_C4_mapping/inputs/narr_air.2m_monthly/air.2m_monthly_2000_2010_mean.4.nc -->
<g id="node28" class="node"><title>/Users/syc/Documents/C3_C4_mapping/inputs/narr_air.2m_monthly/air.2m_monthly_2000_2010_mean.4.nc</title>
<path fill="#ffe4b5" stroke="black" d="M562.668,-330C562.668,-330 52.0404,-330 52.0404,-330 46.0404,-330 40.0404,-324 40.0404,-318 40.0404,-318 40.0404,-306 40.0404,-306 40.0404,-300 46.0404,-294 52.0404,-294 52.0404,-294 562.668,-294 562.668,-294 568.668,-294 574.668,-300 574.668,-306 574.668,-306 574.668,-318 574.668,-318 574.668,-324 568.668,-330 562.668,-330"/>
<text text-anchor="middle" x="307.354" y="-309.3" font-family="Courier,monospace" font-weight="bold" font-size="9.00">/Users/syc/Documents/C3_C4_mapping/inputs/narr_air.2m_monthly/air.2m_monthly_2000_2010_mean.4.nc</text>
</g>
<!-- /Users/syc/Documents/C3_C4_mapping/inputs/narr_air.2m_monthly/air.2m_monthly_2000_2010_mean.4.nc&#45;&gt;prepare_step -->
<g id="edge16" class="edge"><title>/Users/syc/Documents/C3_C4_mapping/inputs/narr_air.2m_monthly/air.2m_monthly_2000_2010_mean.4.nc&#45;&gt;prepare_step</title>
<path fill="none" stroke="black" d="M574.783,-327.212C580.315,-330.782 585.637,-334.702 590.708,-339 640.571,-381.258 670.919,-585.245 680.66,-661.319"/>
<polygon fill="black" stroke="black" points="677.23,-662.094 681.948,-671.58 684.176,-661.222 677.23,-662.094"/>
</g>
<!-- /Users/syc/Documents/C3_C4_mapping/inputs/narr_air.2m_monthly/air.2m_monthly_2000_2010_mean.12.nc -->
<g id="node29" class="node"><title>/Users/syc/Documents/C3_C4_mapping/inputs/narr_air.2m_monthly/air.2m_monthly_2000_2010_mean.12.nc</title>
<path fill="#ffe4b5" stroke="black" d="M565.067,-276C565.067,-276 49.6413,-276 49.6413,-276 43.6413,-276 37.6413,-270 37.6413,-264 37.6413,-264 37.6413,-252 37.6413,-252 37.6413,-246 43.6413,-240 49.6413,-240 49.6413,-240 565.067,-240 565.067,-240 571.067,-240 577.067,-246 577.067,-252 577.067,-252 577.067,-264 577.067,-264 577.067,-270 571.067,-276 565.067,-276"/>
<text text-anchor="middle" x="307.354" y="-255.3" font-family="Courier,monospace" font-weight="bold" font-size="9.00">/Users/syc/Documents/C3_C4_mapping/inputs/narr_air.2m_monthly/air.2m_monthly_2000_2010_mean.12.nc</text>
</g>
<!-- /Users/syc/Documents/C3_C4_mapping/inputs/narr_air.2m_monthly/air.2m_monthly_2000_2010_mean.12.nc&#45;&gt;prepare_step -->
<g id="edge15" class="edge"><title>/Users/syc/Documents/C3_C4_mapping/inputs/narr_air.2m_monthly/air.2m_monthly_2000_2010_mean.12.nc&#45;&gt;prepare_step</title>
<path fill="none" stroke="black" d="M577.096,-274.418C581.811,-277.665 586.357,-281.186 590.708,-285 648.018,-335.239 674.338,-578.327 681.789,-661.795"/>
<polygon fill="black" stroke="black" points="678.308,-662.162 682.661,-671.821 685.281,-661.555 678.308,-662.162"/>
</g>
<!-- /Users/syc/Documents/C3_C4_mapping/inputs/narr_apcp_rescaled_monthly/apcp_monthly_2000_2010_mean.8.nc -->
<g id="node30" class="node"><title>/Users/syc/Documents/C3_C4_mapping/inputs/narr_apcp_rescaled_monthly/apcp_monthly_2000_2010_mean.8.nc</title>
<path fill="#ffe4b5" stroke="black" d="M576.163,-222C576.163,-222 38.5449,-222 38.5449,-222 32.5449,-222 26.5449,-216 26.5449,-210 26.5449,-210 26.5449,-198 26.5449,-198 26.5449,-192 32.5449,-186 38.5449,-186 38.5449,-186 576.163,-186 576.163,-186 582.163,-186 588.163,-192 588.163,-198 588.163,-198 588.163,-210 588.163,-210 588.163,-216 582.163,-222 576.163,-222"/>
<text text-anchor="middle" x="307.354" y="-201.3" font-family="Courier,monospace" font-weight="bold" font-size="9.00">/Users/syc/Documents/C3_C4_mapping/inputs/narr_apcp_rescaled_monthly/apcp_monthly_2000_2010_mean.8.nc</text>
</g>
<!-- /Users/syc/Documents/C3_C4_mapping/inputs/narr_apcp_rescaled_monthly/apcp_monthly_2000_2010_mean.8.nc&#45;&gt;prepare_step -->
<g id="edge14" class="edge"><title>/Users/syc/Documents/C3_C4_mapping/inputs/narr_apcp_rescaled_monthly/apcp_monthly_2000_2010_mean.8.nc&#45;&gt;prepare_step</title>
<path fill="none" stroke="black" d="M412.668,-185.994C471.883,-181.961 543.395,-188.428 590.708,-231 655.406,-289.214 677.203,-570.971 682.61,-661.752"/>
<polygon fill="black" stroke="black" points="679.122,-662.065 683.19,-671.848 686.111,-661.664 679.122,-662.065"/>
</g>
<!-- /Users/syc/Documents/C3_C4_mapping/inputs/narr_air.2m_monthly/air.2m_monthly_2000_2010_mean.5.nc -->
<g id="node31" class="node"><title>/Users/syc/Documents/C3_C4_mapping/inputs/narr_air.2m_monthly/air.2m_monthly_2000_2010_mean.5.nc</title>
<path fill="#ffe4b5" stroke="black" d="M562.668,-168C562.668,-168 52.0404,-168 52.0404,-168 46.0404,-168 40.0404,-162 40.0404,-156 40.0404,-156 40.0404,-144 40.0404,-144 40.0404,-138 46.0404,-132 52.0404,-132 52.0404,-132 562.668,-132 562.668,-132 568.668,-132 574.668,-138 574.668,-144 574.668,-144 574.668,-156 574.668,-156 574.668,-162 568.668,-168 562.668,-168"/>
<text text-anchor="middle" x="307.354" y="-147.3" font-family="Courier,monospace" font-weight="bold" font-size="9.00">/Users/syc/Documents/C3_C4_mapping/inputs/narr_air.2m_monthly/air.2m_monthly_2000_2010_mean.5.nc</text>
</g>
<!-- /Users/syc/Documents/C3_C4_mapping/inputs/narr_air.2m_monthly/air.2m_monthly_2000_2010_mean.5.nc&#45;&gt;prepare_step -->
<g id="edge19" class="edge"><title>/Users/syc/Documents/C3_C4_mapping/inputs/narr_air.2m_monthly/air.2m_monthly_2000_2010_mean.5.nc&#45;&gt;prepare_step</title>
<path fill="none" stroke="black" d="M408.201,-131.997C468.429,-127.156 542.568,-132.775 590.708,-177 662.837,-243.261 679.756,-564.031 683.264,-661.713"/>
<polygon fill="black" stroke="black" points="679.767,-661.857 683.605,-671.733 686.763,-661.62 679.767,-661.857"/>
</g>
<!-- /Users/syc/Documents/C3_C4_mapping/inputs/narr_apcp_rescaled_monthly/apcp_monthly_2000_2010_mean.1.nc -->
<g id="node32" class="node"><title>/Users/syc/Documents/C3_C4_mapping/inputs/narr_apcp_rescaled_monthly/apcp_monthly_2000_2010_mean.1.nc</title>
<path fill="#ffe4b5" stroke="black" d="M576.163,-114C576.163,-114 38.5449,-114 38.5449,-114 32.5449,-114 26.5449,-108 26.5449,-102 26.5449,-102 26.5449,-90 26.5449,-90 26.5449,-84 32.5449,-78 38.5449,-78 38.5449,-78 576.163,-78 576.163,-78 582.163,-78 588.163,-84 588.163,-90 588.163,-90 588.163,-102 588.163,-102 588.163,-108 582.163,-114 576.163,-114"/>
<text text-anchor="middle" x="307.354" y="-93.3" font-family="Courier,monospace" font-weight="bold" font-size="9.00">/Users/syc/Documents/C3_C4_mapping/inputs/narr_apcp_rescaled_monthly/apcp_monthly_2000_2010_mean.1.nc</text>
</g>
<!-- /Users/syc/Documents/C3_C4_mapping/inputs/narr_apcp_rescaled_monthly/apcp_monthly_2000_2010_mean.1.nc&#45;&gt;prepare_step -->
<g id="edge18" class="edge"><title>/Users/syc/Documents/C3_C4_mapping/inputs/narr_apcp_rescaled_monthly/apcp_monthly_2000_2010_mean.1.nc&#45;&gt;prepare_step</title>
<path fill="none" stroke="black" d="M405.405,-77.9764C466.268,-72.589 542.132,-77.6155 590.708,-123 670.355,-197.414 682.077,-557.908 683.802,-661.879"/>
<polygon fill="black" stroke="black" points="680.303,-661.982 683.95,-671.929 687.302,-661.879 680.303,-661.982"/>
</g>
<!-- /Users/syc/Documents/C3_C4_mapping/inputs/narr_apcp_rescaled_monthly/apcp_monthly_2000_2010_mean.9.nc -->
<g id="node33" class="node"><title>/Users/syc/Documents/C3_C4_mapping/inputs/narr_apcp_rescaled_monthly/apcp_monthly_2000_2010_mean.9.nc</title>
<path fill="#ffe4b5" stroke="black" d="M576.163,-60C576.163,-60 38.5449,-60 38.5449,-60 32.5449,-60 26.5449,-54 26.5449,-48 26.5449,-48 26.5449,-36 26.5449,-36 26.5449,-30 32.5449,-24 38.5449,-24 38.5449,-24 576.163,-24 576.163,-24 582.163,-24 588.163,-30 588.163,-36 588.163,-36 588.163,-48 588.163,-48 588.163,-54 582.163,-60 576.163,-60"/>
<text text-anchor="middle" x="307.354" y="-39.3" font-family="Courier,monospace" font-weight="bold" font-size="9.00">/Users/syc/Documents/C3_C4_mapping/inputs/narr_apcp_rescaled_monthly/apcp_monthly_2000_2010_mean.9.nc</text>
</g>
<!-- /Users/syc/Documents/C3_C4_mapping/inputs/narr_apcp_rescaled_monthly/apcp_monthly_2000_2010_mean.9.nc&#45;&gt;prepare_step -->
<g id="edge17" class="edge"><title>/Users/syc/Documents/C3_C4_mapping/inputs/narr_apcp_rescaled_monthly/apcp_monthly_2000_2010_mean.9.nc&#45;&gt;prepare_step</title>
<path fill="none" stroke="black" d="M403.256,-23.968C464.597,-18.1462 541.825,-22.6844 590.708,-69 677.832,-151.547 684.175,-551.435 684.244,-661.76"/>
<polygon fill="black" stroke="black" points="680.744,-661.791 684.232,-671.795 687.744,-661.799 680.744,-661.791"/>
</g>
<!-- /Users/syc/Documents/C3_C4_mapping/workspace/Rain_2000_2010.mat&#45;&gt;examine_pixels_for_grass_threshold_2_5 -->
<g id="edge20" class="edge"><title>/Users/syc/Documents/C3_C4_mapping/workspace/Rain_2000_2010.mat&#45;&gt;examine_pixels_for_grass_threshold_2_5</title>
<path fill="none" stroke="black" d="M1138.4,-717C1160.15,-717 1182.38,-717 1204.13,-717"/>
<polygon fill="black" stroke="black" points="1204.42,-720.5 1214.42,-717 1204.42,-713.5 1204.42,-720.5"/>
</g>
<!-- /Users/syc/Documents/C3_C4_mapping/workspace/Grass_2000_2010.mat&#45;&gt;examine_pixels_for_grass_threshold_2_5 -->
<g id="edge25" class="edge"><title>/Users/syc/Documents/C3_C4_mapping/workspace/Grass_2000_2010.mat&#45;&gt;examine_pixels_for_grass_threshold_2_5</title>
<path fill="none" stroke="black" d="M1101.35,-752.981C1142.97,-747.629 1188.71,-741.745 1230.94,-736.314"/>
<polygon fill="black" stroke="black" points="1231.55,-739.764 1241.02,-735.017 1230.66,-732.821 1231.55,-739.764"/>
</g>
<!-- /Users/syc/Documents/C3_C4_mapping/workspace/Grass_2000_2010.mat&#45;&gt;generate_final_results_threshold_2_5 -->
<g id="edge24" class="edge"><title>/Users/syc/Documents/C3_C4_mapping/workspace/Grass_2000_2010.mat&#45;&gt;generate_final_results_threshold_2_5</title>
<path fill="none" stroke="black" d="M1141.15,-780.723C1343.53,-788.545 1681.47,-792.222 1968.51,-750 2013.96,-743.316 2063.85,-729.288 2101.68,-717.205"/>
<polygon fill="black" stroke="black" points="2103.09,-720.429 2111.52,-714.019 2100.93,-713.769 2103.09,-720.429"/>
</g>
</g>
</svg>
