<?xml version="1.0" encoding="UTF-8" standalone="no"?>
<!DOCTYPE svg PUBLIC "-//W3C//DTD SVG 1.1//EN"
 "http://www.w3.org/Graphics/SVG/1.1/DTD/svg11.dtd">
<!-- Generated by graphviz version 2.38.0 (20140413.2041)
 -->
<!-- Title: yw_data_view Pages: 1 -->
<svg width="1139pt" height="1688pt"
 viewBox="0.00 0.00 1139.03 1687.60" xmlns="http://www.w3.org/2000/svg" xmlns:xlink="http://www.w3.org/1999/xlink">
<g id="graph0" class="graph" transform="scale(1 1) rotate(0) translate(4 1683.6)">
<title>yw_data_view</title>
<polygon fill="white" stroke="none" points="-4,4 -4,-1683.6 1135.03,-1683.6 1135.03,4 -4,4"/>
<text text-anchor="middle" x="565.515" y="-1659.4" font-family="Courier,monospace" font-size="18.00">Upstream graph for multiple runs</text>
<g id="clust1" class="cluster"><title>cluster_workflow</title>
<polygon fill="none" stroke="black" stroke-width="2" points="8,-8 8,-1642 1123.03,-1642 1123.03,-8 8,-8"/>
</g>
<g id="clust2" class="cluster"><title>cluster_workflow_inner</title>
<polygon fill="none" stroke="white" stroke-width="2" points="16,-16 16,-1634 1115.03,-1634 1115.03,-16 16,-16"/>
</g>
<!-- examine_pixels_for_grass_threshold_5 -->
<g id="node1" class="node"><title>examine_pixels_for_grass_threshold_5</title>
<polygon fill="black" stroke="black" points="466.704,-1626 148.004,-1626 148.004,-1590 466.704,-1590 466.704,-1626"/>
<text text-anchor="middle" x="307.354" y="-1603.8" font-family="Courier,monospace" font-weight="bold" font-size="14.00" fill="white">examine_pixels_for_grass_threshold_5</text>
</g>
<!-- /Users/syc/Documents/C3_C4_mapping/workspace/C3_2000_2010.mat -->
<g id="node10" class="node"><title>/Users/syc/Documents/C3_C4_mapping/workspace/C3_2000_2010.mat</title>
<path fill="#ffe4b5" stroke="black" d="M1027.71,-1572C1027.71,-1572 706.024,-1572 706.024,-1572 700.024,-1572 694.024,-1566 694.024,-1560 694.024,-1560 694.024,-1548 694.024,-1548 694.024,-1542 700.024,-1536 706.024,-1536 706.024,-1536 1027.71,-1536 1027.71,-1536 1033.71,-1536 1039.71,-1542 1039.71,-1548 1039.71,-1548 1039.71,-1560 1039.71,-1560 1039.71,-1566 1033.71,-1572 1027.71,-1572"/>
<text text-anchor="middle" x="866.869" y="-1551.3" font-family="Courier,monospace" font-weight="bold" font-size="9.00">/Users/syc/Documents/C3_C4_mapping/workspace/C3_2000_2010.mat</text>
</g>
<!-- examine_pixels_for_grass_threshold_5&#45;&gt;/Users/syc/Documents/C3_C4_mapping/workspace/C3_2000_2010.mat -->
<g id="edge2" class="edge"><title>examine_pixels_for_grass_threshold_5&#45;&gt;/Users/syc/Documents/C3_C4_mapping/workspace/C3_2000_2010.mat</title>
<path fill="none" stroke="black" d="M466.656,-1592.93C507.103,-1589.06 550.517,-1584.89 590.708,-1581 620.886,-1578.08 652.923,-1574.95 684.065,-1571.9"/>
<polygon fill="black" stroke="black" points="684.53,-1575.37 694.141,-1570.92 683.848,-1568.41 684.53,-1575.37"/>
</g>
<!-- /Users/syc/Documents/C3_C4_mapping/workspace/C4_2000_2010.mat -->
<g id="node34" class="node"><title>/Users/syc/Documents/C3_C4_mapping/workspace/C4_2000_2010.mat</title>
<path fill="#ffe4b5" stroke="black" d="M1027.71,-1626C1027.71,-1626 706.024,-1626 706.024,-1626 700.024,-1626 694.024,-1620 694.024,-1614 694.024,-1614 694.024,-1602 694.024,-1602 694.024,-1596 700.024,-1590 706.024,-1590 706.024,-1590 1027.71,-1590 1027.71,-1590 1033.71,-1590 1039.71,-1596 1039.71,-1602 1039.71,-1602 1039.71,-1614 1039.71,-1614 1039.71,-1620 1033.71,-1626 1027.71,-1626"/>
<text text-anchor="middle" x="866.869" y="-1605.3" font-family="Courier,monospace" font-weight="bold" font-size="9.00">/Users/syc/Documents/C3_C4_mapping/workspace/C4_2000_2010.mat</text>
</g>
<!-- examine_pixels_for_grass_threshold_5&#45;&gt;/Users/syc/Documents/C3_C4_mapping/workspace/C4_2000_2010.mat -->
<g id="edge10" class="edge"><title>examine_pixels_for_grass_threshold_5&#45;&gt;/Users/syc/Documents/C3_C4_mapping/workspace/C4_2000_2010.mat</title>
<path fill="none" stroke="black" d="M466.624,-1608C534.282,-1608 613.665,-1608 683.748,-1608"/>
<polygon fill="black" stroke="black" points="684.018,-1611.5 694.018,-1608 684.018,-1604.5 684.018,-1611.5"/>
</g>
<!-- examine_pixels_for_grass_threshold_2_5 -->
<g id="node2" class="node"><title>examine_pixels_for_grass_threshold_2_5</title>
<polygon fill="black" stroke="black" points="475.001,-1572 139.707,-1572 139.707,-1536 475.001,-1536 475.001,-1572"/>
<text text-anchor="middle" x="307.354" y="-1549.8" font-family="Courier,monospace" font-weight="bold" font-size="14.00" fill="white">examine_pixels_for_grass_threshold_2_5</text>
</g>
<!-- examine_pixels_for_grass_threshold_2_5&#45;&gt;/Users/syc/Documents/C3_C4_mapping/workspace/C3_2000_2010.mat -->
<g id="edge7" class="edge"><title>examine_pixels_for_grass_threshold_2_5&#45;&gt;/Users/syc/Documents/C3_C4_mapping/workspace/C3_2000_2010.mat</title>
<path fill="none" stroke="black" d="M475.249,-1554C541.007,-1554 616.72,-1554 683.878,-1554"/>
<polygon fill="black" stroke="black" points="684.151,-1557.5 694.151,-1554 684.151,-1550.5 684.151,-1557.5"/>
</g>
<!-- examine_pixels_for_grass_threshold_2_5&#45;&gt;/Users/syc/Documents/C3_C4_mapping/workspace/C4_2000_2010.mat -->
<g id="edge9" class="edge"><title>examine_pixels_for_grass_threshold_2_5&#45;&gt;/Users/syc/Documents/C3_C4_mapping/workspace/C4_2000_2010.mat</title>
<path fill="none" stroke="black" d="M475.206,-1569.89C513.176,-1573.52 553.335,-1577.38 590.708,-1581 620.886,-1583.92 652.923,-1587.05 684.065,-1590.1"/>
<polygon fill="black" stroke="black" points="683.848,-1593.59 694.141,-1591.08 684.53,-1586.63 683.848,-1593.59"/>
</g>
<!-- prepare_step -->
<g id="node3" class="node"><title>prepare_step</title>
<polygon fill="black" stroke="black" points="365.638,-1518 249.071,-1518 249.071,-1482 365.638,-1482 365.638,-1518"/>
<text text-anchor="middle" x="307.354" y="-1495.8" font-family="Courier,monospace" font-weight="bold" font-size="14.00" fill="white">prepare_step</text>
</g>
<!-- /Users/syc/Documents/C3_C4_mapping/workspace/Rain_2000_2010.mat -->
<g id="node9" class="node"><title>/Users/syc/Documents/C3_C4_mapping/workspace/Rain_2000_2010.mat</title>
<path fill="#ffe4b5" stroke="black" d="M1033.01,-1356C1033.01,-1356 700.726,-1356 700.726,-1356 694.726,-1356 688.726,-1350 688.726,-1344 688.726,-1344 688.726,-1332 688.726,-1332 688.726,-1326 694.726,-1320 700.726,-1320 700.726,-1320 1033.01,-1320 1033.01,-1320 1039.01,-1320 1045.01,-1326 1045.01,-1332 1045.01,-1332 1045.01,-1344 1045.01,-1344 1045.01,-1350 1039.01,-1356 1033.01,-1356"/>
<text text-anchor="middle" x="866.869" y="-1335.3" font-family="Courier,monospace" font-weight="bold" font-size="9.00">/Users/syc/Documents/C3_C4_mapping/workspace/Rain_2000_2010.mat</text>
</g>
<!-- prepare_step&#45;&gt;/Users/syc/Documents/C3_C4_mapping/workspace/Rain_2000_2010.mat -->
<g id="edge1" class="edge"><title>prepare_step&#45;&gt;/Users/syc/Documents/C3_C4_mapping/workspace/Rain_2000_2010.mat</title>
<path fill="none" stroke="black" d="M365.64,-1511.33C427.914,-1520.18 527.036,-1523.67 590.708,-1473 630.298,-1441.49 587.389,-1396.84 626.708,-1365 642.125,-1352.51 660.05,-1343.73 679.022,-1337.71"/>
<polygon fill="black" stroke="black" points="680.096,-1341.04 688.721,-1334.88 678.141,-1334.32 680.096,-1341.04"/>
</g>
<!-- /Users/syc/Documents/C3_C4_mapping/workspace/Grass_2000_2010.mat -->
<g id="node11" class="node"><title>/Users/syc/Documents/C3_C4_mapping/workspace/Grass_2000_2010.mat</title>
<path fill="#ffe4b5" stroke="black" d="M1035.41,-1410C1035.41,-1410 698.327,-1410 698.327,-1410 692.327,-1410 686.327,-1404 686.327,-1398 686.327,-1398 686.327,-1386 686.327,-1386 686.327,-1380 692.327,-1374 698.327,-1374 698.327,-1374 1035.41,-1374 1035.41,-1374 1041.41,-1374 1047.41,-1380 1047.41,-1386 1047.41,-1386 1047.41,-1398 1047.41,-1398 1047.41,-1404 1041.41,-1410 1035.41,-1410"/>
<text text-anchor="middle" x="866.869" y="-1389.3" font-family="Courier,monospace" font-weight="bold" font-size="9.00">/Users/syc/Documents/C3_C4_mapping/workspace/Grass_2000_2010.mat</text>
</g>
<!-- prepare_step&#45;&gt;/Users/syc/Documents/C3_C4_mapping/workspace/Grass_2000_2010.mat -->
<g id="edge3" class="edge"><title>prepare_step&#45;&gt;/Users/syc/Documents/C3_C4_mapping/workspace/Grass_2000_2010.mat</title>
<path fill="none" stroke="black" d="M365.797,-1508.21C426.19,-1513.88 521.824,-1514.2 590.708,-1473 615.462,-1458.19 602.082,-1434.02 626.708,-1419 641.984,-1409.68 658.841,-1402.73 676.323,-1397.61"/>
<polygon fill="black" stroke="black" points="677.364,-1400.95 686.093,-1394.95 675.525,-1394.2 677.364,-1400.95"/>
</g>
<!-- /Users/syc/Documents/C3_C4_mapping/workspace/land_cover_map_2000_2010.mat -->
<g id="node29" class="node"><title>/Users/syc/Documents/C3_C4_mapping/workspace/land_cover_map_2000_2010.mat</title>
<path fill="#ffe4b5" stroke="black" d="M1060,-1464C1060,-1464 673.735,-1464 673.735,-1464 667.735,-1464 661.735,-1458 661.735,-1452 661.735,-1452 661.735,-1440 661.735,-1440 661.735,-1434 667.735,-1428 673.735,-1428 673.735,-1428 1060,-1428 1060,-1428 1066,-1428 1072,-1434 1072,-1440 1072,-1440 1072,-1452 1072,-1452 1072,-1458 1066,-1464 1060,-1464"/>
<text text-anchor="middle" x="866.869" y="-1443.3" font-family="Courier,monospace" font-weight="bold" font-size="9.00">/Users/syc/Documents/C3_C4_mapping/workspace/land_cover_map_2000_2010.mat</text>
</g>
<!-- prepare_step&#45;&gt;/Users/syc/Documents/C3_C4_mapping/workspace/land_cover_map_2000_2010.mat -->
<g id="edge6" class="edge"><title>prepare_step&#45;&gt;/Users/syc/Documents/C3_C4_mapping/workspace/land_cover_map_2000_2010.mat</title>
<path fill="none" stroke="black" d="M365.681,-1494.56C422.73,-1489.14 512.776,-1480.55 590.708,-1473 617.196,-1470.43 645.117,-1467.71 672.607,-1465.02"/>
<polygon fill="black" stroke="black" points="673.101,-1468.49 682.713,-1464.04 672.419,-1461.53 673.101,-1468.49"/>
</g>
<!-- /Users/syc/Documents/C3_C4_mapping/workspace/Tair_2000_2010.mat -->
<g id="node33" class="node"><title>/Users/syc/Documents/C3_C4_mapping/workspace/Tair_2000_2010.mat</title>
<path fill="#ffe4b5" stroke="black" d="M1033.01,-1518C1033.01,-1518 700.726,-1518 700.726,-1518 694.726,-1518 688.726,-1512 688.726,-1506 688.726,-1506 688.726,-1494 688.726,-1494 688.726,-1488 694.726,-1482 700.726,-1482 700.726,-1482 1033.01,-1482 1033.01,-1482 1039.01,-1482 1045.01,-1488 1045.01,-1494 1045.01,-1494 1045.01,-1506 1045.01,-1506 1045.01,-1512 1039.01,-1518 1033.01,-1518"/>
<text text-anchor="middle" x="866.869" y="-1497.3" font-family="Courier,monospace" font-weight="bold" font-size="9.00">/Users/syc/Documents/C3_C4_mapping/workspace/Tair_2000_2010.mat</text>
</g>
<!-- prepare_step&#45;&gt;/Users/syc/Documents/C3_C4_mapping/workspace/Tair_2000_2010.mat -->
<g id="edge8" class="edge"><title>prepare_step&#45;&gt;/Users/syc/Documents/C3_C4_mapping/workspace/Tair_2000_2010.mat</title>
<path fill="none" stroke="black" d="M365.658,-1500C438.883,-1500 569.242,-1500 678.524,-1500"/>
<polygon fill="black" stroke="black" points="678.694,-1503.5 688.694,-1500 678.694,-1496.5 678.694,-1503.5"/>
</g>
<!-- generate_final_results_threshold_5 -->
<g id="node4" class="node"><title>generate_final_results_threshold_5</title>
<polygon fill="black" stroke="black" points="457.907,-1464 156.801,-1464 156.801,-1428 457.907,-1428 457.907,-1464"/>
<text text-anchor="middle" x="307.354" y="-1441.8" font-family="Courier,monospace" font-weight="bold" font-size="14.00" fill="white">generate_final_results_threshold_5</text>
</g>
<!-- /Users/syc/Documents/C3_C4_mapping/outputs/SYNMAP_PRESENTVEG_Grass_Fraction_NA_v2.0.nc -->
<g id="node21" class="node"><title>/Users/syc/Documents/C3_C4_mapping/outputs/SYNMAP_PRESENTVEG_Grass_Fraction_NA_v2.0.nc</title>
<path fill="#ffe4b5" stroke="black" d="M1095.19,-1302C1095.19,-1302 638.547,-1302 638.547,-1302 632.547,-1302 626.547,-1296 626.547,-1290 626.547,-1290 626.547,-1278 626.547,-1278 626.547,-1272 632.547,-1266 638.547,-1266 638.547,-1266 1095.19,-1266 1095.19,-1266 1101.19,-1266 1107.19,-1272 1107.19,-1278 1107.19,-1278 1107.19,-1290 1107.19,-1290 1107.19,-1296 1101.19,-1302 1095.19,-1302"/>
<text text-anchor="middle" x="866.869" y="-1281.3" font-family="Courier,monospace" font-weight="bold" font-size="9.00">/Users/syc/Documents/C3_C4_mapping/outputs/SYNMAP_PRESENTVEG_Grass_Fraction_NA_v2.0.nc</text>
</g>
<!-- generate_final_results_threshold_5&#45;&gt;/Users/syc/Documents/C3_C4_mapping/outputs/SYNMAP_PRESENTVEG_Grass_Fraction_NA_v2.0.nc -->
<g id="edge5" class="edge"><title>generate_final_results_threshold_5&#45;&gt;/Users/syc/Documents/C3_C4_mapping/outputs/SYNMAP_PRESENTVEG_Grass_Fraction_NA_v2.0.nc</title>
<path fill="none" stroke="black" d="M458.022,-1462.04C504.765,-1459.59 553.718,-1448.44 590.708,-1419 630.298,-1387.49 587.389,-1342.84 626.708,-1311 628.076,-1309.89 629.463,-1308.81 630.868,-1307.76"/>
<polygon fill="black" stroke="black" points="632.884,-1310.63 639.117,-1302.06 628.902,-1304.87 632.884,-1310.63"/>
</g>
<!-- generate_final_results_threshold_2_5 -->
<g id="node5" class="node"><title>generate_final_results_threshold_2_5</title>
<polygon fill="black" stroke="black" points="466.704,-1410 148.004,-1410 148.004,-1374 466.704,-1374 466.704,-1410"/>
<text text-anchor="middle" x="307.354" y="-1387.8" font-family="Courier,monospace" font-weight="bold" font-size="14.00" fill="white">generate_final_results_threshold_2_5</text>
</g>
<!-- generate_final_results_threshold_2_5&#45;&gt;/Users/syc/Documents/C3_C4_mapping/outputs/SYNMAP_PRESENTVEG_Grass_Fraction_NA_v2.0.nc -->
<g id="edge4" class="edge"><title>generate_final_results_threshold_2_5&#45;&gt;/Users/syc/Documents/C3_C4_mapping/outputs/SYNMAP_PRESENTVEG_Grass_Fraction_NA_v2.0.nc</title>
<path fill="none" stroke="black" d="M466.606,-1401.02C509.3,-1397.21 553.836,-1387.06 590.708,-1365 615.462,-1350.19 602.082,-1326.02 626.708,-1311 629.217,-1309.47 631.768,-1308 634.357,-1306.6"/>
<polygon fill="black" stroke="black" points="635.971,-1309.71 643.303,-1302.06 632.802,-1303.46 635.971,-1309.71"/>
</g>
<!-- /Users/syc/Documents/C3_C4_mapping/inputs/narr_air.2m_monthly/air.2m_monthly_2000_2010_mean.5.nc -->
<g id="node6" class="node"><title>/Users/syc/Documents/C3_C4_mapping/inputs/narr_air.2m_monthly/air.2m_monthly_2000_2010_mean.5.nc</title>
<path fill="#ffe4b5" stroke="black" d="M562.668,-1356C562.668,-1356 52.0404,-1356 52.0404,-1356 46.0404,-1356 40.0404,-1350 40.0404,-1344 40.0404,-1344 40.0404,-1332 40.0404,-1332 40.0404,-1326 46.0404,-1320 52.0404,-1320 52.0404,-1320 562.668,-1320 562.668,-1320 568.668,-1320 574.668,-1326 574.668,-1332 574.668,-1332 574.668,-1344 574.668,-1344 574.668,-1350 568.668,-1356 562.668,-1356"/>
<text text-anchor="middle" x="307.354" y="-1335.3" font-family="Courier,monospace" font-weight="bold" font-size="9.00">/Users/syc/Documents/C3_C4_mapping/inputs/narr_air.2m_monthly/air.2m_monthly_2000_2010_mean.5.nc</text>
</g>
<!-- /Users/syc/Documents/C3_C4_mapping/inputs/narr_apcp_rescaled_monthly/apcp_monthly_2000_2010_mean.9.nc -->
<g id="node7" class="node"><title>/Users/syc/Documents/C3_C4_mapping/inputs/narr_apcp_rescaled_monthly/apcp_monthly_2000_2010_mean.9.nc</title>
<path fill="#ffe4b5" stroke="black" d="M576.163,-1302C576.163,-1302 38.5449,-1302 38.5449,-1302 32.5449,-1302 26.5449,-1296 26.5449,-1290 26.5449,-1290 26.5449,-1278 26.5449,-1278 26.5449,-1272 32.5449,-1266 38.5449,-1266 38.5449,-1266 576.163,-1266 576.163,-1266 582.163,-1266 588.163,-1272 588.163,-1278 588.163,-1278 588.163,-1290 588.163,-1290 588.163,-1296 582.163,-1302 576.163,-1302"/>
<text text-anchor="middle" x="307.354" y="-1281.3" font-family="Courier,monospace" font-weight="bold" font-size="9.00">/Users/syc/Documents/C3_C4_mapping/inputs/narr_apcp_rescaled_monthly/apcp_monthly_2000_2010_mean.9.nc</text>
</g>
<!-- /Users/syc/Documents/C3_C4_mapping/inputs/narr_apcp_rescaled_monthly/apcp_monthly_2000_2010_mean.1.nc -->
<g id="node8" class="node"><title>/Users/syc/Documents/C3_C4_mapping/inputs/narr_apcp_rescaled_monthly/apcp_monthly_2000_2010_mean.1.nc</title>
<path fill="#ffe4b5" stroke="black" d="M576.163,-1248C576.163,-1248 38.5449,-1248 38.5449,-1248 32.5449,-1248 26.5449,-1242 26.5449,-1236 26.5449,-1236 26.5449,-1224 26.5449,-1224 26.5449,-1218 32.5449,-1212 38.5449,-1212 38.5449,-1212 576.163,-1212 576.163,-1212 582.163,-1212 588.163,-1218 588.163,-1224 588.163,-1224 588.163,-1236 588.163,-1236 588.163,-1242 582.163,-1248 576.163,-1248"/>
<text text-anchor="middle" x="307.354" y="-1227.3" font-family="Courier,monospace" font-weight="bold" font-size="9.00">/Users/syc/Documents/C3_C4_mapping/inputs/narr_apcp_rescaled_monthly/apcp_monthly_2000_2010_mean.1.nc</text>
</g>
<!-- /Users/syc/Documents/C3_C4_mapping/inputs/narr_air.2m_monthly/air.2m_monthly_2000_2010_mean.6.nc -->
<g id="node12" class="node"><title>/Users/syc/Documents/C3_C4_mapping/inputs/narr_air.2m_monthly/air.2m_monthly_2000_2010_mean.6.nc</title>
<path fill="#ffe4b5" stroke="black" d="M562.668,-1194C562.668,-1194 52.0404,-1194 52.0404,-1194 46.0404,-1194 40.0404,-1188 40.0404,-1182 40.0404,-1182 40.0404,-1170 40.0404,-1170 40.0404,-1164 46.0404,-1158 52.0404,-1158 52.0404,-1158 562.668,-1158 562.668,-1158 568.668,-1158 574.668,-1164 574.668,-1170 574.668,-1170 574.668,-1182 574.668,-1182 574.668,-1188 568.668,-1194 562.668,-1194"/>
<text text-anchor="middle" x="307.354" y="-1173.3" font-family="Courier,monospace" font-weight="bold" font-size="9.00">/Users/syc/Documents/C3_C4_mapping/inputs/narr_air.2m_monthly/air.2m_monthly_2000_2010_mean.6.nc</text>
</g>
<!-- /Users/syc/Documents/C3_C4_mapping/inputs/narr_apcp_rescaled_monthly/apcp_monthly_2000_2010_mean.2.nc -->
<g id="node13" class="node"><title>/Users/syc/Documents/C3_C4_mapping/inputs/narr_apcp_rescaled_monthly/apcp_monthly_2000_2010_mean.2.nc</title>
<path fill="#ffe4b5" stroke="black" d="M576.163,-1140C576.163,-1140 38.5449,-1140 38.5449,-1140 32.5449,-1140 26.5449,-1134 26.5449,-1128 26.5449,-1128 26.5449,-1116 26.5449,-1116 26.5449,-1110 32.5449,-1104 38.5449,-1104 38.5449,-1104 576.163,-1104 576.163,-1104 582.163,-1104 588.163,-1110 588.163,-1116 588.163,-1116 588.163,-1128 588.163,-1128 588.163,-1134 582.163,-1140 576.163,-1140"/>
<text text-anchor="middle" x="307.354" y="-1119.3" font-family="Courier,monospace" font-weight="bold" font-size="9.00">/Users/syc/Documents/C3_C4_mapping/inputs/narr_apcp_rescaled_monthly/apcp_monthly_2000_2010_mean.2.nc</text>
</g>
<!-- /Users/syc/Documents/C3_C4_mapping/inputs/narr_apcp_rescaled_monthly/apcp_monthly_2000_2010_mean.10.nc -->
<g id="node14" class="node"><title>/Users/syc/Documents/C3_C4_mapping/inputs/narr_apcp_rescaled_monthly/apcp_monthly_2000_2010_mean.10.nc</title>
<path fill="#ffe4b5" stroke="black" d="M578.562,-1086C578.562,-1086 36.1458,-1086 36.1458,-1086 30.1458,-1086 24.1458,-1080 24.1458,-1074 24.1458,-1074 24.1458,-1062 24.1458,-1062 24.1458,-1056 30.1458,-1050 36.1458,-1050 36.1458,-1050 578.562,-1050 578.562,-1050 584.562,-1050 590.562,-1056 590.562,-1062 590.562,-1062 590.562,-1074 590.562,-1074 590.562,-1080 584.562,-1086 578.562,-1086"/>
<text text-anchor="middle" x="307.354" y="-1065.3" font-family="Courier,monospace" font-weight="bold" font-size="9.00">/Users/syc/Documents/C3_C4_mapping/inputs/narr_apcp_rescaled_monthly/apcp_monthly_2000_2010_mean.10.nc</text>
</g>
<!-- /Users/syc/Documents/C3_C4_mapping/inputs/land_cover/SYNMAP_NA_QD.nc -->
<g id="node15" class="node"><title>/Users/syc/Documents/C3_C4_mapping/inputs/land_cover/SYNMAP_NA_QD.nc</title>
<path fill="#ffe4b5" stroke="black" d="M486.993,-1032C486.993,-1032 127.715,-1032 127.715,-1032 121.715,-1032 115.715,-1026 115.715,-1020 115.715,-1020 115.715,-1008 115.715,-1008 115.715,-1002 121.715,-996 127.715,-996 127.715,-996 486.993,-996 486.993,-996 492.993,-996 498.993,-1002 498.993,-1008 498.993,-1008 498.993,-1020 498.993,-1020 498.993,-1026 492.993,-1032 486.993,-1032"/>
<text text-anchor="middle" x="307.354" y="-1011.3" font-family="Courier,monospace" font-weight="bold" font-size="9.00">/Users/syc/Documents/C3_C4_mapping/inputs/land_cover/SYNMAP_NA_QD.nc</text>
</g>
<!-- /Users/syc/Documents/C3_C4_mapping/inputs/narr_air.2m_monthly/air.2m_monthly_2000_2010_mean.7.nc -->
<g id="node16" class="node"><title>/Users/syc/Documents/C3_C4_mapping/inputs/narr_air.2m_monthly/air.2m_monthly_2000_2010_mean.7.nc</title>
<path fill="#ffe4b5" stroke="black" d="M562.668,-978C562.668,-978 52.0404,-978 52.0404,-978 46.0404,-978 40.0404,-972 40.0404,-966 40.0404,-966 40.0404,-954 40.0404,-954 40.0404,-948 46.0404,-942 52.0404,-942 52.0404,-942 562.668,-942 562.668,-942 568.668,-942 574.668,-948 574.668,-954 574.668,-954 574.668,-966 574.668,-966 574.668,-972 568.668,-978 562.668,-978"/>
<text text-anchor="middle" x="307.354" y="-957.3" font-family="Courier,monospace" font-weight="bold" font-size="9.00">/Users/syc/Documents/C3_C4_mapping/inputs/narr_air.2m_monthly/air.2m_monthly_2000_2010_mean.7.nc</text>
</g>
<!-- /Users/syc/Documents/C3_C4_mapping/inputs/narr_apcp_rescaled_monthly/apcp_monthly_2000_2010_mean.3.nc -->
<g id="node17" class="node"><title>/Users/syc/Documents/C3_C4_mapping/inputs/narr_apcp_rescaled_monthly/apcp_monthly_2000_2010_mean.3.nc</title>
<path fill="#ffe4b5" stroke="black" d="M576.163,-924C576.163,-924 38.5449,-924 38.5449,-924 32.5449,-924 26.5449,-918 26.5449,-912 26.5449,-912 26.5449,-900 26.5449,-900 26.5449,-894 32.5449,-888 38.5449,-888 38.5449,-888 576.163,-888 576.163,-888 582.163,-888 588.163,-894 588.163,-900 588.163,-900 588.163,-912 588.163,-912 588.163,-918 582.163,-924 576.163,-924"/>
<text text-anchor="middle" x="307.354" y="-903.3" font-family="Courier,monospace" font-weight="bold" font-size="9.00">/Users/syc/Documents/C3_C4_mapping/inputs/narr_apcp_rescaled_monthly/apcp_monthly_2000_2010_mean.3.nc</text>
</g>
<!-- /Users/syc/Documents/C3_C4_mapping/inputs/narr_apcp_rescaled_monthly/apcp_monthly_2000_2010_mean.11.nc -->
<g id="node18" class="node"><title>/Users/syc/Documents/C3_C4_mapping/inputs/narr_apcp_rescaled_monthly/apcp_monthly_2000_2010_mean.11.nc</title>
<path fill="#ffe4b5" stroke="black" d="M578.562,-870C578.562,-870 36.1458,-870 36.1458,-870 30.1458,-870 24.1458,-864 24.1458,-858 24.1458,-858 24.1458,-846 24.1458,-846 24.1458,-840 30.1458,-834 36.1458,-834 36.1458,-834 578.562,-834 578.562,-834 584.562,-834 590.562,-840 590.562,-846 590.562,-846 590.562,-858 590.562,-858 590.562,-864 584.562,-870 578.562,-870"/>
<text text-anchor="middle" x="307.354" y="-849.3" font-family="Courier,monospace" font-weight="bold" font-size="9.00">/Users/syc/Documents/C3_C4_mapping/inputs/narr_apcp_rescaled_monthly/apcp_monthly_2000_2010_mean.11.nc</text>
</g>
<!-- /Users/syc/Documents/C3_C4_mapping/inputs/narr_air.2m_monthly/air.2m_monthly_2000_2010_mean.8.nc -->
<g id="node19" class="node"><title>/Users/syc/Documents/C3_C4_mapping/inputs/narr_air.2m_monthly/air.2m_monthly_2000_2010_mean.8.nc</title>
<path fill="#ffe4b5" stroke="black" d="M562.668,-816C562.668,-816 52.0404,-816 52.0404,-816 46.0404,-816 40.0404,-810 40.0404,-804 40.0404,-804 40.0404,-792 40.0404,-792 40.0404,-786 46.0404,-780 52.0404,-780 52.0404,-780 562.668,-780 562.668,-780 568.668,-780 574.668,-786 574.668,-792 574.668,-792 574.668,-804 574.668,-804 574.668,-810 568.668,-816 562.668,-816"/>
<text text-anchor="middle" x="307.354" y="-795.3" font-family="Courier,monospace" font-weight="bold" font-size="9.00">/Users/syc/Documents/C3_C4_mapping/inputs/narr_air.2m_monthly/air.2m_monthly_2000_2010_mean.8.nc</text>
</g>
<!-- /Users/syc/Documents/C3_C4_mapping/inputs/narr_apcp_rescaled_monthly/apcp_monthly_2000_2010_mean.4.nc -->
<g id="node20" class="node"><title>/Users/syc/Documents/C3_C4_mapping/inputs/narr_apcp_rescaled_monthly/apcp_monthly_2000_2010_mean.4.nc</title>
<path fill="#ffe4b5" stroke="black" d="M576.163,-762C576.163,-762 38.5449,-762 38.5449,-762 32.5449,-762 26.5449,-756 26.5449,-750 26.5449,-750 26.5449,-738 26.5449,-738 26.5449,-732 32.5449,-726 38.5449,-726 38.5449,-726 576.163,-726 576.163,-726 582.163,-726 588.163,-732 588.163,-738 588.163,-738 588.163,-750 588.163,-750 588.163,-756 582.163,-762 576.163,-762"/>
<text text-anchor="middle" x="307.354" y="-741.3" font-family="Courier,monospace" font-weight="bold" font-size="9.00">/Users/syc/Documents/C3_C4_mapping/inputs/narr_apcp_rescaled_monthly/apcp_monthly_2000_2010_mean.4.nc</text>
</g>
<!-- /Users/syc/Documents/C3_C4_mapping/inputs/narr_apcp_rescaled_monthly/apcp_monthly_2000_2010_mean.12.nc -->
<g id="node22" class="node"><title>/Users/syc/Documents/C3_C4_mapping/inputs/narr_apcp_rescaled_monthly/apcp_monthly_2000_2010_mean.12.nc</title>
<path fill="#ffe4b5" stroke="black" d="M578.562,-708C578.562,-708 36.1458,-708 36.1458,-708 30.1458,-708 24.1458,-702 24.1458,-696 24.1458,-696 24.1458,-684 24.1458,-684 24.1458,-678 30.1458,-672 36.1458,-672 36.1458,-672 578.562,-672 578.562,-672 584.562,-672 590.562,-678 590.562,-684 590.562,-684 590.562,-696 590.562,-696 590.562,-702 584.562,-708 578.562,-708"/>
<text text-anchor="middle" x="307.354" y="-687.3" font-family="Courier,monospace" font-weight="bold" font-size="9.00">/Users/syc/Documents/C3_C4_mapping/inputs/narr_apcp_rescaled_monthly/apcp_monthly_2000_2010_mean.12.nc</text>
</g>
<!-- /Users/syc/Documents/C3_C4_mapping/inputs/narr_air.2m_monthly/air.2m_monthly_2000_2010_mean.1.nc -->
<g id="node23" class="node"><title>/Users/syc/Documents/C3_C4_mapping/inputs/narr_air.2m_monthly/air.2m_monthly_2000_2010_mean.1.nc</title>
<path fill="#ffe4b5" stroke="black" d="M562.668,-654C562.668,-654 52.0404,-654 52.0404,-654 46.0404,-654 40.0404,-648 40.0404,-642 40.0404,-642 40.0404,-630 40.0404,-630 40.0404,-624 46.0404,-618 52.0404,-618 52.0404,-618 562.668,-618 562.668,-618 568.668,-618 574.668,-624 574.668,-630 574.668,-630 574.668,-642 574.668,-642 574.668,-648 568.668,-654 562.668,-654"/>
<text text-anchor="middle" x="307.354" y="-633.3" font-family="Courier,monospace" font-weight="bold" font-size="9.00">/Users/syc/Documents/C3_C4_mapping/inputs/narr_air.2m_monthly/air.2m_monthly_2000_2010_mean.1.nc</text>
</g>
<!-- /Users/syc/Documents/C3_C4_mapping/inputs/narr_air.2m_monthly/air.2m_monthly_2000_2010_mean.9.nc -->
<g id="node24" class="node"><title>/Users/syc/Documents/C3_C4_mapping/inputs/narr_air.2m_monthly/air.2m_monthly_2000_2010_mean.9.nc</title>
<path fill="#ffe4b5" stroke="black" d="M562.668,-600C562.668,-600 52.0404,-600 52.0404,-600 46.0404,-600 40.0404,-594 40.0404,-588 40.0404,-588 40.0404,-576 40.0404,-576 40.0404,-570 46.0404,-564 52.0404,-564 52.0404,-564 562.668,-564 562.668,-564 568.668,-564 574.668,-570 574.668,-576 574.668,-576 574.668,-588 574.668,-588 574.668,-594 568.668,-600 562.668,-600"/>
<text text-anchor="middle" x="307.354" y="-579.3" font-family="Courier,monospace" font-weight="bold" font-size="9.00">/Users/syc/Documents/C3_C4_mapping/inputs/narr_air.2m_monthly/air.2m_monthly_2000_2010_mean.9.nc</text>
</g>
<!-- /Users/syc/Documents/C3_C4_mapping/inputs/narr_apcp_rescaled_monthly/apcp_monthly_2000_2010_mean.5.nc -->
<g id="node25" class="node"><title>/Users/syc/Documents/C3_C4_mapping/inputs/narr_apcp_rescaled_monthly/apcp_monthly_2000_2010_mean.5.nc</title>
<path fill="#ffe4b5" stroke="black" d="M576.163,-546C576.163,-546 38.5449,-546 38.5449,-546 32.5449,-546 26.5449,-540 26.5449,-534 26.5449,-534 26.5449,-522 26.5449,-522 26.5449,-516 32.5449,-510 38.5449,-510 38.5449,-510 576.163,-510 576.163,-510 582.163,-510 588.163,-516 588.163,-522 588.163,-522 588.163,-534 588.163,-534 588.163,-540 582.163,-546 576.163,-546"/>
<text text-anchor="middle" x="307.354" y="-525.3" font-family="Courier,monospace" font-weight="bold" font-size="9.00">/Users/syc/Documents/C3_C4_mapping/inputs/narr_apcp_rescaled_monthly/apcp_monthly_2000_2010_mean.5.nc</text>
</g>
<!-- /Users/syc/Documents/C3_C4_mapping/inputs/narr_air.2m_monthly/air.2m_monthly_2000_2010_mean.2.nc -->
<g id="node26" class="node"><title>/Users/syc/Documents/C3_C4_mapping/inputs/narr_air.2m_monthly/air.2m_monthly_2000_2010_mean.2.nc</title>
<path fill="#ffe4b5" stroke="black" d="M562.668,-492C562.668,-492 52.0404,-492 52.0404,-492 46.0404,-492 40.0404,-486 40.0404,-480 40.0404,-480 40.0404,-468 40.0404,-468 40.0404,-462 46.0404,-456 52.0404,-456 52.0404,-456 562.668,-456 562.668,-456 568.668,-456 574.668,-462 574.668,-468 574.668,-468 574.668,-480 574.668,-480 574.668,-486 568.668,-492 562.668,-492"/>
<text text-anchor="middle" x="307.354" y="-471.3" font-family="Courier,monospace" font-weight="bold" font-size="9.00">/Users/syc/Documents/C3_C4_mapping/inputs/narr_air.2m_monthly/air.2m_monthly_2000_2010_mean.2.nc</text>
</g>
<!-- /Users/syc/Documents/C3_C4_mapping/inputs/narr_air.2m_monthly/air.2m_monthly_2000_2010_mean.10.nc -->
<g id="node27" class="node"><title>/Users/syc/Documents/C3_C4_mapping/inputs/narr_air.2m_monthly/air.2m_monthly_2000_2010_mean.10.nc</title>
<path fill="#ffe4b5" stroke="black" d="M565.067,-438C565.067,-438 49.6413,-438 49.6413,-438 43.6413,-438 37.6413,-432 37.6413,-426 37.6413,-426 37.6413,-414 37.6413,-414 37.6413,-408 43.6413,-402 49.6413,-402 49.6413,-402 565.067,-402 565.067,-402 571.067,-402 577.067,-408 577.067,-414 577.067,-414 577.067,-426 577.067,-426 577.067,-432 571.067,-438 565.067,-438"/>
<text text-anchor="middle" x="307.354" y="-417.3" font-family="Courier,monospace" font-weight="bold" font-size="9.00">/Users/syc/Documents/C3_C4_mapping/inputs/narr_air.2m_monthly/air.2m_monthly_2000_2010_mean.10.nc</text>
</g>
<!-- /Users/syc/Documents/C3_C4_mapping/inputs/narr_apcp_rescaled_monthly/apcp_monthly_2000_2010_mean.6.nc -->
<g id="node28" class="node"><title>/Users/syc/Documents/C3_C4_mapping/inputs/narr_apcp_rescaled_monthly/apcp_monthly_2000_2010_mean.6.nc</title>
<path fill="#ffe4b5" stroke="black" d="M576.163,-384C576.163,-384 38.5449,-384 38.5449,-384 32.5449,-384 26.5449,-378 26.5449,-372 26.5449,-372 26.5449,-360 26.5449,-360 26.5449,-354 32.5449,-348 38.5449,-348 38.5449,-348 576.163,-348 576.163,-348 582.163,-348 588.163,-354 588.163,-360 588.163,-360 588.163,-372 588.163,-372 588.163,-378 582.163,-384 576.163,-384"/>
<text text-anchor="middle" x="307.354" y="-363.3" font-family="Courier,monospace" font-weight="bold" font-size="9.00">/Users/syc/Documents/C3_C4_mapping/inputs/narr_apcp_rescaled_monthly/apcp_monthly_2000_2010_mean.6.nc</text>
</g>
<!-- /Users/syc/Documents/C3_C4_mapping/inputs/narr_air.2m_monthly/air.2m_monthly_2000_2010_mean.3.nc -->
<g id="node30" class="node"><title>/Users/syc/Documents/C3_C4_mapping/inputs/narr_air.2m_monthly/air.2m_monthly_2000_2010_mean.3.nc</title>
<path fill="#ffe4b5" stroke="black" d="M562.668,-330C562.668,-330 52.0404,-330 52.0404,-330 46.0404,-330 40.0404,-324 40.0404,-318 40.0404,-318 40.0404,-306 40.0404,-306 40.0404,-300 46.0404,-294 52.0404,-294 52.0404,-294 562.668,-294 562.668,-294 568.668,-294 574.668,-300 574.668,-306 574.668,-306 574.668,-318 574.668,-318 574.668,-324 568.668,-330 562.668,-330"/>
<text text-anchor="middle" x="307.354" y="-309.3" font-family="Courier,monospace" font-weight="bold" font-size="9.00">/Users/syc/Documents/C3_C4_mapping/inputs/narr_air.2m_monthly/air.2m_monthly_2000_2010_mean.3.nc</text>
</g>
<!-- /Users/syc/Documents/C3_C4_mapping/inputs/narr_air.2m_monthly/air.2m_monthly_2000_2010_mean.11.nc -->
<g id="node31" class="node"><title>/Users/syc/Documents/C3_C4_mapping/inputs/narr_air.2m_monthly/air.2m_monthly_2000_2010_mean.11.nc</title>
<path fill="#ffe4b5" stroke="black" d="M565.067,-276C565.067,-276 49.6413,-276 49.6413,-276 43.6413,-276 37.6413,-270 37.6413,-264 37.6413,-264 37.6413,-252 37.6413,-252 37.6413,-246 43.6413,-240 49.6413,-240 49.6413,-240 565.067,-240 565.067,-240 571.067,-240 577.067,-246 577.067,-252 577.067,-252 577.067,-264 577.067,-264 577.067,-270 571.067,-276 565.067,-276"/>
<text text-anchor="middle" x="307.354" y="-255.3" font-family="Courier,monospace" font-weight="bold" font-size="9.00">/Users/syc/Documents/C3_C4_mapping/inputs/narr_air.2m_monthly/air.2m_monthly_2000_2010_mean.11.nc</text>
</g>
<!-- /Users/syc/Documents/C3_C4_mapping/inputs/narr_apcp_rescaled_monthly/apcp_monthly_2000_2010_mean.7.nc -->
<g id="node32" class="node"><title>/Users/syc/Documents/C3_C4_mapping/inputs/narr_apcp_rescaled_monthly/apcp_monthly_2000_2010_mean.7.nc</title>
<path fill="#ffe4b5" stroke="black" d="M576.163,-222C576.163,-222 38.5449,-222 38.5449,-222 32.5449,-222 26.5449,-216 26.5449,-210 26.5449,-210 26.5449,-198 26.5449,-198 26.5449,-192 32.5449,-186 38.5449,-186 38.5449,-186 576.163,-186 576.163,-186 582.163,-186 588.163,-192 588.163,-198 588.163,-198 588.163,-210 588.163,-210 588.163,-216 582.163,-222 576.163,-222"/>
<text text-anchor="middle" x="307.354" y="-201.3" font-family="Courier,monospace" font-weight="bold" font-size="9.00">/Users/syc/Documents/C3_C4_mapping/inputs/narr_apcp_rescaled_monthly/apcp_monthly_2000_2010_mean.7.nc</text>
</g>
<!-- /Users/syc/Documents/C3_C4_mapping/inputs/narr_air.2m_monthly/air.2m_monthly_2000_2010_mean.4.nc -->
<g id="node35" class="node"><title>/Users/syc/Documents/C3_C4_mapping/inputs/narr_air.2m_monthly/air.2m_monthly_2000_2010_mean.4.nc</title>
<path fill="#ffe4b5" stroke="black" d="M562.668,-168C562.668,-168 52.0404,-168 52.0404,-168 46.0404,-168 40.0404,-162 40.0404,-156 40.0404,-156 40.0404,-144 40.0404,-144 40.0404,-138 46.0404,-132 52.0404,-132 52.0404,-132 562.668,-132 562.668,-132 568.668,-132 574.668,-138 574.668,-144 574.668,-144 574.668,-156 574.668,-156 574.668,-162 568.668,-168 562.668,-168"/>
<text text-anchor="middle" x="307.354" y="-147.3" font-family="Courier,monospace" font-weight="bold" font-size="9.00">/Users/syc/Documents/C3_C4_mapping/inputs/narr_air.2m_monthly/air.2m_monthly_2000_2010_mean.4.nc</text>
</g>
<!-- /Users/syc/Documents/C3_C4_mapping/inputs/narr_air.2m_monthly/air.2m_monthly_2000_2010_mean.12.nc -->
<g id="node36" class="node"><title>/Users/syc/Documents/C3_C4_mapping/inputs/narr_air.2m_monthly/air.2m_monthly_2000_2010_mean.12.nc</title>
<path fill="#ffe4b5" stroke="black" d="M565.067,-114C565.067,-114 49.6413,-114 49.6413,-114 43.6413,-114 37.6413,-108 37.6413,-102 37.6413,-102 37.6413,-90 37.6413,-90 37.6413,-84 43.6413,-78 49.6413,-78 49.6413,-78 565.067,-78 565.067,-78 571.067,-78 577.067,-84 577.067,-90 577.067,-90 577.067,-102 577.067,-102 577.067,-108 571.067,-114 565.067,-114"/>
<text text-anchor="middle" x="307.354" y="-93.3" font-family="Courier,monospace" font-weight="bold" font-size="9.00">/Users/syc/Documents/C3_C4_mapping/inputs/narr_air.2m_monthly/air.2m_monthly_2000_2010_mean.12.nc</text>
</g>
<!-- /Users/syc/Documents/C3_C4_mapping/inputs/narr_apcp_rescaled_monthly/apcp_monthly_2000_2010_mean.8.nc -->
<g id="node37" class="node"><title>/Users/syc/Documents/C3_C4_mapping/inputs/narr_apcp_rescaled_monthly/apcp_monthly_2000_2010_mean.8.nc</title>
<path fill="#ffe4b5" stroke="black" d="M576.163,-60C576.163,-60 38.5449,-60 38.5449,-60 32.5449,-60 26.5449,-54 26.5449,-48 26.5449,-48 26.5449,-36 26.5449,-36 26.5449,-30 32.5449,-24 38.5449,-24 38.5449,-24 576.163,-24 576.163,-24 582.163,-24 588.163,-30 588.163,-36 588.163,-36 588.163,-48 588.163,-48 588.163,-54 582.163,-60 576.163,-60"/>
<text text-anchor="middle" x="307.354" y="-39.3" font-family="Courier,monospace" font-weight="bold" font-size="9.00">/Users/syc/Documents/C3_C4_mapping/inputs/narr_apcp_rescaled_monthly/apcp_monthly_2000_2010_mean.8.nc</text>
</g>
</g>
</svg>
