<?xml version="1.0" encoding="UTF-8" standalone="no"?>
<!DOCTYPE svg PUBLIC "-//W3C//DTD SVG 1.1//EN"
 "http://www.w3.org/Graphics/SVG/1.1/DTD/svg11.dtd">
<!-- Generated by graphviz version 2.38.0 (20140413.2041)
 -->
<!-- Title: yw_data_view Pages: 1 -->
<svg width="2556pt" height="965pt"
 viewBox="0.00 0.00 2556.00 964.60" xmlns="http://www.w3.org/2000/svg" xmlns:xlink="http://www.w3.org/1999/xlink">
<g id="graph0" class="graph" transform="scale(1 1) rotate(0) translate(4 960.6)">
<title>yw_data_view</title>
<polygon fill="white" stroke="none" points="-4,4 -4,-960.6 2552,-960.6 2552,4 -4,4"/>
<text text-anchor="middle" x="1274" y="-936.4" font-family="Courier,monospace" font-size="18.00">Upstream graph for multiple runs</text>
<g id="clust1" class="cluster"><title>cluster_workflow</title>
<polygon fill="none" stroke="black" stroke-width="2" points="8,-8 8,-919 2540,-919 2540,-8 8,-8"/>
</g>
<g id="clust2" class="cluster"><title>cluster_workflow_inner</title>
<polygon fill="none" stroke="white" stroke-width="2" points="16,-16 16,-911 2532,-911 2532,-16 16,-16"/>
</g>
<!-- urn:uuid:4fcd5da4&#45;67af&#45;4f8d&#45;ad36&#45;c9cdf45621d4 -->
<g id="node1" class="node"><title>urn:uuid:4fcd5da4&#45;67af&#45;4f8d&#45;ad36&#45;c9cdf45621d4</title>
<polygon fill="black" stroke="black" points="1018.05,-265.9 1018.05,-324.3 1621.95,-324.3 1621.95,-265.9 1018.05,-265.9"/>
<text text-anchor="middle" x="1320" y="-307.7" font-family="Courier,monospace" font-weight="bold" font-size="14.00" fill="white">ohibc run 1 </text>
<text text-anchor="middle" x="1320" y="-290.9" font-family="Courier,monospace" font-weight="bold" font-size="14.00" fill="white"> /Users/slaughter/git/OHI&#45;Science/ohibc/combine_inland_and_offshore.R </text>
<text text-anchor="middle" x="1320" y="-274.1" font-family="Courier,monospace" font-weight="bold" font-size="14.00" fill="white"> urn:uuid:4fcd5da4&#45;67af&#45;4f8d&#45;ad36&#45;c9cdf45621d4</text>
</g>
<!-- 9c23639cf9ce610831cc57a78e88bd8ff8b67a46253aff39154b57b58ab60832 -->
<g id="node20" class="node"><title>9c23639cf9ce610831cc57a78e88bd8ff8b67a46253aff39154b57b58ab60832</title>
<path fill="#ffe4b5" stroke="black" d="M1097.24,-192.9C1097.24,-192.9 1542.76,-192.9 1542.76,-192.9 1548.76,-192.9 1554.76,-198.9 1554.76,-204.9 1554.76,-204.9 1554.76,-216.9 1554.76,-216.9 1554.76,-222.9 1548.76,-228.9 1542.76,-228.9 1542.76,-228.9 1097.24,-228.9 1097.24,-228.9 1091.24,-228.9 1085.24,-222.9 1085.24,-216.9 1085.24,-216.9 1085.24,-204.9 1085.24,-204.9 1085.24,-198.9 1091.24,-192.9 1097.24,-192.9"/>
<text text-anchor="middle" x="1320" y="-213.6" font-family="Courier,monospace" font-weight="bold" font-size="9.00">/Users/slaughter/git/OHI&#45;Science/ohibc/prep/lsp/vHS/output/area_protected_total.csv </text>
<text text-anchor="middle" x="1320" y="-202.8" font-family="Courier,monospace" font-weight="bold" font-size="9.00"> 9c23639cf9ce610831cc57a78e88bd8ff8b67a46253aff39154b57b58ab60832</text>
</g>
<!-- urn:uuid:4fcd5da4&#45;67af&#45;4f8d&#45;ad36&#45;c9cdf45621d4&#45;&gt;9c23639cf9ce610831cc57a78e88bd8ff8b67a46253aff39154b57b58ab60832 -->
<g id="edge27" class="edge"><title>urn:uuid:4fcd5da4&#45;67af&#45;4f8d&#45;ad36&#45;c9cdf45621d4&#45;&gt;9c23639cf9ce610831cc57a78e88bd8ff8b67a46253aff39154b57b58ab60832</title>
<path fill="none" stroke="black" d="M1320,-265.811C1320,-257.191 1320,-247.735 1320,-239.182"/>
<polygon fill="black" stroke="black" points="1323.5,-238.963 1320,-228.963 1316.5,-238.963 1323.5,-238.963"/>
</g>
<!-- urn:uuid:53c74750&#45;d660&#45;479d&#45;8e59&#45;f54068835317 -->
<g id="node2" class="node"><title>urn:uuid:53c74750&#45;d660&#45;479d&#45;8e59&#45;f54068835317</title>
<polygon fill="black" stroke="black" points="1043.24,-434.3 1043.24,-492.7 1596.76,-492.7 1596.76,-434.3 1043.24,-434.3"/>
<text text-anchor="middle" x="1320" y="-476.1" font-family="Courier,monospace" font-weight="bold" font-size="14.00" fill="white">ohibc run 1 </text>
<text text-anchor="middle" x="1320" y="-459.3" font-family="Courier,monospace" font-weight="bold" font-size="14.00" fill="white"> /Users/slaughter/git/OHI&#45;Science/ohibc/summarize_zonal_stats.R </text>
<text text-anchor="middle" x="1320" y="-442.5" font-family="Courier,monospace" font-weight="bold" font-size="14.00" fill="white"> urn:uuid:53c74750&#45;d660&#45;479d&#45;8e59&#45;f54068835317</text>
</g>
<!-- b2cba129ff4ce7c9e83c13b36dc3ff95ce18b4cb4784758b3e94478d4e999b09 -->
<g id="node13" class="node"><title>b2cba129ff4ce7c9e83c13b36dc3ff95ce18b4cb4784758b3e94478d4e999b09</title>
<path fill="#ffe4b5" stroke="black" d="M649.736,-361.3C649.736,-361.3 1068.26,-361.3 1068.26,-361.3 1074.26,-361.3 1080.26,-367.3 1080.26,-373.3 1080.26,-373.3 1080.26,-385.3 1080.26,-385.3 1080.26,-391.3 1074.26,-397.3 1068.26,-397.3 1068.26,-397.3 649.736,-397.3 649.736,-397.3 643.736,-397.3 637.736,-391.3 637.736,-385.3 637.736,-385.3 637.736,-373.3 637.736,-373.3 637.736,-367.3 643.736,-361.3 649.736,-361.3"/>
<text text-anchor="middle" x="859" y="-382" font-family="Courier,monospace" font-weight="bold" font-size="9.00">/Users/slaughter/git/OHI&#45;Science/ohibc/prep/lsp/vHS/int/area_protected_3nm.csv </text>
<text text-anchor="middle" x="859" y="-371.2" font-family="Courier,monospace" font-weight="bold" font-size="9.00"> b2cba129ff4ce7c9e83c13b36dc3ff95ce18b4cb4784758b3e94478d4e999b09</text>
</g>
<!-- urn:uuid:53c74750&#45;d660&#45;479d&#45;8e59&#45;f54068835317&#45;&gt;b2cba129ff4ce7c9e83c13b36dc3ff95ce18b4cb4784758b3e94478d4e999b09 -->
<g id="edge21" class="edge"><title>urn:uuid:53c74750&#45;d660&#45;479d&#45;8e59&#45;f54068835317&#45;&gt;b2cba129ff4ce7c9e83c13b36dc3ff95ce18b4cb4784758b3e94478d4e999b09</title>
<path fill="none" stroke="black" d="M1161.67,-434.269C1096.53,-422.653 1022.83,-409.511 964.461,-399.105"/>
<polygon fill="black" stroke="black" points="964.95,-395.637 954.491,-397.327 963.721,-402.528 964.95,-395.637"/>
</g>
<!-- d792e5fe1c3c98a24dde23e00895f627ab2c0a102f5852dcc4f02e2ba9dba1eb -->
<g id="node14" class="node"><title>d792e5fe1c3c98a24dde23e00895f627ab2c0a102f5852dcc4f02e2ba9dba1eb</title>
<path fill="#ffe4b5" stroke="black" d="M1110.74,-361.3C1110.74,-361.3 1529.26,-361.3 1529.26,-361.3 1535.26,-361.3 1541.26,-367.3 1541.26,-373.3 1541.26,-373.3 1541.26,-385.3 1541.26,-385.3 1541.26,-391.3 1535.26,-397.3 1529.26,-397.3 1529.26,-397.3 1110.74,-397.3 1110.74,-397.3 1104.74,-397.3 1098.74,-391.3 1098.74,-385.3 1098.74,-385.3 1098.74,-373.3 1098.74,-373.3 1098.74,-367.3 1104.74,-361.3 1110.74,-361.3"/>
<text text-anchor="middle" x="1320" y="-382" font-family="Courier,monospace" font-weight="bold" font-size="9.00">/Users/slaughter/git/OHI&#45;Science/ohibc/prep/lsp/vHS/int/area_protected_1km.csv </text>
<text text-anchor="middle" x="1320" y="-371.2" font-family="Courier,monospace" font-weight="bold" font-size="9.00"> d792e5fe1c3c98a24dde23e00895f627ab2c0a102f5852dcc4f02e2ba9dba1eb</text>
</g>
<!-- urn:uuid:53c74750&#45;d660&#45;479d&#45;8e59&#45;f54068835317&#45;&gt;d792e5fe1c3c98a24dde23e00895f627ab2c0a102f5852dcc4f02e2ba9dba1eb -->
<g id="edge22" class="edge"><title>urn:uuid:53c74750&#45;d660&#45;479d&#45;8e59&#45;f54068835317&#45;&gt;d792e5fe1c3c98a24dde23e00895f627ab2c0a102f5852dcc4f02e2ba9dba1eb</title>
<path fill="none" stroke="black" d="M1320,-434.211C1320,-425.591 1320,-416.135 1320,-407.582"/>
<polygon fill="black" stroke="black" points="1323.5,-407.363 1320,-397.363 1316.5,-407.363 1323.5,-407.363"/>
</g>
<!-- bc918e73e8ffd7509cfd2f5173f4d13b17e620340a6ddae47c56f3b7697be7b1 -->
<g id="node17" class="node"><title>bc918e73e8ffd7509cfd2f5173f4d13b17e620340a6ddae47c56f3b7697be7b1</title>
<path fill="#ffe4b5" stroke="black" d="M1571.44,-361.3C1571.44,-361.3 1984.56,-361.3 1984.56,-361.3 1990.56,-361.3 1996.56,-367.3 1996.56,-373.3 1996.56,-373.3 1996.56,-385.3 1996.56,-385.3 1996.56,-391.3 1990.56,-397.3 1984.56,-397.3 1984.56,-397.3 1571.44,-397.3 1571.44,-397.3 1565.44,-397.3 1559.44,-391.3 1559.44,-385.3 1559.44,-385.3 1559.44,-373.3 1559.44,-373.3 1559.44,-367.3 1565.44,-361.3 1571.44,-361.3"/>
<text text-anchor="middle" x="1778" y="-382" font-family="Courier,monospace" font-weight="bold" font-size="9.00">/Users/slaughter/git/OHI&#45;Science/ohibc/prep/lsp/vHS/int/area_protected_ws.csv </text>
<text text-anchor="middle" x="1778" y="-371.2" font-family="Courier,monospace" font-weight="bold" font-size="9.00"> bc918e73e8ffd7509cfd2f5173f4d13b17e620340a6ddae47c56f3b7697be7b1</text>
</g>
<!-- urn:uuid:53c74750&#45;d660&#45;479d&#45;8e59&#45;f54068835317&#45;&gt;bc918e73e8ffd7509cfd2f5173f4d13b17e620340a6ddae47c56f3b7697be7b1 -->
<g id="edge24" class="edge"><title>urn:uuid:53c74750&#45;d660&#45;479d&#45;8e59&#45;f54068835317&#45;&gt;bc918e73e8ffd7509cfd2f5173f4d13b17e620340a6ddae47c56f3b7697be7b1</title>
<path fill="none" stroke="black" d="M1477.3,-434.269C1542.02,-422.653 1615.24,-409.511 1673.22,-399.105"/>
<polygon fill="black" stroke="black" points="1673.91,-402.538 1683.13,-397.327 1672.67,-395.648 1673.91,-402.538"/>
</g>
<!-- urn:uuid:f5d6b763&#45;c953&#45;48f4&#45;9a39&#45;4a61f45bfdd3 -->
<g id="node3" class="node"><title>urn:uuid:f5d6b763&#45;c953&#45;48f4&#45;9a39&#45;4a61f45bfdd3</title>
<polygon fill="black" stroke="black" points="1068.44,-602.7 1068.44,-661.1 1571.56,-661.1 1571.56,-602.7 1068.44,-602.7"/>
<text text-anchor="middle" x="1320" y="-644.5" font-family="Courier,monospace" font-weight="bold" font-size="14.00" fill="white">ohibc run 1 </text>
<text text-anchor="middle" x="1320" y="-627.7" font-family="Courier,monospace" font-weight="bold" font-size="14.00" fill="white"> /Users/slaughter/git/OHI&#45;Science/ohibc/lsp_zonal_stats.R </text>
<text text-anchor="middle" x="1320" y="-610.9" font-family="Courier,monospace" font-weight="bold" font-size="14.00" fill="white"> urn:uuid:f5d6b763&#45;c953&#45;48f4&#45;9a39&#45;4a61f45bfdd3</text>
</g>
<!-- cf404cbfa31cc0f7f4a397632797d8aa416eb621a214569945c833594b16b3c3 -->
<g id="node9" class="node"><title>cf404cbfa31cc0f7f4a397632797d8aa416eb621a214569945c833594b16b3c3</title>
<path fill="#ffe4b5" stroke="black" d="M679.534,-529.7C679.534,-529.7 1076.47,-529.7 1076.47,-529.7 1082.47,-529.7 1088.47,-535.7 1088.47,-541.7 1088.47,-541.7 1088.47,-553.7 1088.47,-553.7 1088.47,-559.7 1082.47,-565.7 1076.47,-565.7 1076.47,-565.7 679.534,-565.7 679.534,-565.7 673.534,-565.7 667.534,-559.7 667.534,-553.7 667.534,-553.7 667.534,-541.7 667.534,-541.7 667.534,-535.7 673.534,-529.7 679.534,-529.7"/>
<text text-anchor="middle" x="878" y="-550.4" font-family="Courier,monospace" font-weight="bold" font-size="9.00">/Users/slaughter/git/OHI&#45;Science/ohibc/prep/lsp/vHS/int/zonal_stats_ws.csv </text>
<text text-anchor="middle" x="878" y="-539.6" font-family="Courier,monospace" font-weight="bold" font-size="9.00"> cf404cbfa31cc0f7f4a397632797d8aa416eb621a214569945c833594b16b3c3</text>
</g>
<!-- urn:uuid:f5d6b763&#45;c953&#45;48f4&#45;9a39&#45;4a61f45bfdd3&#45;&gt;cf404cbfa31cc0f7f4a397632797d8aa416eb621a214569945c833594b16b3c3 -->
<g id="edge17" class="edge"><title>urn:uuid:f5d6b763&#45;c953&#45;48f4&#45;9a39&#45;4a61f45bfdd3&#45;&gt;cf404cbfa31cc0f7f4a397632797d8aa416eb621a214569945c833594b16b3c3</title>
<path fill="none" stroke="black" d="M1168.2,-602.669C1105.87,-591.077 1035.37,-577.966 979.462,-567.569"/>
<polygon fill="black" stroke="black" points="980.027,-564.114 969.555,-565.727 978.747,-570.996 980.027,-564.114"/>
</g>
<!-- e4f5dd01c6b2e03bbe67419aa6ea9c20d938478e5523a2b6dc057413f6db2bf5 -->
<g id="node18" class="node"><title>e4f5dd01c6b2e03bbe67419aa6ea9c20d938478e5523a2b6dc057413f6db2bf5</title>
<path fill="#ffe4b5" stroke="black" d="M1118.83,-529.7C1118.83,-529.7 1521.17,-529.7 1521.17,-529.7 1527.17,-529.7 1533.17,-535.7 1533.17,-541.7 1533.17,-541.7 1533.17,-553.7 1533.17,-553.7 1533.17,-559.7 1527.17,-565.7 1521.17,-565.7 1521.17,-565.7 1118.83,-565.7 1118.83,-565.7 1112.83,-565.7 1106.83,-559.7 1106.83,-553.7 1106.83,-553.7 1106.83,-541.7 1106.83,-541.7 1106.83,-535.7 1112.83,-529.7 1118.83,-529.7"/>
<text text-anchor="middle" x="1320" y="-550.4" font-family="Courier,monospace" font-weight="bold" font-size="9.00">/Users/slaughter/git/OHI&#45;Science/ohibc/prep/lsp/vHS/int/zonal_stats_3nm.csv </text>
<text text-anchor="middle" x="1320" y="-539.6" font-family="Courier,monospace" font-weight="bold" font-size="9.00"> e4f5dd01c6b2e03bbe67419aa6ea9c20d938478e5523a2b6dc057413f6db2bf5</text>
</g>
<!-- urn:uuid:f5d6b763&#45;c953&#45;48f4&#45;9a39&#45;4a61f45bfdd3&#45;&gt;e4f5dd01c6b2e03bbe67419aa6ea9c20d938478e5523a2b6dc057413f6db2bf5 -->
<g id="edge25" class="edge"><title>urn:uuid:f5d6b763&#45;c953&#45;48f4&#45;9a39&#45;4a61f45bfdd3&#45;&gt;e4f5dd01c6b2e03bbe67419aa6ea9c20d938478e5523a2b6dc057413f6db2bf5</title>
<path fill="none" stroke="black" d="M1320,-602.611C1320,-593.991 1320,-584.535 1320,-575.982"/>
<polygon fill="black" stroke="black" points="1323.5,-575.763 1320,-565.763 1316.5,-575.763 1323.5,-575.763"/>
</g>
<!-- 1a8556ac0c8124864b109286a0d419b9213d0084cc831c813a5905e887c291a1 -->
<g id="node21" class="node"><title>1a8556ac0c8124864b109286a0d419b9213d0084cc831c813a5905e887c291a1</title>
<path fill="#ffe4b5" stroke="black" d="M1562.83,-529.7C1562.83,-529.7 1965.17,-529.7 1965.17,-529.7 1971.17,-529.7 1977.17,-535.7 1977.17,-541.7 1977.17,-541.7 1977.17,-553.7 1977.17,-553.7 1977.17,-559.7 1971.17,-565.7 1965.17,-565.7 1965.17,-565.7 1562.83,-565.7 1562.83,-565.7 1556.83,-565.7 1550.83,-559.7 1550.83,-553.7 1550.83,-553.7 1550.83,-541.7 1550.83,-541.7 1550.83,-535.7 1556.83,-529.7 1562.83,-529.7"/>
<text text-anchor="middle" x="1764" y="-550.4" font-family="Courier,monospace" font-weight="bold" font-size="9.00">/Users/slaughter/git/OHI&#45;Science/ohibc/prep/lsp/vHS/int/zonal_stats_1km.csv </text>
<text text-anchor="middle" x="1764" y="-539.6" font-family="Courier,monospace" font-weight="bold" font-size="9.00"> 1a8556ac0c8124864b109286a0d419b9213d0084cc831c813a5905e887c291a1</text>
</g>
<!-- urn:uuid:f5d6b763&#45;c953&#45;48f4&#45;9a39&#45;4a61f45bfdd3&#45;&gt;1a8556ac0c8124864b109286a0d419b9213d0084cc831c813a5905e887c291a1 -->
<g id="edge28" class="edge"><title>urn:uuid:f5d6b763&#45;c953&#45;48f4&#45;9a39&#45;4a61f45bfdd3&#45;&gt;1a8556ac0c8124864b109286a0d419b9213d0084cc831c813a5905e887c291a1</title>
<path fill="none" stroke="black" d="M1472.49,-602.669C1535.1,-591.077 1605.92,-577.966 1662.08,-567.569"/>
<polygon fill="black" stroke="black" points="1662.83,-570.989 1672.03,-565.727 1661.56,-564.106 1662.83,-570.989"/>
</g>
<!-- urn:uuid:167b320e&#45;9143&#45;4084&#45;882e&#45;7d19914767c0 -->
<g id="node4" class="node"><title>urn:uuid:167b320e&#45;9143&#45;4084&#45;882e&#45;7d19914767c0</title>
<polygon fill="black" stroke="black" points="114.045,-771.1 114.045,-829.5 675.955,-829.5 675.955,-771.1 114.045,-771.1"/>
<text text-anchor="middle" x="395" y="-812.9" font-family="Courier,monospace" font-weight="bold" font-size="14.00" fill="white">ohibc run 1 </text>
<text text-anchor="middle" x="395" y="-796.1" font-family="Courier,monospace" font-weight="bold" font-size="14.00" fill="white"> /Users/slaughter/git/OHI&#45;Science/ohibc/setup_watershed_raster.R </text>
<text text-anchor="middle" x="395" y="-779.3" font-family="Courier,monospace" font-weight="bold" font-size="14.00" fill="white"> urn:uuid:167b320e&#45;9143&#45;4084&#45;882e&#45;7d19914767c0</text>
</g>
<!-- 98c477e500188e52b2399aec3cc8d1cecefa6315c5ed6bf6f36f8252e7c6103c -->
<g id="node10" class="node"><title>98c477e500188e52b2399aec3cc8d1cecefa6315c5ed6bf6f36f8252e7c6103c</title>
<path fill="#ffe4b5" stroke="black" d="M36.0405,-698.1C36.0405,-698.1 513.959,-698.1 513.959,-698.1 519.959,-698.1 525.959,-704.1 525.959,-710.1 525.959,-710.1 525.959,-722.1 525.959,-722.1 525.959,-728.1 519.959,-734.1 513.959,-734.1 513.959,-734.1 36.0405,-734.1 36.0405,-734.1 30.0405,-734.1 24.0405,-728.1 24.0405,-722.1 24.0405,-722.1 24.0405,-710.1 24.0405,-710.1 24.0405,-704.1 30.0405,-698.1 36.0405,-698.1"/>
<text text-anchor="middle" x="275" y="-718.8" font-family="Courier,monospace" font-weight="bold" font-size="9.00">/Users/slaughter/git/OHI&#45;Science/ohibc/prep/lsp/vHS/spatial/howe_sound_watershed_500m.tif </text>
<text text-anchor="middle" x="275" y="-708" font-family="Courier,monospace" font-weight="bold" font-size="9.00"> 98c477e500188e52b2399aec3cc8d1cecefa6315c5ed6bf6f36f8252e7c6103c</text>
</g>
<!-- urn:uuid:167b320e&#45;9143&#45;4084&#45;882e&#45;7d19914767c0&#45;&gt;98c477e500188e52b2399aec3cc8d1cecefa6315c5ed6bf6f36f8252e7c6103c -->
<g id="edge18" class="edge"><title>urn:uuid:167b320e&#45;9143&#45;4084&#45;882e&#45;7d19914767c0&#45;&gt;98c477e500188e52b2399aec3cc8d1cecefa6315c5ed6bf6f36f8252e7c6103c</title>
<path fill="none" stroke="black" d="M353.703,-771.011C338.881,-760.858 322.367,-749.546 308.309,-739.916"/>
<polygon fill="black" stroke="black" points="310.138,-736.927 299.91,-734.163 306.182,-742.702 310.138,-736.927"/>
</g>
<!-- urn:uuid:3d6c8ed0&#45;83c0&#45;4b12&#45;9154&#45;2804f4317598 -->
<g id="node5" class="node"><title>urn:uuid:3d6c8ed0&#45;83c0&#45;4b12&#45;9154&#45;2804f4317598</title>
<polygon fill="black" stroke="black" points="874.444,-771.1 874.444,-829.5 1419.56,-829.5 1419.56,-771.1 874.444,-771.1"/>
<text text-anchor="middle" x="1147" y="-812.9" font-family="Courier,monospace" font-weight="bold" font-size="14.00" fill="white">ohibc run 1 </text>
<text text-anchor="middle" x="1147" y="-796.1" font-family="Courier,monospace" font-weight="bold" font-size="14.00" fill="white"> /Users/slaughter/git/OHI&#45;Science/ohibc/get_analysis_rasters.R </text>
<text text-anchor="middle" x="1147" y="-779.3" font-family="Courier,monospace" font-weight="bold" font-size="14.00" fill="white"> urn:uuid:3d6c8ed0&#45;83c0&#45;4b12&#45;9154&#45;2804f4317598</text>
</g>
<!-- 85130403e425f79e80e52e3fcaa9c116f5cc0b01c4aa7ea4078c21c08d6ac2fd -->
<g id="node8" class="node"><title>85130403e425f79e80e52e3fcaa9c116f5cc0b01c4aa7ea4078c21c08d6ac2fd</title>
<path fill="#ffe4b5" stroke="black" d="M556.041,-698.1C556.041,-698.1 1033.96,-698.1 1033.96,-698.1 1039.96,-698.1 1045.96,-704.1 1045.96,-710.1 1045.96,-710.1 1045.96,-722.1 1045.96,-722.1 1045.96,-728.1 1039.96,-734.1 1033.96,-734.1 1033.96,-734.1 556.041,-734.1 556.041,-734.1 550.041,-734.1 544.041,-728.1 544.041,-722.1 544.041,-722.1 544.041,-710.1 544.041,-710.1 544.041,-704.1 550.041,-698.1 556.041,-698.1"/>
<text text-anchor="middle" x="795" y="-718.8" font-family="Courier,monospace" font-weight="bold" font-size="9.00">/Users/slaughter/git/OHI&#45;Science/ohibc/prep/lsp/vHS/spatial/hs_inland_1km_raster_500m.tif </text>
<text text-anchor="middle" x="795" y="-708" font-family="Courier,monospace" font-weight="bold" font-size="9.00"> 85130403e425f79e80e52e3fcaa9c116f5cc0b01c4aa7ea4078c21c08d6ac2fd</text>
</g>
<!-- urn:uuid:3d6c8ed0&#45;83c0&#45;4b12&#45;9154&#45;2804f4317598&#45;&gt;85130403e425f79e80e52e3fcaa9c116f5cc0b01c4aa7ea4078c21c08d6ac2fd -->
<g id="edge16" class="edge"><title>urn:uuid:3d6c8ed0&#45;83c0&#45;4b12&#45;9154&#45;2804f4317598&#45;&gt;85130403e425f79e80e52e3fcaa9c116f5cc0b01c4aa7ea4078c21c08d6ac2fd</title>
<path fill="none" stroke="black" d="M1025.86,-771.011C976.959,-759.592 921.778,-746.706 877.63,-736.396"/>
<polygon fill="black" stroke="black" points="878.343,-732.968 867.81,-734.103 876.752,-739.785 878.343,-732.968"/>
</g>
<!-- 5ba2c041bacec6ae9b550d578fb0667523ab9d610f043b13832a0ae6e2c84e10 -->
<g id="node19" class="node"><title>5ba2c041bacec6ae9b550d578fb0667523ab9d610f043b13832a0ae6e2c84e10</title>
<path fill="#ffe4b5" stroke="black" d="M1075.64,-698.1C1075.64,-698.1 1564.36,-698.1 1564.36,-698.1 1570.36,-698.1 1576.36,-704.1 1576.36,-710.1 1576.36,-710.1 1576.36,-722.1 1576.36,-722.1 1576.36,-728.1 1570.36,-734.1 1564.36,-734.1 1564.36,-734.1 1075.64,-734.1 1075.64,-734.1 1069.64,-734.1 1063.64,-728.1 1063.64,-722.1 1063.64,-722.1 1063.64,-710.1 1063.64,-710.1 1063.64,-704.1 1069.64,-698.1 1075.64,-698.1"/>
<text text-anchor="middle" x="1320" y="-718.8" font-family="Courier,monospace" font-weight="bold" font-size="9.00">/Users/slaughter/git/OHI&#45;Science/ohibc/prep/lsp/vHS/spatial/hs_offshore_3nm_raster_500m.tif </text>
<text text-anchor="middle" x="1320" y="-708" font-family="Courier,monospace" font-weight="bold" font-size="9.00"> 5ba2c041bacec6ae9b550d578fb0667523ab9d610f043b13832a0ae6e2c84e10</text>
</g>
<!-- urn:uuid:3d6c8ed0&#45;83c0&#45;4b12&#45;9154&#45;2804f4317598&#45;&gt;5ba2c041bacec6ae9b550d578fb0667523ab9d610f043b13832a0ae6e2c84e10 -->
<g id="edge26" class="edge"><title>urn:uuid:3d6c8ed0&#45;83c0&#45;4b12&#45;9154&#45;2804f4317598&#45;&gt;5ba2c041bacec6ae9b550d578fb0667523ab9d610f043b13832a0ae6e2c84e10</title>
<path fill="none" stroke="black" d="M1206.54,-771.011C1228.91,-760.379 1253.96,-748.477 1274.82,-738.565"/>
<polygon fill="black" stroke="black" points="1276.56,-741.616 1284.09,-734.163 1273.55,-735.293 1276.56,-741.616"/>
</g>
<!-- urn:uuid:98b5270a&#45;1577&#45;4865&#45;970f&#45;17c6b0065374 -->
<g id="node6" class="node"><title>urn:uuid:98b5270a&#45;1577&#45;4865&#45;970f&#45;17c6b0065374</title>
<polygon fill="black" stroke="black" points="1527.45,-771.1 1527.45,-829.5 2114.55,-829.5 2114.55,-771.1 1527.45,-771.1"/>
<text text-anchor="middle" x="1821" y="-812.9" font-family="Courier,monospace" font-weight="bold" font-size="14.00" fill="white">ohibc run 1 </text>
<text text-anchor="middle" x="1821" y="-796.1" font-family="Courier,monospace" font-weight="bold" font-size="14.00" fill="white"> /Users/slaughter/git/OHI&#45;Science/ohibc/rasterize_HS_WDPA_and_PEP.R </text>
<text text-anchor="middle" x="1821" y="-779.3" font-family="Courier,monospace" font-weight="bold" font-size="14.00" fill="white"> urn:uuid:98b5270a&#45;1577&#45;4865&#45;970f&#45;17c6b0065374</text>
</g>
<!-- 93cca45a93cbf195aac755354840087590d4788e06768d7db90481ef9b5d9bc3 -->
<g id="node11" class="node"><title>93cca45a93cbf195aac755354840087590d4788e06768d7db90481ef9b5d9bc3</title>
<path fill="#ffe4b5" stroke="black" d="M1606.34,-698.1C1606.34,-698.1 2035.66,-698.1 2035.66,-698.1 2041.66,-698.1 2047.66,-704.1 2047.66,-710.1 2047.66,-710.1 2047.66,-722.1 2047.66,-722.1 2047.66,-728.1 2041.66,-734.1 2035.66,-734.1 2035.66,-734.1 1606.34,-734.1 1606.34,-734.1 1600.34,-734.1 1594.34,-728.1 1594.34,-722.1 1594.34,-722.1 1594.34,-710.1 1594.34,-710.1 1594.34,-704.1 1600.34,-698.1 1606.34,-698.1"/>
<text text-anchor="middle" x="1821" y="-718.8" font-family="Courier,monospace" font-weight="bold" font-size="9.00">/Users/slaughter/git/OHI&#45;Science/ohibc/prep/lsp/vHS/spatial/hs_pep_rast_500m.tif </text>
<text text-anchor="middle" x="1821" y="-708" font-family="Courier,monospace" font-weight="bold" font-size="9.00"> 93cca45a93cbf195aac755354840087590d4788e06768d7db90481ef9b5d9bc3</text>
</g>
<!-- urn:uuid:98b5270a&#45;1577&#45;4865&#45;970f&#45;17c6b0065374&#45;&gt;93cca45a93cbf195aac755354840087590d4788e06768d7db90481ef9b5d9bc3 -->
<g id="edge19" class="edge"><title>urn:uuid:98b5270a&#45;1577&#45;4865&#45;970f&#45;17c6b0065374&#45;&gt;93cca45a93cbf195aac755354840087590d4788e06768d7db90481ef9b5d9bc3</title>
<path fill="none" stroke="black" d="M1821,-771.011C1821,-762.391 1821,-752.935 1821,-744.382"/>
<polygon fill="black" stroke="black" points="1824.5,-744.163 1821,-734.163 1817.5,-744.163 1824.5,-744.163"/>
</g>
<!-- b03456556a5921cabea227978673e751441b2255f877cb183d4eeb1475105593 -->
<g id="node12" class="node"><title>b03456556a5921cabea227978673e751441b2255f877cb183d4eeb1475105593</title>
<path fill="#ffe4b5" stroke="black" d="M2077.64,-698.1C2077.64,-698.1 2512.36,-698.1 2512.36,-698.1 2518.36,-698.1 2524.36,-704.1 2524.36,-710.1 2524.36,-710.1 2524.36,-722.1 2524.36,-722.1 2524.36,-728.1 2518.36,-734.1 2512.36,-734.1 2512.36,-734.1 2077.64,-734.1 2077.64,-734.1 2071.64,-734.1 2065.64,-728.1 2065.64,-722.1 2065.64,-722.1 2065.64,-710.1 2065.64,-710.1 2065.64,-704.1 2071.64,-698.1 2077.64,-698.1"/>
<text text-anchor="middle" x="2295" y="-718.8" font-family="Courier,monospace" font-weight="bold" font-size="9.00">/Users/slaughter/git/OHI&#45;Science/ohibc/prep/lsp/vHS/spatial/hs_wdpa_rast_500m.tif </text>
<text text-anchor="middle" x="2295" y="-708" font-family="Courier,monospace" font-weight="bold" font-size="9.00"> b03456556a5921cabea227978673e751441b2255f877cb183d4eeb1475105593</text>
</g>
<!-- urn:uuid:98b5270a&#45;1577&#45;4865&#45;970f&#45;17c6b0065374&#45;&gt;b03456556a5921cabea227978673e751441b2255f877cb183d4eeb1475105593 -->
<g id="edge20" class="edge"><title>urn:uuid:98b5270a&#45;1577&#45;4865&#45;970f&#45;17c6b0065374&#45;&gt;b03456556a5921cabea227978673e751441b2255f877cb183d4eeb1475105593</title>
<path fill="none" stroke="black" d="M1983.79,-771.069C2050.91,-759.429 2126.87,-746.257 2186.94,-735.84"/>
<polygon fill="black" stroke="black" points="2187.56,-739.284 2196.82,-734.127 2186.37,-732.387 2187.56,-739.284"/>
</g>
<!-- urn:uuid:53ada2f7&#45;5e25&#45;4845&#45;883e&#45;1049a90c321c -->
<g id="node7" class="node"><title>urn:uuid:53ada2f7&#45;5e25&#45;4845&#45;883e&#45;1049a90c321c</title>
<polygon fill="black" stroke="black" points="992.853,-97.5 992.853,-155.9 1647.15,-155.9 1647.15,-97.5 992.853,-97.5"/>
<text text-anchor="middle" x="1320" y="-139.3" font-family="Courier,monospace" font-weight="bold" font-size="14.00" fill="white">ohibc run 1 </text>
<text text-anchor="middle" x="1320" y="-122.5" font-family="Courier,monospace" font-weight="bold" font-size="14.00" fill="white"> /Users/slaughter/git/OHI&#45;Science/ohibc/estimate_status_and_trend_by_year.R </text>
<text text-anchor="middle" x="1320" y="-105.7" font-family="Courier,monospace" font-weight="bold" font-size="14.00" fill="white"> urn:uuid:53ada2f7&#45;5e25&#45;4845&#45;883e&#45;1049a90c321c</text>
</g>
<!-- 510e09f1f3ef8fcbc38c43a40e1698cea99ebea15fd64a26339169ba6ce238fc -->
<g id="node16" class="node"><title>510e09f1f3ef8fcbc38c43a40e1698cea99ebea15fd64a26339169ba6ce238fc</title>
<path fill="#ffe4b5" stroke="black" d="M1124.23,-24.5C1124.23,-24.5 1515.77,-24.5 1515.77,-24.5 1521.77,-24.5 1527.77,-30.5 1527.77,-36.5 1527.77,-36.5 1527.77,-48.5 1527.77,-48.5 1527.77,-54.5 1521.77,-60.5 1515.77,-60.5 1515.77,-60.5 1124.23,-60.5 1124.23,-60.5 1118.23,-60.5 1112.23,-54.5 1112.23,-48.5 1112.23,-48.5 1112.23,-36.5 1112.23,-36.5 1112.23,-30.5 1118.23,-24.5 1124.23,-24.5"/>
<text text-anchor="middle" x="1320" y="-45.2" font-family="Courier,monospace" font-weight="bold" font-size="9.00">/Users/slaughter/git/OHI&#45;Science/ohibc/prep/lsp/vHS/output/lsp_status.csv </text>
<text text-anchor="middle" x="1320" y="-34.4" font-family="Courier,monospace" font-weight="bold" font-size="9.00"> 510e09f1f3ef8fcbc38c43a40e1698cea99ebea15fd64a26339169ba6ce238fc</text>
</g>
<!-- urn:uuid:53ada2f7&#45;5e25&#45;4845&#45;883e&#45;1049a90c321c&#45;&gt;510e09f1f3ef8fcbc38c43a40e1698cea99ebea15fd64a26339169ba6ce238fc -->
<g id="edge23" class="edge"><title>urn:uuid:53ada2f7&#45;5e25&#45;4845&#45;883e&#45;1049a90c321c&#45;&gt;510e09f1f3ef8fcbc38c43a40e1698cea99ebea15fd64a26339169ba6ce238fc</title>
<path fill="none" stroke="black" d="M1320,-97.4114C1320,-88.7909 1320,-79.3349 1320,-70.7823"/>
<polygon fill="black" stroke="black" points="1323.5,-70.563 1320,-60.5631 1316.5,-70.5631 1323.5,-70.563"/>
</g>
<!-- 85130403e425f79e80e52e3fcaa9c116f5cc0b01c4aa7ea4078c21c08d6ac2fd&#45;&gt;urn:uuid:f5d6b763&#45;c953&#45;48f4&#45;9a39&#45;4a61f45bfdd3 -->
<g id="edge12" class="edge"><title>85130403e425f79e80e52e3fcaa9c116f5cc0b01c4aa7ea4078c21c08d6ac2fd&#45;&gt;urn:uuid:f5d6b763&#45;c953&#45;48f4&#45;9a39&#45;4a61f45bfdd3</title>
<path fill="none" stroke="black" d="M903.78,-698.068C968.957,-687.863 1053.65,-674.602 1129.62,-662.708"/>
<polygon fill="black" stroke="black" points="1130.46,-666.12 1139.79,-661.115 1129.37,-659.204 1130.46,-666.12"/>
</g>
<!-- cf404cbfa31cc0f7f4a397632797d8aa416eb621a214569945c833594b16b3c3&#45;&gt;urn:uuid:53c74750&#45;d660&#45;479d&#45;8e59&#45;f54068835317 -->
<g id="edge13" class="edge"><title>cf404cbfa31cc0f7f4a397632797d8aa416eb621a214569945c833594b16b3c3&#45;&gt;urn:uuid:53c74750&#45;d660&#45;479d&#45;8e59&#45;f54068835317</title>
<path fill="none" stroke="black" d="M969.583,-529.668C1023.95,-519.558 1094.44,-506.447 1157.94,-494.639"/>
<polygon fill="black" stroke="black" points="1158.87,-498.025 1168.07,-492.756 1157.59,-491.143 1158.87,-498.025"/>
</g>
<!-- 98c477e500188e52b2399aec3cc8d1cecefa6315c5ed6bf6f36f8252e7c6103c&#45;&gt;urn:uuid:f5d6b763&#45;c953&#45;48f4&#45;9a39&#45;4a61f45bfdd3 -->
<g id="edge14" class="edge"><title>98c477e500188e52b2399aec3cc8d1cecefa6315c5ed6bf6f36f8252e7c6103c&#45;&gt;urn:uuid:f5d6b763&#45;c953&#45;48f4&#45;9a39&#45;4a61f45bfdd3</title>
<path fill="none" stroke="black" d="M491.208,-698.093C655.828,-685.144 883.148,-667.263 1058.09,-653.502"/>
<polygon fill="black" stroke="black" points="1058.52,-656.979 1068.21,-652.706 1057.97,-650.001 1058.52,-656.979"/>
</g>
<!-- 93cca45a93cbf195aac755354840087590d4788e06768d7db90481ef9b5d9bc3&#45;&gt;urn:uuid:f5d6b763&#45;c953&#45;48f4&#45;9a39&#45;4a61f45bfdd3 -->
<g id="edge15" class="edge"><title>93cca45a93cbf195aac755354840087590d4788e06768d7db90481ef9b5d9bc3&#45;&gt;urn:uuid:f5d6b763&#45;c953&#45;48f4&#45;9a39&#45;4a61f45bfdd3</title>
<path fill="none" stroke="black" d="M1717.19,-698.068C1655.19,-687.895 1574.68,-674.685 1502.36,-662.821"/>
<polygon fill="black" stroke="black" points="1502.65,-659.321 1492.22,-661.156 1501.52,-666.229 1502.65,-659.321"/>
</g>
<!-- b03456556a5921cabea227978673e751441b2255f877cb183d4eeb1475105593&#45;&gt;urn:uuid:f5d6b763&#45;c953&#45;48f4&#45;9a39&#45;4a61f45bfdd3 -->
<g id="edge1" class="edge"><title>b03456556a5921cabea227978673e751441b2255f877cb183d4eeb1475105593&#45;&gt;urn:uuid:f5d6b763&#45;c953&#45;48f4&#45;9a39&#45;4a61f45bfdd3</title>
<path fill="none" stroke="black" d="M2093.28,-698.093C1945.1,-685.601 1742.48,-668.518 1581.82,-654.974"/>
<polygon fill="black" stroke="black" points="1582.05,-651.48 1571.79,-654.128 1581.46,-658.455 1582.05,-651.48"/>
</g>
<!-- b2cba129ff4ce7c9e83c13b36dc3ff95ce18b4cb4784758b3e94478d4e999b09&#45;&gt;urn:uuid:4fcd5da4&#45;67af&#45;4f8d&#45;ad36&#45;c9cdf45621d4 -->
<g id="edge2" class="edge"><title>b2cba129ff4ce7c9e83c13b36dc3ff95ce18b4cb4784758b3e94478d4e999b09&#45;&gt;urn:uuid:4fcd5da4&#45;67af&#45;4f8d&#45;ad36&#45;c9cdf45621d4</title>
<path fill="none" stroke="black" d="M954.519,-361.268C1011.34,-351.137 1085.05,-337.993 1151.38,-326.166"/>
<polygon fill="black" stroke="black" points="1152.3,-329.557 1161.53,-324.356 1151.07,-322.666 1152.3,-329.557"/>
</g>
<!-- d792e5fe1c3c98a24dde23e00895f627ab2c0a102f5852dcc4f02e2ba9dba1eb&#45;&gt;urn:uuid:4fcd5da4&#45;67af&#45;4f8d&#45;ad36&#45;c9cdf45621d4 -->
<g id="edge3" class="edge"><title>d792e5fe1c3c98a24dde23e00895f627ab2c0a102f5852dcc4f02e2ba9dba1eb&#45;&gt;urn:uuid:4fcd5da4&#45;67af&#45;4f8d&#45;ad36&#45;c9cdf45621d4</title>
<path fill="none" stroke="black" d="M1320,-361.268C1320,-353.463 1320,-343.871 1320,-334.47"/>
<polygon fill="black" stroke="black" points="1323.5,-334.437 1320,-324.437 1316.5,-334.437 1323.5,-334.437"/>
</g>
<!-- d77ded5e2122bfb7ccdd9a65fae815516063a2249b3173f188e00dc850cefc9c -->
<g id="node15" class="node"><title>d77ded5e2122bfb7ccdd9a65fae815516063a2249b3173f188e00dc850cefc9c</title>
<path fill="#ffe4b5" stroke="black" d="M921.538,-866.5C921.538,-866.5 1372.46,-866.5 1372.46,-866.5 1378.46,-866.5 1384.46,-872.5 1384.46,-878.5 1384.46,-878.5 1384.46,-890.5 1384.46,-890.5 1384.46,-896.5 1378.46,-902.5 1372.46,-902.5 1372.46,-902.5 921.538,-902.5 921.538,-902.5 915.538,-902.5 909.538,-896.5 909.538,-890.5 909.538,-890.5 909.538,-878.5 909.538,-878.5 909.538,-872.5 915.538,-866.5 921.538,-866.5"/>
<text text-anchor="middle" x="1147" y="-887.2" font-family="Courier,monospace" font-weight="bold" font-size="9.00">/Users/slaughter/git/OHI&#45;Science/ohibc/prep/spatial/raster/ohibc_rgn_raster_500m.tif </text>
<text text-anchor="middle" x="1147" y="-876.4" font-family="Courier,monospace" font-weight="bold" font-size="9.00"> d77ded5e2122bfb7ccdd9a65fae815516063a2249b3173f188e00dc850cefc9c</text>
</g>
<!-- d77ded5e2122bfb7ccdd9a65fae815516063a2249b3173f188e00dc850cefc9c&#45;&gt;urn:uuid:167b320e&#45;9143&#45;4084&#45;882e&#45;7d19914767c0 -->
<g id="edge6" class="edge"><title>d77ded5e2122bfb7ccdd9a65fae815516063a2249b3173f188e00dc850cefc9c&#45;&gt;urn:uuid:167b320e&#45;9143&#45;4084&#45;882e&#45;7d19914767c0</title>
<path fill="none" stroke="black" d="M991.185,-866.468C896.589,-856.128 773.284,-842.65 663.377,-830.636"/>
<polygon fill="black" stroke="black" points="663.445,-827.123 653.124,-829.515 662.684,-834.081 663.445,-827.123"/>
</g>
<!-- d77ded5e2122bfb7ccdd9a65fae815516063a2249b3173f188e00dc850cefc9c&#45;&gt;urn:uuid:3d6c8ed0&#45;83c0&#45;4b12&#45;9154&#45;2804f4317598 -->
<g id="edge5" class="edge"><title>d77ded5e2122bfb7ccdd9a65fae815516063a2249b3173f188e00dc850cefc9c&#45;&gt;urn:uuid:3d6c8ed0&#45;83c0&#45;4b12&#45;9154&#45;2804f4317598</title>
<path fill="none" stroke="black" d="M1147,-866.468C1147,-858.663 1147,-849.071 1147,-839.67"/>
<polygon fill="black" stroke="black" points="1150.5,-839.637 1147,-829.637 1143.5,-839.637 1150.5,-839.637"/>
</g>
<!-- d77ded5e2122bfb7ccdd9a65fae815516063a2249b3173f188e00dc850cefc9c&#45;&gt;urn:uuid:98b5270a&#45;1577&#45;4865&#45;970f&#45;17c6b0065374 -->
<g id="edge4" class="edge"><title>d77ded5e2122bfb7ccdd9a65fae815516063a2249b3173f188e00dc850cefc9c&#45;&gt;urn:uuid:98b5270a&#45;1577&#45;4865&#45;970f&#45;17c6b0065374</title>
<path fill="none" stroke="black" d="M1286.65,-866.468C1371.18,-856.159 1481.29,-842.731 1579.57,-830.745"/>
<polygon fill="black" stroke="black" points="1580.15,-834.2 1589.65,-829.515 1579.3,-827.252 1580.15,-834.2"/>
</g>
<!-- bc918e73e8ffd7509cfd2f5173f4d13b17e620340a6ddae47c56f3b7697be7b1&#45;&gt;urn:uuid:4fcd5da4&#45;67af&#45;4f8d&#45;ad36&#45;c9cdf45621d4 -->
<g id="edge7" class="edge"><title>bc918e73e8ffd7509cfd2f5173f4d13b17e620340a6ddae47c56f3b7697be7b1&#45;&gt;urn:uuid:4fcd5da4&#45;67af&#45;4f8d&#45;ad36&#45;c9cdf45621d4</title>
<path fill="none" stroke="black" d="M1683.1,-361.268C1626.65,-351.137 1553.42,-337.993 1487.52,-326.166"/>
<polygon fill="black" stroke="black" points="1487.9,-322.677 1477.43,-324.356 1486.66,-329.567 1487.9,-322.677"/>
</g>
<!-- e4f5dd01c6b2e03bbe67419aa6ea9c20d938478e5523a2b6dc057413f6db2bf5&#45;&gt;urn:uuid:53c74750&#45;d660&#45;479d&#45;8e59&#45;f54068835317 -->
<g id="edge8" class="edge"><title>e4f5dd01c6b2e03bbe67419aa6ea9c20d938478e5523a2b6dc057413f6db2bf5&#45;&gt;urn:uuid:53c74750&#45;d660&#45;479d&#45;8e59&#45;f54068835317</title>
<path fill="none" stroke="black" d="M1320,-529.668C1320,-521.863 1320,-512.271 1320,-502.87"/>
<polygon fill="black" stroke="black" points="1323.5,-502.837 1320,-492.837 1316.5,-502.837 1323.5,-502.837"/>
</g>
<!-- 5ba2c041bacec6ae9b550d578fb0667523ab9d610f043b13832a0ae6e2c84e10&#45;&gt;urn:uuid:f5d6b763&#45;c953&#45;48f4&#45;9a39&#45;4a61f45bfdd3 -->
<g id="edge9" class="edge"><title>5ba2c041bacec6ae9b550d578fb0667523ab9d610f043b13832a0ae6e2c84e10&#45;&gt;urn:uuid:f5d6b763&#45;c953&#45;48f4&#45;9a39&#45;4a61f45bfdd3</title>
<path fill="none" stroke="black" d="M1320,-698.068C1320,-690.263 1320,-680.671 1320,-671.27"/>
<polygon fill="black" stroke="black" points="1323.5,-671.237 1320,-661.237 1316.5,-671.237 1323.5,-671.237"/>
</g>
<!-- 9c23639cf9ce610831cc57a78e88bd8ff8b67a46253aff39154b57b58ab60832&#45;&gt;urn:uuid:53ada2f7&#45;5e25&#45;4845&#45;883e&#45;1049a90c321c -->
<g id="edge10" class="edge"><title>9c23639cf9ce610831cc57a78e88bd8ff8b67a46253aff39154b57b58ab60832&#45;&gt;urn:uuid:53ada2f7&#45;5e25&#45;4845&#45;883e&#45;1049a90c321c</title>
<path fill="none" stroke="black" d="M1320,-192.868C1320,-185.063 1320,-175.471 1320,-166.07"/>
<polygon fill="black" stroke="black" points="1323.5,-166.037 1320,-156.037 1316.5,-166.037 1323.5,-166.037"/>
</g>
<!-- 1a8556ac0c8124864b109286a0d419b9213d0084cc831c813a5905e887c291a1&#45;&gt;urn:uuid:53c74750&#45;d660&#45;479d&#45;8e59&#45;f54068835317 -->
<g id="edge11" class="edge"><title>1a8556ac0c8124864b109286a0d419b9213d0084cc831c813a5905e887c291a1&#45;&gt;urn:uuid:53c74750&#45;d660&#45;479d&#45;8e59&#45;f54068835317</title>
<path fill="none" stroke="black" d="M1672,-529.668C1617.39,-519.558 1546.58,-506.447 1482.8,-494.639"/>
<polygon fill="black" stroke="black" points="1483.09,-491.135 1472.62,-492.756 1481.82,-498.018 1483.09,-491.135"/>
</g>
</g>
</svg>
